<?xml version="1.0" encoding="UTF-8" standalone="no"?>
<!-- Created with Inkscape (http://www.inkscape.org/) -->

<svg
   width="25.656219"
   height="27.836"
   viewBox="0 0 6.7882081 7.3649435"
   version="1.1"
   id="svg5"
   inkscape:version="1.2.1 (9c6d41e410, 2022-07-14)"
   sodipodi:docname="charactersTabIcon.svg"
   xml:space="preserve"
   xmlns:inkscape="http://www.inkscape.org/namespaces/inkscape"
   xmlns:sodipodi="http://sodipodi.sourceforge.net/DTD/sodipodi-0.dtd"
   xmlns="http://www.w3.org/2000/svg"
   xmlns:svg="http://www.w3.org/2000/svg"><sodipodi:namedview
     id="namedview7"
     pagecolor="#505050"
     bordercolor="#ffffff"
     borderopacity="1"
     inkscape:showpageshadow="0"
     inkscape:pageopacity="1"
     inkscape:pagecheckerboard="1"
     inkscape:deskcolor="#505050"
     inkscape:document-units="mm"
     showgrid="true"
     inkscape:zoom="11.888236"
     inkscape:cx="15.771894"
     inkscape:cy="24.772388"
     inkscape:window-width="1920"
     inkscape:window-height="1009"
     inkscape:window-x="-8"
     inkscape:window-y="-8"
     inkscape:window-maximized="1"
     inkscape:current-layer="g8631"
     showguides="true"><inkscape:grid
       type="xygrid"
       id="grid132"
       visible="true"
       color="#ffffff"
       opacity="0.02352941"
       empcolor="#777777"
       empopacity="0.16470588"
       originx="0"
       originy="0"
       enabled="false" /></sodipodi:namedview><defs
     id="defs2"><linearGradient
       id="linearGradient15646"
       inkscape:swatch="solid"><stop
         style="stop-color:#cce8ff;stop-opacity:1;"
         offset="0"
         id="stop15644" /></linearGradient><linearGradient
       id="linearGradient3480"
       inkscape:swatch="solid"><stop
         style="stop-color:#59656f;stop-opacity:1;"
         offset="0"
         id="stop3478" /></linearGradient><linearGradient
       id="linearGradient26821"
       inkscape:swatch="solid"><stop
         style="stop-color:#000000;stop-opacity:1;"
         offset="0"
         id="stop26819" /></linearGradient><linearGradient
       id="linearGradient26807"
       inkscape:swatch="solid"><stop
         style="stop-color:#000000;stop-opacity:1;"
         offset="0"
         id="stop26805" /></linearGradient><linearGradient
       id="linearGradient19651"
       inkscape:swatch="solid"><stop
         style="stop-color:#000000;stop-opacity:1;"
         offset="0"
         id="stop19649" /></linearGradient><linearGradient
       id="linearGradient6477"
       inkscape:swatch="solid"
       gradientTransform="matrix(-4.4918513e-6,5.2220333e-6,1.1440649e-5,1.3300351e-5,51.172591,-0.3288525)"><stop
         style="stop-color:#f89568;stop-opacity:1;"
         offset="0"
         id="stop6475" /></linearGradient><linearGradient
       id="linearGradient9776"
       inkscape:swatch="solid"
       gradientTransform="matrix(9.0769027e-5,0,0,9.0769027e-5,-0.51055264,0.83863903)"><stop
         style="stop-color:#b2b7be;stop-opacity:1;"
         offset="0"
         id="stop9774" /></linearGradient><linearGradient
       id="linearGradient1642"
       inkscape:swatch="solid"
       gradientTransform="matrix(0.53491831,0,0,1.6710713,578.25432,638.40486)"><stop
         style="stop-color:#75c590;stop-opacity:1;"
         offset="0"
         id="stop1640" /></linearGradient><linearGradient
       id="linearGradient1636"
       inkscape:swatch="solid"
       gradientTransform="matrix(2.372496e-4,0,0,-2.7055498e-4,-99.855184,269.11388)"><stop
         style="stop-color:#f0b762;stop-opacity:1;"
         offset="0"
         id="stop1634" /></linearGradient><linearGradient
       id="linearGradient1630"
       inkscape:swatch="solid"
       gradientTransform="matrix(0.30427083,0,0,0.29793192,-77.004766,47.015341)"><stop
         style="stop-color:#548ed0;stop-opacity:1;"
         offset="0"
         id="stop1628" /></linearGradient><linearGradient
       id="linearGradient1624"
       inkscape:swatch="solid"
       gradientTransform="matrix(0,0,0,0,-34.725768,-92.710046)"><stop
         style="stop-color:#f06262;stop-opacity:1;"
         offset="0"
         id="stop1622" /></linearGradient><linearGradient
       id="linearGradient1618"
       inkscape:swatch="solid"
       gradientTransform="matrix(-1.5244716e-8,0,0,2.8497514e-8,793.14587,-367.47178)"><stop
         style="stop-color:#272932;stop-opacity:1;"
         offset="0"
         id="stop1616" /></linearGradient><linearGradient
       id="linearGradient1612"
       inkscape:swatch="solid"
       gradientTransform="matrix(7.6147856e-4,-1.3570623e-4,-1.9460236e-4,-5.0413612e-4,576.71913,-15.022291)"><stop
         style="stop-color:#424c55;stop-opacity:1;"
         offset="0"
         id="stop1610" /></linearGradient><linearGradient
       id="linearGradient1606"
       inkscape:swatch="solid"
       gradientTransform="matrix(0.00134877,0,0,0.00133247,-9.0162294,-159.26444)"><stop
         style="stop-color:#59656f;stop-opacity:1;"
         offset="0"
         id="stop1604" /></linearGradient><linearGradient
       id="linearGradient1600"
       gradientTransform="matrix(1.7655378e-6,5.899288e-7,-1.0720978e-7,8.4337579e-7,2792.0697,334.34645)"
       inkscape:swatch="solid"><stop
         style="stop-color:#f9efdf;stop-opacity:1;"
         offset="0"
         id="stop1598" /></linearGradient><linearGradient
       id="linearGradient1594"
       inkscape:swatch="solid"
       gradientTransform="matrix(-8.108782e-5,-8.108782e-5,8.2436551e-5,-8.2436551e-5,1159.1418,-358.45006)"><stop
         style="stop-color:#eddab7;stop-opacity:1;"
         offset="0"
         id="stop1592" /></linearGradient><inkscape:path-effect
       effect="fillet_chamfer"
       id="path-effect9721-0-5"
       is_visible="true"
       lpeversion="1"
       nodesatellites_param="F,0,0,1,0,0.26458333,0,1 @ F,0,0,1,0,0.26458333,0,1 @ F,0,0,1,0,0.26458333,0,1 @ F,0,0,1,0,0.26458333,0,1 @ F,0,0,1,0,0.26458333,0,1 @ F,0,0,1,0,0.26458333,0,1 @ F,0,0,1,0,0.26458333,0,1 @ F,0,0,1,0,0.26458333,0,1 @ F,0,0,1,0,0.26458333,0,1 @ F,0,0,1,0,0.26458333,0,1 @ F,0,0,1,0,0.26458333,0,1 @ F,0,0,1,0,0.26458333,0,1 @ F,0,0,1,0,0.26458333,0,1 @ F,0,0,1,0,0.26458333,0,1 @ F,0,0,1,0,0.26458333,0,1 @ F,0,0,1,0,0.26458333,0,1 @ F,0,0,1,0,0.26458333,0,1 @ F,0,0,1,0,0.26458333,0,1 @ F,0,0,1,0,0.26458333,0,1 @ F,0,0,1,0,0.26458333,0,1 @ F,0,0,1,0,0.26458333,0,1 @ F,0,0,1,0,0.26458333,0,1 @ F,0,0,1,0,0.26458333,0,1 @ F,0,0,1,0,0.26458333,0,1 @ F,0,0,1,0,0.26458333,0,1 @ F,0,0,1,0,0.26458333,0,1 @ F,0,0,1,0,0.26458333,0,1 @ F,0,0,1,0,0.26458333,0,1 @ F,0,0,1,0,0.26458333,0,1 @ F,0,0,1,0,0.26458333,0,1 @ F,0,0,1,0,0.26458333,0,1 @ F,0,0,1,0,0.26458333,0,1 @ F,0,0,1,0,0.26458333,0,1 @ F,0,0,1,0,0.26458333,0,1 @ F,0,0,1,0,0.26458333,0,1 @ F,0,0,1,0,0.26458333,0,1 @ F,0,0,1,0,0.26458333,0,1 @ F,0,0,1,0,0.26458333,0,1 @ F,0,0,1,0,0.26458333,0,1 @ F,0,0,1,0,0.26458333,0,1 @ F,0,0,1,0,0.26458333,0,1 @ F,0,0,1,0,0.26458333,0,1 @ F,0,0,1,0,0.26458333,0,1 @ F,0,0,1,0,0.26458333,0,1 @ F,0,0,1,0,0.26458333,0,1 @ F,0,0,1,0,0.26458333,0,1 @ F,0,0,1,0,0.26458333,0,1 @ F,0,0,1,0,0.26458333,0,1 @ F,0,0,1,0,0.26458333,0,1 @ F,0,0,1,0,0.26458333,0,1 @ F,0,0,1,0,0.26458333,0,1 @ F,0,0,1,0,0.26458333,0,1 @ F,0,0,1,0,0.26458333,0,1 @ F,0,0,1,0,0.26458333,0,1 @ F,0,0,1,0,0.26458333,0,1 @ F,0,0,1,0,0.26458333,0,1 @ F,0,0,1,0,0.26458333,0,1 @ F,0,0,1,0,0.26458333,0,1 @ F,0,0,1,0,0.26458333,0,1 @ F,0,0,1,0,0.26458333,0,1 @ F,0,0,1,0,0.26458333,0,1 @ F,0,0,1,0,0.26458333,0,1 @ F,0,0,1,0,0.26458333,0,1 @ F,0,0,1,0,0.26458333,0,1 @ F,0,0,1,0,0.26458333,0,1 @ F,0,0,1,0,0.26458333,0,1 @ F,0,0,1,0,0.26458333,0,1 @ F,0,0,1,0,0.26458333,0,1 @ F,0,0,1,0,0.26458333,0,1 @ F,0,0,1,0,0.26458333,0,1 @ F,0,0,1,0,0.26458333,0,1 @ F,0,0,1,0,0.26458333,0,1 @ F,0,0,1,0,0.26458333,0,1 @ F,0,0,1,0,0.26458333,0,1 @ F,0,0,1,0,0.26458333,0,1 @ F,0,0,1,0,0.26458333,0,1 @ F,0,0,1,0,0.26458333,0,1 @ F,0,0,1,0,0.26458333,0,1 @ F,0,0,1,0,0.26458333,0,1 @ F,0,0,1,0,0.26458333,0,1 @ F,0,0,1,0,0.26458333,0,1 @ F,0,0,1,0,0.26458333,0,1 @ F,0,0,1,0,0.26458333,0,1 @ F,0,0,1,0,0.26458333,0,1 @ F,0,0,1,0,0.26458333,0,1 @ F,0,0,1,0,0.26458333,0,1 @ F,0,0,1,0,0.26458333,0,1 @ F,0,0,1,0,0.26458333,0,1 @ F,0,0,1,0,0.26458333,0,1 @ F,0,0,1,0,0.26458333,0,1 @ F,0,0,1,0,0.26458333,0,1 @ F,0,0,1,0,0.26458333,0,1"
       unit="px"
       method="auto"
       mode="F"
       radius="1"
       chamfer_steps="1"
       flexible="false"
       use_knot_distance="true"
       apply_no_radius="true"
       apply_with_radius="true"
       only_selected="false"
       hide_knots="false" /></defs><g
     inkscape:groupmode="layer"
     id="layer6"
     inkscape:label="Icons"
     transform="translate(-1463.6445,44.444832)"><g
       id="g8631"
       inkscape:export-filename="..\Kednoi-v2\src\TabIcons\charactersTabIcon.svg"
       inkscape:export-xdpi="300"
       inkscape:export-ydpi="300"><path
         id="path8470"
         style="fill:#272932;fill-opacity:1;stroke-width:2.23;stroke-linecap:round;stroke-miterlimit:2.4"
         fill="currentcolor"
         d="m 1464.0026,-44.444832 c -0.198,0 -0.3576,0.159025 -0.3576,0.357084 v 6.594429 c 0,0.198059 0.1596,0.357084 0.3576,0.357084 h 0.3189 c 0.3882,-1.191067 1.3103,-2.036902 2.3916,-2.180228 0.1781,-0.02362 0.4713,-0.02398 0.6495,-5.17e-4 1.0823,0.142478 2.0057,0.988563 2.3942,2.180745 h 0.3183 c 0.1981,0 0.3576,-0.159025 0.3576,-0.357084 v -6.594429 c 0,-0.198059 -0.1595,-0.357084 -0.3576,-0.357084 z m 3.0376,0.422713 c 10e-5,0 0.073,-5.08e-4 0.1628,0.0067 0.6506,0.0525 1.2375,0.415944 1.574,0.975651 0.046,0.07706 0.021,0.09683 -0.054,0.04754 -0.6099,-0.399741 -1.2571,-0.290774 -1.8702,0.265617 -0.069,0.06043 -0.068,0.163998 0,0.223242 0.6766,0.592671 1.357,0.651521 2.036,0.176217 0.074,-0.05156 0.1464,-0.02656 0.1587,0.06253 0,0.03567 0.012,0.07161 0.012,0.107487 0.01,0.08961 0.01,0.235436 0,0.325045 -0.038,0.466227 -0.2365,0.905079 -0.5612,1.241785 -0.062,0.06471 -0.1907,0.112654 -0.2806,0.112654 h 0.1622 v 0 l -0.014,0.01137 -0.088,0.0739 h -5e-4 l -0.026,0.01912 -0.082,0.05943 -0.031,0.01964 -0.074,0.04651 -0.01,0.0047 -0.058,0.03152 -0.051,0.02739 -0.01,0.0047 -0.1178,0.05529 -0.1044,0.04031 -0.036,0.0124 -0.088,0.02687 -0.05,0.01344 -0.089,0.02067 -0.042,0.0083 -0.097,0.01602 -0.043,0.0047 -0.092,0.0098 -0.1375,0.0052 -0.1421,-0.0057 -0.054,-0.0052 -0.085,-0.0098 -0.067,-0.01085 -0.075,-0.01395 -0.063,-0.01499 -0.08,-0.02119 -0.056,-0.01705 -0.079,-0.0279 -0.059,-0.02222 -0.079,-0.03462 -0.05,-0.02222 -0.085,-0.04496 -0.04,-0.02119 -0.035,-0.02222 -0.085,-0.05374 -0.041,-0.02946 -0.072,-0.05374 -0.053,-0.04289 -0.056,-0.04806 -0.049,-0.04548 -0.058,-0.05736 -0.04,-0.04289 -0.058,-0.06666 -0.037,-0.04496 -0.049,-0.06511 -0.037,-0.05116 -0.074,-0.118339 -0.065,-0.123507 -0.025,-0.05633 -0.033,-0.07597 -0.022,-0.05943 -0.025,-0.07183 -0.021,-0.06873 -0.018,-0.06925 -0.015,-0.06615 -0.014,-0.07596 -0.011,-0.06563 -0.01,-0.08372 -0.01,-0.05633 c 0,-0.205953 0.01,-0.31554 0.025,-0.466099 l 0.016,-0.08578 0.01,-0.04857 0.042,0.03152 c -0.023,-0.03186 -0.027,-0.111862 0,-0.188619 0.2494,-0.783007 0.9493,-1.338868 1.7684,-1.404565 z m 0.9322,0.870748 c 0.2803,2e-6 0.5075,0.227193 0.5075,0.507462 0,0.280269 -0.2272,0.507461 -0.5075,0.507463 -0.2803,-2e-6 -0.5075,-0.227194 -0.5075,-0.507463 0,-0.280269 0.2272,-0.50746 0.5075,-0.507462 z m 0.9431,0.325045 c 0.012,-0.003 0.032,0.0081 0.062,0.03462 0.034,0.03127 0.068,0.06452 0.1023,0.09922 0.064,0.06424 0.09,0.138816 0.064,0.162264 -0.067,0.06005 -0.1384,0.03383 -0.1649,-0.05219 -0.017,-0.05612 -0.037,-0.111444 -0.058,-0.165881 -0.019,-0.04693 -0.019,-0.07418 0,-0.07803 z m -3.0649,0.224275 c -0.2125,0.0062 -0.4396,0.07839 -0.6873,0.219108 l 10e-4,10e-4 0.012,0.0088 h 5e-4 l 0.054,0.03721 h 5e-4 l 0.054,0.03566 h 5e-4 l 0.054,0.03307 h 5e-4 l 0.054,0.03152 h 5e-4 l 0.054,0.02946 h 5e-4 l 0.054,0.02791 h 5e-4 l 0.054,0.02584 h 6e-4 l 0.054,0.02377 h 5e-4 l 0.054,0.0217 h 5e-4 l 0.054,0.02015 h 5e-4 l 0.054,0.01757 h 6e-4 l 0.054,0.01602 h 5e-4 l 0.054,0.01395 h 5e-4 l 0.054,0.0124 h 5e-4 l 0.054,0.01033 h 5e-4 l 0.054,0.0083 h 5e-4 l 0.054,0.0062 h 5e-4 l 0.054,0.0041 h 5e-4 l 0.054,0.0026 h 5e-4 l 0.055,5.16e-4 0.054,-0.0016 0.055,-0.0031 0.055,-0.0057 0.055,-0.0067 0.055,-0.0093 0.055,-0.01137 0.055,-0.01292 0.055,-0.0155 h 5e-4 l 0.049,-0.01499 c 9e-4,-7.31e-4 0,-0.0014 0,-0.0015 h 5e-4 l 0.023,-0.0083 c -0.02,-0.05068 -0.047,-0.09789 -0.079,-0.129191 -0.2669,-0.264038 -0.5469,-0.396189 -0.8583,-0.387057 z m 0.942,0.5302 c -0.01,0.0055 -0.014,0.0134 -0.021,0.02015 0.016,0.02176 0.042,0.05648 0.047,0.101803 0,-0.03779 -0.011,-0.08042 -0.026,-0.121957 z m 0.027,1.431438 c 9e-4,0.01626 0,0.03228 0.01,0.04754 -0.01,-0.01526 -0.01,-0.03128 -0.01,-0.04754 z m 0.011,0.05788 c 0,0.01128 0.01,0.02203 0.017,0.03204 -0.01,-0.01001 -0.013,-0.02076 -0.017,-0.03204 z m 0.026,0.04392 c 0.01,0.0087 0.015,0.0167 0.024,0.02377 -0.01,-0.0071 -0.017,-0.01504 -0.024,-0.02377 z m 0.036,0.03256 c 0.01,0.0061 0.019,0.01132 0.029,0.0155 -0.01,-0.0042 -0.02,-0.0094 -0.029,-0.0155 z m 0.044,0.02119 c 0.015,0.0046 0.03,0.007 0.046,0.0072 -0.016,-1.84e-4 -0.031,-0.0026 -0.046,-0.0072 z"
         sodipodi:nodetypes="ssssccccssssscccccccccccccccccccccccccccccccccccccccccccccccccccccccccccccccccccccccccccccccccccccccccccccccccccccccccccccccccccccccccccccccccccccccccccccccccccccccccccccccccccccccccccccccc" /><path
         id="path9447-7"
         style="font-variation-settings:'wght' 300;display:inline;opacity:0.5;fill:#272932;fill-opacity:1;stroke-width:0.658004;stroke-linecap:round;stroke-linejoin:round"
         fill="currentcolor"
         d="m 1467.9509,-40.179662 c 0.1174,-0.06361 0.1174,-0.06361 0.1174,-0.06361 0.1133,-0.07092 0.1133,-0.07092 0.1133,-0.07092 0.1081,-0.07824 0.1081,-0.07824 0.1081,-0.07824 0.1024,-0.08524 0.1024,-0.08524 0.1024,-0.08524 h -1.2961 a 0.26458333,0.26458333 45 0 1 -0.2646,-0.264583 v -1.089691 c 0,-0.146125 -0.087,-0.245813 -0.055,-0.245813 -0.055,0.01686 -0.055,0.01686 -0.055,0.01686 -0.055,0.01527 -0.055,0.01527 -0.055,0.01527 -0.055,0.01304 -0.055,0.01304 -0.055,0.01304 -0.055,0.01113 -0.055,0.01113 -0.055,0.01113 -0.055,0.0092 -0.055,0.0092 -0.055,0.0092 -0.055,0.007 -0.055,0.007 -0.055,0.007 -0.055,0.0054 -0.055,0.0054 -0.055,0.0054 -0.055,0.0035 -0.055,0.0035 -0.055,0.0035 -0.055,0.0013 -0.055,0.0013 -0.055,0.0013 -0.055,-3.18e-4 -0.055,-3.18e-4 -0.055,-3.18e-4 -0.055,-0.0025 -0.055,-0.0025 -0.055,-0.0025 -0.055,-0.0044 -0.055,-0.0044 -0.055,-0.0044 -0.055,-0.0064 -0.055,-0.0064 -0.055,-0.0064 -0.055,-0.0083 -0.055,-0.0083 -0.055,-0.0083 -0.055,-0.01018 -0.055,-0.01018 -0.055,-0.01018 -0.055,-0.01209 -0.055,-0.01209 -0.055,-0.01209 -0.055,-0.014 -0.055,-0.014 -0.055,-0.014 -0.055,-0.01622 -0.055,-0.01622 -0.055,-0.01622 -0.055,-0.01781 -0.055,-0.01781 -0.055,-0.01781 -0.055,-0.02004 -0.055,-0.02004 -0.055,-0.02004 -0.055,-0.02163 -0.055,-0.02163 -0.055,-0.02163 -0.055,-0.02386 -0.055,-0.02386 -0.055,-0.02386 -0.055,-0.02576 -0.055,-0.02576 -0.055,-0.02576 -0.055,-0.02767 -0.055,-0.02767 -0.055,-0.02767 -0.055,-0.02958 -0.055,-0.02958 -0.055,-0.02958 -0.055,-0.03149 -0.055,-0.03149 -0.055,-0.03149 -0.055,-0.03339 -0.055,-0.03339 -0.055,-0.03339 -0.055,-0.03562 -0.055,-0.03562 -0.055,-0.03562 -0.055,-0.03721 -0.055,-0.03721 -0.055,-0.03721 -0.055,-0.03944 -0.055,-0.03944 -0.055,-0.03944 -0.055,-0.04103 -0.055,-0.04103 -0.055,-0.04103 -0.01,0.04866 -0.01,0.04866 -0.01,0.04866 -0.043,0.269895 -0.043,0.278839 -0.044,0.287783 -0.01,0.145668 -0.025,0.320632 0.01,0.320633 0.01,0.08333 0.01,0.08333 0.01,0.08333 0.011,0.06583 0.011,0.06583 0.011,0.06583 0.014,0.07601 0.014,0.07601 0.014,0.07601 0.015,0.06583 0.015,0.06583 0.015,0.06583 0.018,0.06933 0.018,0.06933 0.018,0.06933 0.021,0.06902 0.021,0.06902 0.021,0.06902 0.025,0.07156 0.025,0.07156 0.025,0.07156 0.022,0.05979 0.022,0.05979 0.022,0.05979 0.033,0.0757 0.033,0.0757 0.033,0.0757 0.025,0.0563 0.025,0.0563 0.025,0.0563 0.065,0.123403 0.065,0.123403 0.065,0.123403 0.074,0.118313 0.074,0.118313 0.074,0.118313 0.037,0.05121 0.037,0.05121 0.037,0.05121 0.049,0.0652 0.049,0.0652 0.049,0.0652 0.036,0.04484 0.036,0.04484 0.036,0.04484 0.058,0.06679 0.058,0.06679 0.058,0.06679 0.04,0.04293 0.04,0.04293 0.04,0.04293 0.058,0.05756 0.058,0.05756 0.058,0.05756 0.049,0.04548 0.049,0.04548 0.049,0.04548 0.056,0.04802 0.056,0.04802 0.056,0.04802 0.052,0.04293 0.052,0.04293 0.052,0.04293 0.072,0.05343 0.072,0.05343 0.072,0.05343 0.041,0.02958 0.041,0.02958 0.041,0.02958 0.086,0.05375 0.086,0.05375 0.086,0.05375 0.035,0.02195 0.035,0.02195 0.035,0.02195 0.04,0.02131 0.04,0.02131 0.04,0.02131 0.086,0.04516 0.086,0.04516 0.086,0.04516 0.05,0.02226 0.05,0.02226 0.05,0.02226 0.079,0.03467 0.079,0.03467 0.079,0.03467 0.059,0.02226 0.059,0.02226 0.059,0.02226 0.079,0.02767 0.079,0.02767 0.079,0.02767 0.056,0.01686 0.056,0.01686 0.056,0.01686 0.08,0.02163 0.08,0.02163 0.08,0.02163 0.063,0.01463 0.063,0.01463 0.063,0.01463 0.075,0.01431 0.075,0.01431 0.075,0.01431 0.066,0.01081 0.066,0.01081 0.066,0.01081 0.085,0.0095 0.085,0.0095 0.085,0.0095 0.054,0.0054 0.054,0.0054 0.054,0.0054 0.1418,0.0054 0.1418,0.0054 0.1418,0.0054 0.1377,-0.0051 0.1377,-0.0051 0.1377,-0.0051 0.093,-0.0095 0.093,-0.0095 0.093,-0.0095 0.043,-0.0048 0.043,-0.0048 0.043,-0.0048 0.097,-0.0159 0.097,-0.0159 0.097,-0.0159 0.043,-0.0083 0.043,-0.0083 0.043,-0.0083 0.089,-0.02099 0.089,-0.02099 0.089,-0.02099 0.05,-0.01336 0.05,-0.01336 0.05,-0.01336 0.087,-0.02672 0.087,-0.02672 0.087,-0.02672 0.036,-0.01272 0.036,-0.01272 0.036,-0.01272 0.1043,-0.04007 0.1043,-0.04007 0.1043,-0.04007 l 0.01,1.03e-4 z"
         inkscape:path-effect="#path-effect9721-0-5"
         inkscape:original-d="m 1467.8295,-40.124322 c 0.041,-0.01711 0.082,-0.03557 0.1214,-0.05534 0.04,-0.01991 0.079,-0.04112 0.1174,-0.06361 0.039,-0.02239 0.076,-0.04604 0.1133,-0.07092 0.037,-0.02489 0.073,-0.05098 0.1081,-0.07824 0.035,-0.02728 0.069,-0.05571 0.1024,-0.08524 h -1.5607 v -1.618857 c -0.018,0.0066 -0.037,0.01279 -0.055,0.01877 -0.018,0.006 -0.037,0.01153 -0.055,0.01686 -0.019,0.0054 -0.036,0.01059 -0.055,0.01527 -0.018,0.0047 -0.037,0.009 -0.055,0.01304 -0.018,0.0041 -0.037,0.0077 -0.055,0.01113 -0.018,0.0034 -0.037,0.0065 -0.055,0.0092 -0.019,0.0028 -0.036,0.0049 -0.055,0.007 -0.018,0.0021 -0.037,0.0039 -0.055,0.0054 -0.018,0.0015 -0.037,0.0027 -0.055,0.0035 -0.018,8e-4 -0.037,0.0011 -0.055,0.0013 -0.019,1.54e-4 -0.036,1.74e-4 -0.055,-3.18e-4 -0.018,-4.93e-4 -0.037,-0.0014 -0.055,-0.0025 -0.018,-0.0012 -0.037,-0.0026 -0.055,-0.0044 -0.018,-0.0018 -0.037,-0.0039 -0.055,-0.0064 -0.019,-0.0025 -0.036,-0.0052 -0.055,-0.0083 -0.018,-0.0031 -0.037,-0.0065 -0.055,-0.01018 -0.018,-0.0038 -0.037,-0.0077 -0.055,-0.01209 -0.018,-0.0044 -0.036,-0.009 -0.055,-0.014 -0.018,-0.005 -0.037,-0.01055 -0.055,-0.01622 -0.019,-0.0057 -0.037,-0.0115 -0.055,-0.01781 -0.018,-0.0063 -0.036,-0.01308 -0.055,-0.02004 -0.018,-0.007 -0.037,-0.01403 -0.055,-0.02163 -0.018,-0.0076 -0.036,-0.0156 -0.055,-0.02386 -0.019,-0.0082 -0.037,-0.01686 -0.055,-0.02576 -0.018,-0.0089 -0.036,-0.01813 -0.055,-0.02767 -0.018,-0.0095 -0.036,-0.01939 -0.055,-0.02958 -0.018,-0.01019 -0.037,-0.02065 -0.055,-0.03149 -0.019,-0.01083 -0.036,-0.02192 -0.055,-0.03339 -0.018,-0.01148 -0.037,-0.02349 -0.055,-0.03562 -0.018,-0.01212 -0.036,-0.02444 -0.055,-0.03721 -0.018,-0.01277 -0.036,-0.02602 -0.055,-0.03944 -0.019,-0.01342 -0.036,-0.02696 -0.055,-0.04103 0,0.01618 -0.01,0.0324 -0.01,0.04866 -0.046,0.183224 -0.053,0.369242 -0.047,0.552116 0,0.01881 0.01,0.03758 0.01,0.0563 0,0.02784 0.01,0.05562 0.01,0.08333 0,0.022 0.01,0.04395 0.011,0.06583 0,0.02542 0.01,0.05077 0.014,0.07601 0,0.02202 0.01,0.04397 0.015,0.06583 0.01,0.02321 0.012,0.04633 0.018,0.06933 0.01,0.02313 0.014,0.04614 0.021,0.06902 0.01,0.02401 0.016,0.04787 0.025,0.07156 0.01,0.02004 0.014,0.03998 0.022,0.05979 0.011,0.02546 0.022,0.05069 0.033,0.0757 0.01,0.01889 0.016,0.03766 0.025,0.0563 0.02,0.04187 0.042,0.08303 0.065,0.123403 0.023,0.04028 0.048,0.07974 0.074,0.118313 0.012,0.01726 0.024,0.03433 0.037,0.05121 0.016,0.02206 0.032,0.0438 0.049,0.0652 0.012,0.01512 0.024,0.03006 0.036,0.04484 0.019,0.02268 0.038,0.04495 0.058,0.06679 0.013,0.0145 0.027,0.02881 0.04,0.04293 0.019,0.01957 0.038,0.03876 0.058,0.05756 0.016,0.01543 0.032,0.03059 0.049,0.04548 0.018,0.01635 0.037,0.03235 0.056,0.04802 0.017,0.0146 0.034,0.02891 0.052,0.04293 0.024,0.01834 0.048,0.03615 0.072,0.05343 0.014,0.01003 0.027,0.01989 0.041,0.02958 0.028,0.01863 0.057,0.03655 0.086,0.05375 0.012,0.0074 0.023,0.01475 0.035,0.02195 0.013,0.0073 0.027,0.01436 0.04,0.02131 0.028,0.01574 0.057,0.0308 0.086,0.04516 0.017,0.0076 0.033,0.01506 0.05,0.02226 0.026,0.01212 0.052,0.02368 0.079,0.03467 0.02,0.0077 0.039,0.01515 0.059,0.02226 0.026,0.0098 0.053,0.01899 0.079,0.02767 0.019,0.0059 0.037,0.01151 0.056,0.01686 0.026,0.0078 0.053,0.01497 0.08,0.02163 0.021,0.0052 0.042,0.01009 0.063,0.01463 0.025,0.0052 0.05,0.01001 0.075,0.01431 0.022,0.004 0.044,0.0076 0.066,0.01081 0.028,0.0038 0.057,0.0069 0.085,0.0095 0.018,0.002 0.036,0.0038 0.054,0.0054 0.047,0.0035 0.094,0.0053 0.1418,0.0054 0.046,-1.39e-4 0.092,-0.0018 0.1377,-0.0051 0.031,-0.0025 0.062,-0.0056 0.093,-0.0095 0.014,-0.0014 0.029,-0.003 0.043,-0.0048 0.032,-0.0045 0.065,-0.0098 0.097,-0.0159 0.014,-0.0026 0.029,-0.0054 0.043,-0.0083 0.03,-0.0063 0.06,-0.01333 0.089,-0.02099 0.017,-0.0042 0.033,-0.0087 0.05,-0.01336 0.029,-0.0083 0.058,-0.01716 0.087,-0.02672 0.012,-0.0041 0.024,-0.0084 0.036,-0.01272 0.035,-0.0124 0.07,-0.02576 0.1043,-0.04007 z"
         sodipodi:nodetypes="cccccccccccccccsscccsccccccccscsccccccscccccccccccccccccccccccccccccccccccccccccccccccccccccc" /></g></g></svg>
