<?xml version="1.0" encoding="UTF-8" standalone="no"?>
<!-- Created with Inkscape (http://www.inkscape.org/) -->

<svg
   width="98"
   height="262.59079"
   viewBox="0 0 25.929168 69.477147"
   version="1.1"
   id="svg5"
   inkscape:version="1.2.1 (9c6d41e410, 2022-07-14)"
   sodipodi:docname="coDecorMask.svg"
   xml:space="preserve"
   inkscape:export-filename="coDecorMask.svg"
   inkscape:export-xdpi="96"
   inkscape:export-ydpi="96"
   xmlns:inkscape="http://www.inkscape.org/namespaces/inkscape"
   xmlns:sodipodi="http://sodipodi.sourceforge.net/DTD/sodipodi-0.dtd"
   xmlns:xlink="http://www.w3.org/1999/xlink"
   xmlns="http://www.w3.org/2000/svg"
   xmlns:svg="http://www.w3.org/2000/svg"><sodipodi:namedview
     id="namedview7"
     pagecolor="#505050"
     bordercolor="#ffffff"
     borderopacity="1"
     inkscape:showpageshadow="0"
     inkscape:pageopacity="1"
     inkscape:pagecheckerboard="1"
     inkscape:deskcolor="#505050"
     inkscape:document-units="mm"
     showgrid="true"
     inkscape:zoom="1.0717379"
     inkscape:cx="-404.01669"
     inkscape:cy="6.0649157"
     inkscape:window-width="1920"
     inkscape:window-height="1009"
     inkscape:window-x="-8"
     inkscape:window-y="-8"
     inkscape:window-maximized="1"
     inkscape:current-layer="g3404"
     showguides="false"><inkscape:grid
       type="xygrid"
       id="grid132"
       visible="true"
       color="#ffffff"
       opacity="0.02352941"
       empcolor="#777777"
       empopacity="0.16470588"
       originx="0"
       originy="0"
       enabled="false" /></sodipodi:namedview><defs
     id="defs2"><inkscape:path-effect
       effect="offset"
       id="path-effect2724"
       is_visible="true"
       lpeversion="1.2"
       linejoin_type="miter"
       unit="mm"
       offset="1.1"
       miter_limit="4"
       attempt_force_join="false"
       update_on_knot_move="true" /><inkscape:path-effect
       effect="offset"
       id="path-effect2689"
       is_visible="true"
       lpeversion="1.2"
       linejoin_type="miter"
       unit="mm"
       offset="0.8"
       miter_limit="4"
       attempt_force_join="false"
       update_on_knot_move="true" /><linearGradient
       id="linearGradient6477"
       inkscape:swatch="solid"
       gradientTransform="matrix(0.06015514,0.07345539,-0.15321334,0.18708865,1414.8289,-3879.798)"><stop
         style="stop-color:#f27e70;stop-opacity:1;"
         offset="0"
         id="stop6475" /></linearGradient><linearGradient
       id="linearGradient9776"
       inkscape:swatch="solid"
       gradientTransform="matrix(9.0769027e-5,0,0,9.0769027e-5,-0.51055264,0.83863903)"><stop
         style="stop-color:#b2b7be;stop-opacity:1;"
         offset="0"
         id="stop9774" /></linearGradient><linearGradient
       id="linearGradient1642"
       inkscape:swatch="solid"
       gradientTransform="matrix(0.53491831,0,0,1.6710713,578.25432,638.40486)"><stop
         style="stop-color:#75c590;stop-opacity:1;"
         offset="0"
         id="stop1640" /></linearGradient><linearGradient
       id="linearGradient1636"
       inkscape:swatch="solid"
       gradientTransform="matrix(2.372496e-4,0,0,-2.7055498e-4,-99.855184,269.11388)"><stop
         style="stop-color:#f0b762;stop-opacity:1;"
         offset="0"
         id="stop1634" /></linearGradient><linearGradient
       id="linearGradient1630"
       inkscape:swatch="solid"
       gradientTransform="matrix(0.30427083,0,0,0.29793192,-77.004766,47.015341)"><stop
         style="stop-color:#548ed0;stop-opacity:1;"
         offset="0"
         id="stop1628" /></linearGradient><linearGradient
       id="linearGradient1624"
       inkscape:swatch="solid"
       gradientTransform="matrix(0,0,0,0,1675.5579,-536.97929)"><stop
         style="stop-color:#f06262;stop-opacity:1;"
         offset="0"
         id="stop1622" /></linearGradient><linearGradient
       id="linearGradient1618"
       inkscape:swatch="solid"
       gradientTransform="matrix(0.06589317,0,0,0.07055889,-2.985541,-3.3903293)"><stop
         style="stop-color:#272932;stop-opacity:1;"
         offset="0"
         id="stop1616" /></linearGradient><linearGradient
       id="linearGradient1612"
       inkscape:swatch="solid"
       gradientTransform="matrix(1.7466655e-5,-5.2366004e-6,-4.4637767e-6,-1.9453487e-5,-257.56635,-143.98142)"><stop
         style="stop-color:#424c55;stop-opacity:1;"
         offset="0"
         id="stop1610" /></linearGradient><linearGradient
       id="linearGradient1606"
       inkscape:swatch="solid"
       gradientTransform="matrix(0.0050977,0,0,0.00503612,-34.077088,-601.94435)"><stop
         style="stop-color:#59656f;stop-opacity:1;"
         offset="0"
         id="stop1604" /></linearGradient><linearGradient
       id="linearGradient1594"
       inkscape:swatch="solid"
       gradientTransform="matrix(0.09102054,0,0,0.0999252,804.72123,1379.5943)"><stop
         style="stop-color:#eddab7;stop-opacity:1;"
         offset="0"
         id="stop1592" /></linearGradient><linearGradient
       inkscape:collect="always"
       xlink:href="#linearGradient1612"
       id="linearGradient5730"
       x1="-0.0099999998"
       y1="2.5897293"
       x2="30.066"
       y2="2.5897293"
       gradientUnits="userSpaceOnUse"
       gradientTransform="matrix(3.7795276,0,0,3.7795276,0.03779528,0.00152167)" /><inkscape:path-effect
       effect="fillet_chamfer"
       id="path-effect15654"
       is_visible="true"
       lpeversion="1"
       nodesatellites_param="F,0,0,1,0,0.26458333,0,1 @ F,0,0,1,0,0.26458333,0,1 @ F,0,0,1,0,0.26458333,0,1 @ F,0,0,1,0,0.13247225,0,1 @ F,0,0,1,0,0.23175592,0,1 @ F,0,0,1,0,0.26458333,0,1 @ F,0,0,1,0,0.26458333,0,1 @ F,0,0,1,0,0.26458333,0,1 @ F,0,0,1,0,0.26458333,0,1 @ F,0,0,1,0,0.26458333,0,1 @ F,0,0,1,0,0.26458333,0,1 @ F,0,0,1,0,0.26458333,0,1 @ F,0,0,1,0,0.26458333,0,1 @ F,0,0,1,0,0.26458333,0,1 @ F,0,0,1,0,0.26458333,0,1 @ F,0,0,1,0,0.26458333,0,1 @ F,0,0,1,0,0.26458333,0,1 @ F,0,0,1,0,0.26458333,0,1 @ F,0,0,1,0,0.26458333,0,1 @ F,0,0,1,0,0.26458333,0,1 @ F,0,0,1,0,0.26458333,0,1 @ F,0,0,1,0,0.26458333,0,1 @ F,0,0,1,0,0.26458333,0,1 @ F,0,0,1,0,0.26458333,0,1 @ F,0,0,1,0,0.26458333,0,1 @ F,0,0,1,0,0.26458333,0,1 @ F,0,0,1,0,0.26458333,0,1 @ F,0,0,1,0,0.26458333,0,1 @ F,0,0,1,0,0.26458333,0,1 @ F,0,0,1,0,0.26458333,0,1 @ F,0,0,1,0,0.26458333,0,1 @ F,0,0,1,0,0.26458333,0,1 @ F,0,0,1,0,0.26458333,0,1 @ F,0,0,1,0,0.26458333,0,1 @ F,0,0,1,0,0.26458333,0,1 @ F,0,0,1,0,0.090128939,0,1 @ F,0,0,1,0,0.21945643,0,1 @ F,0,0,1,0,0.26458333,0,1 @ F,0,0,1,0,0.26458333,0,1 @ F,0,0,1,0,0.26458333,0,1 @ F,0,0,1,0,0.26458333,0,1 @ F,0,0,1,0,0.26458333,0,1 @ F,0,0,1,0,0.26458333,0,1 @ F,0,0,1,0,0.26458333,0,1 @ F,0,0,1,0,0.16868866,0,1 @ F,0,0,1,0,0.26458333,0,1 @ F,0,0,1,0,0.26458333,0,1 @ F,0,0,1,0,0.26458333,0,1 @ F,0,0,1,0,0.081239428,0,1 @ F,0,0,1,0,0.16803335,0,1"
       unit="px"
       method="auto"
       mode="F"
       radius="1"
       chamfer_steps="1"
       flexible="false"
       use_knot_distance="true"
       apply_no_radius="true"
       apply_with_radius="true"
       only_selected="false"
       hide_knots="false" /><pattern
       xlink:href="#pattern5732-7"
       id="pattern44354"
       patternTransform="matrix(0.1740454,0.04981095,-0.08410775,0.29388226,619.65057,87.722863)" /><pattern
       patternUnits="userSpaceOnUse"
       width="113.67307"
       height="19.57895"
       patternTransform="translate(-0.03779528,-0.00152167)"
       id="pattern5732-7"><path
         style="fill:url(#linearGradient5730);fill-opacity:1;stroke:none;stroke-width:3.77953"
         d="M 28.750866,0.23207286 C 19.234016,-0.70524998 10.07622,1.142939 0,6.759317 v 4.811339 C 10.518425,5.4100256 19.589291,3.9775847 28.278425,4.839317 c 8.685355,0.8617322 16.996536,4.0856692 25.628977,7.324724 17.261102,6.474331 36.098267,13.069607 59.765668,-0.593385 l -0.0151,-4.811339 C 89.317795,20.777585 72.778583,14.250341 55.562835,7.791128 46.953071,4.5634114 38.267717,1.1769547 28.750866,0.23207286 Z"
         id="path5724-2" /></pattern><pattern
       xlink:href="#Wavy"
       id="pattern2909"
       patternTransform="matrix(1.8536995,0,0,2.1243306,46.579445,106.27142)" /><pattern
       patternUnits="userSpaceOnUse"
       width="30.066020"
       height="5.1805778"
       id="Wavy"><path
         style="fill:black;stroke:none;"
         d="M 7.597,0.061 C 5.079,-0.187 2.656,0.302 -0.01,1.788 L -0.01,3.061 C 2.773,1.431 5.173,1.052 7.472,1.280 C 9.770,1.508 11.969,2.361 14.253,3.218 C 18.820,4.931 23.804,6.676 30.066,3.061 L 30.062,1.788 C 23.622,5.497 19.246,3.770 14.691,2.061 C 12.413,1.207 10.115,0.311 7.597,0.061 z "
         id="path2532" /></pattern><mask
       maskUnits="userSpaceOnUse"
       id="mask2545"><path
         style="font-variation-settings:'wght' 700;opacity:1;fill:url(#linearGradient1624);stroke-width:1.26456"
         d="M 94.527822,172.71608 C 77.564053,146.41065 77.111673,130.79182 77.564053,117.91313 c 0.452361,-12.8787 10.404444,-15.34483 23.749287,3.28817 13.34484,18.63302 26.46349,24.38731 18.99942,34.25184 -7.46407,9.86454 -3.16657,35.3479 -25.784938,17.26294 z"
         id="path2547" /></mask></defs><g
     inkscape:groupmode="layer"
     id="layer7"
     inkscape:label="Mob-Dashboard-Light"
     style="display:inline"
     transform="translate(-591.345,481.94401)"><g
       id="g3404"
       transform="translate(5.7217979,2.5310612)"><path
         id="rect1513"
         style="font-variation-settings:'wght' 700;opacity:1;fill:#d12d2d;stroke-width:0.469791;fill-opacity:1"
         d="m 586.0516,-484.47507 c -0.23735,0 -0.4284,0.19105 -0.4284,0.4284 v 22.59604 c 0,0.23734 0.19105,0.42839 0.4284,0.42839 h 10.99312 c 0.23735,0 0.4284,-0.19105 0.4284,-0.42839 v -5.17436 a 11.356167,7.0976038 0 0 1 -5.97121,-9.13898 11.356167,7.0976038 0 0 1 5.97121,-3.84938 v -4.43332 c 0,-0.23735 -0.19105,-0.4284 -0.4284,-0.4284 z" /><rect
         style="font-variation-settings:'wght' 700;opacity:0.5195122;fill:#d12d2d;stroke-width:0.531723;fill-opacity:1"
         id="rect1515"
         width="12.960842"
         height="19.996727"
         x="598.70746"
         y="-459.91119"
         ry="0.42842674" /><path
         style="font-variation-settings:'wght' 700;opacity:1;fill:#d12d2d;stroke-width:0.626999;fill-opacity:1"
         id="path1625"
         sodipodi:type="arc"
         sodipodi:cx="601.14532"
         sodipodi:cy="-473.00009"
         sodipodi:rx="9.1343079"
         sodipodi:ry="5.8632379"
         sodipodi:start="1.9545639"
         sodipodi:end="1.9471053"
         sodipodi:open="true"
         sodipodi:arc-type="arc"
         d="m 597.72529,-467.56334 a 9.1343079,5.8632379 0 0 1 -5.05621,-7.6219 9.1343079,5.8632379 0 0 1 11.86467,-3.25975 9.1343079,5.8632379 0 0 1 5.10046,7.60975 9.1343079,5.8632379 0 0 1 -11.84565,3.28812" /><path
         id="path1625-6"
         style="font-variation-settings:'wght' 700;display:inline;fill:#d12d2d;stroke-width:0.802944;fill-opacity:1"
         d="m 598.91046,-436.77372 a 11.294448,7.776505 0 0 0 -10.7456,4.87619 11.294448,7.776505 0 0 0 4.81935,9.6268 c -0.066,2.90098 -3.83735,5.16697 -2.25568,4.98626 1.6933,-0.19347 4.26313,-1.26327 6.51847,-4.00285 a 11.294448,7.776505 0 0 0 11.89488,-4.84053 11.294448,7.776505 0 0 0 -6.30659,-10.09293 11.294448,7.776505 0 0 0 -3.92483,-0.55294 z" /><path
         style="font-variation-settings:'wght' 700;opacity:1;fill:#d12d2d;stroke-width:0.626999;fill-opacity:1"
         d="m 602.96536,-467.44082 c 1.11093,1.97498 2.46873,2.7156 3.33279,2.83904 0.86406,0.12343 -1.72811,-1.72812 -0.86406,-3.82654 0.86406,-2.09842 -2.46873,0.9875 -2.46873,0.9875 z"
         id="path1627" /><path
         id="path2605"
         style="font-variation-settings:'wght' 700;opacity:1;fill:#d12d2d;stroke-width:0.626999;fill-opacity:1"
         d="M 611.66812 -435.90284 C 611.66812 -435.90284 611.61692 -434.19492 610.29973 -432.05863 C 611.36457 -430.04365 611.42406 -427.72834 610.14264 -425.50761 C 608.04408 -421.87753 602.9738 -419.86239 597.76975 -420.13688 C 595.43907 -417.51023 592.80254 -416.33637 590.9004 -416.11904 C 590.22273 -416.04162 588.97657 -416.35694 589.33409 -417.67191 C 589.64444 -418.81335 591.39793 -419.94133 591.7851 -421.6758 C 590.62176 -422.24557 589.61265 -422.9454 588.78838 -423.73718 C 587.7782 -423.71643 586.72454 -423.71794 585.6232 -423.74441 L 585.6232 -414.99818 L 611.55237 -414.99818 L 611.66812 -435.90284 z " /><path
         style="font-variation-settings:'wght' 700;opacity:0.519512;fill:url(#Wavy);fill-opacity:1.0;stroke-width:0.626999"
         d="m 604.38556,-451.14719 c -12.8374,-9.87505 -15.05926,-14.56552 -16.29363,-1.23437 -1.23436,13.33115 -1.72811,16.29363 -0.49374,17.528 1.23436,1.23436 16.78737,-16.29363 16.78737,-16.29363 z"
         id="path4625" /></g></g></svg>
