<?xml version="1.0" encoding="UTF-8" standalone="no"?>
<!-- Created with Inkscape (http://www.inkscape.org/) -->

<svg
   width="199.43329"
   height="199.45688"
   viewBox="0 0 52.766724 52.772966"
   version="1.1"
   id="svg5"
   xml:space="preserve"
   xmlns="http://www.w3.org/2000/svg"
   xmlns:svg="http://www.w3.org/2000/svg"><defs
     id="defs2"><linearGradient
       id="linearGradient6477"
       gradientTransform="matrix(0.06015514,0.07345539,-0.15321334,0.18708865,1414.8289,-3879.798)"><stop
         style="stop-color:#f27e70;stop-opacity:1;"
         offset="0"
         id="stop6475" /></linearGradient><linearGradient
       id="linearGradient9776"
       gradientTransform="matrix(9.0769027e-5,0,0,9.0769027e-5,-0.51055264,0.83863903)"><stop
         style="stop-color:#b2b7be;stop-opacity:1;"
         offset="0"
         id="stop9774" /></linearGradient><linearGradient
       id="linearGradient1642"
       gradientTransform="matrix(0.53491831,0,0,1.6710713,578.25432,638.40486)"><stop
         style="stop-color:#75c590;stop-opacity:1;"
         offset="0"
         id="stop1640" /></linearGradient><linearGradient
       id="linearGradient1636"
       gradientTransform="matrix(2.372496e-4,0,0,-2.7055498e-4,-99.855184,269.11388)"><stop
         style="stop-color:#f0b762;stop-opacity:1;"
         offset="0"
         id="stop1634" /></linearGradient><linearGradient
       id="linearGradient1630"
       gradientTransform="matrix(0.30427083,0,0,0.29793192,-77.004766,47.015341)"><stop
         style="stop-color:#548ed0;stop-opacity:1;"
         offset="0"
         id="stop1628" /></linearGradient><linearGradient
       id="linearGradient1624"
       gradientTransform="matrix(0,0,0,0,866.34964,373.20499)"><stop
         style="stop-color:#f06262;stop-opacity:1;"
         offset="0"
         id="stop1622" /></linearGradient><linearGradient
       id="linearGradient1618"
       gradientTransform="matrix(0.06589317,0,0,0.07055889,-2.985541,-3.3903293)"><stop
         style="stop-color:#272932;stop-opacity:1;"
         offset="0"
         id="stop1616" /></linearGradient><linearGradient
       id="linearGradient1612"
       gradientTransform="matrix(0.00474027,-8.4478547e-4,-0.00121142,-0.0031383,1.0719428,0.60129234)"><stop
         style="stop-color:#424c55;stop-opacity:1;"
         offset="0"
         id="stop1610" /></linearGradient><linearGradient
       id="linearGradient1606"
       gradientTransform="matrix(0.0050977,0,0,0.00503612,-34.077088,-601.94435)"><stop
         style="stop-color:#59656f;stop-opacity:1;"
         offset="0"
         id="stop1604" /></linearGradient><linearGradient
       id="linearGradient1594"
       gradientTransform="matrix(0.09102054,0,0,0.0999252,804.72123,1379.5943)"><stop
         style="stop-color:#eddab7;stop-opacity:1;"
         offset="0"
         id="stop1592" /></linearGradient></defs><g
     id="layer5"
     transform="translate(-1585.3932,-174.03087)"><g
       id="g13850"
       style="display:inline;stroke-width:1.15313"
       transform="matrix(0.86720262,0,0,0.86720262,1560.8376,-631.58294)"><path
         id="path13822"
         style="display:inline;opacity:1;fill:url(#linearGradient1618);fill-opacity:1;stroke-width:1.2204;stroke-linecap:round;stroke-linejoin:round"
         d="m 28.323407,928.98 a 60.854178,61.515628 0 0 1 1.37822,0.016 60.854178,61.515628 0 0 1 1.38441,0.0475 60.854178,61.515628 0 0 1 1.38286,0.0801 60.854178,61.515628 0 0 1 1.38079,0.1111 60.854178,61.515628 0 0 1 1.37821,0.14315 60.854178,61.515628 0 0 1 1.3746,0.17518 60.854178,61.515628 0 0 1 1.36994,0.20619 60.854178,61.515628 0 0 1 1.36529,0.23823 60.854178,61.515628 0 0 1 1.35961,0.26923 60.854178,61.515628 0 0 1 1.35289,0.30024 60.854178,61.515628 0 0 1 1.34617,0.33177 60.854178,61.515628 0 0 1 1.3379,0.36225 60.854178,61.515628 0 0 1 1.32963,0.39326 60.854178,61.515628 0 0 1 1.32034,0.42374 60.854178,61.515628 0 0 1 1.31051,0.45372 60.854178,61.515628 0 0 1 1.30018,0.48421 60.854178,61.515628 0 0 1 1.28881,0.51366 60.854178,61.515628 0 0 1 1.27693,0.54312 60.854178,61.515628 0 0 1 1.264,0.57258 60.854178,61.515628 0 0 1 1.25109,0.60151 60.854178,61.515628 0 0 1 1.23713,0.62994 60.854178,61.515628 0 0 1 1.22267,0.65835 60.854178,61.515628 0 0 1 1.20767,0.68627 60.854178,61.515628 0 0 1 1.19166,0.71417 60.854178,61.515628 0 0 1 1.17564,0.74104 60.854178,61.515628 0 0 1 1.15807,0.76791 60.854178,61.515628 0 0 1 1.14102,0.79478 60.854178,61.515628 0 0 1 1.12241,0.82062 60.854178,61.515628 0 0 1 1.10381,0.84595 60.854178,61.515628 0 0 1 1.08468,0.87126 60.854178,61.515628 0 0 1 1.06454,0.89607 60.854178,61.515628 0 0 1 1.04438,0.92036 60.854178,61.515628 0 0 1 1.02268,0.94413 60.854178,61.515628 0 0 1 1.002,0.96738 60.854178,61.515628 0 0 1 0.97927,0.99064 60.854178,61.515628 0 0 1 0.95705,1.01234 60.854178,61.515628 0 0 1 0.93431,1.03404 60.854178,61.515628 0 0 1 0.91002,1.05575 60.854178,61.515628 0 0 1 0.88677,1.07591 60.854178,61.515628 0 0 1 0.86196,1.09657 60.854178,61.515628 0 0 1 0.83716,1.11569 60.854178,61.515628 0 0 1 0.81132,1.13482 60.854178,61.515628 0 0 1 0.786,1.15342 60.854178,61.515628 0 0 1 0.76016,1.17098 60.854178,61.515628 0 0 1 0.73277,1.18804 60.854178,61.515628 0 0 1 0.70642,1.20458 60.854178,61.515628 0 0 1 0.67902,1.2206 60.854178,61.515628 0 0 1 0.65113,1.2361 60.854178,61.515628 0 0 1 0.62373,1.25057 60.854178,61.515628 0 0 1 0.5948,1.26452 60.854178,61.515628 0 0 1 0.56637,1.27796 60.854178,61.515628 0 0 1 0.53744,1.29088 60.854178,61.515628 0 0 1 0.50798,1.30276 60.854178,61.515628 0 0 1 0.47904,1.31413 60.854178,61.515628 0 0 1 0.44906,1.32499 60.854178,61.515628 0 0 1 0.4191,1.33428 60.854178,61.515628 0 0 1 0.38861,1.34411 60.854178,61.515628 0 0 1 0.35863,1.35288 60.854178,61.515628 0 0 1 0.32815,1.36064 60.854178,61.515628 0 0 1 0.29714,1.36788 60.854178,61.515628 0 0 1 0.26613,1.37408 60.854178,61.515628 0 0 1 0.23564,1.37976 60.854178,61.515628 0 0 1 0.20413,1.38544 60.854178,61.515628 0 0 1 0.17311,1.38906 60.854178,61.515628 0 0 1 0.1416,1.3932 60.854178,61.515628 0 0 1 0.11058,1.39578 60.854178,61.515628 0 0 1 0.0786,1.39837 60.854178,61.515628 0 0 1 0.0475,1.39939 60.854178,61.515628 0 0 1 0.008,0.73898 60.854178,61.515628 0 0 1 -1.37822,-0.016 60.854178,61.515628 0 0 1 -1.38441,-0.0476 60.854178,61.515628 0 0 1 -1.38286,-0.0801 60.854178,61.515628 0 0 1 -1.38079,-0.11111 60.854178,61.515628 0 0 1 -1.37821,-0.14314 60.854178,61.515628 0 0 1 -1.3746,-0.17518 60.854178,61.515628 0 0 1 -1.36994,-0.20619 60.854178,61.515628 0 0 1 -1.36529,-0.23823 60.854178,61.515628 0 0 1 -1.35961,-0.26924 60.854178,61.515628 0 0 1 -1.35289,-0.30024 60.854178,61.515628 0 0 1 -1.34617,-0.33176 60.854178,61.515628 0 0 1 -1.3379,-0.36225 60.854178,61.515628 0 0 1 -1.32963,-0.39326 60.854178,61.515628 0 0 1 -1.32034,-0.42375 60.854178,61.515628 0 0 1 -1.31051,-0.45371 60.854178,61.515628 0 0 1 -1.30018,-0.48421 60.854178,61.515628 0 0 1 -1.28881,-0.51367 60.854178,61.515628 0 0 1 -1.27692,-0.54312 60.854178,61.515628 0 0 1 -1.26401,-0.57257 60.854178,61.515628 0 0 1 -1.25109,-0.60151 60.854178,61.515628 0 0 1 -1.23713,-0.62994 60.854178,61.515628 0 0 1 -1.22267,-0.65836 60.854178,61.515628 0 0 1 -1.20767,-0.68626 60.854178,61.515628 0 0 1 -1.19166,-0.71417 60.854178,61.515628 0 0 1 -1.17564,-0.74104 60.854178,61.515628 0 0 1 -1.15807,-0.76791 60.854178,61.515628 0 0 1 -1.14102,-0.79478 60.854178,61.515628 0 0 1 -1.12241,-0.82063 60.854178,61.515628 0 0 1 -1.10381,-0.84594 60.854178,61.515628 0 0 1 -1.08468,-0.87126 60.854178,61.515628 0 0 1 -1.06454,-0.89607 60.854178,61.515628 0 0 1 -1.04438,-0.92036 60.854178,61.515628 0 0 1 -1.02268,-0.94413 60.854178,61.515628 0 0 1 -1.002,-0.96738 60.854178,61.515628 0 0 1 -0.97927,-0.99064 60.854178,61.515628 0 0 1 -0.95705,-1.01234 60.854178,61.515628 0 0 1 -0.93431,-1.03405 60.854178,61.515628 0 0 1 -0.91002,-1.05575 60.854178,61.515628 0 0 1 -0.88677,-1.0759 60.854178,61.515628 0 0 1 -0.86196,-1.09657 60.854178,61.515628 0 0 1 -0.83716,-1.1157 60.854178,61.515628 0 0 1 -0.81132,-1.13481 60.854178,61.515628 0 0 1 -0.786,-1.15342 60.854178,61.515628 0 0 1 -0.76016,-1.17099 60.854178,61.515628 0 0 1 -0.73277,-1.18804 60.854178,61.515628 0 0 1 -0.70642,-1.20458 60.854178,61.515628 0 0 1 -0.67902,-1.22059 60.854178,61.515628 0 0 1 -0.65113,-1.2361 60.854178,61.515628 0 0 1 -0.62373,-1.25057 60.854178,61.515628 0 0 1 -0.5948,-1.26453 60.854178,61.515628 0 0 1 -0.56637,-1.27795 60.854178,61.515628 0 0 1 -0.53744,-1.29088 60.854178,61.515628 0 0 1 -0.50798,-1.30276 60.854178,61.515628 0 0 1 -0.47904,-1.31414 60.854178,61.515628 0 0 1 -0.44906,-1.32498 60.854178,61.515628 0 0 1 -0.4191,-1.33428 60.854178,61.515628 0 0 1 -0.38861,-1.34411 60.854178,61.515628 0 0 1 -0.35863,-1.35289 60.854178,61.515628 0 0 1 -0.32815,-1.36064 60.854178,61.515628 0 0 1 -0.29714,-1.36787 60.854178,61.515628 0 0 1 -0.26613,-1.37408 60.854178,61.515628 0 0 1 -0.23564,-1.37976 60.854178,61.515628 0 0 1 -0.20413,-1.38545 60.854178,61.515628 0 0 1 -0.17311,-1.38906 60.854178,61.515628 0 0 1 -0.1416,-1.39319 60.854178,61.515628 0 0 1 -0.11058,-1.39578 60.854178,61.515628 0 0 1 -0.0785,-1.39837 60.854178,61.515628 0 0 1 -0.0475,-1.3994 60.854178,61.515628 0 0 1 -0.008,-0.73897 z m -0.007,0 v 60.85417 h -5.2e-4 V 928.98 Z" /></g></g></svg>
