<?xml version="1.0" encoding="UTF-8" standalone="no"?>
<!-- Created with Inkscape (http://www.inkscape.org/) -->

<svg
   width="4in"
   height="5in"
   viewBox="0 0 101.6 127"
   version="1.1"
   id="svg1637"
   inkscape:export-filename="decorationsnew.png"
   inkscape:export-xdpi="300"
   inkscape:export-ydpi="300"
   inkscape:version="1.2.1 (9c6d41e410, 2022-07-14)"
   sodipodi:docname="decorationStatic.svg"
   xmlns:inkscape="http://www.inkscape.org/namespaces/inkscape"
   xmlns:sodipodi="http://sodipodi.sourceforge.net/DTD/sodipodi-0.dtd"
   xmlns:xlink="http://www.w3.org/1999/xlink"
   xmlns="http://www.w3.org/2000/svg"
   xmlns:svg="http://www.w3.org/2000/svg">
  <sodipodi:namedview
     id="namedview1639"
     pagecolor="#505050"
     bordercolor="#ffffff"
     borderopacity="1"
     inkscape:showpageshadow="0"
     inkscape:pageopacity="0"
     inkscape:pagecheckerboard="1"
     inkscape:deskcolor="#505050"
     inkscape:document-units="mm"
     showgrid="false"
     inkscape:zoom="1.1726187"
     inkscape:cx="88.263986"
     inkscape:cy="223.43154"
     inkscape:window-width="1920"
     inkscape:window-height="1002"
     inkscape:window-x="-8"
     inkscape:window-y="-8"
     inkscape:window-maximized="1"
     inkscape:current-layer="layer1" />
  <defs
     id="defs1634">
    <inkscape:path-effect
       effect="fillet_chamfer"
       id="path-effect12177"
       is_visible="true"
       lpeversion="1"
       nodesatellites_param="F,0,0,1,0,0.26458333,0,1 @ F,0,0,1,0,0.26458333,0,1 @ F,0,0,1,0,0.26458333,0,1 @ F,0,0,1,0,0.26458333,0,1"
       unit="px"
       method="auto"
       mode="F"
       radius="1"
       chamfer_steps="1"
       flexible="false"
       use_knot_distance="true"
       apply_no_radius="true"
       apply_with_radius="true"
       only_selected="false"
       hide_knots="false" />
    <inkscape:path-effect
       effect="fillet_chamfer"
       id="path-effect12171"
       is_visible="true"
       lpeversion="1"
       nodesatellites_param="F,0,0,1,0,0.26458333,0,1 @ F,0,0,1,0,0.26458333,0,1"
       unit="px"
       method="auto"
       mode="F"
       radius="1"
       chamfer_steps="1"
       flexible="false"
       use_knot_distance="true"
       apply_no_radius="true"
       apply_with_radius="true"
       only_selected="false"
       hide_knots="false" />
    <inkscape:path-effect
       effect="fillet_chamfer"
       id="path-effect12165"
       is_visible="true"
       lpeversion="1"
       nodesatellites_param="F,0,0,1,0,0.26458333,0,1 @ F,0,0,1,0,0.26458333,0,1 @ F,0,0,1,0,0.26458333,0,1 @ F,0,0,1,0,0.26458333,0,1"
       unit="px"
       method="auto"
       mode="F"
       radius="1"
       chamfer_steps="1"
       flexible="false"
       use_knot_distance="true"
       apply_no_radius="true"
       apply_with_radius="true"
       only_selected="false"
       hide_knots="false" />
    <inkscape:path-effect
       effect="fillet_chamfer"
       id="path-effect12159"
       is_visible="true"
       lpeversion="1"
       nodesatellites_param="F,0,0,1,0,0.26458333,0,1 @ F,0,0,1,0,0.26458333,0,1"
       unit="px"
       method="auto"
       mode="F"
       radius="1"
       chamfer_steps="1"
       flexible="false"
       use_knot_distance="true"
       apply_no_radius="true"
       apply_with_radius="true"
       only_selected="false"
       hide_knots="false" />
    <inkscape:path-effect
       effect="fillet_chamfer"
       id="path-effect12153"
       is_visible="true"
       lpeversion="1"
       nodesatellites_param="F,0,0,1,0,0.26458333,0,1 @ F,0,0,1,0,0.26458333,0,1 @ F,0,0,1,0,0.26458333,0,1"
       unit="px"
       method="auto"
       mode="F"
       radius="1"
       chamfer_steps="1"
       flexible="false"
       use_knot_distance="true"
       apply_no_radius="true"
       apply_with_radius="true"
       only_selected="false"
       hide_knots="false" />
    <inkscape:path-effect
       effect="fillet_chamfer"
       id="path-effect12147"
       is_visible="true"
       lpeversion="1"
       nodesatellites_param="F,0,0,1,0,0.26458333,0,1 @ F,0,0,1,0,0.26458333,0,1"
       unit="px"
       method="auto"
       mode="F"
       radius="1"
       chamfer_steps="1"
       flexible="false"
       use_knot_distance="true"
       apply_no_radius="true"
       apply_with_radius="true"
       only_selected="false"
       hide_knots="false" />
    <inkscape:path-effect
       effect="fillet_chamfer"
       id="path-effect12141"
       is_visible="true"
       lpeversion="1"
       nodesatellites_param="F,0,0,1,0,0.26458333,0,1 @ F,0,0,1,0,0.26458333,0,1 @ F,0,0,1,0,0.26458333,0,1"
       unit="px"
       method="auto"
       mode="F"
       radius="1"
       chamfer_steps="1"
       flexible="false"
       use_knot_distance="true"
       apply_no_radius="true"
       apply_with_radius="true"
       only_selected="false"
       hide_knots="false" />
    <inkscape:path-effect
       effect="fillet_chamfer"
       id="path-effect12135"
       is_visible="true"
       lpeversion="1"
       nodesatellites_param="F,0,0,1,0,0.26458333,0,1 @ F,0,0,1,0,0.26458333,0,1"
       unit="px"
       method="auto"
       mode="F"
       radius="1"
       chamfer_steps="1"
       flexible="false"
       use_knot_distance="true"
       apply_no_radius="true"
       apply_with_radius="true"
       only_selected="false"
       hide_knots="false" />
    <inkscape:path-effect
       effect="fillet_chamfer"
       id="path-effect12129"
       is_visible="true"
       lpeversion="1"
       nodesatellites_param="F,0,0,1,0,0.26458333,0,1 @ F,0,0,1,0,0.26458333,0,1 @ F,0,0,1,0,0.26458333,0,1"
       unit="px"
       method="auto"
       mode="F"
       radius="1"
       chamfer_steps="1"
       flexible="false"
       use_knot_distance="true"
       apply_no_radius="true"
       apply_with_radius="true"
       only_selected="false"
       hide_knots="false" />
    <linearGradient
       id="linearGradient1624"
       inkscape:swatch="solid"
       gradientTransform="matrix(0,0,0,0,118.48224,-377.71766)">
      <stop
         style="stop-color:#f06262;stop-opacity:1;"
         offset="0"
         id="stop1622" />
    </linearGradient>
    <linearGradient
       id="linearGradient1618"
       inkscape:swatch="solid"
       gradientTransform="matrix(9.9737861e-4,0,0,0.00109127,-13.941733,37.919671)">
      <stop
         style="stop-color:#272932;stop-opacity:1;"
         offset="0"
         id="stop1616" />
    </linearGradient>
    <inkscape:path-effect
       effect="fillet_chamfer"
       id="path-effect9721"
       is_visible="true"
       lpeversion="1"
       nodesatellites_param="F,0,0,1,0,0.26458333,0,1 @ F,0,0,1,0,0.26458333,0,1 @ F,0,0,1,0,0.26458333,0,1 @ F,0,0,1,0,0.26458333,0,1 @ F,0,0,1,0,0.26458333,0,1 @ F,0,0,1,0,0.26458333,0,1 @ F,0,0,1,0,0.26458333,0,1 @ F,0,0,1,0,0.26458333,0,1 @ F,0,0,1,0,0.26458333,0,1 @ F,0,0,1,0,0.26458333,0,1 @ F,0,0,1,0,0.26458333,0,1 @ F,0,0,1,0,0.26458333,0,1 @ F,0,0,1,0,0.26458333,0,1 @ F,0,0,1,0,0.26458333,0,1 @ F,0,0,1,0,0.26458333,0,1 @ F,0,0,1,0,0.26458333,0,1 @ F,0,0,1,0,0.26458333,0,1 @ F,0,0,1,0,0.26458333,0,1 @ F,0,0,1,0,0.26458333,0,1 @ F,0,0,1,0,0.26458333,0,1 @ F,0,0,1,0,0.26458333,0,1 @ F,0,0,1,0,0.26458333,0,1 @ F,0,0,1,0,0.26458333,0,1 @ F,0,0,1,0,0.26458333,0,1 @ F,0,0,1,0,0.26458333,0,1 @ F,0,0,1,0,0.26458333,0,1 @ F,0,0,1,0,0.26458333,0,1 @ F,0,0,1,0,0.26458333,0,1 @ F,0,0,1,0,0.26458333,0,1 @ F,0,0,1,0,0.26458333,0,1 @ F,0,0,1,0,0.26458333,0,1 @ F,0,0,1,0,0.26458333,0,1 @ F,0,0,1,0,0.26458333,0,1 @ F,0,0,1,0,0.26458333,0,1 @ F,0,0,1,0,0.26458333,0,1 @ F,0,0,1,0,0.26458333,0,1 @ F,0,0,1,0,0.26458333,0,1 @ F,0,0,1,0,0.26458333,0,1 @ F,0,0,1,0,0.26458333,0,1 @ F,0,0,1,0,0.26458333,0,1 @ F,0,0,1,0,0.26458333,0,1 @ F,0,0,1,0,0.26458333,0,1 @ F,0,0,1,0,0.26458333,0,1 @ F,0,0,1,0,0.26458333,0,1 @ F,0,0,1,0,0.26458333,0,1 @ F,0,0,1,0,0.26458333,0,1 @ F,0,0,1,0,0.26458333,0,1 @ F,0,0,1,0,0.26458333,0,1 @ F,0,0,1,0,0.26458333,0,1 @ F,0,0,1,0,0.26458333,0,1 @ F,0,0,1,0,0.26458333,0,1 @ F,0,0,1,0,0.26458333,0,1 @ F,0,0,1,0,0.26458333,0,1 @ F,0,0,1,0,0.26458333,0,1 @ F,0,0,1,0,0.26458333,0,1 @ F,0,0,1,0,0.26458333,0,1 @ F,0,0,1,0,0.26458333,0,1 @ F,0,0,1,0,0.26458333,0,1 @ F,0,0,1,0,0.26458333,0,1 @ F,0,0,1,0,0.26458333,0,1 @ F,0,0,1,0,0.26458333,0,1 @ F,0,0,1,0,0.26458333,0,1 @ F,0,0,1,0,0.26458333,0,1 @ F,0,0,1,0,0.26458333,0,1 @ F,0,0,1,0,0.26458333,0,1 @ F,0,0,1,0,0.26458333,0,1 @ F,0,0,1,0,0.26458333,0,1 @ F,0,0,1,0,0.26458333,0,1 @ F,0,0,1,0,0.26458333,0,1 @ F,0,0,1,0,0.26458333,0,1 @ F,0,0,1,0,0.26458333,0,1 @ F,0,0,1,0,0.26458333,0,1 @ F,0,0,1,0,0.26458333,0,1 @ F,0,0,1,0,0.26458333,0,1 @ F,0,0,1,0,0.26458333,0,1 @ F,0,0,1,0,0.26458333,0,1 @ F,0,0,1,0,0.26458333,0,1 @ F,0,0,1,0,0.26458333,0,1 @ F,0,0,1,0,0.26458333,0,1 @ F,0,0,1,0,0.26458333,0,1 @ F,0,0,1,0,0.26458333,0,1 @ F,0,0,1,0,0.26458333,0,1 @ F,0,0,1,0,0.26458333,0,1 @ F,0,0,1,0,0.26458333,0,1 @ F,0,0,1,0,0.26458333,0,1 @ F,0,0,1,0,0.26458333,0,1 @ F,0,0,1,0,0.26458333,0,1 @ F,0,0,1,0,0.26458333,0,1 @ F,0,0,1,0,0.26458333,0,1 @ F,0,0,1,0,0.26458333,0,1 @ F,0,0,1,0,0.26458333,0,1 @ F,0,0,1,0,0.26458333,0,1 @ F,0,0,1,0,0.26458333,0,1 @ F,0,0,1,0,0.26458333,0,1 @ F,0,0,1,0,0.26458333,0,1 @ F,0,0,1,0,0.26458333,0,1 @ F,0,0,1,0,0.26458333,0,1"
       unit="px"
       method="auto"
       mode="F"
       radius="1"
       chamfer_steps="1"
       flexible="false"
       use_knot_distance="true"
       apply_no_radius="true"
       apply_with_radius="true"
       only_selected="false"
       hide_knots="false" />
    <inkscape:path-effect
       effect="fillet_chamfer"
       id="path-effect9719"
       is_visible="true"
       lpeversion="1"
       nodesatellites_param="F,0,0,1,0,0.26458333,0,1 @ F,0,0,1,0,0.26458333,0,1 @ F,0,0,1,0,0.26458333,0,1 @ F,0,0,1,0,0.26458333,0,1 @ F,0,0,1,0,0.26458333,0,1 @ F,0,0,1,0,0.26458333,0,1 @ F,0,0,1,0,0.26458333,0,1 @ F,0,0,1,0,0.26458333,0,1 @ F,0,0,1,0,0.26458333,0,1 @ F,0,0,1,0,0.26458333,0,1 @ F,0,0,1,0,0.26458333,0,1 @ F,0,0,1,0,0.26458333,0,1"
       unit="px"
       method="auto"
       mode="F"
       radius="1"
       chamfer_steps="1"
       flexible="false"
       use_knot_distance="true"
       apply_no_radius="true"
       apply_with_radius="true"
       only_selected="false"
       hide_knots="false" />
    <inkscape:path-effect
       effect="fillet_chamfer"
       id="path-effect9717"
       is_visible="true"
       lpeversion="1"
       nodesatellites_param="F,0,0,1,0,0.52916667,0,1 @ F,0,0,1,0,0.52916667,0,1 @ F,0,0,1,0,0.52916667,0,1"
       unit="px"
       method="auto"
       mode="F"
       radius="2"
       chamfer_steps="1"
       flexible="false"
       use_knot_distance="true"
       apply_no_radius="true"
       apply_with_radius="true"
       only_selected="false"
       hide_knots="false" />
    <linearGradient
       inkscape:collect="always"
       xlink:href="#linearGradient1624"
       id="linearGradient9859"
       gradientUnits="userSpaceOnUse"
       gradientTransform="matrix(0.05384833,0,0,0.05891766,-2124.0569,-9.7362183)" />
    <linearGradient
       inkscape:collect="always"
       xlink:href="#linearGradient1624"
       id="linearGradient9861"
       gradientUnits="userSpaceOnUse"
       gradientTransform="matrix(0.05384833,0,0,0.05891766,-2124.0569,-9.7362183)" />
    <linearGradient
       inkscape:collect="always"
       xlink:href="#linearGradient1624"
       id="linearGradient9863"
       gradientUnits="userSpaceOnUse"
       gradientTransform="matrix(0.05384833,0,0,0.05891766,-2124.0569,-9.7362183)" />
    <linearGradient
       id="linearGradient1612"
       inkscape:swatch="solid"
       gradientTransform="matrix(7.6147856e-4,-1.3570623e-4,-1.9460236e-4,-5.0413612e-4,576.71913,-15.022291)">
      <stop
         style="stop-color:#424c55;stop-opacity:1;"
         offset="0"
         id="stop1610" />
    </linearGradient>
    <linearGradient
       inkscape:collect="always"
       xlink:href="#linearGradient1624"
       id="linearGradient12100"
       gradientTransform="matrix(0.00376962,0,0,0.00412449,-148.6932,12.018422)"
       gradientUnits="userSpaceOnUse" />
    <linearGradient
       inkscape:collect="always"
       xlink:href="#linearGradient1624"
       id="linearGradient12111"
       gradientUnits="userSpaceOnUse"
       gradientTransform="matrix(0,0.00376962,-0.00412449,0,191.18158,-148.6932)" />
    <linearGradient
       inkscape:collect="always"
       xlink:href="#linearGradient1624"
       id="linearGradient14525"
       gradientTransform="matrix(9.9737861e-4,0,0,0.00109127,-13.941741,50.61967)"
       gradientUnits="userSpaceOnUse" />
    <linearGradient
       inkscape:collect="always"
       xlink:href="#linearGradient1624"
       id="linearGradient1790"
       gradientUnits="userSpaceOnUse"
       gradientTransform="matrix(0.05384833,0,0,0.05891766,-2124.0569,-9.7362183)" />
    <linearGradient
       inkscape:collect="always"
       xlink:href="#linearGradient1624"
       id="linearGradient1792"
       gradientUnits="userSpaceOnUse"
       gradientTransform="matrix(0.05384833,0,0,0.05891766,-2124.0569,-9.7362183)" />
    <linearGradient
       inkscape:collect="always"
       xlink:href="#linearGradient1624"
       id="linearGradient1794"
       gradientUnits="userSpaceOnUse"
       gradientTransform="matrix(0.05384833,0,0,0.05891766,-2124.0569,-9.7362183)" />
    <linearGradient
       inkscape:collect="always"
       xlink:href="#linearGradient1624"
       id="linearGradient1796"
       gradientUnits="userSpaceOnUse"
       gradientTransform="matrix(0.05384833,0,0,0.05891766,-2124.0569,-9.7362183)" />
    <linearGradient
       inkscape:collect="always"
       xlink:href="#linearGradient1624"
       id="linearGradient1798"
       gradientUnits="userSpaceOnUse"
       gradientTransform="matrix(0.05384833,0,0,0.05891766,-2124.0569,-9.7362183)" />
    <linearGradient
       inkscape:collect="always"
       xlink:href="#linearGradient1624"
       id="linearGradient1800"
       gradientUnits="userSpaceOnUse"
       gradientTransform="matrix(0.05384833,0,0,0.05891766,-2124.0569,-9.7362183)" />
    <linearGradient
       inkscape:collect="always"
       xlink:href="#linearGradient1624"
       id="linearGradient1802"
       gradientUnits="userSpaceOnUse"
       gradientTransform="matrix(0.05384833,0,0,0.05891766,-2124.0569,-9.7362183)" />
    <linearGradient
       inkscape:collect="always"
       xlink:href="#linearGradient1624"
       id="linearGradient1804"
       gradientUnits="userSpaceOnUse"
       gradientTransform="matrix(0.05384833,0,0,0.05891766,-2124.0569,-9.7362183)" />
    <linearGradient
       inkscape:collect="always"
       xlink:href="#linearGradient1624"
       id="linearGradient1806"
       gradientUnits="userSpaceOnUse"
       gradientTransform="matrix(0.05384833,0,0,0.05891766,-2124.0569,-9.7362183)" />
  </defs>
  <g
     inkscape:label="Layer 1"
     inkscape:groupmode="layer"
     id="layer1"
     style="display:inline">
    <g
       id="g463">
      <path
         id="path13770"
         style="display:inline;fill:url(#linearGradient1624);stroke-width:2.19887;stroke-linecap:round;stroke-linejoin:round"
         d="m 83.12307,84.202928 -1.48e-4,11.26693 0.788582,-1.463482 h 5.045541 z m 10.863785,9.803448 c 0,0 -2.583128,7.648114 -3.874696,11.472174 h -6.989237 v 29.82815 h 52.772998 v -29.82815 h -6.74067 l 3.87419,-11.472174 h -6.2973 l -3.87418,11.472174 h -10.07587 l 3.8747,-11.472174 h -6.29729 l -3.8747,11.472174 H 96.409446 l 3.874694,-11.472174 z"
         sodipodi:nodetypes="cccccccccccccccccccccc"
         transform="matrix(0.48130674,0,0,0.48130674,10.792375,61.875969)" />
      <path
         id="path44093-4"
         style="font-variation-settings:'wght' 300;display:inline;fill:url(#linearGradient1624);fill-opacity:1;stroke-width:1.18556;stroke-linecap:round;stroke-linejoin:round"
         d="m 96.561165,92.204627 -8.055207,-10.421155 5.977781,-1.079784 7.906421,10.448031 z m 30.520965,-5.549292 -8.05523,-10.421155 5.9778,-1.07976 7.90642,10.448032 z m -15.17191,2.740526 -8.0552,-10.421138 5.97777,-1.079777 7.90642,10.448023 z"
         inkscape:transform-center-x="-25.624467"
         inkscape:transform-center-y="-8.830402"
         transform="matrix(0.48130674,0,0,0.48130674,10.792375,61.875969)" />
      <path
         id="path9447"
         style="font-variation-settings:'wght' 300;display:inline;opacity:0.497561;fill:url(#linearGradient9859);fill-opacity:1;stroke-width:0.234242;stroke-linecap:round;stroke-linejoin:round"
         d="m 1464.6522,-21.389912 c 0.1907,-0.103353 0.1907,-0.103353 0.1907,-0.103353 0.184,-0.115238 0.184,-0.115238 0.184,-0.115238 0.1757,-0.127124 0.1757,-0.127124 0.1757,-0.127124 0.1664,-0.138493 0.1664,-0.138493 0.1664,-0.138493 h -2.2712 a 0.26458333,0.26458333 45 0 1 -0.2646,-0.264583 v -2.101164 c 0,-0.146125 -0.141,-0.234093 -0.089,-0.234093 -0.089,0.02739 -0.089,0.02739 -0.089,0.02739 -0.089,0.02481 -0.089,0.02481 -0.089,0.02481 -0.089,0.02119 -0.089,0.02119 -0.089,0.02119 -0.089,0.01809 -0.089,0.01809 -0.089,0.01809 -0.089,0.01499 -0.089,0.01499 -0.089,0.01499 -0.089,0.01137 -0.089,0.01137 -0.089,0.01137 -0.089,0.0088 -0.089,0.0088 -0.089,0.0088 -0.089,0.0057 -0.089,0.0057 -0.089,0.0057 -0.089,0.0021 -0.089,0.0021 -0.089,0.0021 -0.089,-5.16e-4 -0.089,-5.16e-4 -0.089,-5.16e-4 -0.089,-0.0041 -0.089,-0.0041 -0.089,-0.0041 -0.089,-0.0072 -0.089,-0.0072 -0.089,-0.0072 -0.089,-0.01034 -0.089,-0.01034 -0.089,-0.01034 -0.089,-0.01344 -0.089,-0.01344 -0.089,-0.01344 -0.089,-0.01654 -0.089,-0.01654 -0.089,-0.01654 -0.089,-0.01964 -0.089,-0.01964 -0.089,-0.01964 -0.089,-0.02274 -0.089,-0.02274 -0.089,-0.02274 -0.089,-0.02636 -0.089,-0.02636 -0.089,-0.02636 -0.089,-0.02894 -0.089,-0.02894 -0.089,-0.02894 -0.089,-0.03256 -0.089,-0.03256 -0.089,-0.03256 -0.089,-0.03514 -0.089,-0.03514 -0.089,-0.03514 -0.089,-0.03876 -0.089,-0.03876 -0.089,-0.03876 -0.089,-0.04186 -0.089,-0.04186 -0.089,-0.04186 -0.089,-0.04496 -0.089,-0.04496 -0.089,-0.04496 -0.089,-0.04806 -0.089,-0.04806 -0.089,-0.04806 -0.089,-0.05116 -0.089,-0.05116 -0.089,-0.05116 -0.089,-0.05426 -0.089,-0.05426 -0.089,-0.05426 -0.089,-0.05788 -0.089,-0.05788 -0.089,-0.05788 -0.089,-0.06046 -0.089,-0.06046 -0.089,-0.06046 -0.089,-0.06408 -0.089,-0.06408 -0.089,-0.06408 -0.089,-0.06666 -0.089,-0.06666 -0.089,-0.06666 -0.016,0.07906 -0.016,0.07906 -0.016,0.07906 -0.027,0.139527 -0.027,0.139527 -0.027,0.139527 -0.012,0.08733 -0.012,0.08733 -0.012,0.08733 -0.016,0.144177 -0.016,0.144177 -0.016,0.144177 -0.01,0.07803 -0.01,0.07803 -0.01,0.07803 -0.01,0.218074 -0.01,0.218074 -0.01,0.218074 0.01,0.22996 0.01,0.22996 0.01,0.22996 0.01,0.09147 0.01,0.09147 0.01,0.09147 0.015,0.135392 0.015,0.135392 0.015,0.135392 0.018,0.10697 0.018,0.10697 0.018,0.10697 0.023,0.123507 0.023,0.123507 0.023,0.123507 0.025,0.10697 0.025,0.10697 0.025,0.10697 0.03,0.112655 0.03,0.112655 0.03,0.112655 0.034,0.112137 0.034,0.112137 0.034,0.112137 0.041,0.116272 0.041,0.116272 0.041,0.116272 0.036,0.09715 0.036,0.09715 0.036,0.09715 0.054,0.12299 0.054,0.12299 0.054,0.12299 0.041,0.09147 0.041,0.09147 0.041,0.09147 0.1059,0.200505 0.1059,0.200505 0.1059,0.200505 0.1209,0.192236 0.1209,0.192236 0.1209,0.192236 0.06,0.0832 0.06,0.0832 0.06,0.0832 0.079,0.105937 0.079,0.105937 0.079,0.105937 0.059,0.07286 0.059,0.07286 0.059,0.07286 0.094,0.10852 0.094,0.10852 0.094,0.10852 0.065,0.06976 0.065,0.06976 0.065,0.06976 0.094,0.09353 0.094,0.09353 0.094,0.09353 0.079,0.0739 0.079,0.0739 0.079,0.0739 0.091,0.07803 0.091,0.07803 0.091,0.07803 0.085,0.06976 0.085,0.06976 0.085,0.06976 0.1178,0.08682 0.1178,0.08682 0.1178,0.08682 0.067,0.04806 0.067,0.04806 0.067,0.04806 0.139,0.08733 0.139,0.08733 0.139,0.08733 0.057,0.03566 0.057,0.03566 0.057,0.03566 0.065,0.03462 0.065,0.03462 0.065,0.03462 0.1391,0.07338 0.1391,0.07338 0.1391,0.07338 0.081,0.03617 0.081,0.03617 0.081,0.03617 0.1286,0.05633 0.1286,0.05633 0.1286,0.05633 0.096,0.03617 0.096,0.03617 0.096,0.03617 0.1282,0.04496 0.1282,0.04496 0.1282,0.04496 0.091,0.02739 0.091,0.02739 0.091,0.02739 0.1302,0.03514 0.1302,0.03514 0.1302,0.03514 0.1018,0.02377 0.1018,0.02377 0.1018,0.02377 0.122,0.02325 0.122,0.02325 0.122,0.02325 0.108,0.01757 0.108,0.01757 0.108,0.01757 0.1384,0.0155 0.1384,0.0155 0.1384,0.0155 0.088,0.0088 0.088,0.0088 0.088,0.0088 0.2305,0.0088 0.2305,0.0088 0.2305,0.0088 0.2237,-0.0083 0.2237,-0.0083 0.2237,-0.0083 0.1504,-0.0155 0.1504,-0.0155 0.1504,-0.0155 0.07,-0.0078 0.07,-0.0078 0.07,-0.0078 0.1571,-0.02584 0.1571,-0.02584 0.1571,-0.02584 0.069,-0.01344 0.069,-0.01344 0.069,-0.01344 0.1452,-0.03411 0.1452,-0.03411 0.1452,-0.03411 0.081,-0.0217 0.081,-0.0217 0.081,-0.0217 0.1421,-0.04341 0.1421,-0.04341 0.1421,-0.04341 0.059,-0.02067 0.059,-0.02067 0.059,-0.02067 0.1695,-0.06511 0.1695,-0.06511 0.1695,-0.06511 l -0,-3.5e-5 z"
         inkscape:path-effect="#path-effect9721"
         inkscape:original-d="m 1464.4548,-21.299992 a 3.2946599,3.2946599 0 0 0 0.1974,-0.08992 3.2946599,3.2946599 0 0 0 0.1907,-0.103353 3.2946599,3.2946599 0 0 0 0.184,-0.115238 3.2946599,3.2946599 0 0 0 0.1757,-0.127124 3.2946599,3.2946599 0 0 0 0.1664,-0.138493 h -2.5358 v -2.63033 c -0.03,0.01076 -0.06,0.02078 -0.089,0.03049 -0.03,0.0097 -0.06,0.01873 -0.089,0.02739 -0.03,0.0087 -0.059,0.0172 -0.089,0.02481 -0.03,0.0076 -0.06,0.01463 -0.089,0.02119 -0.03,0.0066 -0.06,0.01258 -0.089,0.01809 -0.03,0.0055 -0.06,0.01053 -0.089,0.01499 -0.03,0.0045 -0.059,0.008 -0.089,0.01137 -0.03,0.0034 -0.06,0.0064 -0.089,0.0088 -0.03,0.0024 -0.06,0.0044 -0.089,0.0057 -0.03,0.0013 -0.06,0.0018 -0.089,0.0021 -0.03,2.51e-4 -0.059,2.84e-4 -0.089,-5.16e-4 -0.03,-8.01e-4 -0.06,-0.0023 -0.089,-0.0041 -0.03,-0.0019 -0.06,-0.0043 -0.089,-0.0072 -0.03,-0.0029 -0.06,-0.0064 -0.089,-0.01034 -0.03,-0.004 -0.059,-0.0084 -0.089,-0.01344 -0.03,-0.005 -0.06,-0.01048 -0.089,-0.01654 -0.03,-0.0061 -0.06,-0.01253 -0.089,-0.01964 -0.03,-0.0071 -0.059,-0.01458 -0.089,-0.02274 -0.03,-0.0082 -0.06,-0.01715 -0.089,-0.02636 -0.03,-0.0092 -0.06,-0.01869 -0.089,-0.02894 -0.03,-0.01025 -0.059,-0.02125 -0.089,-0.03256 -0.03,-0.0113 -0.06,-0.02279 -0.089,-0.03514 -0.03,-0.01235 -0.059,-0.02535 -0.089,-0.03876 -0.03,-0.0134 -0.06,-0.0274 -0.089,-0.04186 -0.03,-0.01445 -0.059,-0.02945 -0.089,-0.04496 -0.03,-0.0155 -0.059,-0.03151 -0.089,-0.04806 -0.03,-0.01655 -0.06,-0.03356 -0.089,-0.05116 -0.03,-0.0176 -0.059,-0.03561 -0.089,-0.05426 -0.03,-0.01865 -0.06,-0.03817 -0.089,-0.05788 -0.03,-0.0197 -0.059,-0.03971 -0.089,-0.06046 -0.03,-0.02075 -0.059,-0.04228 -0.089,-0.06408 -0.03,-0.0218 -0.059,-0.04381 -0.089,-0.06666 a 3.2946599,3.2946599 0 0 0 -0.016,0.07906 3.2946599,3.2946599 0 0 0 -0.027,0.139527 3.2946599,3.2946599 0 0 0 -0.012,0.08733 3.2946599,3.2946599 0 0 0 -0.016,0.144177 3.2946599,3.2946599 0 0 0 -0.01,0.07803 3.2946599,3.2946599 0 0 0 -0.01,0.218074 3.2946599,3.2946599 0 0 0 0.01,0.22996 3.2946599,3.2946599 0 0 0 0.01,0.09147 3.2946599,3.2946599 0 0 0 0.015,0.135392 3.2946599,3.2946599 0 0 0 0.018,0.10697 3.2946599,3.2946599 0 0 0 0.023,0.123507 3.2946599,3.2946599 0 0 0 0.025,0.10697 3.2946599,3.2946599 0 0 0 0.03,0.112655 3.2946599,3.2946599 0 0 0 0.034,0.112137 3.2946599,3.2946599 0 0 0 0.041,0.116272 3.2946599,3.2946599 0 0 0 0.036,0.09715 3.2946599,3.2946599 0 0 0 0.054,0.12299 3.2946599,3.2946599 0 0 0 0.041,0.09147 3.2946599,3.2946599 0 0 0 0.1059,0.200505 3.2946599,3.2946599 0 0 0 0.1209,0.192236 3.2946599,3.2946599 0 0 0 0.06,0.0832 3.2946599,3.2946599 0 0 0 0.079,0.105937 3.2946599,3.2946599 0 0 0 0.059,0.07286 3.2946599,3.2946599 0 0 0 0.094,0.10852 3.2946599,3.2946599 0 0 0 0.065,0.06976 3.2946599,3.2946599 0 0 0 0.094,0.09353 3.2946599,3.2946599 0 0 0 0.079,0.0739 3.2946599,3.2946599 0 0 0 0.091,0.07803 3.2946599,3.2946599 0 0 0 0.085,0.06976 3.2946599,3.2946599 0 0 0 0.1178,0.08682 3.2946599,3.2946599 0 0 0 0.067,0.04806 3.2946599,3.2946599 0 0 0 0.139,0.08733 3.2946599,3.2946599 0 0 0 0.057,0.03566 3.2946599,3.2946599 0 0 0 0.065,0.03462 3.2946599,3.2946599 0 0 0 0.1391,0.07338 3.2946599,3.2946599 0 0 0 0.081,0.03617 3.2946599,3.2946599 0 0 0 0.1286,0.05633 3.2946599,3.2946599 0 0 0 0.096,0.03617 3.2946599,3.2946599 0 0 0 0.1282,0.04496 3.2946599,3.2946599 0 0 0 0.091,0.02739 3.2946599,3.2946599 0 0 0 0.1302,0.03514 3.2946599,3.2946599 0 0 0 0.1018,0.02377 3.2946599,3.2946599 0 0 0 0.122,0.02325 3.2946599,3.2946599 0 0 0 0.108,0.01757 3.2946599,3.2946599 0 0 0 0.1384,0.0155 3.2946599,3.2946599 0 0 0 0.088,0.0088 3.2946599,3.2946599 0 0 0 0.2305,0.0088 3.2946599,3.2946599 0 0 0 0.2237,-0.0083 3.2946599,3.2946599 0 0 0 0.1504,-0.0155 3.2946599,3.2946599 0 0 0 0.07,-0.0078 3.2946599,3.2946599 0 0 0 0.1571,-0.02584 3.2946599,3.2946599 0 0 0 0.069,-0.01344 3.2946599,3.2946599 0 0 0 0.1452,-0.03411 3.2946599,3.2946599 0 0 0 0.081,-0.0217 3.2946599,3.2946599 0 0 0 0.1421,-0.04341 3.2946599,3.2946599 0 0 0 0.059,-0.02067 3.2946599,3.2946599 0 0 0 0.1695,-0.06511 z"
         transform="matrix(2.8090622,0,0,2.8090622,-4021.2899,120.12176)" />
      <path
         style="font-variation-settings:'wght' 300;display:inline;opacity:1;fill:url(#linearGradient1790);fill-opacity:1;stroke-width:0.234242;stroke-linecap:round;stroke-linejoin:round"
         inkscape:path-effect="#path-effect12177"
         inkscape:original-d="m 1464.6656,-21.397657 a 3.2946599,3.2946599 0 0 1 -0.2114,0.09767 3.2946599,3.2946599 0 0 0 0.1974,-0.08992 3.2946599,3.2946599 0 0 0 0.014,-0.0078 z"
         d="m 1464.4542,-21.299987 c 0.1974,-0.08992 0.1974,-0.08992 0.1974,-0.08992 0.014,-0.0078 0.014,-0.0078 0.014,-0.0078 v 5e-5 z"
         id="path12173"
         transform="matrix(2.8090622,0,0,2.8090622,-4021.2899,120.12176)" />
      <path
         style="font-variation-settings:'wght' 300;display:inline;opacity:1;fill:url(#linearGradient1792);fill-opacity:1;stroke-width:0.234242;stroke-linecap:round;stroke-linejoin:round"
         inkscape:path-effect="#path-effect12171"
         inkscape:original-d="m 1464.7476,-21.441587 a 3.2946599,3.2946599 0 0 1 -0.082,0.04393 3.2946599,3.2946599 0 0 0 0.082,-0.04393 z"
         d="m 1464.6656,-21.397657 c 0.082,-0.04393 0.082,-0.04393 0.082,-0.04393 z"
         id="path12167"
         transform="matrix(2.8090622,0,0,2.8090622,-4021.2899,120.12176)" />
      <path
         style="font-variation-settings:'wght' 300;display:inline;opacity:1;fill:url(#linearGradient1794);fill-opacity:1;stroke-width:0.234242;stroke-linecap:round;stroke-linejoin:round"
         inkscape:path-effect="#path-effect12165"
         inkscape:original-d="m 1464.8546,-21.500497 a 3.2946599,3.2946599 0 0 1 -0.107,0.05891 3.2946599,3.2946599 0 0 0 0.095,-0.05168 3.2946599,3.2946599 0 0 0 0.012,-0.0072 z"
         d="m 1464.7476,-21.441587 c 0.095,-0.05168 0.095,-0.05168 0.095,-0.05168 0.012,-0.0072 0.012,-0.0072 0.012,-0.0072 v -3e-5 z"
         id="path12161"
         transform="matrix(2.8090622,0,0,2.8090622,-4021.2899,120.12176)" />
      <path
         style="font-variation-settings:'wght' 300;display:inline;opacity:1;fill:url(#linearGradient1796);fill-opacity:1;stroke-width:0.234242;stroke-linecap:round;stroke-linejoin:round"
         inkscape:path-effect="#path-effect12159"
         inkscape:original-d="m 1464.9755,-21.576467 a 3.2946599,3.2946599 0 0 1 -0.1209,0.07597 3.2946599,3.2946599 0 0 0 0.1209,-0.07597 z"
         d="m 1464.8546,-21.500497 c 0.1209,-0.07597 0.1209,-0.07597 0.1209,-0.07597 z"
         id="path12155"
         transform="matrix(2.8090622,0,0,2.8090622,-4021.2899,120.12176)" />
      <path
         style="font-variation-settings:'wght' 300;display:inline;opacity:1;fill:url(#linearGradient1798);fill-opacity:1;stroke-width:0.234242;stroke-linecap:round;stroke-linejoin:round"
         inkscape:path-effect="#path-effect12153"
         inkscape:original-d="m 1465.0455,-21.622457 a 3.2946599,3.2946599 0 0 1 -0.07,0.04599 3.2946599,3.2946599 0 0 0 0.051,-0.03204 3.2946599,3.2946599 0 0 0 0.019,-0.01395 z"
         d="m 1464.9755,-21.576467 c 0.051,-0.03204 0.051,-0.03204 0.051,-0.03204 0.019,-0.01395 0.019,-0.01395 0.019,-0.01395 z"
         id="path12149"
         transform="matrix(2.8090622,0,0,2.8090622,-4021.2899,120.12176)" />
      <path
         style="font-variation-settings:'wght' 300;display:inline;opacity:1;fill:url(#linearGradient1800);fill-opacity:1;stroke-width:0.234242;stroke-linecap:round;stroke-linejoin:round"
         inkscape:path-effect="#path-effect12147"
         inkscape:original-d="m 1465.1592,-21.704617 a 3.2946599,3.2946599 0 0 1 -0.1137,0.08216 3.2946599,3.2946599 0 0 0 0.1137,-0.08216 z"
         d="m 1465.0455,-21.622457 c 0.1137,-0.08216 0.1137,-0.08216 0.1137,-0.08216 z"
         id="path12143"
         transform="matrix(2.8090622,0,0,2.8090622,-4021.2899,120.12176)" />
      <path
         style="font-variation-settings:'wght' 300;display:inline;opacity:1;fill:url(#linearGradient1802);fill-opacity:1;stroke-width:0.234242;stroke-linecap:round;stroke-linejoin:round"
         inkscape:path-effect="#path-effect12141"
         inkscape:original-d="m 1465.2302,-21.758877 a 3.2946599,3.2946599 0 0 1 -0.071,0.05426 3.2946599,3.2946599 0 0 0 0.043,-0.03101 3.2946599,3.2946599 0 0 0 0.028,-0.02325 z"
         d="m 1465.1592,-21.704617 c 0.043,-0.03101 0.043,-0.03101 0.043,-0.03101 0.028,-0.02325 0.028,-0.02325 0.028,-0.02325 z"
         id="path12137"
         transform="matrix(2.8090622,0,0,2.8090622,-4021.2899,120.12176)" />
      <path
         style="font-variation-settings:'wght' 300;display:inline;opacity:1;fill:url(#linearGradient1804);fill-opacity:1;stroke-width:0.234242;stroke-linecap:round;stroke-linejoin:round"
         inkscape:path-effect="#path-effect12135"
         inkscape:original-d="m 1465.3469,-21.856027 a 3.2946599,3.2946599 0 0 1 -0.1167,0.09715 3.2946599,3.2946599 0 0 0 0.1167,-0.09715 z"
         d="m 1465.2302,-21.758877 c 0.1167,-0.09715 0.1167,-0.09715 0.1167,-0.09715 z"
         id="path12131"
         transform="matrix(2.8090622,0,0,2.8090622,-4021.2899,120.12176)" />
      <path
         style="font-variation-settings:'wght' 300;display:inline;opacity:1;fill:url(#linearGradient1806);fill-opacity:1;stroke-width:0.234242;stroke-linecap:round;stroke-linejoin:round"
         inkscape:path-effect="#path-effect12129"
         inkscape:original-d="m 1465.3679,-21.874117 a 3.2946599,3.2946599 0 0 1 -0.021,0.01809 3.2946599,3.2946599 0 0 0 0.022,-0.01809 z"
         d="m 1465.3469,-21.856027 c 0.022,-0.01809 0.022,-0.01809 0.022,-0.01809 h -10e-4 z"
         id="path12125"
         transform="matrix(2.8090622,0,0,2.8090622,-4021.2899,120.12176)" />
      <path
         style="font-variation-settings:'wght' 300;display:inline;opacity:1;fill:url(#linearGradient9861);fill-opacity:1;stroke-width:0.234242;stroke-linecap:round;stroke-linejoin:round"
         inkscape:path-effect="#path-effect9719"
         inkscape:original-d="m 1463.1872,-27.633455 a 3.2946599,3.2946599 0 0 0 -3.2081,2.548164 c 0.03,0.02285 0.059,0.04486 0.089,0.06666 0.023,0.01709 0.046,0.03361 0.07,0.05013 0.9027,-0.626547 1.8456,-0.509022 2.6955,0.464055 v 2.63033 h 2.5347 a 3.2946599,3.2946599 0 0 0 1.1142,-2.464966 3.2946599,3.2946599 0 0 0 -0.076,-0.699182 c -1.2384,0.991833 -2.4814,0.889224 -3.715,-0.306958 1.1237,-1.133264 2.3297,-1.335173 3.4452,-0.45992 a 3.2946599,3.2946599 0 0 0 -2.9491,-1.828312 z"
         d="m 1462.9229,-27.622854 c -1.3309,0.106746 -2.4684,1.010242 -2.8736,2.282483 -0.044,0.139217 -0.031,0.285639 0.019,0.32174 0.07,0.05013 0.07,0.05013 0.07,0.05013 0.9938,-0.565874 1.7842,-0.451431 2.5146,0.271113 0.1038,0.102741 0.1809,0.3114 0.1809,0.457525 v 2.101164 a 0.26458333,0.26458333 45 0 0 0.2646,0.264583 h 2.0055 c 0.1461,0 0.3543,-0.07772 0.4557,-0.182869 0.5277,-0.547082 0.85,-1.260287 0.9121,-2.017816 0.012,-0.145597 0.012,-0.382966 0,-0.528566 -0,-0.0583 -0.011,-0.116464 -0.019,-0.174428 -0.02,-0.144759 -0.138,-0.18547 -0.2577,-0.101688 -1.1033,0.772283 -2.2096,0.67663 -3.309,-0.286346 -0.1099,-0.09626 -0.1115,-0.264197 -0,-0.362384 0.9962,-0.904033 2.0485,-1.080929 3.0394,-0.431421 0.1222,0.08008 0.1629,0.04772 0.088,-0.07748 -0.5468,-0.909416 -1.5,-1.500362 -2.5577,-1.585659 -0.1456,-0.01174 -0.2645,-0.01068 -0.2647,-0.01068 z"
         id="path9445"
         transform="matrix(2.8090622,0,0,2.8090622,-4021.2899,120.12176)" />
      <path
         id="path7910"
         style="font-variation-settings:'wght' 300;display:inline;opacity:1;fill:url(#linearGradient9863);fill-opacity:1;stroke-width:0.234242;stroke-linecap:round;stroke-linejoin:round"
         d="m 1462.6599,-19.988015 c -1.8448,0.244527 -3.4053,1.747084 -3.9749,3.836613 -0.077,0.28186 0.119,0.515664 0.4113,0.515664 l 8.186,0 c 0.2923,0 0.4881,-0.233822 0.4113,-0.515705 -0.57,-2.090969 -2.1323,-3.594008 -3.9784,-3.837046 -0.2896,-0.03812 -0.7658,-0.0379 -1.0553,4.74e-4 z"
         inkscape:path-effect="#path-effect9717"
         inkscape:original-d="m 1463.1875,-20.023067 a 4.7343854,5.5841694 0 0 0 -4.6204,4.387329 h 9.2444 a 4.7343854,5.5841694 0 0 0 -4.624,-4.387329 z"
         transform="matrix(2.8090622,0,0,2.8090622,-4021.2899,120.12176)" />
      <path
         id="path9928"
         style="font-variation-settings:'wght' 600;opacity:1;fill:url(#linearGradient1624);fill-opacity:1;stroke:none;stroke-width:0.429683;stroke-linecap:round;stroke-miterlimit:2.4;stroke-dasharray:none;stroke-opacity:1"
         d="m -1.0000003e-6,-1e-6 v 12.7 A 12.699996,12.699995 0 0 1 12.699999,25.399999 h 12.7 A 25.399998,25.399996 0 0 0 -1.0000003e-6,-1e-6 Z" />
      <path
         id="path9931"
         style="font-variation-settings:'wght' 600;opacity:0.5;fill:url(#linearGradient1624);fill-opacity:1;stroke:none;stroke-width:0.429683;stroke-linecap:round;stroke-miterlimit:2.4;stroke-dasharray:none;stroke-opacity:1"
         d="M 25.400003,25.4 C 12.700002,25.4 0,25.4 0,25.4 v 25.4 c 14.028034,4e-6 25.400003,-11.371965 25.400003,-25.4 z"
         sodipodi:nodetypes="cccc" />
      <rect
         style="display:inline;opacity:0.504178;fill:url(#linearGradient1624);stroke-width:1.05833;stroke-linecap:round;stroke-linejoin:round"
         id="rect14461"
         width="12.7"
         height="12.7"
         x="31.75"
         y="6.3499999" />
      <path
         id="path13798"
         style="display:inline;fill:url(#linearGradient1624);stroke-width:1.05833;stroke-linecap:round;stroke-linejoin:round"
         d="m 36.453962,25.560787 c -1.215865,0 -2.194715,0.978849 -2.194715,2.194718 v 6.58414 h -6.584134 c -1.21587,0 -2.194715,0.978845 -2.194715,2.194715 v 3.292067 c 0,1.215865 0.978845,2.194715 2.194715,2.194715 h 6.584134 v 6.584144 c 0,1.215873 0.97885,2.194713 2.194715,2.194713 h 3.292075 c 1.21587,0 2.19471,-0.97884 2.19471,-2.194713 v -6.584144 h 6.584139 c 1.215865,0 2.19472,-0.97885 2.19472,-2.194715 V 36.53436 c 0,-1.21587 -0.978855,-2.194715 -2.194725,-2.194715 h -6.584134 v -6.58414 c 0,-1.215869 -0.97884,-2.194718 -2.19471,-2.194718 z m 1.646045,2.194718 c 0.60793,0 1.097355,0.48941 1.097355,1.097355 v 1.646035 c 0,0.607945 -0.489425,1.097355 -1.097355,1.097355 -0.60794,0 -1.09736,-0.48941 -1.09736,-1.097355 V 28.85286 c 0,-0.607945 0.48942,-1.097355 1.09736,-1.097355 z m -9.327539,9.32753 h 1.646035 c 0.607945,0 1.09736,0.489427 1.09736,1.097357 0,0.60794 -0.489415,1.097355 -1.09736,1.097355 h -1.646035 c -0.60794,0 -1.097355,-0.489415 -1.097355,-1.097355 0,-0.60793 0.489415,-1.097357 1.097355,-1.097357 z m 16.734693,0 h 1.646035 c 0.607945,0 1.09735,0.489427 1.09735,1.097357 0,0.60794 -0.489405,1.097355 -1.09735,1.097355 h -1.646035 c -0.60795,0 -1.097355,-0.489415 -1.097355,-1.097355 0,-0.60793 0.489405,-1.097357 1.097355,-1.097357 z m -7.407154,7.681496 c 0.60793,0 1.097355,0.48942 1.097355,1.09736 v 1.64604 c 0,0.607935 -0.489425,1.097355 -1.097355,1.097355 -0.60794,0 -1.09736,-0.48942 -1.09736,-1.097355 v -1.64604 c 0,-0.60794 0.48942,-1.09736 1.09736,-1.09736 z"
         sodipodi:nodetypes="sscsssscsssscsssscsssssssssssssssssssssssssssssss" />
      <ellipse
         style="display:inline;opacity:1;fill:url(#linearGradient1624);stroke-width:3.56247;stroke-linecap:round;stroke-linejoin:round;stroke-dasharray:none"
         id="ellipse13826"
         cx="469.63541"
         cy="33.734375"
         rx="9.9218798"
         ry="9.921875"
         transform="matrix(0.32505372,0,0,0.32505372,-89.156733,-4.0707366)" />
      <ellipse
         style="display:inline;opacity:1;fill:url(#linearGradient1624);stroke-width:3.56247;stroke-linecap:round;stroke-linejoin:round;stroke-dasharray:none"
         id="ellipse13828"
         cx="469.63541"
         cy="69.453125"
         rx="9.9218798"
         ry="9.921876"
         transform="matrix(0.32505372,0,0,0.32505372,-89.156733,-4.0707366)" />
      <ellipse
         style="display:inline;opacity:1;fill:url(#linearGradient1624);stroke-width:3.56247;stroke-linecap:round;stroke-linejoin:round;stroke-dasharray:none"
         id="ellipse13830"
         cx="487.49478"
         cy="51.59375"
         rx="9.9218855"
         ry="9.921876"
         transform="matrix(0.32505372,0,0,0.32505372,-89.156733,-4.0707366)" />
      <circle
         style="display:inline;opacity:1;fill:url(#linearGradient1624);stroke-width:3.56247;stroke-linecap:round;stroke-linejoin:round;stroke-dasharray:none"
         id="circle13832"
         cx="451.77603"
         cy="51.59375"
         r="9.921876"
         transform="matrix(0.32505372,0,0,0.32505372,-89.156733,-4.0707366)" />
      <path
         style="font-variation-settings:'wght' 600;opacity:1;fill:url(#linearGradient1624);fill-opacity:1;stroke:none;stroke-width:0.429683;stroke-linecap:round;stroke-miterlimit:2.4;stroke-dasharray:none;stroke-opacity:1"
         d="M 50.799997,38.099999 63.499998,25.399996 76.199997,38.099999 v 12.7 l -12.699999,-12.7 -12.700001,12.7 z"
         id="path10147"
         sodipodi:nodetypes="ccccccc" />
      <path
         style="display:inline;fill:url(#linearGradient1624);stroke-width:1.05833;stroke-linecap:round;stroke-linejoin:round"
         d="M 50.799993,50.799999 25.480398,76.2 h 25.319601 z"
         id="path14469"
         sodipodi:nodetypes="cccc" />
      <path
         id="path11235-9"
         style="font-variation-settings:'wght' 600;display:inline;opacity:0.5;fill:url(#linearGradient14525);fill-opacity:1;stroke:none;stroke-width:0.429683;stroke-linecap:round;stroke-miterlimit:2.4;stroke-dasharray:none;stroke-opacity:1"
         d="m 25.399999,127 h 12.699997 a 12.699995,12.699996 0 0 1 12.700003,-12.7 v -12.7 a 25.399996,25.399998 0 0 0 -25.4,25.4 z" />
      <path
         id="path11237"
         style="font-variation-settings:'wght' 600;opacity:1;fill:url(#linearGradient1624);fill-opacity:1;stroke:none;stroke-width:0.429683;stroke-linecap:round;stroke-miterlimit:2.4;stroke-dasharray:none;stroke-opacity:1"
         d="m 25.400002,101.6 c 0,-12.700001 0,-25.400003 0,-25.400003 H 5e-7 C 5e-7,90.228031 11.371967,101.6 25.400002,101.6 Z"
         sodipodi:nodetypes="cccc" />
      <path
         id="path11237-9"
         style="font-variation-settings:'wght' 600;display:inline;fill:url(#linearGradient1624);fill-opacity:1;stroke:none;stroke-width:0.429683;stroke-linecap:round;stroke-miterlimit:2.4;stroke-dasharray:none;stroke-opacity:1"
         d="m 25.4,63.660786 c 0,-6.35 0,-12.700001 0,-12.700001 H 12.7 c 0,7.014017 5.685982,12.700001 12.7,12.700001 z"
         sodipodi:nodetypes="cccc" />
      <path
         style="font-variation-settings:'wght' 600;opacity:0.5;fill:url(#linearGradient1624);fill-opacity:1;stroke:none;stroke-width:0.429683;stroke-linecap:round;stroke-miterlimit:2.4;stroke-dasharray:none;stroke-opacity:1"
         d="M 50.799989,76.199998 63.49999,63.499995 76.199989,76.199998 v 12.7 l -12.699999,-12.7 -12.700001,12.7 z"
         id="path11269"
         sodipodi:nodetypes="ccccccc" />
      <path
         id="path12098"
         style="font-variation-settings:'wght' 600;opacity:1;fill:url(#linearGradient12100);fill-opacity:1;stroke:none;stroke-width:0.429683;stroke-linecap:round;stroke-miterlimit:2.4;stroke-dasharray:none;stroke-opacity:1"
         d="M 12.7,114.3 A 12.7,12.700001 0 0 0 -1.9073486e-7,127 H 25.4 A 12.7,12.700001 0 0 0 12.7,114.3 Z" />
      <path
         id="path12109"
         style="font-variation-settings:'wght' 600;opacity:1;fill:url(#linearGradient12111);fill-opacity:1;stroke:none;stroke-width:0.429683;stroke-linecap:round;stroke-miterlimit:2.4;stroke-dasharray:none;stroke-opacity:1"
         d="M 88.899999,12.7 A 12.700001,12.7 0 0 0 76.199999,-2.8146973e-7 V 25.4 a 12.700001,12.7 0 0 0 12.7,-12.7 z" />
      <path
         id="path15281"
         style="font-variation-settings:'wght' 600;display:inline;opacity:0.5;fill:url(#linearGradient1624);fill-opacity:1;stroke:none;stroke-width:0.429683;stroke-linecap:round;stroke-miterlimit:2.4;stroke-dasharray:none;stroke-opacity:1"
         d="m 101.6,38.100001 c 0,-6.35 0,-12.700001 0,-12.700001 H 88.899997 c 0,7.014017 5.685982,12.700001 12.700003,12.700001 z"
         sodipodi:nodetypes="cccc" />
    </g>
  </g>
</svg>
