<?xml version="1.0" encoding="UTF-8" standalone="no"?>
<!-- Created with Inkscape (http://www.inkscape.org/) -->

<svg
   width="98"
   height="262.59079"
   viewBox="0 0 25.929168 69.477147"
   version="1.1"
   id="svg5"
   inkscape:version="1.2.1 (9c6d41e410, 2022-07-14)"
   sodipodi:docname="gdDecorMask.svg"
   xml:space="preserve"
   inkscape:export-filename="gdDecorMask.svg"
   inkscape:export-xdpi="96"
   inkscape:export-ydpi="96"
   xmlns:inkscape="http://www.inkscape.org/namespaces/inkscape"
   xmlns:sodipodi="http://sodipodi.sourceforge.net/DTD/sodipodi-0.dtd"
   xmlns:xlink="http://www.w3.org/1999/xlink"
   xmlns="http://www.w3.org/2000/svg"
   xmlns:svg="http://www.w3.org/2000/svg"><sodipodi:namedview
     id="namedview7"
     pagecolor="#505050"
     bordercolor="#ffffff"
     borderopacity="1"
     inkscape:showpageshadow="0"
     inkscape:pageopacity="1"
     inkscape:pagecheckerboard="1"
     inkscape:deskcolor="#505050"
     inkscape:document-units="mm"
     showgrid="true"
     inkscape:zoom="4.2869515"
     inkscape:cx="-20.060875"
     inkscape:cy="78.61064"
     inkscape:window-width="1920"
     inkscape:window-height="1002"
     inkscape:window-x="-8"
     inkscape:window-y="-8"
     inkscape:window-maximized="1"
     inkscape:current-layer="g44360"
     showguides="false"><inkscape:grid
       type="xygrid"
       id="grid132"
       visible="true"
       color="#ffffff"
       opacity="0.02352941"
       empcolor="#777777"
       empopacity="0.16470588"
       originx="0"
       originy="0"
       enabled="false" /></sodipodi:namedview><defs
     id="defs2"><linearGradient
       id="linearGradient6477"
       inkscape:swatch="solid"
       gradientTransform="matrix(0.06015514,0.07345539,-0.15321334,0.18708865,1414.8289,-3879.798)"><stop
         style="stop-color:#f27e70;stop-opacity:1;"
         offset="0"
         id="stop6475" /></linearGradient><linearGradient
       id="linearGradient9776"
       inkscape:swatch="solid"
       gradientTransform="matrix(9.0769027e-5,0,0,9.0769027e-5,-0.51055264,0.83863903)"><stop
         style="stop-color:#b2b7be;stop-opacity:1;"
         offset="0"
         id="stop9774" /></linearGradient><linearGradient
       id="linearGradient1642"
       inkscape:swatch="solid"
       gradientTransform="matrix(0.53491831,0,0,1.6710713,578.25432,638.40486)"><stop
         style="stop-color:#75c590;stop-opacity:1;"
         offset="0"
         id="stop1640" /></linearGradient><linearGradient
       id="linearGradient1636"
       inkscape:swatch="solid"
       gradientTransform="matrix(2.372496e-4,0,0,-2.7055498e-4,-99.855184,269.11388)"><stop
         style="stop-color:#f0b762;stop-opacity:1;"
         offset="0"
         id="stop1634" /></linearGradient><linearGradient
       id="linearGradient1630"
       inkscape:swatch="solid"
       gradientTransform="matrix(0.30427083,0,0,0.29793192,-77.004766,47.015341)"><stop
         style="stop-color:#548ed0;stop-opacity:1;"
         offset="0"
         id="stop1628" /></linearGradient><linearGradient
       id="linearGradient1624"
       inkscape:swatch="solid"
       gradientTransform="matrix(0,0,0,0,-1255.448,-682.87189)"><stop
         style="stop-color:#f06262;stop-opacity:1;"
         offset="0"
         id="stop1622" /></linearGradient><linearGradient
       id="linearGradient1618"
       inkscape:swatch="solid"
       gradientTransform="matrix(0.06589317,0,0,0.07055889,-2.985541,-3.3903293)"><stop
         style="stop-color:#272932;stop-opacity:1;"
         offset="0"
         id="stop1616" /></linearGradient><linearGradient
       id="linearGradient1612"
       inkscape:swatch="solid"
       gradientTransform="matrix(1.7466655e-5,-5.2366004e-6,-4.4637767e-6,-1.9453487e-5,-257.56635,-143.98142)"><stop
         style="stop-color:#424c55;stop-opacity:1;"
         offset="0"
         id="stop1610" /></linearGradient><linearGradient
       id="linearGradient1606"
       inkscape:swatch="solid"
       gradientTransform="matrix(0.0050977,0,0,0.00503612,-34.077088,-601.94435)"><stop
         style="stop-color:#59656f;stop-opacity:1;"
         offset="0"
         id="stop1604" /></linearGradient><linearGradient
       id="linearGradient1594"
       inkscape:swatch="solid"
       gradientTransform="matrix(0.09102054,0,0,0.0999252,804.72123,1379.5943)"><stop
         style="stop-color:#eddab7;stop-opacity:1;"
         offset="0"
         id="stop1592" /></linearGradient><linearGradient
       inkscape:collect="always"
       xlink:href="#linearGradient1612"
       id="linearGradient5730"
       x1="-0.0099999998"
       y1="2.5897293"
       x2="30.066"
       y2="2.5897293"
       gradientUnits="userSpaceOnUse"
       gradientTransform="matrix(3.7795276,0,0,3.7795276,0.03779528,0.00152167)" /><inkscape:path-effect
       effect="fillet_chamfer"
       id="path-effect15654"
       is_visible="true"
       lpeversion="1"
       nodesatellites_param="F,0,0,1,0,0.26458333,0,1 @ F,0,0,1,0,0.26458333,0,1 @ F,0,0,1,0,0.26458333,0,1 @ F,0,0,1,0,0.13247225,0,1 @ F,0,0,1,0,0.23175592,0,1 @ F,0,0,1,0,0.26458333,0,1 @ F,0,0,1,0,0.26458333,0,1 @ F,0,0,1,0,0.26458333,0,1 @ F,0,0,1,0,0.26458333,0,1 @ F,0,0,1,0,0.26458333,0,1 @ F,0,0,1,0,0.26458333,0,1 @ F,0,0,1,0,0.26458333,0,1 @ F,0,0,1,0,0.26458333,0,1 @ F,0,0,1,0,0.26458333,0,1 @ F,0,0,1,0,0.26458333,0,1 @ F,0,0,1,0,0.26458333,0,1 @ F,0,0,1,0,0.26458333,0,1 @ F,0,0,1,0,0.26458333,0,1 @ F,0,0,1,0,0.26458333,0,1 @ F,0,0,1,0,0.26458333,0,1 @ F,0,0,1,0,0.26458333,0,1 @ F,0,0,1,0,0.26458333,0,1 @ F,0,0,1,0,0.26458333,0,1 @ F,0,0,1,0,0.26458333,0,1 @ F,0,0,1,0,0.26458333,0,1 @ F,0,0,1,0,0.26458333,0,1 @ F,0,0,1,0,0.26458333,0,1 @ F,0,0,1,0,0.26458333,0,1 @ F,0,0,1,0,0.26458333,0,1 @ F,0,0,1,0,0.26458333,0,1 @ F,0,0,1,0,0.26458333,0,1 @ F,0,0,1,0,0.26458333,0,1 @ F,0,0,1,0,0.26458333,0,1 @ F,0,0,1,0,0.26458333,0,1 @ F,0,0,1,0,0.26458333,0,1 @ F,0,0,1,0,0.090128939,0,1 @ F,0,0,1,0,0.21945643,0,1 @ F,0,0,1,0,0.26458333,0,1 @ F,0,0,1,0,0.26458333,0,1 @ F,0,0,1,0,0.26458333,0,1 @ F,0,0,1,0,0.26458333,0,1 @ F,0,0,1,0,0.26458333,0,1 @ F,0,0,1,0,0.26458333,0,1 @ F,0,0,1,0,0.26458333,0,1 @ F,0,0,1,0,0.16868866,0,1 @ F,0,0,1,0,0.26458333,0,1 @ F,0,0,1,0,0.26458333,0,1 @ F,0,0,1,0,0.26458333,0,1 @ F,0,0,1,0,0.081239428,0,1 @ F,0,0,1,0,0.16803335,0,1"
       unit="px"
       method="auto"
       mode="F"
       radius="1"
       chamfer_steps="1"
       flexible="false"
       use_knot_distance="true"
       apply_no_radius="true"
       apply_with_radius="true"
       only_selected="false"
       hide_knots="false" /><pattern
       xlink:href="#pattern5732-7"
       id="pattern44354"
       patternTransform="matrix(0.1740454,0.04981095,-0.08410775,0.29388226,619.65057,87.722863)" /><pattern
       patternUnits="userSpaceOnUse"
       width="113.67307"
       height="19.57895"
       patternTransform="translate(-0.03779528,-0.00152167)"
       id="pattern5732-7"><path
         style="fill:url(#linearGradient5730);fill-opacity:1;stroke:none;stroke-width:3.77953"
         d="M 28.750866,0.23207286 C 19.234016,-0.70524998 10.07622,1.142939 0,6.759317 v 4.811339 C 10.518425,5.4100256 19.589291,3.9775847 28.278425,4.839317 c 8.685355,0.8617322 16.996536,4.0856692 25.628977,7.324724 17.261102,6.474331 36.098267,13.069607 59.765668,-0.593385 l -0.0151,-4.811339 C 89.317795,20.777585 72.778583,14.250341 55.562835,7.791128 46.953071,4.5634114 38.267717,1.1769547 28.750866,0.23207286 Z"
         id="path5724-2" /></pattern></defs><g
     inkscape:groupmode="layer"
     id="layer7"
     inkscape:label="Mob-Dashboard-Light"
     style="display:inline"
     transform="translate(-591.345,481.94401)"><g
       id="g3404"
       transform="translate(5.7217979,2.5310612)"><g
         id="g44360"
         transform="matrix(-0.9429458,0,0,-0.9429458,1169.9201,-382.74671)"
         style="display:inline;fill:#cce8ff;fill-opacity:1;stroke-width:1.06051"><path
           id="ellipse44421"
           style="display:inline;fill:url(#linearGradient1612);fill-opacity:1;stroke:none;stroke-width:1.22807;stroke-linecap:round;stroke-linejoin:round;stroke-opacity:1"
           d="m 602.01046,74.384147 a 2.8170043,2.8170015 0 0 1 2.817,-2.817003 2.8170043,2.8170015 0 0 1 2.81702,2.817003 2.8170043,2.8170015 0 0 1 -2.81702,2.817001 2.8170043,2.8170015 0 0 1 -2.817,-2.817001 z m 10.14125,0 a 2.8170016,2.8170016 0 0 1 2.817,-2.817003 2.8170016,2.8170016 0 0 1 2.81699,2.817003 2.8170016,2.8170016 0 0 1 -2.81699,2.817001 2.8170016,2.8170016 0 0 1 -2.817,-2.817001 z m -5.07061,-5.070606 a 2.8170027,2.8170016 0 0 1 2.817,-2.817001 2.8170027,2.8170016 0 0 1 2.81701,2.817001 2.8170027,2.8170016 0 0 1 -2.81701,2.817003 2.8170027,2.8170016 0 0 1 -2.817,-2.817003 z m 0,10.141203 a 2.8170027,2.8170014 0 0 1 2.817,-2.817002 2.8170027,2.8170014 0 0 1 2.81701,2.817002 2.8170027,2.8170014 0 0 1 -2.81701,2.817002 2.8170027,2.8170014 0 0 1 -2.817,-2.817002 z" /><path
           style="display:inline;fill:url(#linearGradient1612);fill-opacity:1;stroke:none;stroke-width:1.12237;stroke-linecap:round;stroke-linejoin:round;stroke-opacity:1"
           d="m 619.53976,91.538285 -16.27957,16.345285 h 16.27958 z"
           id="path44336"
           sodipodi:nodetypes="cccc" /><path
           id="path44340"
           style="display:inline;opacity:0.512535;fill:url(#linearGradient1612);fill-opacity:1;stroke:none;stroke-width:1.12237;stroke-linecap:round;stroke-linejoin:round;stroke-opacity:1"
           d="m 592.15252,83.936225 c 0.0483,-4.704325 1.31227,-9.404293 3.65482,-13.491448 2.68293,-4.805088 6.90562,-8.665192 11.83201,-11.065859 l -0.57488,-1.361311 c -0.0764,0.06329 -0.20756,0.209223 -0.32828,0.291553 l -0.50583,0.34526 c -0.0809,0.0302 -0.25635,0.09917 -0.39623,0.140296 -0.16134,0.04743 -0.38878,0.101427 -0.64777,0.123307 -0.14556,0.0123 -0.38353,0.0096 -0.52775,-0.01261 -0.42696,-0.06587 -0.81804,-0.270663 -1.18485,-0.513505 -0.12184,-0.08066 -0.27349,-0.0437 -0.30909,0.097 -0.008,0.03256 -0.0162,0.06504 -0.0252,0.097 -0.0397,0.138944 -0.2017,0.3189 -0.31402,0.41212 -0.4742,0.393567 -1.16075,0.680731 -1.77398,0.743131 -0.1453,0.0148 -0.38294,0.0123 -0.5283,-0.0022 -0.58971,-0.0588 -1.15258,-0.288663 -1.81234,-0.838489 l -0.0137,-0.01206 c -0.006,-0.0076 -0.0497,-0.05217 -0.20113,-0.34526 -0.0359,0.03989 -0.11889,0.175944 -0.23127,0.269084 -0.4738,0.392675 -1.1595,0.681029 -1.77234,0.743679 -0.14529,0.01485 -0.38239,0.01228 -0.52775,-0.0022 -0.5898,-0.05873 -1.15157,-0.288888 -1.81015,-0.836845 l -0.0121,-0.0137 c -0.006,-0.0065 -0.0955,-0.09571 -0.18907,-0.207704 -0.25766,-0.308362 -0.40546,-0.602304 -0.62147,-1.104833 a 4.9866458,4.9866458 0 0 0 -0.10138,-0.257575 l -0.62531,-1.576687 a 28.546707,28.546707 0 0 0 -0.19948,-0.489941 L 592.17057,54.5036 a 9915.0261,9915.0261 0 0 1 -0.0181,-0.0433 z m 21.23897,-26.604754 c 1.97401,-0.459583 4.00165,-0.69407 6.04096,-0.675175 l 0.0537,-19.038078 -27.33364,-1.130042 v 4.933383 c 0.0841,-0.06009 0.1695,-0.118935 0.25703,-0.175371 0.1228,-0.07918 0.32705,-0.198855 0.45651,-0.265795 0.31778,-0.164292 0.6987,-0.327808 0.99687,-0.452674 0.13478,-0.05644 0.354,-0.147538 0.48884,-0.203868 l 3.25202,-1.358571 c 0.13484,-0.05633 0.35293,-0.147518 0.48775,-0.203868 0.27024,-0.112969 0.59578,-0.248777 0.87192,-0.360605 0.13544,-0.05485 0.3554,-0.141477 0.49158,-0.192907 0.59585,-0.225019 1.28286,-0.446295 2.05458,-0.566117 0.14439,-0.02242 0.37946,-0.05128 0.52501,-0.06412 0.87006,-0.07676 1.8018,-0.01406 2.841,0.281689 0.14054,0.04 0.36618,0.111951 0.50364,0.161121 0.31564,0.112914 0.68049,0.261921 0.97111,0.38417 0.13469,0.05666 0.35219,0.149396 0.4861,0.207156 3.00422,1.29591 6.80585,3.152654 8.49888,3.989672 0.13099,0.06476 0.34164,0.168326 0.47076,0.232366 0.31936,0.15841 0.76303,0.388541 1.11251,0.655994 0.116,0.08877 0.28896,0.251073 0.38745,0.358961 0.66893,0.732646 1.01032,1.705421 0.94262,2.690836 -0.01,0.145749 -0.0444,0.380572 -0.0811,0.521726 -0.12904,0.496771 -0.42358,1.103812 -0.72779,1.51202 -0.0873,0.11711 -0.24908,0.290911 -0.35676,0.389651 -0.73167,0.670933 -1.70461,1.011721 -2.69084,0.943711 -0.14574,-0.01006 -0.38081,-0.04433 -0.52227,-0.07946 -0.43167,-0.107219 -0.88952,-0.315383 -1.21335,-0.470211 -0.13183,-0.06303 -0.34515,-0.166196 -0.47678,-0.229626 l -2.53904,-1.223755 a 0.10048803,0.10048803 0 0 0 -0.13646,0.129336 l 0.0795,0.189619 a 3905.1747,3905.1747 0 0 0 0.20387,0.488296 z" /><path
           id="path44342-5"
           style="display:inline;opacity:0.36075949;fill:url(#pattern44354);fill-opacity:1;stroke-width:1.12237;stroke-linecap:round;stroke-linejoin:round"
           d="m 619.53986,107.88357 -0.0537,-22.537259 -4.58047,-3.074565 c -1.61802,-5.096352 -10.07823,-10.704602 -20.26756,-13.091758 -5.25451,-2.241239 -3.79198,3.205347 -2.48561,11.162792 l 0.20716,27.51723 z m -15.34763,-7.31239 H 600.721 v -3.818683 h 3.47123 z m -4.83638,-5.878186 h -4.49331 v -2.776878 h 4.49331 z m 10.73759,-0.254287 h -4.67855 v -2.314339 h 4.67855 z m -5.90121,-4.975581 H 600.721 v -3.424651 h 3.47123 z"
           sodipodi:nodetypes="ccccccccccccccccccccccccccc" /><path
           id="path15650"
           style="font-variation-settings:'wght' 700;display:inline;fill:url(#linearGradient1612);fill-opacity:1;stroke:none;stroke-width:1.7147;stroke-linecap:round;stroke-linejoin:round;stroke-dasharray:none"
           d="m 606.43083,56.93053 c 0.16683,-0.206606 0.25095,-0.482821 0.28378,-0.760917 0.0171,-0.145008 0.0158,-0.383256 -0.0123,-0.526443 -0.0546,-0.278773 -0.1771,-0.600517 -0.28714,-0.86828 -0.0554,-0.134736 -0.14739,-0.352652 -0.20373,-0.48748 l -0.49321,-1.180336 c -0.0282,-0.06751 -0.0734,-0.17816 -0.0822,-0.250564 -0.0294,-0.241796 0.0429,-0.613627 0.13011,-0.788091 0.0386,-0.07726 0.19308,0.06187 0.24287,0.179784 l 4.15055,9.828318 c 0.0569,0.134614 0.14837,0.353146 0.20641,0.487254 0.11491,0.265517 0.25992,0.577894 0.41756,0.812756 0.0811,0.120791 0.24773,0.290945 0.36684,0.375359 0.21879,0.155073 0.47099,0.258339 0.73584,0.301693 0.14406,0.02358 0.38295,0.02418 0.52602,-0.0043 0.27898,-0.0555 0.59927,-0.189618 0.83501,-0.349581 0.12003,-0.08144 0.28711,-0.251188 0.37151,-0.370304 0.15521,-0.219036 0.25886,-0.471123 0.30244,-0.736113 0.0237,-0.144044 0.0222,-0.382706 -0.006,-0.525891 -0.0546,-0.27874 -0.1771,-0.600487 -0.28714,-0.868245 -0.0554,-0.134735 -0.14743,-0.35264 -0.20378,-0.487461 l -4.81137,-11.510401 a 9242.676,9242.676 67.313342 0 0 -0.20409,-0.488224 l -0.48476,-1.1595 c -0.0564,-0.134818 -0.1531,-0.354495 -0.16819,-0.499313 -0.0581,-0.55772 0.44718,-1.036282 1.00113,-0.94896 0.14378,0.02267 0.35803,0.130814 0.48965,0.19427 l 3.48169,1.678489 c 0.13162,0.06346 0.34497,0.166493 0.47684,0.229444 0.26222,0.125174 0.5757,0.268774 0.84938,0.351676 0.13819,0.04186 0.3721,0.07777 0.51809,0.08197 0.57498,0.01655 1.13794,-0.180124 1.57731,-0.551065 0.1116,-0.09421 0.27308,-0.269048 0.35541,-0.389621 0.16122,-0.236137 0.31189,-0.546952 0.39605,-0.820627 0.0428,-0.139056 0.0782,-0.37403 0.0823,-0.520018 0.0163,-0.574756 -0.18075,-1.137619 -0.55035,-1.57723 -0.094,-0.111788 -0.2688,-0.273152 -0.38876,-0.356384 -0.23605,-0.163781 -0.5425,-0.322204 -0.80186,-0.451228 -0.12951,-0.06443 -0.34092,-0.168718 -0.47191,-0.233475 -1.68675,-0.833865 -5.45713,-2.674492 -8.43593,-3.959506 -0.13391,-0.05777 -0.35147,-0.150972 -0.48615,-0.207652 -0.26535,-0.111667 -0.58224,-0.241171 -0.853,-0.339589 -0.13721,-0.04988 -0.36291,-0.121905 -0.50367,-0.161096 -1.86246,-0.518531 -3.3285,-0.149955 -4.57105,0.317375 -0.13666,0.0514 -0.35694,0.138369 -0.49237,0.193243 -0.26617,0.107844 -0.58134,0.239024 -0.84686,0.349966 -0.13482,0.05633 -0.35338,0.147752 -0.4882,0.204108 l -3.2517,1.359229 c -0.13482,0.05636 -0.35355,0.147391 -0.48832,0.203847 -0.26671,0.111718 -0.58215,0.247018 -0.83964,0.376345 -0.13028,0.06543 -0.3349,0.184725 -0.45689,0.265142 -1.7851,1.176775 -2.67011,3.332747 -2.22628,5.424321 0.0303,0.142955 0.0914,0.372113 0.13812,0.510549 0.0921,0.272998 0.22281,0.590566 0.33455,0.856956 0.0564,0.134383 0.1479,0.352552 0.20426,0.487371 l 1.63182,3.903403 a 36195.815,36195.815 67.312202 0 0 0.2041,0.48822 l 0.23525,0.562689 a 28.972219,28.972219 67.835012 0 1 0.19963,0.490041 l 0.6288,1.584798 c 0.0539,0.135824 0.14225,0.35568 0.20158,0.489213 0.0752,0.169219 0.15064,0.315926 0.25851,0.46069 0.0869,0.116554 0.25598,0.283856 0.37506,0.368299 0.2187,0.155082 0.47072,0.258395 0.73547,0.301779 0.14406,0.02361 0.38292,0.02388 0.52601,-0.0045 0.27982,-0.05559 0.59962,-0.189336 0.83506,-0.349211 0.12004,-0.08151 0.28708,-0.251366 0.37145,-0.370507 0.15501,-0.2189 0.25835,-0.470757 0.30178,-0.735509 0.0236,-0.144054 0.0258,-0.382569 0.004,-0.52699 -0.0345,-0.233519 -0.11405,-0.427274 -0.21363,-0.667974 -0.019,-0.04593 -0.05,-0.120391 -0.0693,-0.166284 l -0.16874,-0.401727 c -0.0469,-0.111745 -0.10266,-0.356976 -0.0289,-0.331804 0.0823,0.02809 0.21407,0.102985 0.35162,0.148172 0.13737,0.04513 0.30577,0.139423 0.36212,0.274244 l 0.55991,1.339492 c 0.0564,0.134821 0.14743,0.353544 0.20544,0.487662 0.11491,0.265639 0.25993,0.577898 0.41756,0.812702 0.0811,0.120785 0.24769,0.291004 0.36677,0.375455 0.2192,0.155462 0.47217,0.25895 0.73776,0.30237 0.14406,0.02355 0.38292,0.02386 0.52601,-0.0046 0.27964,-0.05557 0.59932,-0.189205 0.83448,-0.348992 0.12,-0.08154 0.28687,-0.25156 0.37119,-0.37074 0.15512,-0.219265 0.25851,-0.471513 0.30194,-0.736637 0.0236,-0.14406 0.0221,-0.382716 -0.006,-0.525903 -0.0546,-0.278799 -0.17711,-0.600551 -0.28715,-0.868319 -0.0554,-0.134737 -0.14743,-0.352637 -0.20382,-0.487445 l -0.27405,-0.655172 c -0.0359,-0.08595 -0.12183,-0.223407 -0.11336,-0.314971 0.009,-0.09483 0.1245,-0.118534 0.27615,-0.164227 0.13867,-0.04178 0.28974,0.01341 0.34609,0.14824 l 0.63729,1.525052 c 0.0564,0.134827 0.14741,0.353554 0.20543,0.487671 0.11491,0.26565 0.25994,0.577924 0.41761,0.812756 0.0811,0.120784 0.24771,0.290983 0.36676,0.37547 0.26862,0.190631 0.58774,0.303279 0.91881,0.322789 0.0448,0.0026 0.11755,0.0035 0.16238,0.0018 0.19302,-0.0072 0.35937,-0.04635 0.47193,-0.08098 0.0865,-0.0266 0.21593,-0.09869 0.29254,-0.15107 l 0.23746,-0.162374 c 0.12063,-0.08248 0.32019,-0.215384 0.41166,-0.328664 z"
           sodipodi:nodetypes="ssccssscccssscssccsssccsssccssscsscsscscsscsccscscs"
           inkscape:transform-center-x="0.32815761"
           inkscape:transform-center-y="-10.947531"
           inkscape:original-d="m 606.23758,57.109853 c 0.37052,-0.25266 0.48825,-0.755088 0.4938,-1.204091 0,-0.397876 -0.26282,-1.005075 -0.41789,-1.374224 l -0.64629,-1.546695 c -0.13341,-0.315381 0.11837,-1.264462 0.25164,-0.950139 l 4.34364,10.285557 c 0.15532,0.36859 0.41049,0.982088 0.6844,1.262905 0.32217,0.311298 0.75436,0.488018 1.20263,0.493448 0.39565,0.0056 1.02453,-0.257478 1.30068,-0.543578 0.31099,-0.322955 0.48856,-0.754355 0.49416,-1.203037 0,-0.397772 -0.26281,-1.005038 -0.41792,-1.374182 l -5.01545,-11.998631 -0.68886,-1.647718 c -0.31099,-0.74202 0.46194,-1.473895 1.18631,-1.124792 l 3.95835,1.908285 c 0.36274,0.173361 0.94865,0.468834 1.3425,0.525614 0.75177,0.107635 1.51205,-0.157975 2.03284,-0.710271 0.27013,-0.289447 0.56297,-0.890506 0.61924,-1.284998 0.10749,-0.751605 -0.15916,-1.511894 -0.70919,-2.033179 -0.29248,-0.273079 -0.88576,-0.553365 -1.24407,-0.73124 -1.58494,-0.785664 -5.75538,-2.830637 -8.91569,-4.181072 -0.36644,-0.157031 -0.96496,-0.408243 -1.34658,-0.528768 -2.11095,-0.667032 -3.72216,-0.193431 -5.07136,0.336985 -0.37052,0.145609 -0.96757,0.395964 -1.33661,0.550282 l -3.73992,1.563313 c -0.37015,0.154312 -0.97165,0.400503 -1.31625,0.603315 -2.01099,1.1845 -2.98854,3.565893 -2.38931,5.821669 0.0998,0.386903 0.35906,0.98425 0.51342,1.353394 l 1.83592,4.391625 0.43935,1.050907 0.82396,2.076662 c 0.15532,0.369035 0.25898,0.622698 0.53412,0.903515 0.32215,0.311298 0.75396,0.488152 1.20223,0.493587 0.399,0.0042 1.02494,-0.257546 1.30068,-0.543669 0.31097,-0.32292 0.48787,-0.754024 0.49342,-1.202462 0,-0.397872 -0.11485,-0.645695 -0.26667,-1.014844 l -0.28862,-0.687157 c -0.15532,-0.369148 0.33332,0.112882 0.66776,0.04883 l 0.76399,1.827722 c 0.15532,0.369145 0.41048,0.982086 0.68434,1.26288 0.32216,0.311752 0.75549,0.488688 1.20446,0.49423 0.39866,0.0042 1.02496,-0.257442 1.29996,-0.543599 0.31097,-0.323374 0.48787,-0.75491 0.49342,-1.203693 0,-0.39794 -0.26283,-1.005117 -0.41789,-1.374265 l -0.44124,-1.054886 c -0.17381,-0.322431 0.14796,-0.246658 0.47195,-0.41946 l 0.84133,2.013302 c 0.15532,0.369146 0.41049,0.982061 0.6844,1.262934 0.32215,0.311611 0.75474,0.488833 1.20335,0.494533 0.39901,0.0045 0.70659,-0.13814 0.70698,-0.138284 z"
           inkscape:path-effect="#path-effect15654" /><path
           id="path13798-0-5"
           style="display:inline;fill:url(#linearGradient1612);fill-opacity:1;stroke-width:1.12237;stroke-linecap:round;stroke-linejoin:round"
           d="m 603.62274,101.64673 c 0.80423,0 1.45169,-0.64745 1.45169,-1.45164 v -4.354983 h 4.35508 c 0.80424,0 1.4517,-0.647442 1.4517,-1.451661 v -2.177491 c 0,-0.804216 -0.64746,-1.451661 -1.4517,-1.451661 h -4.35508 v -4.354987 c 0,-0.804221 -0.64746,-1.451661 -1.45169,-1.451661 h -2.17755 c -0.80424,0 -1.45169,0.64744 -1.45169,1.451661 v 4.354987 h -4.35508 c -0.80424,0 -1.4517,0.647445 -1.4517,1.451661 v 2.177491 c 0,0.804219 0.64746,1.451661 1.4517,1.451661 h 4.35508 v 4.354983 c 0,0.80419 0.64745,1.45164 1.45169,1.45164 z m -1.08878,-1.45164 c -0.40211,0 -0.72585,-0.323701 -0.72585,-0.725828 v -1.088746 c 0,-0.402116 0.32374,-0.72583 0.72585,-0.72583 0.40213,0 0.72586,0.323714 0.72586,0.72583 v 1.088746 c 0,0.402127 -0.32373,0.725828 -0.72586,0.725828 z m 6.16971,-6.169557 h -1.08877 c -0.40213,0 -0.72584,-0.323724 -0.72584,-0.725832 0,-0.402112 0.32371,-0.725829 0.72584,-0.725829 h 1.08877 c 0.40213,0 0.72584,0.323717 0.72584,0.725829 0,0.402108 -0.32371,0.725832 -0.72584,0.725832 z m -11.06918,0 h -1.08878 c -0.40211,0 -0.72584,-0.323724 -0.72584,-0.725832 0,-0.402112 0.32373,-0.725829 0.72584,-0.725829 h 1.08878 c 0.40213,0 0.72585,0.323717 0.72585,0.725829 0,0.402108 -0.32372,0.725832 -0.72585,0.725832 z m 4.89947,-5.080814 c -0.40211,0 -0.72585,-0.32372 -0.72585,-0.725833 v -1.088749 c 0,-0.40211 0.32374,-0.72583 0.72585,-0.72583 0.40213,0 0.72586,0.32372 0.72586,0.72583 v 1.088749 c 0,0.402113 -0.32373,0.725833 -0.72586,0.725833 z"
           sodipodi:nodetypes="sscsssscsssscsssscsssssssssssssssssssssssssssssss" /></g><path
         id="path44346"
         style="display:none;fill:#e28c31;fill-opacity:1;stroke:none;stroke-width:1.05833;stroke-linecap:round;stroke-linejoin:round;stroke-opacity:1"
         d="m 597.56767,-440.2473 c -1.08607,0 -1.96061,0.87403 -1.96061,1.96009 v 1.75958 h 2.4505 v -0.77928 c 0,-0.54304 0.43726,-0.9803 0.9803,-0.9803 0.54303,0 0.9803,0.43726 0.9803,0.9803 v 0.77928 h 2.4505 v -1.75958 c 0,-1.08606 -0.87453,-1.96009 -1.9606,-1.96009 z m 4.90099,3.71967 v 4.12172 h 5.88129 c 1.08606,0 1.96009,0.87453 1.96009,1.9606 v 2.94039 c 0,1.08607 -0.87403,1.9606 -1.96009,1.9606 h -5.88129 v 5.8813 c 0,1.08607 -0.87453,1.96008 -1.9606,1.96008 h -2.94039 c -1.08607,0 -1.96061,-0.87401 -1.96061,-1.96008 v -5.8813 h -5.88129 c -1.08607,0 -1.96061,-0.87453 -1.96061,-1.9606 v -2.94039 c 0,-1.08607 0.87454,-1.9606 1.96061,-1.9606 h 5.88129 v -4.12172 h -9.86348 v 21.52944 h 25.75812 v -21.52944 z m -2.4505,0 h -1.9606 v 0.69092 c 0,0.54305 0.43726,0.9803 0.9803,0.9803 0.54303,0 0.9803,-0.43725 0.9803,-0.9803 z m -9.31209,6.57221 c -0.54304,0 -0.9803,0.43727 -0.9803,0.9803 0,0.54304 0.43726,0.98031 0.9803,0.98031 h 1.4702 c 0.54303,0 0.9803,-0.43727 0.9803,-0.98031 0,-0.54303 -0.43727,-0.9803 -0.9803,-0.9803 z m 14.94793,0 c -0.54305,0 -0.97979,0.43727 -0.97979,0.9803 0,0.54304 0.43674,0.98031 0.97979,0.98031 h 1.47071 c 0.54305,0 0.97978,-0.43727 0.97978,-0.98031 0,-0.54303 -0.43673,-0.9803 -0.97978,-0.9803 z m -6.61614,6.8616 c -0.54304,0 -0.9803,0.43726 -0.9803,0.9803 v 1.4702 c 0,0.54302 0.43726,0.9803 0.9803,0.9803 0.54303,0 0.9803,-0.43728 0.9803,-0.9803 v -1.4702 c 0,-0.54304 -0.43727,-0.9803 -0.9803,-0.9803 z" /><path
         id="rect3770"
         style="display:inline;fill:url(#linearGradient1612);fill-opacity:1;stroke-width:0.730001;stroke-linecap:round;stroke-miterlimit:2.4"
         d="m 585.77823,-423.81366 v 8.81548 h 25.77414 v -6.68434 c -0.0632,0.0441 -0.12753,0.0872 -0.19275,0.12919 -0.11585,0.0746 -0.30848,0.18782 -0.43047,0.25115 -0.30426,0.15794 -0.66817,0.31514 -0.95136,0.43408 -0.12705,0.0534 -0.33327,0.13918 -0.46044,0.19224 l -3.06648,1.27899 c -0.12716,0.053 -0.33284,0.13952 -0.45992,0.19275 -0.25519,0.10689 -0.56254,0.2351 -0.82372,0.34106 -0.12768,0.0518 -0.33513,0.13394 -0.46354,0.18242 -0.56627,0.21383 -1.22259,0.42518 -1.96112,0.5395 h -5.2e-4 c -0.1362,0.0211 -0.35743,0.0478 -0.49454,0.06 -0.83434,0.074 -1.72737,0.0144 -2.72283,-0.26924 -0.13251,-0.0377 -0.34531,-0.10502 -0.47491,-0.15141 -0.3008,-0.10765 -0.64795,-0.24977 -0.92346,-0.36587 -0.12697,-0.0535 -0.3321,-0.14139 -0.45837,-0.19585 -2.83492,-1.22289 -6.4241,-2.97605 -8.02121,-3.76566 -0.12352,-0.0611 -0.32218,-0.15882 -0.4439,-0.21911 -0.29761,-0.14741 -0.71339,-0.3634 -1.22525,-0.76533 z" /></g></g></svg>
