<?xml version="1.0" encoding="UTF-8" standalone="no"?>
<!-- Created with Inkscape (http://www.inkscape.org/) -->

<svg
   width="98"
   height="262.59079"
   viewBox="0 0 25.929168 69.477147"
   version="1.1"
   id="svg5"
   inkscape:version="1.2.1 (9c6d41e410, 2022-07-14)"
   sodipodi:docname="spDecorMask.svg"
   xml:space="preserve"
   xmlns:inkscape="http://www.inkscape.org/namespaces/inkscape"
   xmlns:sodipodi="http://sodipodi.sourceforge.net/DTD/sodipodi-0.dtd"
   xmlns:xlink="http://www.w3.org/1999/xlink"
   xmlns="http://www.w3.org/2000/svg"
   xmlns:svg="http://www.w3.org/2000/svg"><sodipodi:namedview
     id="namedview7"
     pagecolor="#505050"
     bordercolor="#ffffff"
     borderopacity="1"
     inkscape:showpageshadow="0"
     inkscape:pageopacity="1"
     inkscape:pagecheckerboard="1"
     inkscape:deskcolor="#505050"
     inkscape:document-units="mm"
     showgrid="true"
     inkscape:zoom="3.0313325"
     inkscape:cx="-61.689042"
     inkscape:cy="124.36775"
     inkscape:window-width="1920"
     inkscape:window-height="1002"
     inkscape:window-x="-8"
     inkscape:window-y="-8"
     inkscape:window-maximized="1"
     inkscape:current-layer="g12459"
     showguides="false"><inkscape:grid
       type="xygrid"
       id="grid132"
       visible="true"
       color="#ffffff"
       opacity="0.02352941"
       empcolor="#777777"
       empopacity="0.16470588"
       originx="0"
       originy="0"
       enabled="false" /></sodipodi:namedview><defs
     id="defs2"><inkscape:path-effect
       effect="offset"
       id="path-effect766"
       is_visible="true"
       lpeversion="1.2"
       linejoin_type="miter"
       unit="mm"
       offset="1.5"
       miter_limit="4"
       attempt_force_join="false"
       update_on_knot_move="true" /><linearGradient
       id="linearGradient6477"
       inkscape:swatch="solid"
       gradientTransform="matrix(0.06015514,0.07345539,-0.15321334,0.18708865,1414.8289,-3879.798)"><stop
         style="stop-color:#f27e70;stop-opacity:1;"
         offset="0"
         id="stop6475" /></linearGradient><linearGradient
       id="linearGradient9776"
       inkscape:swatch="solid"
       gradientTransform="matrix(9.0769027e-5,0,0,9.0769027e-5,-0.51055264,0.83863903)"><stop
         style="stop-color:#b2b7be;stop-opacity:1;"
         offset="0"
         id="stop9774" /></linearGradient><linearGradient
       id="linearGradient1642"
       inkscape:swatch="solid"
       gradientTransform="matrix(0.53491831,0,0,1.6710713,578.25432,638.40486)"><stop
         style="stop-color:#75c590;stop-opacity:1;"
         offset="0"
         id="stop1640" /></linearGradient><linearGradient
       id="linearGradient1636"
       inkscape:swatch="solid"
       gradientTransform="matrix(2.372496e-4,0,0,-2.7055498e-4,-99.855184,269.11388)"><stop
         style="stop-color:#f0b762;stop-opacity:1;"
         offset="0"
         id="stop1634" /></linearGradient><linearGradient
       id="linearGradient1630"
       inkscape:swatch="solid"
       gradientTransform="matrix(0.30427083,0,0,0.29793192,-77.004766,47.015341)"><stop
         style="stop-color:#548ed0;stop-opacity:1;"
         offset="0"
         id="stop1628" /></linearGradient><linearGradient
       id="linearGradient1624"
       inkscape:swatch="solid"
       gradientTransform="matrix(0,0,0,0,866.34964,373.20499)"><stop
         style="stop-color:#f06262;stop-opacity:1;"
         offset="0"
         id="stop1622" /></linearGradient><linearGradient
       id="linearGradient1618"
       inkscape:swatch="solid"
       gradientTransform="matrix(0.06589317,0,0,0.07055889,-2.985541,-3.3903293)"><stop
         style="stop-color:#272932;stop-opacity:1;"
         offset="0"
         id="stop1616" /></linearGradient><linearGradient
       id="linearGradient1612"
       inkscape:swatch="solid"
       gradientTransform="matrix(0.00474027,-8.4478547e-4,-0.00121142,-0.0031383,1.0719428,0.60129234)"><stop
         style="stop-color:#424c55;stop-opacity:1;"
         offset="0"
         id="stop1610" /></linearGradient><linearGradient
       id="linearGradient1606"
       inkscape:swatch="solid"
       gradientTransform="matrix(0.0050977,0,0,0.00503612,-34.077088,-601.94435)"><stop
         style="stop-color:#59656f;stop-opacity:1;"
         offset="0"
         id="stop1604" /></linearGradient><linearGradient
       id="linearGradient1594"
       inkscape:swatch="solid"
       gradientTransform="matrix(0.09102054,0,0,0.0999252,804.72123,1379.5943)"><stop
         style="stop-color:#eddab7;stop-opacity:1;"
         offset="0"
         id="stop1592" /></linearGradient><linearGradient
       inkscape:collect="always"
       xlink:href="#linearGradient1612"
       id="linearGradient5730"
       x1="-0.0099999998"
       y1="2.5897293"
       x2="30.066"
       y2="2.5897293"
       gradientUnits="userSpaceOnUse"
       gradientTransform="matrix(3.7795276,0,0,3.7795276,0.03779528,0.00152167)" /><pattern
       inkscape:collect="always"
       xlink:href="#pattern5732-6"
       id="pattern5765-7"
       patternTransform="matrix(0.18385907,0.0434379,-0.0584095,0.24722735,602.13811,88.947397)" /><pattern
       patternUnits="userSpaceOnUse"
       width="113.67307"
       height="19.57895"
       patternTransform="translate(-0.03779528,-0.00152167)"
       id="pattern5732-6"><path
         style="fill:url(#linearGradient5730);fill-opacity:1;stroke:none;stroke-width:3.77953"
         d="M 28.750866,0.23207286 C 19.234016,-0.70524998 10.07622,1.142939 0,6.759317 v 4.811339 C 10.518425,5.4100256 19.589291,3.9775847 28.278425,4.839317 c 8.685355,0.8617322 16.996536,4.0856692 25.628977,7.324724 17.261102,6.474331 36.098267,13.069607 59.765668,-0.593385 l -0.0151,-4.811339 C 89.317795,20.777585 72.778583,14.250341 55.562835,7.791128 46.953071,4.5634114 38.267717,1.1769547 28.750866,0.23207286 Z"
         id="path5724-4" /></pattern><linearGradient
       xlink:href="#linearGradient1624-1"
       id="linearGradient3482"
       x1="1465.1726"
       y1="-38.484428"
       x2="1472.7983"
       y2="-38.484428"
       gradientUnits="userSpaceOnUse"
       gradientTransform="matrix(3.108165,0,0,3.108165,-3961.9271,232.40531)" /><linearGradient
       id="linearGradient1624-1"
       gradientTransform="matrix(0,0,0,0,-2192.7255,364.95949)"><stop
         style="stop-color:#f06262;stop-opacity:1;"
         offset="0"
         id="stop1622-9" /></linearGradient></defs><g
     inkscape:groupmode="layer"
     id="layer7"
     inkscape:label="Mob-Dashboard-Light"
     style="display:inline"
     transform="translate(-591.345,481.94401)"><g
       id="g44523"
       transform="translate(0,-576.90679)"><g
         id="g44120"
         transform="translate(0,34.207027)"
         style="display:inline"><g
           id="g12459"
           inkscape:export-filename="..\KednoiPC\src\Decorations\spDecorMask.svg"
           inkscape:export-xdpi="96"
           inkscape:export-ydpi="96"><path
             style="display:inline;opacity:1;fill:#6c57b2;fill-opacity:1;stroke-width:1.05833;stroke-linecap:round;stroke-linejoin:round"
             d="M 591.50011,86.439282 615.50862,60.755755 H 591.50011 Z"
             id="path2686-4"
             sodipodi:nodetypes="cccc" /><path
             id="path3813-2"
             style="display:inline;opacity:0.507157;fill:#6c57b2;fill-opacity:1;stroke-width:1.05833;stroke-linecap:round;stroke-linejoin:round"
             d="m 617.25439,60.755797 a 25.760521,26.040523 0 0 0 -0.58343,0.0068 25.760521,26.040523 0 0 0 -0.58604,0.0201 25.760521,26.040523 0 0 0 -0.58539,0.03391 25.760521,26.040523 0 0 0 -0.58451,0.04703 25.760521,26.040523 0 0 0 -0.58341,0.0606 25.760521,26.040523 0 0 0 -0.58189,0.07415 25.760521,26.040523 0 0 0 -0.57992,0.08729 25.760521,26.040523 0 0 0 -0.57794,0.100851 25.760521,26.040523 0 0 0 -0.57555,0.113973 25.760521,26.040523 0 0 0 -0.5727,0.127096 25.760521,26.040523 0 0 0 -0.56986,0.140444 25.760521,26.040523 0 0 0 -0.56635,0.153346 25.760521,26.040523 0 0 0 -0.56285,0.166473 25.760521,26.040523 0 0 0 -0.55893,0.179375 25.760521,26.040523 0 0 0 -0.55475,0.192067 25.760521,26.040523 0 0 0 -0.55039,0.204973 25.760521,26.040523 0 0 0 -0.54557,0.217441 25.760521,26.040523 0 0 0 -0.54055,0.229911 25.760521,26.040523 0 0 0 -0.53507,0.242382 25.760521,26.040523 0 0 0 -0.5296,0.254629 25.760521,26.040523 0 0 0 -0.5237,0.266663 25.760521,26.040523 0 0 0 -0.51758,0.27869 25.760521,26.040523 0 0 0 -0.51122,0.290508 25.760521,26.040523 0 0 0 -0.50445,0.302319 25.760521,26.040523 0 0 0 -0.49766,0.313694 25.760521,26.040523 0 0 0 -0.49023,0.325068 25.760521,26.040523 0 0 0 -0.48301,0.336443 25.760521,26.040523 0 0 0 -0.47514,0.347382 25.760521,26.040523 0 0 0 -0.46726,0.358104 25.760521,26.040523 0 0 0 -0.45916,0.368818 25.760521,26.040523 0 0 0 -0.45063,0.37932 25.760521,26.040523 0 0 0 -0.44211,0.389602 25.760521,26.040523 0 0 0 -0.43291,0.399665 25.760521,26.040523 0 0 0 -0.42417,0.409508 25.760521,26.040523 0 0 0 -0.41454,0.419353 25.760521,26.040523 0 0 0 -0.40513,0.428539 25.760521,26.040523 0 0 0 -0.39551,0.437725 25.760521,26.040523 0 0 0 -0.38523,0.446916 25.760521,26.040523 0 0 0 -0.37538,0.455449 25.760521,26.040523 0 0 0 -0.36488,0.464195 25.760521,26.040523 0 0 0 -0.35438,0.47229 25.760521,26.040523 0 0 0 -0.34345,0.480387 25.760521,26.040523 0 0 0 -0.33273,0.488261 25.760521,26.040523 0 0 0 -0.32179,0.495693 25.760521,26.040523 0 0 0 -0.31018,0.502915 25.760521,26.040523 0 0 0 -0.29904,0.509919 25.760521,26.040523 0 0 0 -0.28744,0.516698 25.760521,26.040523 0 0 0 -0.27564,0.52326 25.760521,26.040523 0 0 0 -0.26403,0.529386 25.760521,26.040523 0 0 0 -0.25179,0.535292 25.760521,26.040523 0 0 0 -0.23975,0.54098 25.760521,26.040523 0 0 0 -0.22751,0.546449 25.760521,26.040523 0 0 0 -0.21504,0.551479 25.760521,26.040523 0 0 0 -0.20278,0.556291 25.760521,26.040523 0 0 0 -0.19009,0.560889 25.760521,26.040523 0 0 0 -0.17742,0.564823 25.760521,26.040523 0 0 0 -0.1645,0.568984 25.760521,26.040523 0 0 0 -0.15182,0.572695 25.760521,26.040523 0 0 0 -0.1389,0.575979 25.760521,26.040523 0 0 0 -0.12579,0.579046 25.760521,26.040523 0 0 0 -0.11265,0.581669 25.760521,26.040523 0 0 0 -0.0997,0.584073 25.760521,26.040523 0 0 0 -0.0864,0.58648 25.760521,26.040523 0 0 0 -0.0733,0.58801 25.760521,26.040523 0 0 0 -0.06,0.589764 25.760521,26.040523 0 0 0 -0.0468,0.590854 25.760521,26.040523 0 0 0 -0.0333,0.591952 25.760521,26.040523 0 0 0 -0.0201,0.592384 25.760521,26.040523 0 0 0 -0.004,0.312822 25.760521,26.040523 0 0 0 0.58342,-0.0068 25.760521,26.040523 0 0 0 0.58604,-0.02015 25.760521,26.040523 0 0 0 0.58539,-0.0339 25.760521,26.040523 0 0 0 0.58451,-0.04703 25.760521,26.040523 0 0 0 0.58341,-0.0606 25.760521,26.040523 0 0 0 0.5819,-0.07415 25.760521,26.040523 0 0 0 0.57991,-0.08729 25.760521,26.040523 0 0 0 0.57796,-0.100851 25.760521,26.040523 0 0 0 0.57553,-0.113972 25.760521,26.040523 0 0 0 0.57271,-0.127097 25.760521,26.040523 0 0 0 0.56985,-0.140438 25.760521,26.040523 0 0 0 0.56635,-0.153346 25.760521,26.040523 0 0 0 0.56286,-0.166474 25.760521,26.040523 0 0 0 0.55892,-0.17938 25.760521,26.040523 0 0 0 0.55475,-0.192062 25.760521,26.040523 0 0 0 0.55039,-0.204974 25.760521,26.040523 0 0 0 0.54557,-0.217445 25.760521,26.040523 0 0 0 0.54055,-0.22991 25.760521,26.040523 0 0 0 0.53507,-0.242379 25.760521,26.040523 0 0 0 0.52961,-0.254628 25.760521,26.040523 0 0 0 0.52369,-0.266664 25.760521,26.040523 0 0 0 0.51758,-0.278693 25.760521,26.040523 0 0 0 0.51122,-0.290505 25.760521,26.040523 0 0 0 0.50445,-0.302319 25.760521,26.040523 0 0 0 0.49767,-0.313694 25.760521,26.040523 0 0 0 0.49023,-0.325068 25.760521,26.040523 0 0 0 0.48302,-0.336443 25.760521,26.040523 0 0 0 0.47512,-0.347385 25.760521,26.040523 0 0 0 0.46726,-0.3581 25.760521,26.040523 0 0 0 0.45916,-0.368817 25.760521,26.040523 0 0 0 0.45065,-0.379322 25.760521,26.040523 0 0 0 0.4421,-0.389602 25.760521,26.040523 0 0 0 0.43292,-0.399665 25.760521,26.040523 0 0 0 0.42415,-0.409509 25.760521,26.040523 0 0 0 0.41454,-0.419353 25.760521,26.040523 0 0 0 0.40514,-0.428539 25.760521,26.040523 0 0 0 0.39551,-0.43773 25.760521,26.040523 0 0 0 0.38522,-0.446916 25.760521,26.040523 0 0 0 0.37539,-0.455444 25.760521,26.040523 0 0 0 0.36488,-0.464195 25.760521,26.040523 0 0 0 0.35438,-0.472293 25.760521,26.040523 0 0 0 0.34344,-0.480384 25.760521,26.040523 0 0 0 0.33273,-0.488261 25.760521,26.040523 0 0 0 0.32179,-0.495698 25.760521,26.040523 0 0 0 0.31019,-0.502915 25.760521,26.040523 0 0 0 0.29904,-0.509917 25.760521,26.040523 0 0 0 0.28744,-0.516695 25.760521,26.040523 0 0 0 0.27563,-0.52326 25.760521,26.040523 0 0 0 0.26403,-0.529386 25.760521,26.040523 0 0 0 0.2518,-0.535295 25.760521,26.040523 0 0 0 0.23974,-0.540977 25.760521,26.040523 0 0 0 0.22752,-0.546449 25.760521,26.040523 0 0 0 0.21503,-0.551479 25.760521,26.040523 0 0 0 0.20279,-0.556296 25.760521,26.040523 0 0 0 0.19008,-0.560884 25.760521,26.040523 0 0 0 0.17742,-0.564822 25.760521,26.040523 0 0 0 0.1645,-0.568983 25.760521,26.040523 0 0 0 0.15182,-0.572699 25.760521,26.040523 0 0 0 0.13891,-0.575981 25.760521,26.040523 0 0 0 0.12578,-0.57904 25.760521,26.040523 0 0 0 0.11266,-0.581669 25.760521,26.040523 0 0 0 0.0997,-0.584074 25.760521,26.040523 0 0 0 0.0864,-0.586483 25.760521,26.040523 0 0 0 0.0733,-0.588011 25.760521,26.040523 0 0 0 0.06,-0.589758 25.760521,26.040523 0 0 0 0.0468,-0.590856 25.760521,26.040523 0 0 0 0.0333,-0.591952 25.760521,26.040523 0 0 0 0.0201,-0.592387 25.760521,26.040523 0 0 0 0.003,-0.312818 z m 0.004,0 v 25.760518 h 2.2e-4 V 60.755797 Z" /><path
             style="display:inline;opacity:0.495781;fill:url(#pattern5765-7);fill-opacity:1;stroke-width:1.158;stroke-linecap:round;stroke-linejoin:round;stroke-dasharray:none"
             d="m 591.04466,103.33602 21.10055,-4.425768 5.1134,1.496308 0.0156,-8.21686 -3.76757,-18.183767 c 0,0 -4.74019,-9.181076 -7.51848,0.142158 -2.26156,7.589214 -4.58299,12.319101 -6.82282,16.798772 -2.23984,4.479676 -8.12064,9.002989 -8.12064,9.002989 z"
             id="path5763-4"
             sodipodi:nodetypes="cccccsscc" /><path
             id="rect419"
             style="opacity:0.535497;fill:#cce8ff;stroke-width:0.730001;stroke-linecap:round;stroke-miterlimit:2.4"
             d="M 617.27313 117.28977 L 617.27313 122.27396 C 617.27313 124.75627 615.19397 126.67214 612.71217 126.67214 L 595.79641 126.67214 C 593.64733 126.67213 591.80157 125.23476 591.345 123.23773 L 591.345 130.23265 L 617.27417 130.23265 L 617.27417 117.28977 L 617.27313 117.28977 z " /><path
             id="rect1960"
             style="fill:url(#linearGradient3482);fill-opacity:1;stroke-width:0.73;stroke-linecap:round;stroke-miterlimit:2.4"
             d="m 611.67446,100.40906 c -0.20512,0.003 -0.40995,0.028 -0.61696,0.0724 l -1.58361,0.33926 4.83287,4.77103 0.56445,-0.12091 c 0.056,-0.0125 0.11812,-0.028 0.17406,-0.0416 0.056,-0.0155 0.11189,-0.0311 0.16784,-0.0487 0,-0.004 0.0311,-0.009 0.0311,-0.0125 l -0.5859,-2.69511 c -0.29527,-1.37403 -1.56059,-2.29479 -2.98321,-2.2657 z m -6.12711,1.25148 -3.75312,0.80309 4.83133,4.7722 3.75218,-0.80426 z m -7.6809,1.64531 -3.34968,0.71649 c -0.0311,0.006 -0.0498,0.0125 -0.0746,0.0186 l 4.82915,4.76985 3.42706,-0.73428 z m -5.75788,3.14947 c -0.056,0.33795 -0.0528,0.68939 0.0311,1.0427 l 0.58837,2.71529 2.62392,-0.56229 z m 0.6263,4.85169 9.7e-4,9.7e-4 v 4.89915 l 2.74017,-4.88019 h -2.35569 c -0.0591,0 -0.11811,-8.8e-4 -0.18027,-0.004 -0.0591,-0.002 -0.11811,-0.006 -0.17406,-0.0125 0,-8.7e-4 -0.0311,-0.004 -0.0311,-0.006 z m 6.93369,0.0218 -2.75601,4.90744 h -4.17645 v 6.03675 c 0,1.60595 1.36573,2.89914 3.06155,2.89914 h 16.91463 c 1.69581,0 3.06061,-1.29319 3.06061,-2.89914 v -6.03675 -4.66548 l -2.62049,4.66548 h -4.19229 l 2.7557,-4.90744 h -3.994 l -2.75569,4.90744 h -4.1923 l 2.75601,-4.90744 z" /></g></g></g></g></svg>
