<?xml version="1.0" encoding="UTF-8" standalone="no"?>
<!-- Created with Inkscape (http://www.inkscape.org/) -->

<svg
   width="100.52542"
   height="262.59079"
   viewBox="0 0 26.597351 69.477147"
   version="1.1"
   id="svg5"
   inkscape:version="1.2.1 (9c6d41e410, 2022-07-14)"
   sodipodi:docname="KednoiDesign.svg"
   xml:space="preserve"
   xmlns:inkscape="http://www.inkscape.org/namespaces/inkscape"
   xmlns:sodipodi="http://sodipodi.sourceforge.net/DTD/sodipodi-0.dtd"
   xmlns:xlink="http://www.w3.org/1999/xlink"
   xmlns="http://www.w3.org/2000/svg"
   xmlns:svg="http://www.w3.org/2000/svg"><sodipodi:namedview
     id="namedview7"
     pagecolor="#505050"
     bordercolor="#ffffff"
     borderopacity="1"
     inkscape:showpageshadow="0"
     inkscape:pageopacity="1"
     inkscape:pagecheckerboard="1"
     inkscape:deskcolor="#505050"
     inkscape:document-units="mm"
     showgrid="true"
     inkscape:zoom="0.625"
     inkscape:cx="6780.8"
     inkscape:cy="539.2"
     inkscape:window-width="1920"
     inkscape:window-height="1002"
     inkscape:window-x="-8"
     inkscape:window-y="-8"
     inkscape:window-maximized="1"
     inkscape:current-layer="g13850"
     showguides="false"><inkscape:grid
       type="xygrid"
       id="grid132"
       visible="true"
       color="#ffffff"
       opacity="0.02352941"
       empcolor="#777777"
       empopacity="0.16470588"
       originx="0"
       originy="0"
       enabled="false" /></sodipodi:namedview><defs
     id="defs2"><linearGradient
       id="linearGradient6477"
       inkscape:swatch="solid"
       gradientTransform="matrix(0.06015514,0.07345539,-0.15321334,0.18708865,1414.8289,-3879.798)"><stop
         style="stop-color:#f27e70;stop-opacity:1;"
         offset="0"
         id="stop6475" /></linearGradient><linearGradient
       id="linearGradient9776"
       inkscape:swatch="solid"
       gradientTransform="matrix(9.0769027e-5,0,0,9.0769027e-5,-0.51055264,0.83863903)"><stop
         style="stop-color:#b2b7be;stop-opacity:1;"
         offset="0"
         id="stop9774" /></linearGradient><linearGradient
       id="linearGradient1642"
       inkscape:swatch="solid"
       gradientTransform="matrix(0.53491831,0,0,1.6710713,578.25432,638.40486)"><stop
         style="stop-color:#75c590;stop-opacity:1;"
         offset="0"
         id="stop1640" /></linearGradient><linearGradient
       id="linearGradient1636"
       inkscape:swatch="solid"
       gradientTransform="matrix(2.372496e-4,0,0,-2.7055498e-4,-99.855184,269.11388)"><stop
         style="stop-color:#f0b762;stop-opacity:1;"
         offset="0"
         id="stop1634" /></linearGradient><linearGradient
       id="linearGradient1630"
       inkscape:swatch="solid"
       gradientTransform="matrix(0.30427083,0,0,0.29793192,-77.004766,47.015341)"><stop
         style="stop-color:#548ed0;stop-opacity:1;"
         offset="0"
         id="stop1628" /></linearGradient><linearGradient
       id="linearGradient1624"
       inkscape:swatch="solid"
       gradientTransform="matrix(0,0,0,0,866.34964,373.20499)"><stop
         style="stop-color:#f06262;stop-opacity:1;"
         offset="0"
         id="stop1622" /></linearGradient><linearGradient
       id="linearGradient1618"
       inkscape:swatch="solid"
       gradientTransform="matrix(0.06589317,0,0,0.07055889,-2.985541,-3.3903293)"><stop
         style="stop-color:#272932;stop-opacity:1;"
         offset="0"
         id="stop1616" /></linearGradient><linearGradient
       id="linearGradient1612"
       inkscape:swatch="solid"
       gradientTransform="matrix(0.00474027,-8.4478547e-4,-0.00121142,-0.0031383,1.0719428,0.60129234)"><stop
         style="stop-color:#424c55;stop-opacity:1;"
         offset="0"
         id="stop1610" /></linearGradient><linearGradient
       id="linearGradient1606"
       inkscape:swatch="solid"
       gradientTransform="matrix(0.0050977,0,0,0.00503612,-34.077088,-601.94435)"><stop
         style="stop-color:#59656f;stop-opacity:1;"
         offset="0"
         id="stop1604" /></linearGradient><linearGradient
       id="linearGradient1594"
       inkscape:swatch="solid"
       gradientTransform="matrix(0.09102054,0,0,0.0999252,804.72123,1379.5943)"><stop
         style="stop-color:#eddab7;stop-opacity:1;"
         offset="0"
         id="stop1592" /></linearGradient><linearGradient
       inkscape:collect="always"
       xlink:href="#linearGradient1612"
       id="linearGradient5730"
       x1="-0.0099999998"
       y1="2.5897293"
       x2="30.066"
       y2="2.5897293"
       gradientUnits="userSpaceOnUse"
       gradientTransform="matrix(3.7795276,0,0,3.7795276,0.03779528,0.00152167)" /><pattern
       inkscape:collect="always"
       xlink:href="#pattern5732-6"
       id="pattern5765-7"
       patternTransform="matrix(0.11566163,0.04734012,-0.05776005,0.14111907,593.86516,90.169356)" /><pattern
       patternUnits="userSpaceOnUse"
       width="113.67307"
       height="19.57895"
       patternTransform="translate(-0.03779528,-0.00152167)"
       id="pattern5732-6"><path
         style="fill:url(#linearGradient5730);fill-opacity:1;stroke:none;stroke-width:3.77953"
         d="M 28.750866,0.23207286 C 19.234016,-0.70524998 10.07622,1.142939 0,6.759317 v 4.811339 C 10.518425,5.4100256 19.589291,3.9775847 28.278425,4.839317 c 8.685355,0.8617322 16.996536,4.0856692 25.628977,7.324724 17.261102,6.474331 36.098267,13.069607 59.765668,-0.593385 l -0.0151,-4.811339 C 89.317795,20.777585 72.778583,14.250341 55.562835,7.791128 46.953071,4.5634114 38.267717,1.1769547 28.750866,0.23207286 Z"
         id="path5724-4" /></pattern></defs><g
     inkscape:groupmode="layer"
     id="layer7"
     inkscape:label="Mob-Dashboard-Light"
     style="display:inline"
     transform="translate(-590.66132,481.94401)"><g
       id="g44523"
       transform="translate(0,-576.90679)"><g
         id="g44120"
         transform="translate(0,34.207027)"
         style="display:inline"><g
           id="g12459"
           inkscape:export-filename="..\KednoiPC\src\Decorations\spDecorMask.svg"
           inkscape:export-xdpi="96"
           inkscape:export-ydpi="96"><path
             id="path3601-2"
             style="display:inline;fill:#6c57b2;fill-opacity:1;stroke-width:1.05834;stroke-linecap:round;stroke-linejoin:round"
             d="m 596.69705,110.09289 -1.78567,5.58107 H 591.5 v 14.55894 h 25.75812 v -14.55894 h -3.29021 l 1.89118,-5.59959 h -3.07365 l -1.89117,5.59959 h -4.9178 l 1.89117,-5.59959 H 604.794 l -1.89118,5.59959 h -4.9178 l 1.80892,-5.56026 z M 591.5,105.01982 v 1.6948 3.35975 0 0.71438 l 0.38475,-0.71438 2.28124,-0.0319 z"
             sodipodi:nodetypes="ccccccccccccccccccccccccc" /><path
             id="path44093"
             style="font-variation-settings:'wght' 300;display:inline;opacity:1;fill:#6b57b2;fill-opacity:1;stroke-width:0.658;stroke-linecap:round;stroke-linejoin:round"
             d="m 596.62359,144.38059 -4.51959,-5.12707 3.05936,-0.75898 4.44344,5.14596 z m 15.61907,-3.8939 -4.5196,-5.12707 3.05937,-0.75897 4.44344,5.14596 z m -7.76481,1.92632 -4.51959,-5.12706 3.05936,-0.75898 4.44344,5.14596 z"
             inkscape:transform-center-x="-13.685174"
             inkscape:transform-center-y="-5.5415051"
             transform="translate(0,-34.207027)" /><path
             style="display:inline;opacity:1;fill:#6c57b2;fill-opacity:1;stroke-width:1.05833;stroke-linecap:round;stroke-linejoin:round"
             d="M 591.50011,86.516273 615.58059,60.755755 H 591.50011 Z"
             id="path2686-4"
             sodipodi:nodetypes="cccc" /><path
             id="path3813-2"
             style="display:inline;opacity:0.507157;fill:#6c57b2;fill-opacity:1;stroke-width:1.05833;stroke-linecap:round;stroke-linejoin:round"
             d="m 617.25439,60.755797 a 25.760521,26.040523 0 0 0 -0.58343,0.0068 25.760521,26.040523 0 0 0 -0.58604,0.0201 25.760521,26.040523 0 0 0 -0.58539,0.03391 25.760521,26.040523 0 0 0 -0.58451,0.04703 25.760521,26.040523 0 0 0 -0.58341,0.0606 25.760521,26.040523 0 0 0 -0.58189,0.07415 25.760521,26.040523 0 0 0 -0.57992,0.08729 25.760521,26.040523 0 0 0 -0.57794,0.100851 25.760521,26.040523 0 0 0 -0.57555,0.113973 25.760521,26.040523 0 0 0 -0.5727,0.127096 25.760521,26.040523 0 0 0 -0.56986,0.140444 25.760521,26.040523 0 0 0 -0.56635,0.153346 25.760521,26.040523 0 0 0 -0.56285,0.166473 25.760521,26.040523 0 0 0 -0.55893,0.179375 25.760521,26.040523 0 0 0 -0.55475,0.192067 25.760521,26.040523 0 0 0 -0.55039,0.204973 25.760521,26.040523 0 0 0 -0.54557,0.217441 25.760521,26.040523 0 0 0 -0.54055,0.229911 25.760521,26.040523 0 0 0 -0.53507,0.242382 25.760521,26.040523 0 0 0 -0.5296,0.254629 25.760521,26.040523 0 0 0 -0.5237,0.266663 25.760521,26.040523 0 0 0 -0.51758,0.27869 25.760521,26.040523 0 0 0 -0.51122,0.290508 25.760521,26.040523 0 0 0 -0.50445,0.302319 25.760521,26.040523 0 0 0 -0.49766,0.313694 25.760521,26.040523 0 0 0 -0.49023,0.325068 25.760521,26.040523 0 0 0 -0.48301,0.336443 25.760521,26.040523 0 0 0 -0.47514,0.347382 25.760521,26.040523 0 0 0 -0.46726,0.358104 25.760521,26.040523 0 0 0 -0.45916,0.368818 25.760521,26.040523 0 0 0 -0.45063,0.37932 25.760521,26.040523 0 0 0 -0.44211,0.389602 25.760521,26.040523 0 0 0 -0.43291,0.399665 25.760521,26.040523 0 0 0 -0.42417,0.409508 25.760521,26.040523 0 0 0 -0.41454,0.419353 25.760521,26.040523 0 0 0 -0.40513,0.428539 25.760521,26.040523 0 0 0 -0.39551,0.437725 25.760521,26.040523 0 0 0 -0.38523,0.446916 25.760521,26.040523 0 0 0 -0.37538,0.455449 25.760521,26.040523 0 0 0 -0.36488,0.464195 25.760521,26.040523 0 0 0 -0.35438,0.47229 25.760521,26.040523 0 0 0 -0.34345,0.480387 25.760521,26.040523 0 0 0 -0.33273,0.488261 25.760521,26.040523 0 0 0 -0.32179,0.495693 25.760521,26.040523 0 0 0 -0.31018,0.502915 25.760521,26.040523 0 0 0 -0.29904,0.509919 25.760521,26.040523 0 0 0 -0.28744,0.516698 25.760521,26.040523 0 0 0 -0.27564,0.52326 25.760521,26.040523 0 0 0 -0.26403,0.529386 25.760521,26.040523 0 0 0 -0.25179,0.535292 25.760521,26.040523 0 0 0 -0.23975,0.54098 25.760521,26.040523 0 0 0 -0.22751,0.546449 25.760521,26.040523 0 0 0 -0.21504,0.551479 25.760521,26.040523 0 0 0 -0.20278,0.556291 25.760521,26.040523 0 0 0 -0.19009,0.560889 25.760521,26.040523 0 0 0 -0.17742,0.564823 25.760521,26.040523 0 0 0 -0.1645,0.568984 25.760521,26.040523 0 0 0 -0.15182,0.572695 25.760521,26.040523 0 0 0 -0.1389,0.575979 25.760521,26.040523 0 0 0 -0.12579,0.579046 25.760521,26.040523 0 0 0 -0.11265,0.581669 25.760521,26.040523 0 0 0 -0.0997,0.584073 25.760521,26.040523 0 0 0 -0.0864,0.58648 25.760521,26.040523 0 0 0 -0.0733,0.58801 25.760521,26.040523 0 0 0 -0.06,0.589764 25.760521,26.040523 0 0 0 -0.0468,0.590854 25.760521,26.040523 0 0 0 -0.0333,0.591952 25.760521,26.040523 0 0 0 -0.0201,0.592384 25.760521,26.040523 0 0 0 -0.004,0.312822 25.760521,26.040523 0 0 0 0.58342,-0.0068 25.760521,26.040523 0 0 0 0.58604,-0.02015 25.760521,26.040523 0 0 0 0.58539,-0.0339 25.760521,26.040523 0 0 0 0.58451,-0.04703 25.760521,26.040523 0 0 0 0.58341,-0.0606 25.760521,26.040523 0 0 0 0.5819,-0.07415 25.760521,26.040523 0 0 0 0.57991,-0.08729 25.760521,26.040523 0 0 0 0.57796,-0.100851 25.760521,26.040523 0 0 0 0.57553,-0.113972 25.760521,26.040523 0 0 0 0.57271,-0.127097 25.760521,26.040523 0 0 0 0.56985,-0.140438 25.760521,26.040523 0 0 0 0.56635,-0.153346 25.760521,26.040523 0 0 0 0.56286,-0.166474 25.760521,26.040523 0 0 0 0.55892,-0.17938 25.760521,26.040523 0 0 0 0.55475,-0.192062 25.760521,26.040523 0 0 0 0.55039,-0.204974 25.760521,26.040523 0 0 0 0.54557,-0.217445 25.760521,26.040523 0 0 0 0.54055,-0.22991 25.760521,26.040523 0 0 0 0.53507,-0.242379 25.760521,26.040523 0 0 0 0.52961,-0.254628 25.760521,26.040523 0 0 0 0.52369,-0.266664 25.760521,26.040523 0 0 0 0.51758,-0.278693 25.760521,26.040523 0 0 0 0.51122,-0.290505 25.760521,26.040523 0 0 0 0.50445,-0.302319 25.760521,26.040523 0 0 0 0.49767,-0.313694 25.760521,26.040523 0 0 0 0.49023,-0.325068 25.760521,26.040523 0 0 0 0.48302,-0.336443 25.760521,26.040523 0 0 0 0.47512,-0.347385 25.760521,26.040523 0 0 0 0.46726,-0.3581 25.760521,26.040523 0 0 0 0.45916,-0.368817 25.760521,26.040523 0 0 0 0.45065,-0.379322 25.760521,26.040523 0 0 0 0.4421,-0.389602 25.760521,26.040523 0 0 0 0.43292,-0.399665 25.760521,26.040523 0 0 0 0.42415,-0.409509 25.760521,26.040523 0 0 0 0.41454,-0.419353 25.760521,26.040523 0 0 0 0.40514,-0.428539 25.760521,26.040523 0 0 0 0.39551,-0.43773 25.760521,26.040523 0 0 0 0.38522,-0.446916 25.760521,26.040523 0 0 0 0.37539,-0.455444 25.760521,26.040523 0 0 0 0.36488,-0.464195 25.760521,26.040523 0 0 0 0.35438,-0.472293 25.760521,26.040523 0 0 0 0.34344,-0.480384 25.760521,26.040523 0 0 0 0.33273,-0.488261 25.760521,26.040523 0 0 0 0.32179,-0.495698 25.760521,26.040523 0 0 0 0.31019,-0.502915 25.760521,26.040523 0 0 0 0.29904,-0.509917 25.760521,26.040523 0 0 0 0.28744,-0.516695 25.760521,26.040523 0 0 0 0.27563,-0.52326 25.760521,26.040523 0 0 0 0.26403,-0.529386 25.760521,26.040523 0 0 0 0.2518,-0.535295 25.760521,26.040523 0 0 0 0.23974,-0.540977 25.760521,26.040523 0 0 0 0.22752,-0.546449 25.760521,26.040523 0 0 0 0.21503,-0.551479 25.760521,26.040523 0 0 0 0.20279,-0.556296 25.760521,26.040523 0 0 0 0.19008,-0.560884 25.760521,26.040523 0 0 0 0.17742,-0.564822 25.760521,26.040523 0 0 0 0.1645,-0.568983 25.760521,26.040523 0 0 0 0.15182,-0.572699 25.760521,26.040523 0 0 0 0.13891,-0.575981 25.760521,26.040523 0 0 0 0.12578,-0.57904 25.760521,26.040523 0 0 0 0.11266,-0.581669 25.760521,26.040523 0 0 0 0.0997,-0.584074 25.760521,26.040523 0 0 0 0.0864,-0.586483 25.760521,26.040523 0 0 0 0.0733,-0.588011 25.760521,26.040523 0 0 0 0.06,-0.589758 25.760521,26.040523 0 0 0 0.0468,-0.590856 25.760521,26.040523 0 0 0 0.0333,-0.591952 25.760521,26.040523 0 0 0 0.0201,-0.592387 25.760521,26.040523 0 0 0 0.003,-0.312818 z m 0.004,0 v 25.760518 h 2.2e-4 V 60.755797 Z" /><path
             style="display:inline;fill:url(#pattern5765-7);fill-opacity:1;stroke-width:1.158;stroke-linecap:round;stroke-linejoin:round;stroke-dasharray:none"
             d="M 590.66129,105.79716 616.4194,98.965663 V 96.837819 L 605.22022,79.479088 c 0,0 -5.59959,-10.639221 -6.7195,-2.799795 -1.11993,7.839425 3.35975,12.319101 1.11991,16.798772 -2.23984,4.479676 -8.95934,8.959345 -8.95934,8.959345 z"
             id="path5763-4"
             sodipodi:nodetypes="ccccsscc" /></g></g></g></g></svg>
