<?xml version="1.0" encoding="UTF-8" standalone="no"?>
<!-- Created with Inkscape (http://www.inkscape.org/) -->

<svg
   width="48.000278"
   height="47.999989"
   viewBox="0 0 12.700074 12.699997"
   version="1.1"
   id="svg5"
   inkscape:version="1.2.1 (9c6d41e410, 2022-07-14)"
   sodipodi:docname="dialog.svg"
   xml:space="preserve"
   xmlns:inkscape="http://www.inkscape.org/namespaces/inkscape"
   xmlns:sodipodi="http://sodipodi.sourceforge.net/DTD/sodipodi-0.dtd"
   xmlns:xlink="http://www.w3.org/1999/xlink"
   xmlns="http://www.w3.org/2000/svg"
   xmlns:svg="http://www.w3.org/2000/svg"><sodipodi:namedview
     id="namedview7"
     pagecolor="#505050"
     bordercolor="#ffffff"
     borderopacity="1"
     inkscape:showpageshadow="0"
     inkscape:pageopacity="1"
     inkscape:pagecheckerboard="1"
     inkscape:deskcolor="#505050"
     inkscape:document-units="mm"
     showgrid="true"
     inkscape:zoom="16.583337"
     inkscape:cx="23.879391"
     inkscape:cy="23.999994"
     inkscape:window-width="1920"
     inkscape:window-height="1002"
     inkscape:window-x="-8"
     inkscape:window-y="-8"
     inkscape:window-maximized="1"
     inkscape:current-layer="layer6"
     showguides="true"><inkscape:grid
       type="xygrid"
       id="grid132"
       visible="true"
       color="#ffffff"
       opacity="0.02352941"
       empcolor="#777777"
       empopacity="0.16470588"
       originx="0"
       originy="0"
       enabled="false" /></sodipodi:namedview><defs
     id="defs2"><linearGradient
       id="linearGradient26821"
       inkscape:swatch="solid"><stop
         style="stop-color:#000000;stop-opacity:1;"
         offset="0"
         id="stop26819" /></linearGradient><linearGradient
       id="linearGradient26807"
       inkscape:swatch="solid"><stop
         style="stop-color:#000000;stop-opacity:1;"
         offset="0"
         id="stop26805" /></linearGradient><linearGradient
       id="linearGradient19651"
       inkscape:swatch="solid"><stop
         style="stop-color:#000000;stop-opacity:1;"
         offset="0"
         id="stop19649" /></linearGradient><linearGradient
       id="linearGradient6477"
       inkscape:swatch="solid"
       gradientTransform="matrix(-1.6977076e-5,1.9736819e-5,4.3240248e-5,5.0269044e-5,193.40822,-1.2429071)"><stop
         style="stop-color:#f89568;stop-opacity:1;"
         offset="0"
         id="stop6475" /></linearGradient><linearGradient
       id="linearGradient9776"
       inkscape:swatch="solid"
       gradientTransform="matrix(9.0769027e-5,0,0,9.0769027e-5,-0.51055264,0.83863903)"><stop
         style="stop-color:#b2b7be;stop-opacity:1;"
         offset="0"
         id="stop9774" /></linearGradient><inkscape:path-effect
       effect="fillet_chamfer"
       id="path-effect9713"
       is_visible="true"
       lpeversion="1"
       nodesatellites_param="F,0,0,1,0,0.26458333,0,1 @ F,0,0,1,0,0.26458333,0,1 @ F,0,0,1,0,0.26458333,0,1 @ F,0,0,1,0,0.26458333,0,1 @ F,0,0,1,0,0.26458333,0,1 @ F,0,0,1,0,0.26458333,0,1 @ F,0,0,1,0,0.26458333,0,1 @ F,0,0,1,0,0.26458333,0,1"
       unit="px"
       method="auto"
       mode="F"
       radius="1"
       chamfer_steps="1"
       flexible="false"
       use_knot_distance="true"
       apply_no_radius="true"
       apply_with_radius="true"
       only_selected="false"
       hide_knots="false" /><linearGradient
       id="linearGradient1642"
       inkscape:swatch="solid"
       gradientTransform="matrix(0.53491831,0,0,1.6710713,578.25432,638.40486)"><stop
         style="stop-color:#75c590;stop-opacity:1;"
         offset="0"
         id="stop1640" /></linearGradient><linearGradient
       id="linearGradient1636"
       inkscape:swatch="solid"
       gradientTransform="matrix(2.372496e-4,0,0,-2.7055498e-4,-99.855184,269.11388)"><stop
         style="stop-color:#f0b762;stop-opacity:1;"
         offset="0"
         id="stop1634" /></linearGradient><linearGradient
       id="linearGradient1630"
       inkscape:swatch="solid"
       gradientTransform="matrix(0.30427083,0,0,0.29793192,-77.004766,47.015341)"><stop
         style="stop-color:#548ed0;stop-opacity:1;"
         offset="0"
         id="stop1628" /></linearGradient><linearGradient
       id="linearGradient1624"
       inkscape:swatch="solid"
       gradientTransform="matrix(0,0,0,0,-2192.7255,364.95949)"><stop
         style="stop-color:#f06262;stop-opacity:1;"
         offset="0"
         id="stop1622" /></linearGradient><linearGradient
       id="linearGradient1618"
       inkscape:swatch="solid"
       gradientTransform="matrix(-6.7219401e-8,0,0,1.2565572e-7,-1503.3428,-1436.79)"><stop
         style="stop-color:#272932;stop-opacity:1;"
         offset="0"
         id="stop1616" /></linearGradient><linearGradient
       id="linearGradient1612"
       inkscape:swatch="solid"
       gradientTransform="matrix(7.6147856e-4,-1.3570623e-4,-1.9460236e-4,-5.0413612e-4,576.71913,-15.022291)"><stop
         style="stop-color:#424c55;stop-opacity:1;"
         offset="0"
         id="stop1610" /></linearGradient><linearGradient
       id="linearGradient1606"
       inkscape:swatch="solid"
       gradientTransform="matrix(0.0050977,0,0,0.00503612,-34.077088,-601.94435)"><stop
         style="stop-color:#59656f;stop-opacity:1;"
         offset="0"
         id="stop1604" /></linearGradient><linearGradient
       id="linearGradient1600"
       gradientTransform="matrix(-1.4661263e-5,-3.0196091e-6,8.8953209e-7,-4.3189906e-6,-575.51279,-2119.7064)"
       inkscape:swatch="solid"><stop
         style="stop-color:#f9efdf;stop-opacity:1;"
         offset="0"
         id="stop1598" /></linearGradient><linearGradient
       id="linearGradient1594"
       inkscape:swatch="solid"
       gradientTransform="matrix(-8.108782e-5,-8.108782e-5,8.2436551e-5,-8.2436551e-5,1159.1418,-358.45006)"><stop
         style="stop-color:#eddab7;stop-opacity:1;"
         offset="0"
         id="stop1592" /></linearGradient><linearGradient
       inkscape:collect="always"
       xlink:href="#linearGradient1600"
       id="linearGradient876"
       gradientTransform="matrix(0.0050977,0,0,0.00503612,-34.077088,-601.94435)"
       gradientUnits="userSpaceOnUse" /></defs><g
     inkscape:groupmode="layer"
     id="layer6"
     inkscape:label="Icons"
     transform="translate(-1460.6882,44.834427)"><g
       id="g9524"
       style="display:inline;fill:url(#linearGradient876);fill-opacity:1"
       inkscape:label="DialogIcon"
       transform="translate(3.1559751,-17.01778)"><path
         id="path9513"
         style="font-variation-settings:'wght' 300;display:inline;opacity:1;fill:url(#linearGradient876);fill-opacity:1;stroke-width:0.658;stroke-linecap:round;stroke-linejoin:round"
         d="m 1463.6177,-26.082326 c -2.6848,0.101101 -4.8434,1.732249 -5.016,3.777056 -0.012,0.145546 -0.012,0.382944 0,0.528511 0.1722,2.045011 2.331,3.676441 5.016,3.777539 0.146,0.0055 0.383,0.0054 0.529,-2.61e-4 0.3377,-0.01314 0.6729,-0.051 1.0011,-0.11305 0.1435,-0.02714 0.3534,0.0172 0.4734,0.100548 0.2127,0.147729 0.4553,0.299111 0.722,0.438409 0.1295,0.0676 0.3442,0.167748 0.4784,0.225657 0.5502,0.237514 1.0749,0.401895 1.373,0.487441 0.1393,0.03997 0.1646,-0.01041 0.066,-0.118693 -0.2539,-0.280224 -0.6999,-0.868093 -0.9041,-1.719145 -0.034,-0.14122 0.047,-0.321485 0.1655,-0.407222 0.9672,-0.70095 1.5527,-1.655399 1.6401,-2.671264 0.013,-0.14553 0.013,-0.382938 3e-4,-0.528503 -0.1726,-2.044828 -2.3313,-3.675977 -5.0161,-3.777028 -0.146,-0.0055 -0.383,-0.0055 -0.529,5e-6 z"
         inkscape:path-effect="#path-effect9713"
         inkscape:original-d="m 1463.8822,-26.087297 a 5.291678,4.0465775 0 0 0 -5.2916,4.046265 5.291678,4.0465775 0 0 0 5.2916,4.046782 5.291678,4.0465775 0 0 0 1.5245,-0.1726 c 0.3136,0.235212 0.7131,0.495321 1.1735,0.710551 0.9286,0.43406 1.8676,0.664559 1.8676,0.664559 0,0 -0.9085,-0.77546 -1.1436,-2.164209 a 5.291678,4.0465775 0 0 0 1.8697,-3.085083 5.291678,4.0465775 0 0 0 -5.2917,-4.046265 z" /><path
         style="font-variation-settings:'wght' 300;display:none;opacity:1;fill:url(#linearGradient876);fill-opacity:1;stroke-width:0.658;stroke-linecap:round;stroke-linejoin:round"
         d="m 1461.7241,-26.649036 c -2.3239,0.126734 -3.2579,0.373529 -4.1294,2.158174 -0.8131,1.6649 -0.3115,3.424026 0.9959,4.731382 1.3075,1.307356 5.437,1.224349 7.0972,-1.141342 1.66,-2.365692 1.7224,-6.058292 -3.9637,-5.748214 z"
         id="path9517"
         sodipodi:nodetypes="sssss" /><path
         style="display:none;fill:url(#linearGradient876);stroke-width:1;fill-opacity:1"
         d="m 1461.1793,-19.81265 c -0.7827,-0.35542 -1.7579,-0.646217 -2.1672,-0.646217 -0.4093,0 -0.8178,-0.119063 -0.9078,-0.264583 -0.3087,-0.499603 1.4614,-0.268721 3.0427,0.396875 0.8644,0.363802 1.8431,0.663281 2.1749,0.665509 0.4865,0.0033 0.5265,0.05368 0.2064,0.260532 -0.549,0.354778 -0.7304,0.322952 -2.349,-0.412116 z m 0.1308,-1.866411 c -1.6586,-0.713053 -2.5433,-0.835825 -3.6018,-0.499853 -0.5895,0.187093 -0.6205,0.163505 -0.2971,-0.226163 0.5285,-0.636753 2.1557,-0.542124 3.8935,0.226418 1.8133,0.801907 3.1211,0.838209 4.3001,0.119363 0.4873,-0.297065 0.8382,-0.396647 0.7797,-0.221293 -0.42,1.260005 -2.8679,1.550178 -5.0744,0.601528 z m 0.2338,-1.854951 c -0.9012,-0.386802 -2.1316,-0.692023 -2.8463,-0.70606 -0.7538,-0.01481 -1.1625,-0.12106 -1.0186,-0.264885 0.4402,-0.440207 2.0172,-0.247789 3.6698,0.447757 1.9633,0.826333 2.795,0.858533 4.1007,0.15875 1.1237,-0.602252 1.3618,-0.653355 1.1045,-0.237033 -0.7514,1.215719 -2.9608,1.480972 -5.0101,0.601471 z m 0.5292,-1.664224 c -0.7276,-0.271254 -1.6206,-0.618005 -1.9844,-0.770556 -1.357,-0.569031 0.4138,-0.337046 1.9684,0.257872 1.3072,0.500221 1.6161,0.529903 2.5629,0.246245 1.1491,-0.344283 1.6533,-0.231139 0.8492,0.190568 -1.0309,0.540667 -2.0861,0.56424 -3.3961,0.07587 z"
         id="path33016" /></g></g></svg>
