<?xml version="1.0" encoding="UTF-8" standalone="no"?>
<!-- Created with Inkscape (http://www.inkscape.org/) -->

<svg
   width="48.000278"
   height="47.999989"
   viewBox="0 0 12.700074 12.699997"
   version="1.1"
   id="svg5"
   inkscape:version="1.2.1 (9c6d41e410, 2022-07-14)"
   sodipodi:docname="newCO.svg"
   xml:space="preserve"
   xmlns:inkscape="http://www.inkscape.org/namespaces/inkscape"
   xmlns:sodipodi="http://sodipodi.sourceforge.net/DTD/sodipodi-0.dtd"
   xmlns="http://www.w3.org/2000/svg"
   xmlns:svg="http://www.w3.org/2000/svg"><sodipodi:namedview
     id="namedview7"
     pagecolor="#505050"
     bordercolor="#ffffff"
     borderopacity="1"
     inkscape:showpageshadow="0"
     inkscape:pageopacity="1"
     inkscape:pagecheckerboard="1"
     inkscape:deskcolor="#505050"
     inkscape:document-units="mm"
     showgrid="true"
     inkscape:zoom="11.888236"
     inkscape:cx="18.253339"
     inkscape:cy="26.791191"
     inkscape:window-width="1920"
     inkscape:window-height="1009"
     inkscape:window-x="-8"
     inkscape:window-y="-8"
     inkscape:window-maximized="1"
     inkscape:current-layer="layer6"
     showguides="true"><inkscape:grid
       type="xygrid"
       id="grid132"
       visible="true"
       color="#ffffff"
       opacity="0.02352941"
       empcolor="#777777"
       empopacity="0.16470588"
       originx="0"
       originy="0"
       enabled="false" /></sodipodi:namedview><defs
     id="defs2"><linearGradient
       id="linearGradient15646"
       inkscape:swatch="solid"><stop
         style="stop-color:#cce8ff;stop-opacity:1;"
         offset="0"
         id="stop15644" /></linearGradient><linearGradient
       id="linearGradient3480"
       inkscape:swatch="solid"><stop
         style="stop-color:#59656f;stop-opacity:1;"
         offset="0"
         id="stop3478" /></linearGradient><inkscape:path-effect
       effect="fillet_chamfer"
       id="path-effect59460"
       is_visible="true"
       lpeversion="1"
       nodesatellites_param="F,0,0,1,0,0.26458333,0,1 @ F,0,0,1,0,0.26458333,0,1 @ F,0,0,1,0,0.26458333,0,1 @ F,0,0,1,0,0.26458333,0,1 @ F,0,0,1,0,0.26458333,0,1 @ F,0,0,1,0,0.26458333,0,1 @ F,0,0,1,0,0.26458333,0,1 @ F,0,0,1,0,0.26458333,0,1 @ F,0,0,1,0,0.26458333,0,1 @ F,0,0,1,0,0.26458333,0,1 @ F,0,0,1,0,0.26458333,0,1 @ F,0,0,1,0,0.26458333,0,1 @ F,0,0,1,0,0.26458333,0,1 @ F,0,0,1,0,0.26458333,0,1 @ F,0,0,1,0,0.26458333,0,1 @ F,0,0,1,0,0.26458333,0,1"
       unit="px"
       method="auto"
       mode="F"
       radius="1"
       chamfer_steps="1"
       flexible="false"
       use_knot_distance="true"
       apply_no_radius="true"
       apply_with_radius="true"
       only_selected="false"
       hide_knots="false" /><linearGradient
       id="linearGradient26821"
       inkscape:swatch="solid"><stop
         style="stop-color:#000000;stop-opacity:1;"
         offset="0"
         id="stop26819" /></linearGradient><linearGradient
       id="linearGradient26807"
       inkscape:swatch="solid"><stop
         style="stop-color:#000000;stop-opacity:1;"
         offset="0"
         id="stop26805" /></linearGradient><linearGradient
       id="linearGradient19651"
       inkscape:swatch="solid"><stop
         style="stop-color:#000000;stop-opacity:1;"
         offset="0"
         id="stop19649" /></linearGradient><linearGradient
       id="linearGradient6477"
       inkscape:swatch="solid"
       gradientTransform="matrix(-4.4918513e-6,5.2220333e-6,1.1440649e-5,1.3300351e-5,51.172591,-0.3288525)"><stop
         style="stop-color:#f89568;stop-opacity:1;"
         offset="0"
         id="stop6475" /></linearGradient><linearGradient
       id="linearGradient9776"
       inkscape:swatch="solid"
       gradientTransform="matrix(9.0769027e-5,0,0,9.0769027e-5,-0.51055264,0.83863903)"><stop
         style="stop-color:#b2b7be;stop-opacity:1;"
         offset="0"
         id="stop9774" /></linearGradient><linearGradient
       id="linearGradient1642"
       inkscape:swatch="solid"
       gradientTransform="matrix(0.53491831,0,0,1.6710713,577.62128,638.40486)"><stop
         style="stop-color:#75c590;stop-opacity:1;"
         offset="0"
         id="stop1640" /></linearGradient><linearGradient
       id="linearGradient1636"
       inkscape:swatch="solid"
       gradientTransform="matrix(2.372496e-4,0,0,-2.7055498e-4,-99.855184,269.11388)"><stop
         style="stop-color:#f0b762;stop-opacity:1;"
         offset="0"
         id="stop1634" /></linearGradient><linearGradient
       id="linearGradient1630"
       inkscape:swatch="solid"
       gradientTransform="matrix(0.30427083,0,0,0.29793192,-76.658546,47.015341)"><stop
         style="stop-color:#548ed0;stop-opacity:1;"
         offset="0"
         id="stop1628" /></linearGradient><linearGradient
       id="linearGradient1624"
       inkscape:swatch="solid"
       gradientTransform="matrix(0,0,0,0,-20.9814,-309.55536)"><stop
         style="stop-color:#f06262;stop-opacity:1;"
         offset="0"
         id="stop1622" /></linearGradient><linearGradient
       id="linearGradient1618"
       inkscape:swatch="solid"
       gradientTransform="matrix(-2.4769721e-8,0,0,4.6302959e-8,368.2242,-553.17644)"><stop
         style="stop-color:#272932;stop-opacity:1;"
         offset="0"
         id="stop1616" /></linearGradient><linearGradient
       id="linearGradient1612"
       inkscape:swatch="solid"
       gradientTransform="matrix(7.6147856e-4,-1.3570623e-4,-1.9460236e-4,-5.0413612e-4,576.71913,-15.022291)"><stop
         style="stop-color:#424c55;stop-opacity:1;"
         offset="0"
         id="stop1610" /></linearGradient><linearGradient
       id="linearGradient1606"
       inkscape:swatch="solid"
       gradientTransform="matrix(0.00134877,0,0,0.00133247,-9.0162294,-159.26444)"><stop
         style="stop-color:#59656f;stop-opacity:1;"
         offset="0"
         id="stop1604" /></linearGradient><linearGradient
       id="linearGradient1600"
       gradientTransform="matrix(-1.4661263e-5,-3.0196091e-6,8.8953209e-7,-4.3189906e-6,-575.51279,-2119.7064)"
       inkscape:swatch="solid"><stop
         style="stop-color:#f9efdf;stop-opacity:1;"
         offset="0"
         id="stop1598" /></linearGradient><linearGradient
       id="linearGradient1594"
       inkscape:swatch="solid"
       gradientTransform="matrix(-8.108782e-5,-8.108782e-5,8.2436551e-5,-8.2436551e-5,1159.1418,-358.45006)"><stop
         style="stop-color:#eddab7;stop-opacity:1;"
         offset="0"
         id="stop1592" /></linearGradient></defs><g
     inkscape:groupmode="layer"
     id="layer6"
     inkscape:label="Icons"
     transform="translate(-1460.6882,44.83443)"><path
       id="rect59455"
       style="display:inline;fill:#f06262;fill-opacity:1;stroke:none;stroke-width:0.729999;stroke-linecap:round;stroke-miterlimit:2.4;stroke-dasharray:none;stroke-opacity:1"
       d="m 1462.6559,-39.982921 c -0.054,0.08951 -0.049,0.301328 -0.049,0.447453 l 0,0.520825 a 0.26458333,0.26458333 135 0 1 -0.2646,0.264583 h -0.5207 c -0.1461,0 -0.4041,-0.0067 -0.5047,0.09404 -0.073,0.07301 -0.062,0.315548 0.057,0.387838 0.089,0.05416 0.3014,0.0494 0.4475,0.0494 l 0.5207,0 a 0.26458333,0.26458333 45 0 1 0.2646,0.264583 l 0,0.520825 c 0,0.146125 -0.01,0.404075 0.094,0.504694 0.073,0.07289 0.3155,0.06221 0.3878,-0.05731 0.054,-0.08949 0.049,-0.301257 0.049,-0.447382 v -0.520825 a 0.26458333,0.26458333 135 0 1 0.2646,-0.264583 h 0.521 c 0.1461,0 0.4041,0.0067 0.5047,-0.0942 0.073,-0.07301 0.062,-0.315404 -0.057,-0.387718 -0.089,-0.0541 -0.3012,-0.04936 -0.4473,-0.04936 h -0.521 a 0.26458333,0.26458333 45 0 1 -0.2646,-0.264583 v -0.520825 c 0,-0.146125 0.01,-0.404069 -0.094,-0.5047 -0.073,-0.07287 -0.3154,-0.06226 -0.3878,0.05725 z"
       inkscape:path-effect="#path-effect59460"
       inkscape:original-d="m 1462.8722,-40.114059 c -0.1472,0 -0.2657,0.140093 -0.2657,0.314008 v 1.049991 h -1.0499 c -0.174,0 -0.3141,0.118463 -0.3141,0.26564 0,0.147177 0.1401,0.26564 0.3141,0.26564 h 1.0499 v 1.049991 c 0,0.173916 0.1185,0.314008 0.2657,0.314008 0.1471,0 0.2656,-0.140092 0.2656,-0.314008 v -1.049991 h 1.0502 c 0.1738,0 0.3138,-0.118463 0.3138,-0.26564 0,-0.147177 -0.14,-0.26564 -0.3138,-0.26564 h -1.0502 v -1.049991 c 0,-0.173915 -0.1185,-0.314008 -0.2656,-0.314008 z" /><path
       id="rect1986"
       style="font-variation-settings:'wght' 700;fill:#f06262;stroke-width:0.626999;fill-opacity:1"
       d="m 1465.6465,-42.174687 c -0.4601,0 -0.83,0.370391 -0.83,0.830441 v 2.614827 l 0.6139,0.112138 c 0.785,0.143245 0.9338,-0.302824 0.9338,-0.302824 0.033,-0.115371 0.044,-0.313203 -0.039,-0.638721 l -0.4806,-1.874821 0.031,-0.01757 1.3028,1.433505 c 0.011,0.01234 0.019,0.01759 0.029,0.02739 0.054,-0.321709 0.2751,-0.832227 0.2641,-0.850077 0.033,-0.05078 0.8589,0.822463 0.8919,0.861963 0.01,-0.0028 0.2329,-0.08281 0.7188,-0.568441 l 0.4744,-0.473873 v -0.323494 c 0,-0.46005 -0.3704,-0.830441 -0.8304,-0.830441 z m 6.4063,2.803964 -0.4574,0.511079 c -0.4619,0.515837 -0.1679,0.832508 -0.1679,0.832508 0.1605,0.166211 0.1744,0.135333 0.7152,0.409794 0.3358,0.17041 0.7304,0.585058 0.7064,0.675928 -0.024,0.08795 -0.2894,0.254682 -0.5602,0.314192 -0.3706,0.08101 -0.5271,0.119373 -0.5271,0.119373 -0.1053,0.03397 -0.196,0.07045 -0.264,0.109554 -0.01,0.0054 -0.015,0.0105 -0.025,0.0155 -0.01,0.0019 -0.01,0.004 -0.01,0.0057 -0.01,0.03334 -0.06,0.491061 -0.01,0.951363 0.05,0.460303 0.062,0.442917 0.1168,0.827857 l -0.5788,-0.272852 c -0.2236,-0.247093 -0.7787,-0.304891 -0.7787,-0.304891 -0.053,0.002 -0.1903,0.09696 -0.3359,0.294556 -0.014,0.01915 -0.028,0.03745 -0.041,0.05684 -0.012,0.01744 -0.022,0.03548 -0.033,0.05271 -2e-4,3.33e-4 -3e-4,7.02e-4 -5e-4,0.001 v 0.422713 c 0,0.34908 0.2808,0.629935 0.6299,0.629935 h 2.0335 c 0.349,0 0.6304,-0.280855 0.6304,-0.629935 v -4.393014 c 0,-0.34908 -0.2814,-0.629935 -0.6304,-0.629935 z m -7.2363,1.57148 v 1.982308 c 0,0.460048 0.3699,0.83044 0.83,0.83044 h 3.0349 c -0.069,-0.485115 -0.4206,-0.554488 -0.4206,-0.554488 -10e-5,-3e-6 -0.6226,0.200001 -1.5782,0.43925 -0.3692,0.09243 -0.527,0.136035 -0.7483,-0.236162 -0.048,-0.168049 -0.1403,-0.293566 0.1349,-0.548803 0.2752,-0.255238 0.4123,-0.851628 0.4123,-0.851628 0,0 -0.3726,-0.52869 -1.3322,-0.923975 z" /><path
       style="font-variation-settings:'wght' 700;fill:#f06262;stroke-width:0.626999;fill-opacity:1"
       d="m 1466.8094,-39.660004 c 0.4451,0.48963 0.8234,0.22256 0.8457,-0.133535 0.022,-0.356095 0.3338,0.311581 0.6677,0.356095 0.3338,0.04451 1.1128,-0.734447 1.1128,-0.734447 0,0 -0.5564,1.090539 0.267,1.290841 0.8235,0.200306 1.5134,-0.289324 1.5134,-0.289324 0,0 -0.7789,0.867979 -0.1558,1.513401 0.6232,0.645419 1.1573,0.556397 1.1573,0.556397 0,0 -1.224,0.15579 -1.2685,0.64542 -0.045,0.48963 0.2225,1.224073 0.2225,1.224073 0,0 -0.4006,-0.445116 -0.9792,-0.42286 -0.5787,0.02225 -1.0016,0.979258 -1.0016,0.979258 0,0 0.067,-1.17956 -0.8457,-1.335352 -0.9125,-0.155792 -1.9362,0.511884 -1.9362,0.511884 0,0 0.9125,-0.845722 0.4896,-1.491144 -0.4229,-0.645422 -1.5579,-1.112795 -1.5579,-1.112795 0,0 1.9585,0.356094 1.4689,-1.557912 z"
       id="path2098" /><path
       style="font-variation-settings:'wght' 700;fill:#f06262;stroke-width:0.626999;fill-opacity:1"
       d="m 1470.4803,-41.206789 0.4117,-2.5483 1.0516,0.16692 -0.7733,2.492658 z"
       id="path2229" /><rect
       style="font-variation-settings:'wght' 700;fill:#f06262;stroke-width:0.626999;fill-opacity:1"
       id="rect2283"
       width="1.1239227"
       height="1.1239227"
       x="1430.2432"
       y="-341.98248"
       ry="0.42842674"
       transform="rotate(11.859779)" /></g></svg>
