<?xml version="1.0" encoding="UTF-8" standalone="no"?>
<!-- Created with Inkscape (http://www.inkscape.org/) -->

<svg
   width="48.000278"
   height="47.999989"
   viewBox="0 0 12.700074 12.699997"
   version="1.1"
   id="svg5"
   xml:space="preserve"
   xmlns:xlink="http://www.w3.org/1999/xlink"
   xmlns="http://www.w3.org/2000/svg"
   xmlns:svg="http://www.w3.org/2000/svg"><defs
     id="defs2"><rect
       x="5523.4126"
       y="-161.49309"
       width="37.885406"
       height="32.298618"
       id="rect1931" /><linearGradient
       id="linearGradient15646"><stop
         style="stop-color:#cce8ff;stop-opacity:1;"
         offset="0"
         id="stop15644" /></linearGradient><linearGradient
       id="linearGradient3480"><stop
         style="stop-color:#59656f;stop-opacity:1;"
         offset="0"
         id="stop3478" /></linearGradient><linearGradient
       id="linearGradient26821"><stop
         style="stop-color:#000000;stop-opacity:1;"
         offset="0"
         id="stop26819" /></linearGradient><linearGradient
       id="linearGradient26807"><stop
         style="stop-color:#000000;stop-opacity:1;"
         offset="0"
         id="stop26805" /></linearGradient><linearGradient
       id="linearGradient19651"><stop
         style="stop-color:#000000;stop-opacity:1;"
         offset="0"
         id="stop19649" /></linearGradient><rect
       x="5520.7114"
       y="-169.45296"
       width="48.000278"
       height="47.999989"
       id="rect1918" /><linearGradient
       id="linearGradient6477"
       gradientTransform="matrix(-1.6977076e-5,1.9736819e-5,4.3240248e-5,5.0269044e-5,193.40822,-1.2429071)"><stop
         style="stop-color:#f89568;stop-opacity:1;"
         offset="0"
         id="stop6475" /></linearGradient><pattern
       xlink:href="#Wavy"
       id="pattern21944"
       patternTransform="matrix(0.63865411,0,0,0.35301979,1470.4968,-39.228115)" /><pattern
       xlink:href="#Wavy"
       id="pattern12903"
       patternTransform="matrix(0.2976825,0,0,0.36766533,1456.965,-28.625236)" /><linearGradient
       id="linearGradient9776"
       gradientTransform="matrix(9.0769027e-5,0,0,9.0769027e-5,-0.51055264,0.83863903)"><stop
         style="stop-color:#b2b7be;stop-opacity:1;"
         offset="0"
         id="stop9774" /></linearGradient><pattern
       patternUnits="userSpaceOnUse"
       width="30.066020"
       height="5.1805778"
       id="Wavy"><path
         style="fill:black;stroke:none;"
         d="M 7.597,0.061 C 5.079,-0.187 2.656,0.302 -0.01,1.788 L -0.01,3.061 C 2.773,1.431 5.173,1.052 7.472,1.280 C 9.770,1.508 11.969,2.361 14.253,3.218 C 18.820,4.931 23.804,6.676 30.066,3.061 L 30.062,1.788 C 23.622,5.497 19.246,3.770 14.691,2.061 C 12.413,1.207 10.115,0.311 7.597,0.061 z "
         id="path5378" /></pattern><linearGradient
       id="linearGradient1642"
       gradientTransform="matrix(0.53491831,0,0,1.6710713,578.25432,638.40486)"><stop
         style="stop-color:#75c590;stop-opacity:1;"
         offset="0"
         id="stop1640" /></linearGradient><linearGradient
       id="linearGradient1636"
       gradientTransform="matrix(2.372496e-4,0,0,-2.7055498e-4,-99.855184,269.11388)"><stop
         style="stop-color:#f0b762;stop-opacity:1;"
         offset="0"
         id="stop1634" /></linearGradient><linearGradient
       id="linearGradient1630"
       gradientTransform="matrix(0.30427083,0,0,0.29793192,-77.004766,47.015341)"><stop
         style="stop-color:#548ed0;stop-opacity:1;"
         offset="0"
         id="stop1628" /></linearGradient><linearGradient
       id="linearGradient1624"
       gradientTransform="matrix(0,0,0,0,-2192.7255,364.95949)"><stop
         style="stop-color:#f06262;stop-opacity:1;"
         offset="0"
         id="stop1622" /></linearGradient><linearGradient
       id="linearGradient1618"
       gradientTransform="matrix(-2.4769721e-8,0,0,4.6302959e-8,368.2242,-553.17644)"><stop
         style="stop-color:#272932;stop-opacity:1;"
         offset="0"
         id="stop1616" /></linearGradient><linearGradient
       id="linearGradient1612"
       gradientTransform="matrix(7.6147856e-4,-1.3570623e-4,-1.9460236e-4,-5.0413612e-4,576.71913,-15.022291)"><stop
         style="stop-color:#424c55;stop-opacity:1;"
         offset="0"
         id="stop1610" /></linearGradient><linearGradient
       id="linearGradient1606"
       gradientTransform="matrix(0.00134877,0,0,0.00133247,-9.0162294,-159.26444)"><stop
         style="stop-color:#59656f;stop-opacity:1;"
         offset="0"
         id="stop1604" /></linearGradient><linearGradient
       id="linearGradient1600"
       gradientTransform="matrix(-1.4661263e-5,-3.0196091e-6,8.8953209e-7,-4.3189906e-6,-575.51279,-2119.7064)"><stop
         style="stop-color:#f9efdf;stop-opacity:1;"
         offset="0"
         id="stop1598" /></linearGradient><linearGradient
       id="linearGradient1594"
       gradientTransform="matrix(-8.108782e-5,-8.108782e-5,8.2436551e-5,-8.2436551e-5,1159.1418,-358.45006)"><stop
         style="stop-color:#eddab7;stop-opacity:1;"
         offset="0"
         id="stop1592" /></linearGradient><linearGradient
       xlink:href="#linearGradient1606"
       id="linearGradient6494"
       gradientTransform="matrix(0.07345539,0.07345539,-0.18708865,0.18708865,1417.9314,-4134.4056)"
       gradientUnits="userSpaceOnUse" /><linearGradient
       xlink:href="#linearGradient1618"
       id="linearGradient2243"
       x1="1461.5259"
       y1="-38.484425"
       x2="1472.5507"
       y2="-38.484425"
       gradientUnits="userSpaceOnUse"
       gradientTransform="matrix(0.76397651,0,0,0.76397651,346.25549,-9.0832096)" /><linearGradient
       xlink:href="#linearGradient1600"
       id="linearGradient60619"
       gradientTransform="matrix(-8.108782e-5,-8.108782e-5,8.2436551e-5,-8.2436551e-5,1159.1418,-358.45006)"
       gradientUnits="userSpaceOnUse" /><linearGradient
       xlink:href="#linearGradient1600"
       id="linearGradient60621"
       gradientTransform="matrix(-8.108782e-5,-8.108782e-5,8.2436551e-5,-8.2436551e-5,1159.1418,-358.45006)"
       gradientUnits="userSpaceOnUse" /><linearGradient
       xlink:href="#linearGradient1618"
       id="linearGradient26823"
       x1="1454.9746"
       y1="-38.373856"
       x2="1465.9536"
       y2="-38.373856"
       gradientUnits="userSpaceOnUse"
       gradientTransform="matrix(0.8866849,0,-0.15964231,0.87219519,165.35542,-3.4883084)" /><linearGradient
       xlink:href="#linearGradient1618"
       id="linearGradient30358"
       gradientUnits="userSpaceOnUse"
       gradientTransform="matrix(0.75434983,0,-0.13581617,0.74202266,361.43477,-10.454125)"
       x1="1454.9746"
       y1="-38.373856"
       x2="1465.9536"
       y2="-38.373856" /><linearGradient
       xlink:href="#linearGradient1618"
       id="linearGradient33903"
       gradientUnits="userSpaceOnUse"
       gradientTransform="matrix(0.82747888,0,-0.14898262,0.81395668,253.15996,-6.7648964)"
       x1="1454.9746"
       y1="-38.373856"
       x2="1465.9536"
       y2="-38.373856" /><linearGradient
       xlink:href="#linearGradient1624"
       id="linearGradient3476"
       gradientTransform="matrix(-2.4769721e-8,0,0,4.6302959e-8,368.31445,-553.74694)"
       gradientUnits="userSpaceOnUse" /><linearGradient
       xlink:href="#linearGradient1624"
       id="linearGradient3482"
       x1="1465.1726"
       y1="-38.484428"
       x2="1472.7983"
       y2="-38.484428"
       gradientUnits="userSpaceOnUse"
       gradientTransform="translate(-0.13538096,-0.31901917)" /><linearGradient
       xlink:href="#linearGradient1624"
       id="linearGradient15648"
       x1="1465.248"
       y1="-38.484428"
       x2="1472.694"
       y2="-38.484428"
       gradientUnits="userSpaceOnUse"
       gradientTransform="rotate(-18.641693,1467.6472,-37.715114)" /><linearGradient
       xlink:href="#linearGradient1624"
       id="linearGradient15656"
       gradientTransform="matrix(0.00347919,-0.00145435,0.00143678,0.00343716,283.69605,5.5830197)"
       gradientUnits="userSpaceOnUse" /><linearGradient
       xlink:href="#linearGradient1618"
       id="linearGradient6101"
       gradientUnits="userSpaceOnUse"
       gradientTransform="matrix(0.20398082,0,0,0.20398082,1165.5507,-29.998533)"
       x1="1470.1534"
       y1="-43.787701"
       x2="1478.493"
       y2="-43.787701" /></defs><g
     id="layer6"
     transform="translate(-1460.6882,44.834427)"><g
       id="g2987"
       transform="matrix(1.0616201,0,0,1.0616201,-86.310873,-15.514599)"
       style="display:none;fill:url(#linearGradient1618);fill-opacity:1;stroke-width:0.941957"><path
         id="rect2069"
         style="font-variation-settings:'wght' 300;opacity:1;fill:url(#linearGradient1618);fill-opacity:1;stroke-width:0.614979;stroke-linecap:round;stroke-linejoin:round"
         d="m 1462.9898,-27.196117 c -0.8024,0.712554 -1.6049,1.42527 -2.4073,2.137883 -0.1092,0.09703 -0.1978,0.05723 -0.1978,-0.08889 v -0.916223 a 0.26458333,0.26458333 45 0 0 -0.2646,-0.264583 h -0.6945 a 0.26458333,0.26458333 135 0 0 -0.2646,0.264583 v 2.002978 c 0,0.146125 -0.089,0.343245 -0.1978,0.440274 -0.4274,0.379509 -0.8548,0.758986 -1.2822,1.138472 -0.1093,0.09702 -0.079,0.175669 0.067,0.175669 h 0.5958 a 0.26458333,0.26458333 45 0 1 0.2646,0.264583 v 3.683496 a 0.44817964,0.44817964 59.444477 0 0 0.2317,0.392407 l 4.0779,2.250142 a 0.48351887,0.48351887 0.20131009 0 0 0.4643,0.0016 l 0.7109,-0.385821 a 0.44460391,0.44460391 120.75683 0 0 0.2326,-0.390776 l 0,-3.54965 a 0.44785408,0.44785408 120.57375 0 1 0.2317,-0.392259 l 1.8027,-0.993152 a 0.1563106,0.1563106 30.573754 0 1 0.2317,0.136907 l 0,3.568259 a 0.15745327,0.15745327 30.756834 0 0 0.2326,0.13839 l 0.7109,-0.385821 a 0.44460391,0.44460391 120.75683 0 0 0.2326,-0.390776 v -3.683495 a 0.26458333,0.26458333 135 0 1 0.2646,-0.264583 h 0.5948 c 0.1461,0 0.176,-0.07865 0.067,-0.175673 -1.7696,-1.571204 -3.5391,-3.142729 -5.3085,-4.713966 -0.1092,-0.09703 -0.2864,-0.09703 -0.3956,-3e-6 z" /><circle
         style="font-variation-settings:'wght' 300;opacity:0.539024;fill:url(#linearGradient1618);fill-opacity:1;stroke-width:0.619808;stroke-linecap:round;stroke-linejoin:round"
         id="path2983"
         cx="1466.8831"
         cy="-25.945997"
         r="1.6536458" /></g><g
       id="g3728"
       transform="matrix(0.78089805,0,0,0.78089805,325.9209,-23.008246)"
       style="display:none;fill:url(#linearGradient1606);fill-opacity:1;stroke-width:1.28058"><path
         style="font-variation-settings:'wght' 300;display:none;opacity:1;fill:url(#pattern21944);fill-opacity:1;stroke-width:0.84262;stroke-linecap:round;stroke-linejoin:round"
         d="m 1459.287,-27.057698 c -0.6776,0.461197 -0.7623,1.378482 -0.5506,1.742866 0.2118,0.364384 -2.0713,-0.485665 -2.5835,1.133621 -0.5122,1.619286 -2.5411,3.821611 -2.4988,5.176888 0.042,1.355278 4.0659,1.905859 4.0235,3.218784 -0.042,1.312924 -1.6517,1.446695 -1.4823,2.498792 0.1694,1.052098 7.187,1.040184 7.187,1.040184 l 0.6145,-11.809466 c 0,0 8.2501,-4.0669 -4.7098,-3.001669 z"
         transform="translate(-1.4673277e-5)"
         id="path5588" /><path
         style="display:inline;fill:url(#linearGradient1606);stroke-width:1.28058"
         d="m 1458.036,-12.916028 c -0.8178,-0.160608 -1.5674,-0.372606 -1.6659,-0.471106 -0.302,-0.301966 1.0177,-0.172532 3.1526,0.309204 2.255,0.50884 0.9842,0.647225 -1.4867,0.161902 z m 1.6828,-1.532815 c -1.1966,-0.261667 -2.2639,-0.568713 -2.3717,-0.682325 -0.2387,-0.25149 1.853,0.08151 4.378,0.696969 2.4793,0.604341 0.7672,0.591844 -2.0063,-0.01464 z m 0.048,-1.815847 c -1.5428,-0.328129 -2.915,-0.712727 -3.0493,-0.854663 -0.1343,-0.141935 0.061,-0.174434 0.4334,-0.07222 0.3727,0.102215 1.8212,0.373054 3.2188,0.601865 1.3976,0.228811 2.686,0.545293 2.863,0.703294 0.4383,0.391214 -0.1493,0.327071 -3.4659,-0.378277 z m 0.4335,-1.7611 c -0.7454,-0.179117 -2.5751,-0.447963 -4.0659,-0.597436 l -2.7105,-0.271769 2.2023,-0.03067 c 1.2113,-0.01687 3.4983,0.251777 5.0823,0.596993 1.584,0.345216 2.4226,0.627864 1.8635,0.628107 -0.559,2.43e-4 -1.6263,-0.146107 -2.3717,-0.325223 z m 0,-1.824675 c -1.1181,-0.250181 -2.9002,-0.501378 -3.9602,-0.558214 -1.1795,-0.06324 -1.8071,-0.225157 -1.6174,-0.417291 0.3318,-0.335984 4.2022,0.166015 7.4411,0.965121 2.4174,0.596428 0.796,0.605463 -1.8635,0.01038 z m -1.0165,-2.020485 c -2.0498,-0.422423 -3.2696,-0.775745 -2.7105,-0.78516 1.2813,-0.02158 6.8125,1.050796 7.1474,1.385726 0.3479,0.347907 -0.1831,0.276039 -4.4369,-0.600566 z m -0.1694,-1.86924 c -1.584,-0.332068 -2.4225,-0.611298 -1.8635,-0.62051 0.5591,-0.0092 2.3124,0.265701 3.8964,0.610917 1.584,0.345216 2.4226,0.624445 1.8635,0.62051 -0.559,-0.0039 -2.3124,-0.278848 -3.8964,-0.610917 z m 1.8022,-1.468617 c -0.9655,-0.212026 -1.8803,-0.518794 -2.0329,-0.681707 -0.1556,-0.166081 0.02,-0.211777 0.4001,-0.104018 0.6366,0.18055 3.7032,0.74431 5.5905,1.027772 0.4659,0.06997 0.161,0.130871 -0.6776,0.135336 -0.8386,0.0045 -2.3146,-0.165356 -3.2801,-0.377383 z m 1.586,-1.571369 c -1.1529,-0.242674 -1.1576,-0.250029 -0.1694,-0.264535 0.559,-0.0082 1.7788,0.10382 2.7105,0.248947 l 1.6941,0.263866 -1.5246,6.67e-4 c -0.8386,3.68e-4 -2.0584,-0.111658 -2.7106,-0.248945 z"
         id="path27320" /><circle
         style="font-variation-settings:'wght' 300;display:inline;opacity:1;fill:url(#linearGradient1618);fill-opacity:1;stroke-width:0.84262;stroke-linecap:round;stroke-linejoin:round"
         id="path3715"
         cx="1465.9449"
         cy="-25.619455"
         r="1.4382441" /><path
         id="rect3717"
         style="font-variation-settings:'wght' 300;display:inline;opacity:1;fill:url(#linearGradient1618);fill-opacity:1;stroke-width:0.84262;stroke-linecap:round;stroke-linejoin:round"
         d="m 1268.953,-723.58305 0.049,2.61467 a 0.22915472,0.22915472 39.820559 0 0 0.2661,0.22186 l 0.7259,-0.11866 a 0.30641851,0.30641851 129.90665 0 0 0.2569,-0.30723 l -0.022,-1.37427 a 0.311174,0.311174 129.47067 0 1 0.2562,-0.3112 l 1.4437,-0.2586 a 0.22140002,0.22140002 39.922171 0 1 0.2604,0.21793 v 2.52702 a 1.1221021,1.1221021 103.26758 0 1 -0.1182,0.50129 l -0.851,1.70422 a 0.42293598,0.42293598 148.56472 0 1 -0.3828,0.23397 l -2.7679,-0.0287 a 0.27050584,0.27050584 136.22843 0 0 -0.2732,0.2617 l -0.032,0.97791 c -0,0.14604 -0.01,0.38288 -0.01,0.529 0.01,0.68734 0.038,1.588 0.9181,-0.0311 0.07,-0.12827 0.2423,-0.23439 0.3884,-0.23539 l 2.7258,-0.0185 a 0.44425397,0.44425397 148.83433 0 0 0.389,-0.23529 l 1.2765,-2.39474 a 0.18911193,0.18911193 172.50224 0 1 0.305,-0.0402 l 1.8305,1.95926 a 0.61271013,0.61271013 70.302681 0 1 0.1637,0.45738 l -0.1641,2.56697 a 0.28468088,0.28468088 50.754072 0 0 0.2452,0.30017 l 1.3971,0.19262 a 0.58487035,0.58487035 169.88291 0 0 0.3552,-0.0634 l 0.9599,-0.51219 a 0.11287475,0.11287475 82.156409 0 0 -0.029,-0.20983 l -1.1576,-0.25444 a 0.30607738,0.30607738 53.237795 0 1 -0.2396,-0.32071 l 0.1614,-2.26271 a 0.60095705,0.60095705 70.316555 0 0 -0.1631,-0.456 l -1.8743,-1.97875 a 0.66419914,0.66419914 68.273939 0 1 -0.1819,-0.45667 l -3e-4,-2.23169 a 0.11611209,0.11611209 156.29956 0 1 0.1947,-0.0855 l 1.4925,1.3726 a 0.27007382,0.27007382 178.19371 0 0 0.3778,-0.0119 l 0.9242,-0.96442 a 6328.5137,6328.5137 133.77967 0 0 0.3662,-0.38206 245798.49,245798.49 133.77724 0 0 0.1993,-0.20804 l 0.3276,-0.34183 a 0.27186148,0.27186148 89.561887 0 0 -0,-0.3792 l -0.4659,-0.4715 a 0.26286872,0.26286872 0.15294054 0 0 -0.373,-9.9e-4 l -0.1245,0.12468 a 72.868975,72.868975 135.02206 0 1 -0.237,0.2368 l -0.089,0.089 -0.5882,0.58901 a 0.27136522,0.27136522 179.23735 0 1 -0.3789,0.005 l -1.4317,-1.35925 a 0.66297213,0.66297213 21.756083 0 0 -0.4565,-0.18217 l -2.3473,10e-6 a 3.2006483,3.2006483 175.27416 0 0 -0.5256,0.0435 l -2.7183,0.45252 a 0.30639469,0.30639469 129.73668 0 0 -0.256,0.30799 z"
         transform="rotate(28.710841)" /><path
         style="font-variation-settings:'wght' 300;display:inline;opacity:0.519512;fill:url(#linearGradient1618);fill-opacity:1;stroke-width:0.84262;stroke-linecap:round;stroke-linejoin:round"
         d="m 1467.0141,-26.331922 -0.01,1.116895 a 0.25834337,0.25834337 44.664411 0 0 0.2629,0.259871 l 0.3647,-0.0065 a 0.16073407,0.16073407 120.25938 0 0 0.1384,-0.237311 l -0.6315,-1.164943 a 0.06795823,0.06795823 165.94304 0 0 -0.1277,0.03197 z"
         id="path3732" /></g><g
       id="g9511"
       style="display:none;fill:url(#linearGradient1618);fill-opacity:1"
       transform="translate(3.8508303,-16.847383)"><path
         id="path9447"
         style="font-variation-settings:'wght' 300;opacity:0.497561;fill:url(#linearGradient1618);fill-opacity:1;stroke-width:0.658;stroke-linecap:round;stroke-linejoin:round"
         d="m 1464.6522,-21.389912 c 0.1907,-0.103353 0.1907,-0.103353 0.1907,-0.103353 0.184,-0.115238 0.184,-0.115238 0.184,-0.115238 0.1757,-0.127124 0.1757,-0.127124 0.1757,-0.127124 0.1664,-0.138493 0.1664,-0.138493 0.1664,-0.138493 h -2.2712 a 0.26458333,0.26458333 45 0 1 -0.2646,-0.264583 v -2.101164 c 0,-0.146125 -0.141,-0.234093 -0.089,-0.234093 -0.089,0.02739 -0.089,0.02739 -0.089,0.02739 -0.089,0.02481 -0.089,0.02481 -0.089,0.02481 -0.089,0.02119 -0.089,0.02119 -0.089,0.02119 -0.089,0.01809 -0.089,0.01809 -0.089,0.01809 -0.089,0.01499 -0.089,0.01499 -0.089,0.01499 -0.089,0.01137 -0.089,0.01137 -0.089,0.01137 -0.089,0.0088 -0.089,0.0088 -0.089,0.0088 -0.089,0.0057 -0.089,0.0057 -0.089,0.0057 -0.089,0.0021 -0.089,0.0021 -0.089,0.0021 -0.089,-5.16e-4 -0.089,-5.16e-4 -0.089,-5.16e-4 -0.089,-0.0041 -0.089,-0.0041 -0.089,-0.0041 -0.089,-0.0072 -0.089,-0.0072 -0.089,-0.0072 -0.089,-0.01034 -0.089,-0.01034 -0.089,-0.01034 -0.089,-0.01344 -0.089,-0.01344 -0.089,-0.01344 -0.089,-0.01654 -0.089,-0.01654 -0.089,-0.01654 -0.089,-0.01964 -0.089,-0.01964 -0.089,-0.01964 -0.089,-0.02274 -0.089,-0.02274 -0.089,-0.02274 -0.089,-0.02636 -0.089,-0.02636 -0.089,-0.02636 -0.089,-0.02894 -0.089,-0.02894 -0.089,-0.02894 -0.089,-0.03256 -0.089,-0.03256 -0.089,-0.03256 -0.089,-0.03514 -0.089,-0.03514 -0.089,-0.03514 -0.089,-0.03876 -0.089,-0.03876 -0.089,-0.03876 -0.089,-0.04186 -0.089,-0.04186 -0.089,-0.04186 -0.089,-0.04496 -0.089,-0.04496 -0.089,-0.04496 -0.089,-0.04806 -0.089,-0.04806 -0.089,-0.04806 -0.089,-0.05116 -0.089,-0.05116 -0.089,-0.05116 -0.089,-0.05426 -0.089,-0.05426 -0.089,-0.05426 -0.089,-0.05788 -0.089,-0.05788 -0.089,-0.05788 -0.089,-0.06046 -0.089,-0.06046 -0.089,-0.06046 -0.089,-0.06408 -0.089,-0.06408 -0.089,-0.06408 -0.089,-0.06666 -0.089,-0.06666 -0.089,-0.06666 -0.016,0.07906 -0.016,0.07906 -0.016,0.07906 -0.027,0.139527 -0.027,0.139527 -0.027,0.139527 -0.012,0.08733 -0.012,0.08733 -0.012,0.08733 -0.016,0.144177 -0.016,0.144177 -0.016,0.144177 -0.01,0.07803 -0.01,0.07803 -0.01,0.07803 -0.01,0.218074 -0.01,0.218074 -0.01,0.218074 0.01,0.22996 0.01,0.22996 0.01,0.22996 0.01,0.09147 0.01,0.09147 0.01,0.09147 0.015,0.135392 0.015,0.135392 0.015,0.135392 0.018,0.10697 0.018,0.10697 0.018,0.10697 0.023,0.123507 0.023,0.123507 0.023,0.123507 0.025,0.10697 0.025,0.10697 0.025,0.10697 0.03,0.112655 0.03,0.112655 0.03,0.112655 0.034,0.112137 0.034,0.112137 0.034,0.112137 0.041,0.116272 0.041,0.116272 0.041,0.116272 0.036,0.09715 0.036,0.09715 0.036,0.09715 0.054,0.12299 0.054,0.12299 0.054,0.12299 0.041,0.09147 0.041,0.09147 0.041,0.09147 0.1059,0.200505 0.1059,0.200505 0.1059,0.200505 0.1209,0.192236 0.1209,0.192236 0.1209,0.192236 0.06,0.0832 0.06,0.0832 0.06,0.0832 0.079,0.105937 0.079,0.105937 0.079,0.105937 0.059,0.07286 0.059,0.07286 0.059,0.07286 0.094,0.10852 0.094,0.10852 0.094,0.10852 0.065,0.06976 0.065,0.06976 0.065,0.06976 0.094,0.09353 0.094,0.09353 0.094,0.09353 0.079,0.0739 0.079,0.0739 0.079,0.0739 0.091,0.07803 0.091,0.07803 0.091,0.07803 0.085,0.06976 0.085,0.06976 0.085,0.06976 0.1178,0.08682 0.1178,0.08682 0.1178,0.08682 0.067,0.04806 0.067,0.04806 0.067,0.04806 0.139,0.08733 0.139,0.08733 0.139,0.08733 0.057,0.03566 0.057,0.03566 0.057,0.03566 0.065,0.03462 0.065,0.03462 0.065,0.03462 0.1391,0.07338 0.1391,0.07338 0.1391,0.07338 0.081,0.03617 0.081,0.03617 0.081,0.03617 0.1286,0.05633 0.1286,0.05633 0.1286,0.05633 0.096,0.03617 0.096,0.03617 0.096,0.03617 0.1282,0.04496 0.1282,0.04496 0.1282,0.04496 0.091,0.02739 0.091,0.02739 0.091,0.02739 0.1302,0.03514 0.1302,0.03514 0.1302,0.03514 0.1018,0.02377 0.1018,0.02377 0.1018,0.02377 0.122,0.02325 0.122,0.02325 0.122,0.02325 0.108,0.01757 0.108,0.01757 0.108,0.01757 0.1384,0.0155 0.1384,0.0155 0.1384,0.0155 0.088,0.0088 0.088,0.0088 0.088,0.0088 0.2305,0.0088 0.2305,0.0088 0.2305,0.0088 0.2237,-0.0083 0.2237,-0.0083 0.2237,-0.0083 0.1504,-0.0155 0.1504,-0.0155 0.1504,-0.0155 0.07,-0.0078 0.07,-0.0078 0.07,-0.0078 0.1571,-0.02584 0.1571,-0.02584 0.1571,-0.02584 0.069,-0.01344 0.069,-0.01344 0.069,-0.01344 0.1452,-0.03411 0.1452,-0.03411 0.1452,-0.03411 0.081,-0.0217 0.081,-0.0217 0.081,-0.0217 0.1421,-0.04341 0.1421,-0.04341 0.1421,-0.04341 0.059,-0.02067 0.059,-0.02067 0.059,-0.02067 0.1695,-0.06511 0.1695,-0.06511 0.1695,-0.06511 l -0,-3.5e-5 z" /><path
         id="path9445"
         style="font-variation-settings:'wght' 300;opacity:1;fill:url(#linearGradient1618);fill-opacity:1;stroke-width:0.658;stroke-linecap:round;stroke-linejoin:round"
         d="m 1462.9229,-27.622854 c -1.3309,0.106746 -2.4684,1.010242 -2.8736,2.282483 -0.044,0.139217 -0.031,0.285639 0.019,0.32174 0.07,0.05013 0.07,0.05013 0.07,0.05013 0.9938,-0.565874 1.7842,-0.451431 2.5146,0.271113 0.1038,0.102741 0.1809,0.3114 0.1809,0.457525 v 2.101164 a 0.26458333,0.26458333 45 0 0 0.2646,0.264583 h 2.0055 c 0.1461,0 0.3543,-0.07772 0.4557,-0.182869 0.5277,-0.547082 0.85,-1.260287 0.9121,-2.017816 0.012,-0.145597 0.012,-0.382966 0,-0.528566 -0,-0.0583 -0.011,-0.116464 -0.019,-0.174428 -0.02,-0.144759 -0.138,-0.18547 -0.2577,-0.101688 -1.1033,0.772283 -2.2096,0.67663 -3.309,-0.286346 -0.1099,-0.09626 -0.1115,-0.264197 -0,-0.362384 0.9962,-0.904033 2.0485,-1.080929 3.0394,-0.431421 0.1222,0.08008 0.1629,0.04772 0.088,-0.07748 -0.5468,-0.909416 -1.5,-1.500362 -2.5577,-1.585659 -0.1456,-0.01174 -0.2645,-0.01068 -0.2647,-0.01068 z m 3.3217,2.059037 c 0.035,0.08845 0.067,0.178389 0.095,0.269578 0.043,0.139779 0.1597,0.182478 0.2685,0.08491 0.043,-0.0381 -0,-0.159679 -0.1033,-0.264054 -0.055,-0.05637 -0.1107,-0.109943 -0.1665,-0.160752 -0.108,-0.0984 -0.1479,-0.06526 -0.093,0.07031 z m -0.8977,3.70779 c 0.022,-0.01809 0.022,-0.01809 0.022,-0.01809 h -10e-4 z m -0.1167,0.09715 c 0.1167,-0.09715 0.1167,-0.09715 0.1167,-0.09715 z m -0.071,0.05426 c 0.043,-0.03101 0.043,-0.03101 0.043,-0.03101 0.028,-0.02325 0.028,-0.02325 0.028,-0.02325 z m -0.1137,0.08216 c 0.1137,-0.08216 0.1137,-0.08216 0.1137,-0.08216 z m -0.07,0.04599 c 0.051,-0.03204 0.051,-0.03204 0.051,-0.03204 0.019,-0.01395 0.019,-0.01395 0.019,-0.01395 z m -0.1209,0.07597 c 0.1209,-0.07597 0.1209,-0.07597 0.1209,-0.07597 z m -0.107,0.05891 c 0.095,-0.05168 0.095,-0.05168 0.095,-0.05168 0.012,-0.0072 0.012,-0.0072 0.012,-0.0072 v -3e-5 z m -0.082,0.04393 c 0.082,-0.04393 0.082,-0.04393 0.082,-0.04393 z m -0.2114,0.09767 c 0.1974,-0.08992 0.1974,-0.08992 0.1974,-0.08992 0.014,-0.0078 0.014,-0.0078 0.014,-0.0078 v 5e-5 z m -1.7106,-3.173967 c -0.089,0.02739 -0.089,0.02739 -0.089,0.02739 -0.089,0.02481 -0.089,0.02481 -0.089,0.02481 -0.089,0.02119 -0.089,0.02119 -0.089,0.02119 -0.089,0.01809 -0.089,0.01809 -0.089,0.01809 -0.089,0.01499 -0.089,0.01499 -0.089,0.01499 -0.089,0.01137 -0.089,0.01137 -0.089,0.01137 -0.089,0.0088 -0.089,0.0088 -0.089,0.0088 -0.089,0.0057 -0.089,0.0057 -0.089,0.0057 -0.089,0.0021 -0.089,0.0021 -0.089,0.0021 -0.089,-5.16e-4 -0.089,-5.16e-4 -0.089,-5.16e-4 -0.089,-0.0041 -0.089,-0.0041 -0.089,-0.0041 -0.089,-0.0072 -0.089,-0.0072 -0.089,-0.0072 -0.089,-0.01034 -0.089,-0.01034 -0.089,-0.01034 -0.089,-0.01344 -0.089,-0.01344 -0.089,-0.01344 -0.089,-0.01654 -0.089,-0.01654 -0.089,-0.01654 -0.089,-0.01964 -0.089,-0.01964 -0.089,-0.01964 -0.089,-0.02274 -0.089,-0.02274 -0.089,-0.02274 -0.089,-0.02636 -0.089,-0.02636 -0.089,-0.02636 -0.089,-0.02894 -0.089,-0.02894 -0.089,-0.02894 -0.089,-0.03256 -0.089,-0.03256 -0.089,-0.03256 -0.089,-0.03514 -0.089,-0.03514 -0.089,-0.03514 -0.089,-0.03876 -0.089,-0.03876 -0.089,-0.03876 -0.089,-0.04186 -0.089,-0.04186 -0.089,-0.04186 -0.089,-0.04496 -0.089,-0.04496 -0.089,-0.04496 -0.089,-0.04806 -0.089,-0.04806 -0.089,-0.04806 -0.089,-0.05116 -0.089,-0.05116 -0.089,-0.05116 -0.089,-0.05426 -0.089,-0.05426 -0.089,-0.05426 -0.089,-0.05788 -0.089,-0.05788 -0.089,-0.05788 -0.089,-0.06046 -0.089,-0.06046 -0.089,-0.06046 -0.019,-0.01395 -0.019,-0.01395 -0.019,-0.01395 -0.2375,0.182514 -0.2644,0.205523 -0.2913,0.229199 -0.1096,0.09656 -0.1079,0.265011 0,0.359709 0.9253,0.787562 1.8564,0.804495 2.7843,0.04918 0.1133,-0.09221 0.1963,-0.174086 0.1927,-0.174153 z" /><path
         id="path7910"
         style="font-variation-settings:'wght' 300;opacity:1;fill:url(#linearGradient1618);fill-opacity:1;stroke-width:0.658;stroke-linecap:round;stroke-linejoin:round"
         d="m 1462.6599,-19.988015 c -1.8448,0.244527 -3.4053,1.747084 -3.9749,3.836613 -0.077,0.28186 0.119,0.515664 0.4113,0.515664 l 8.186,0 c 0.2923,0 0.4881,-0.233822 0.4113,-0.515705 -0.57,-2.090969 -2.1323,-3.594008 -3.9784,-3.837046 -0.2896,-0.03812 -0.7658,-0.0379 -1.0553,4.74e-4 z" /><ellipse
         style="font-variation-settings:'wght' 300;opacity:1;fill:url(#linearGradient1618);fill-opacity:1;stroke-width:0.658;stroke-linecap:round;stroke-linejoin:round"
         id="path9504"
         cx="1464.7062"
         cy="-25.39432"
         rx="0.82459462"
         ry="0.82459468" /></g><g
       id="g9524"
       style="display:none;fill:url(#linearGradient1606);fill-opacity:1"
       transform="translate(3.8508303,-16.847383)"><path
         id="path9513"
         style="font-variation-settings:'wght' 300;display:inline;opacity:1;fill:url(#linearGradient1618);fill-opacity:1;stroke-width:0.658;stroke-linecap:round;stroke-linejoin:round"
         d="m 1463.6177,-26.082326 c -2.6848,0.101101 -4.8434,1.732249 -5.016,3.777056 -0.012,0.145546 -0.012,0.382944 0,0.528511 0.1722,2.045011 2.331,3.676441 5.016,3.777539 0.146,0.0055 0.383,0.0054 0.529,-2.61e-4 0.3377,-0.01314 0.6729,-0.051 1.0011,-0.11305 0.1435,-0.02714 0.3534,0.0172 0.4734,0.100548 0.2127,0.147729 0.4553,0.299111 0.722,0.438409 0.1295,0.0676 0.3442,0.167748 0.4784,0.225657 0.5502,0.237514 1.0749,0.401895 1.373,0.487441 0.1393,0.03997 0.1646,-0.01041 0.066,-0.118693 -0.2539,-0.280224 -0.6999,-0.868093 -0.9041,-1.719145 -0.034,-0.14122 0.047,-0.321485 0.1655,-0.407222 0.9672,-0.70095 1.5527,-1.655399 1.6401,-2.671264 0.013,-0.14553 0.013,-0.382938 3e-4,-0.528503 -0.1726,-2.044828 -2.3313,-3.675977 -5.0161,-3.777028 -0.146,-0.0055 -0.383,-0.0055 -0.529,5e-6 z" /><path
         style="font-variation-settings:'wght' 300;display:none;opacity:1;fill:url(#pattern12903);fill-opacity:1;stroke-width:0.658;stroke-linecap:round;stroke-linejoin:round"
         d="m 1461.7241,-26.649036 c -2.3239,0.126734 -3.2579,0.373529 -4.1294,2.158174 -0.8131,1.6649 -0.3115,3.424026 0.9959,4.731382 1.3075,1.307356 5.437,1.224349 7.0972,-1.141342 1.66,-2.365692 1.7224,-6.058292 -3.9637,-5.748214 z"
         id="path9517" /><path
         style="fill:url(#linearGradient1606);stroke-width:1"
         d="m 1461.1793,-19.81265 c -0.7827,-0.35542 -1.7579,-0.646217 -2.1672,-0.646217 -0.4093,0 -0.8178,-0.119063 -0.9078,-0.264583 -0.3087,-0.499603 1.4614,-0.268721 3.0427,0.396875 0.8644,0.363802 1.8431,0.663281 2.1749,0.665509 0.4865,0.0033 0.5265,0.05368 0.2064,0.260532 -0.549,0.354778 -0.7304,0.322952 -2.349,-0.412116 z m 0.1308,-1.866411 c -1.6586,-0.713053 -2.5433,-0.835825 -3.6018,-0.499853 -0.5895,0.187093 -0.6205,0.163505 -0.2971,-0.226163 0.5285,-0.636753 2.1557,-0.542124 3.8935,0.226418 1.8133,0.801907 3.1211,0.838209 4.3001,0.119363 0.4873,-0.297065 0.8382,-0.396647 0.7797,-0.221293 -0.42,1.260005 -2.8679,1.550178 -5.0744,0.601528 z m 0.2338,-1.854951 c -0.9012,-0.386802 -2.1316,-0.692023 -2.8463,-0.70606 -0.7538,-0.01481 -1.1625,-0.12106 -1.0186,-0.264885 0.4402,-0.440207 2.0172,-0.247789 3.6698,0.447757 1.9633,0.826333 2.795,0.858533 4.1007,0.15875 1.1237,-0.602252 1.3618,-0.653355 1.1045,-0.237033 -0.7514,1.215719 -2.9608,1.480972 -5.0101,0.601471 z m 0.5292,-1.664224 c -0.7276,-0.271254 -1.6206,-0.618005 -1.9844,-0.770556 -1.357,-0.569031 0.4138,-0.337046 1.9684,0.257872 1.3072,0.500221 1.6161,0.529903 2.5629,0.246245 1.1491,-0.344283 1.6533,-0.231139 0.8492,0.190568 -1.0309,0.540667 -2.0861,0.56424 -3.3961,0.07587 z"
         id="path33016" /></g><g
       id="g9708"
       style="display:none;fill:url(#linearGradient1618);fill-opacity:1;stroke-width:1.13074"
       transform="matrix(0.88437662,0,0,0.88437662,173.02951,-19.349132)"><path
         id="path9526"
         style="font-variation-settings:'wght' 300;opacity:1;fill:url(#linearGradient1618);fill-opacity:1;stroke-width:0.744027;stroke-linecap:round;stroke-linejoin:round"
         d="m 1458.4844,-27.761762 c -1.0185,1.707652 -1.6021,3.914167 -1.6445,6.219934 -0,0.146098 -0,0.383035 0,0.529134 0.037,1.981904 0.4738,3.89857 1.251,5.489429 0.064,0.131288 0.2377,0.236216 0.3838,0.236216 h 1.0486 c 0.1461,0 0.1965,-0.097 0.1175,-0.219902 -0.9405,-1.462848 -1.4908,-3.451645 -1.5342,-5.548864 -0,-0.146091 -0,-0.383037 -10e-5,-0.529129 0.05,-2.445597 0.7887,-4.724249 2.0077,-6.201679 0.093,-0.112725 0.054,-0.200424 -0.092,-0.200424 l -1.1347,0 c -0.1461,0 -0.3285,0.09979 -0.4033,0.225285 z m 7.7777,-0.02483 c 1.2184,1.47791 1.9562,3.756452 2.0061,6.201595 0,0.146121 0,0.383089 -10e-5,0.52918 -0.043,2.097219 -0.5937,4.086016 -1.5342,5.548864 -0.079,0.122905 -0.029,0.219902 0.1175,0.219902 h 1.0526 c 0.1461,0 0.3195,-0.104976 0.3836,-0.236318 0.7759,-1.591497 1.2115,-3.508067 1.2473,-5.489328 0,-0.146099 0,-0.383036 0,-0.529136 -0.042,-2.305114 -0.6241,-4.511516 -1.6413,-6.219838 -0.075,-0.125546 -0.2571,-0.225378 -0.4032,-0.225378 l -1.1364,0 c -0.1461,0 -0.1849,0.08772 -0.092,0.200457 z" /><ellipse
         style="font-variation-settings:'wght' 300;opacity:1;fill:url(#linearGradient1618);fill-opacity:1;stroke-width:0.744027;stroke-linecap:round;stroke-linejoin:round"
         id="path9592"
         cx="1460.4081"
         cy="-19.844555"
         rx="1.0492005"
         ry="1.0266371" /><ellipse
         style="font-variation-settings:'wght' 300;opacity:1;fill:url(#linearGradient1618);fill-opacity:1;stroke-width:0.744027;stroke-linecap:round;stroke-linejoin:round"
         id="ellipse9698"
         cx="1463.1874"
         cy="-19.844555"
         rx="1.0492005"
         ry="1.0266371" /><ellipse
         style="font-variation-settings:'wght' 300;opacity:1;fill:url(#linearGradient1618);fill-opacity:1;stroke-width:0.744027;stroke-linecap:round;stroke-linejoin:round"
         id="ellipse9700"
         cx="1465.9667"
         cy="-19.844555"
         rx="1.0492005"
         ry="1.0266371" /></g><g
       id="g9772"
       style="display:none;fill:url(#linearGradient1618);fill-opacity:1;stroke-width:1.00813"
       transform="matrix(0.97052004,0,0,1.0138235,47.213332,-16.502482)"><path
         id="rect9725"
         style="font-variation-settings:'wght' 300;opacity:1;fill:url(#linearGradient1618);fill-opacity:1;stroke-width:0.66335;stroke-linecap:round;stroke-linejoin:round"
         d="m 1463.243,-22.500534 c -0.9715,-0.0025 -4.3575,-0.0112 -5.7411,-0.01235 -0.1461,-1.21e-4 -0.2646,0.118333 -0.2646,0.264458 v 1.44349 a 0.26458333,0.26458333 45 0 0 0.2646,0.264583 h 5.7702 a 0.26725305,0.26725305 44.712389 0 1 0.2673,0.26457 l 0.01,0.964903 c 0,0.146118 0.092,0.187011 0.2028,0.09139 0.4984,-0.431065 1.8148,-1.568513 2.6501,-2.278677 0.1113,-0.09463 0.1083,-0.243994 -0.01,-0.333919 l -2.6475,-2.066933 a 0.13242041,0.13242041 154.56795 0 0 -0.2138,0.101707 l -0.021,1.032939 c -0,0.146096 -0.1238,0.264215 -0.2699,0.263833 z" /><path
         id="path9734"
         style="font-variation-settings:'wght' 300;opacity:0.504525;fill:url(#linearGradient1618);fill-opacity:1;stroke-width:0.66335;stroke-linecap:round;stroke-linejoin:round"
         d="m 1458.7952,-27.186454 c -0.1461,-9e-6 -0.2646,0.118451 -0.2646,0.264583 v 3.618901 c 0,0.146131 0.1185,0.264592 0.2646,0.264583 h 3.9062 c 0.1461,9e-6 0.2646,-0.118452 0.2646,-0.264583 l 0.01,-1.426787 c -0.013,-0.275253 0.1393,-0.337737 0.2765,-0.22841 l 0.3462,0.310576 v -0.22841 -2.310453 z m 0,7.179406 a 0.26458333,0.26458333 0 0 0 -0.2646,0.264584 v 3.300057 a 0.26458333,0.26458333 0 0 0 0.2646,0.264583 h 4.8033 v -2.289266 l -0.4304,0.363802 a 0.1227851,0.1227851 0 0 1 -0.2021,-0.09405 v -1.545125 a 0.26458333,0.26458333 0 0 0 -0.2646,-0.264584 z" /><path
         id="path9761"
         style="font-variation-settings:'wght' 300;opacity:1;fill:url(#linearGradient1618);fill-opacity:1;stroke-width:0.66335;stroke-linecap:round;stroke-linejoin:round"
         d="m 1463.5985,-16.177991 3.3322,1.09e-4 a 1.7697237,1.7697237 135.02696 0 0 1.7698,-1.768116 l 0.01,-7.119273 a 2.1193273,2.1193273 45.026966 0 0 -2.1193,-2.121253 l -2.9848,-9.8e-5 v 2.538863 l 3.591,2.802413 c 0.1087,0.08281 0.1135,0.244662 0.01,0.33383 l -3.6008,3.044259 z" /></g><path
       id="rect9489"
       style="font-variation-settings:'wght' 700;display:none;fill:url(#linearGradient1606);stroke:none;stroke-width:1.61687;stroke-linecap:round;stroke-linejoin:round;stroke-dasharray:none"
       d="m 1467.0815,-44.134848 c -0.083,0.08913 -0.1608,0.29859 -0.1697,0.443824 0,6e-5 0,1.2e-4 0,1.8e-4 -0.01,0.144884 -0,0.381244 -0,0.527369 l 0,3.57044 c 0,0.07316 7e-4,0.195422 -0.034,0.259229 -0,0.005 -0.01,0.0099 -0.01,0.01472 -0.065,0.107228 -0.1761,0.03972 -0.1761,-0.08827 l 0,-2.559801 c 0,-0.146125 0,-0.383316 -0.01,-0.529112 -0.01,-0.144131 -0.092,-0.373081 -0.1978,-0.472212 -0.089,-0.0832 -0.2986,-0.164404 -0.4439,-0.164074 -0.143,3.24e-4 -0.371,0.08846 -0.4702,0.194331 -0.083,0.08897 -0.1607,0.298296 -0.1696,0.443529 0,5.5e-5 0,1.11e-4 0,1.66e-4 -0.01,0.144884 -0,0.381244 -0,0.527369 v 4.220415 0.652239 c 0,0.146125 0,0.40484 -0.1026,0.500015 -0.061,0.0548 -0.1412,0.08537 -0.2228,0.08449 -0.1418,-0.0015 -0.3114,-0.196626 -0.4084,-0.305939 l -0.7138,-0.8047 c -0.097,-0.109313 -0.2518,-0.288865 -0.3538,-0.393525 0,-1.9e-5 -10e-5,-3.8e-5 -10e-5,-5.7e-5 -0.1013,-0.103996 -0.3028,-0.236165 -0.4445,-0.269055 -0.094,-0.02174 -0.1906,-0.02754 -0.2862,-0.01713 -0.1447,0.01574 -0.3632,0.120846 -0.472,0.217629 -0.1079,0.0959 -0.2377,0.299393 -0.2706,0.44117 -0.022,0.09372 -0.027,0.190556 -0.017,0.2862 0.016,0.144673 0.123,0.360862 0.2139,0.47488 0,1.05e-4 10e-5,2.09e-4 2e-4,3.14e-4 0.091,0.11382 0.2483,0.290352 0.3444,0.400461 0.466,0.534182 1.3213,1.502897 2.0582,2.274631 0.1008,0.105609 0.2654,0.275955 0.3696,0.378459 0.1038,0.102204 0.2827,0.257741 0.4029,0.340674 0.4451,0.306981 0.8818,0.399301 1.2826,0.428295 0.1456,0.01053 0.3824,0.01376 0.5286,0.01427 0.1453,5.1e-4 0.3817,2.84e-4 0.5278,2.84e-4 h 0.9513 c 0.1461,0 0.3831,0.0015 0.5292,-0.0015 0,0 0,-1e-6 10e-5,-1e-6 0.1459,-0.0031 0.382,-0.03071 0.5225,-0.07039 0.6348,-0.179256 1.1331,-0.677519 1.3124,-1.31232 0.04,-0.140521 0.067,-0.376739 0.071,-0.52277 0,-2.1e-5 0,-4.3e-5 0,-6.5e-5 0,-0.145977 0,-0.382826 0,-0.528951 v -1.20923 -0.529166 l 0,-3.587375 c 0,-0.146125 0,-0.383316 -0.01,-0.529112 -0.01,-0.144131 -0.092,-0.373081 -0.1978,-0.472212 -0.089,-0.0832 -0.2986,-0.16441 -0.4439,-0.164077 -0.143,3.28e-4 -0.371,0.08854 -0.4701,0.194523 -0.083,0.08892 -0.1603,0.298085 -0.1692,0.443319 0,6.2e-5 0,1.24e-4 0,1.87e-4 -0.01,0.144884 -0,0.381244 -0,0.527369 v 1.145319 c 0,0.121202 0.01,0.349718 -0.092,0.407761 -0.061,0.03535 -0.1264,-0.10109 -0.1264,-0.247215 v -3.137791 c 0,-0.146125 0,-0.383316 -0.01,-0.529112 -0.01,-0.144126 -0.092,-0.373067 -0.1977,-0.472246 -0.089,-0.08351 -0.2992,-0.164869 -0.4445,-0.164533 -0.143,3.31e-4 -0.3708,0.08864 -0.4699,0.194646 -0.083,0.08909 -0.1605,0.298442 -0.1694,0.443675 0,6.6e-5 0,1.31e-4 0,1.97e-4 -0.01,0.144884 -0,0.381245 -0,0.52737 v 2.927764 c 0,0.09316 0.01,0.253428 -0.041,0.328759 -0.064,0.09366 -0.1769,-0.01394 -0.1769,-0.16007 v -3.623033 c 0,-0.146125 0,-0.383316 -0.01,-0.529112 -0.01,-0.144136 -0.092,-0.373098 -0.1977,-0.472326 -0.089,-0.08342 -0.2969,-0.178553 -0.442,-0.174211 10e-5,0 -0.1152,0.02371 -0.2569,0.05295 z" /><path
       style="display:none;fill:url(#linearGradient1606);stroke-width:0.714078;stroke-linecap:round;stroke-linejoin:round"
       id="path2779"
       d="m 1461.1729,-22.056964 -3.5824,-1.806957 a 0.5312946,0.5312946 0.2933094 0 0 -0.4737,-0.0024 l -3.6006,1.770185 a 0.13789078,0.13789078 36.293309 0 1 -0.1972,-0.14476 l 0.6115,-3.965417 a 0.5312946,0.5312946 72.293309 0 0 -0.144,-0.45124 l -2.7962,-2.877436 a 0.13789078,0.13789078 108.29331 0 1 0.077,-0.232202 l 3.9603,-0.643806 a 0.5312946,0.5312946 144.29331 0 0 0.3847,-0.276456 l 1.8725,-3.548538 a 0.13789078,0.13789078 0.2933094 0 1 0.2445,0.0013 l 1.8361,3.567523 a 0.5312946,0.5312946 36.293309 0 0 0.3818,0.28038 l 3.9535,0.684319 a 0.13789078,0.13789078 72.293309 0 1 0.074,0.232975 l -2.8255,2.848657 a 0.5312946,0.5312946 108.29331 0 0 -0.1487,0.449741 l 0.5709,3.97147 a 0.13789078,0.13789078 144.29331 0 1 -0.1986,0.142735 z"
       transform="matrix(0.89990001,0,0,0.94354987,155.53884,-11.872631)" /><path
       id="rect6485"
       style="font-variation-settings:'wght' 700;display:none;opacity:1;fill:url(#linearGradient6494);fill-opacity:1;stroke:none;stroke-width:0.658;stroke-linecap:round;stroke-linejoin:round;stroke-opacity:1"
       d="m 1470.6645,-42.855222 -3.4392,3.439216 a 0.2645816,0.2645816 0 0 1 -0.3742,-10e-7 l -3.4391,-3.439176 a 0.26458121,0.26458121 0 0 0 -0.3742,-1e-6 l -0.3705,0.370523 a 0.26458545,0.26458545 0 0 0 0,0.374179 l 3.4391,3.439176 a 0.26458621,0.26458621 0 0 1 0,0.374179 l -3.4388,3.438849 a 0.26457929,0.26457929 0 0 0 0,0.374174 l 0.3702,0.370202 a 0.26458733,0.26458733 0 0 0 0.3742,-4e-6 l 3.4388,-3.43885 a 0.26458388,0.26458388 0 0 1 0.3742,-10e-7 l 3.4392,3.43918 a 0.26458486,0.26458486 0 0 0 0.3742,-10e-7 l 0.3705,-0.370522 a 0.26458184,0.26458184 0 0 0 0,-0.374177 l -3.4392,-3.439181 a 0.2645816,0.2645816 0 0 1 0,-0.374176 l 3.4392,-3.439217 a 0.26457811,0.26457811 0 0 0 0,-0.374173 l -0.3702,-0.370202 a 0.26458851,0.26458851 0 0 0 -0.3742,4e-6 z" /><rect
       style="font-variation-settings:'wght' 600;display:none;fill:url(#linearGradient1624);fill-opacity:1;stroke:none;stroke-width:0.457999;stroke-linecap:round;stroke-miterlimit:2.4;stroke-dasharray:none;stroke-opacity:1"
       id="rect60615"
       width="12.700073"
       height="12.699997"
       x="1460.6882"
       y="-44.834427" /><path
       id="path9446-0"
       style="font-variation-settings:'wght' 700;display:none;fill:url(#linearGradient1606);fill-opacity:1;stroke:none;stroke-width:0.658;stroke-linecap:round;stroke-linejoin:round;stroke-opacity:1"
       d="m 1461.9153,-43.948054 a 0.22379244,0.22379244 0 0 0 -0.2088,0.19637 l -0.477,3.957381 a 0.1227453,0.1227453 0 0 0 0.1897,0.116789 l 1.1787,-0.775663 a 0.26459137,0.26459137 0 0 1 0.3669,0.07545 l 1.6909,2.568836 c 0.08,0.122052 0.228,0.135367 0.338,0.03927 0.3673,-0.320789 0.8043,-0.560562 1.2784,-0.682646 0.1415,-0.03642 0.1936,-0.153387 0.1132,-0.275435 l -1.7927,-2.722315 a 0.26459732,0.26459732 0 0 1 0.077,-0.366902 l 1.1782,-0.775664 a 0.12276509,0.12276509 0 0 0 -0.033,-0.220658 l -3.822,-1.126029 a 0.22379244,0.22379244 0 0 0 -0.077,-0.0088 z m 10.2319,0 a 0.22379552,0.22379552 0 0 0 -0.077,0.0088 h -5e-4 l -3.8225,1.125512 a 0.12274743,0.12274743 0 0 0 -0.033,0.220659 l 1.1788,0.775663 a 0.26458802,0.26458802 0 0 1 0.076,0.366903 l -1.7932,2.722831 c -0.08,0.122045 -0.028,0.238382 0.1137,0.273368 0.4739,0.116918 0.9209,0.344418 1.2939,0.659908 0.1116,0.09432 0.2597,0.08018 0.3401,-0.04186 l 1.6738,-2.541963 a 0.26456565,0.26456565 0 0 1 0.3664,-0.07545 l 1.1787,0.775663 a 0.122738,0.122738 0 0 0 0.1897,-0.116789 l -0.4765,-3.956864 a 0.22379552,0.22379552 0 0 0 -0.2088,-0.19637 z m -5.1092,5.972245 a 2.6368897,2.6368897 0 0 0 -2.6366,2.637048 2.6368897,2.6368897 0 0 0 2.6366,2.636532 2.6368897,2.6368897 0 0 0 2.637,-2.636532 2.6368897,2.6368897 0 0 0 -2.637,-2.637048 z" /><path
       id="rect2224"
       style="font-variation-settings:'wght' 600;display:none;fill:url(#linearGradient60619);fill-opacity:1;stroke-width:0.658;stroke-linecap:round;stroke-linejoin:round"
       d="m 1465.2563,-42.306209 c -0.08,8.57e-4 -0.1739,0.0061 -0.2319,0.03224 -0.081,0.03636 -0.1457,0.101059 -0.1819,0.18164 -0.035,0.07737 -0.033,0.219842 -0.033,0.305363 v 5.844034 c 0,0.08552 -3e-4,0.227667 0.033,0.305035 0.037,0.08058 0.1014,0.14561 0.1819,0.181968 0.077,0.03491 0.2195,0.03192 0.3051,0.03192 h 4.0417 c 0.085,0 0.228,0.003 0.3053,-0.03192 0.081,-0.03636 0.1454,-0.101395 0.1817,-0.181968 0.035,-0.07737 0.033,-0.219513 0.033,-0.305035 v -3.383024 -0.620929 a 0.43011192,0.43011192 0 0 0 -0.099,-0.274103 l -1.6262,-1.96578 a 0.32907542,0.32907542 0 0 0 -0.2536,-0.119448 h -0.4065 -2.176 c -0.021,0 -0.047,-2.87e-4 -0.072,0 z m 0.3956,0.457717 h 3e-4 1.5433 a 0.15485054,0.15485054 0 0 1 0.155,0.154986 v 1.693979 c 0,0.08552 -3e-4,0.22767 0.033,0.305035 0.036,0.08057 0.1014,0.145281 0.182,0.18164 0.077,0.03492 0.2195,0.03224 0.305,0.03224 h 1.3478 a 0.15485054,0.15485054 0 0 1 0.1546,0.154656 v 3.121425 c 0,0.08552 -4e-4,0.238946 -0.066,0.288911 -0.047,0.03597 -0.1712,0.03389 -0.2567,0.03389 h -3.3972 c -0.085,0 -0.2388,-4.9e-4 -0.2888,-0.06614 -0.036,-0.04726 -0.034,-0.171142 -0.034,-0.256664 v -5.320835 c 0,-0.08552 4e-4,-0.238946 0.066,-0.288911 0.047,-0.03588 0.1704,-0.03423 0.256,-0.03422 z m 2.2665,0.218494 h 7e-4 a 0.0558025,0.0558025 0 0 1 0.048,0.01975 l 1.2856,1.552814 a 0.07280999,0.07280999 0 0 1 -0.056,0.119118 h -1.0059 c -0.086,0 -0.2386,-4.87e-4 -0.2885,-0.06614 -0.036,-0.04726 -0.034,-0.171144 -0.034,-0.256664 v -1.313262 a 0.0558025,0.0558025 0 0 1 0.05,-0.05561 z m 2.3725,1.843699 a 0.06063217,0.06063217 0 0 0 -0.054,0.06054 v 0 4.222447 c 0,0.09305 -2e-4,0.256107 -0.063,0.320172 -0.064,0.06396 -0.2269,0.06252 -0.3199,0.06252 h -3.2297 -0.8417 c -0.093,0 -0.1724,0.07616 -0.157,0.167819 0.01,0.04261 0.051,0.149685 0.1221,0.207964 0.041,0.0329 0.1527,0.07491 0.2452,0.07963 0.077,0.004 0.2156,0.0019 0.3086,0.0019 h 3.7048 c 0.093,0 0.2442,0.0033 0.337,-0.004 0.077,-0.006 0.211,-0.05844 0.2692,-0.129977 0.034,-0.04031 0.075,-0.152673 0.08,-0.245147 0.01,-0.07729 0,-0.215279 0,-0.308325 v -3.045742 -0.620929 c 0,-0.09305 -1e-4,-0.247201 -0.033,-0.332676 -0.027,-0.06565 -0.1142,-0.168502 -0.1735,-0.240211 l -0.1441,-0.174399 a 0.06063217,0.06063217 0 0 0 -0.053,-0.02172 z m -4.1566,1.514975 c -0.083,0 -0.1494,0.06662 -0.1494,0.149392 v 0.186904 c 0,0.08277 0.066,0.149391 0.1494,0.149391 h 2.432 c 0.083,0 0.1498,-0.06662 0.1498,-0.149391 v -0.186904 c 0,-0.08277 -0.067,-0.149392 -0.1498,-0.149392 z m 0,0.78447 c -0.083,0 -0.1494,0.06662 -0.1494,0.149391 v 0.186904 c 0,0.08277 0.066,0.149392 0.1494,0.149392 h 1.1343 c 0.083,0 0.1494,-0.06662 0.1494,-0.149392 v -0.186904 c 0,-0.08277 -0.066,-0.149391 -0.1494,-0.149391 z" /><path
       id="rect1623"
       style="color:#000000;display:none;fill:url(#linearGradient2243);stroke-width:0.999999;stroke-linecap:round;stroke-miterlimit:2.4"
       d="m 1461.7715,-44.200312 c -0.1823,0.07341 -0.3296,0.221355 -0.4025,0.4041 -0.054,0.134932 -0.05,0.376759 -0.05,0.522884 v 2.434477 a 0.26458333,0.26458333 45 0 0 0.2646,0.264583 h 0.3281 a 0.26458333,0.26458333 135 0 0 0.2646,-0.264583 l 0,-1.527039 a 0.10960843,0.10960843 157.49733 0 1 0.1871,-0.07751 l 2.2897,2.289262 c 0.1033,0.103316 0.29,0.287974 0.4293,0.266994 0.097,-0.01456 0.2416,-0.16369 0.3449,-0.267021 0.096,-0.09645 0.2755,-0.277519 0.2545,-0.416776 -0.014,-0.09663 -0.1637,-0.241608 -0.267,-0.344946 l -2.2876,-2.288152 a 0.1096106,0.1096106 112.50307 0 1 0.077,-0.187109 h 1.56 a 0.26458333,0.26458333 135 0 0 0.2646,-0.264583 v -0.330213 a 0.26458333,0.26458333 45 0 0 -0.2646,-0.264583 h -2.4706 c -0.1461,0 -0.388,-0.004 -0.5227,0.05022 z m 4.0372,1.379153 v 0.251665 a 0.26458333,0.26458333 45 0 0 0.2646,0.264583 h 4.5217 a 0.26458333,0.26458333 45 0 1 0.2646,0.264583 v 4.552694 a 0.26458333,0.26458333 45 0 0 0.2646,0.264583 h 0.2501 a 0.26458333,0.26458333 135 0 0 0.2646,-0.264583 v -4.686019 c 0,-0.146125 0,-0.388877 -0.055,-0.521469 -0.066,-0.148425 -0.1863,-0.269335 -0.3344,-0.335528 -0.1325,-0.0592 -0.3754,-0.05509 -0.5215,-0.05509 h -4.655 a 0.26458333,0.26458333 135 0 0 -0.2646,0.264583 z m -3.3714,3.339848 v 4.686536 c 0,0.146125 -0,0.388876 0.055,0.521473 0.066,0.148435 0.1863,0.269351 0.3344,0.335541 0.1325,0.05919 0.3754,0.05508 0.5215,0.05508 h 4.687 a 0.26458333,0.26458333 135 0 0 0.2646,-0.264583 v -0.251665 a 0.26458333,0.26458333 45 0 0 -0.2646,-0.264583 h -4.5537 a 0.26458333,0.26458333 45 0 1 -0.2646,-0.264583 l 0,-4.553211 a 0.26458333,0.26458333 45 0 0 -0.2646,-0.264583 h -0.2501 a 0.26458333,0.26458333 135 0 0 -0.2646,0.264583 z m 6.4343,2.479436 c -0.2835,0.283883 -0.4628,0.465193 -0.4416,0.604409 0.015,0.09631 0.1636,0.241072 0.2669,0.344408 l 2.2882,2.288674 a 0.10960815,0.10960815 112.50261 0 1 -0.078,0.187106 h -1.5254 a 0.26458333,0.26458333 135 0 0 -0.2646,0.264583 v 0.330213 a 0.26458333,0.26458333 45 0 0 0.2646,0.264583 h 2.4349 c 0.1461,0 0.388,0.004 0.5227,-0.05028 0.1824,-0.07351 0.3296,-0.221667 0.4026,-0.404549 0.054,-0.134944 0.05,-0.376765 0.05,-0.52289 v -2.434478 a 0.26458333,0.26458333 45 0 0 -0.2646,-0.264583 h -0.3281 a 0.26458333,0.26458333 135 0 0 -0.2646,0.264583 v 1.52704 a 0.10959389,0.10959389 157.50002 0 1 -0.1871,0.07749 l -2.2892,-2.289226 c -0.1033,-0.103326 -0.2675,-0.270289 -0.3871,-0.270289 z" /><path
       id="path9089"
       style="color:#000000;display:none;fill:url(#linearGradient1618);stroke-width:0.999999;stroke-linecap:round;stroke-miterlimit:2.4"
       d="m 1463.5215,-44.232959 c -0.1461,4.6e-5 -0.2646,0.11849 -0.2646,0.264583 h 6e-4 v 0.251665 c 0,0.146131 0.1184,0.264583 0.2645,0.264583 h 8.1913 c 0.1461,4.6e-5 0.2646,0.11849 0.2646,0.264583 v 7.846033 c 0,0.146132 0.1184,0.264583 0.2645,0.264583 h 0.2501 c 0.1461,0 0.2646,-0.118451 0.2646,-0.264583 v -7.979358 c 0,-0.146124 5e-4,-0.388823 -0.055,-0.521415 -0.066,-0.148425 -0.1863,-0.269187 -0.3344,-0.33538 -0.1325,-0.0592 -0.3758,-0.05529 -0.5219,-0.05529 z m -1.3539,0.344165 c -0.01,-2.25e-4 -0.018,7.06e-4 -0.027,0.0021 -0.097,0.01455 -0.2414,0.163826 -0.3447,0.267167 -0.096,0.09648 -0.2757,0.277779 -0.2547,0.417029 0.015,0.09659 0.1638,0.241354 0.2671,0.344682 l 2.8169,2.817399 c 0.069,0.06922 0.02,0.187465 -0.078,0.187069 h -1.5601 c -0.1461,-9e-6 -0.2646,0.118451 -0.2646,0.264583 v 0.330212 c 0,0.146132 0.1185,0.264593 0.2646,0.264584 h 2.4706 c 0.1461,0 0.3878,0.0041 0.5225,-0.05013 h 5e-4 c 0.1823,-0.0734 0.3296,-0.221371 0.4025,-0.40411 0.054,-0.13493 0.05,-0.376841 0.05,-0.522966 v -2.434476 c 0,-0.146132 -0.1185,-0.264593 -0.2646,-0.264584 h -0.3282 c -0.1461,-9e-6 -0.2645,0.118452 -0.2645,0.264584 v 1.527038 c 0,0.09764 -0.118,0.146552 -0.1871,0.07751 l -2.819,-2.818433 c -0.097,-0.09686 -0.2669,-0.265344 -0.4025,-0.268717 z m -0.5984,1.95802 c -0.1461,-10e-7 -0.2646,0.118452 -0.2646,0.264583 v 8.053256 c 0,0.146124 10e-5,0.389335 0.055,0.521932 0.066,0.148434 0.1862,0.26919 0.3343,0.33538 0.1325,0.05919 0.3754,0.05478 0.5215,0.05478 h 7.9256 c 0.1461,9e-6 0.2646,-0.118452 0.2646,-0.264584 v -0.251664 c 0,-0.146132 -0.1185,-0.264583 -0.2646,-0.264583 h -7.7923 c -0.1461,0 -0.2646,-0.118452 -0.2646,-0.264584 v -7.91993 c 0,-0.146131 -0.1185,-0.264581 -0.2646,-0.264583 z m 6.7737,3.995105 c -0.136,0.0014 -0.2979,0.0095 -0.3989,0.05013 -0.1824,0.0735 -0.3296,0.221754 -0.4026,0.404627 -0.054,0.134943 -0.05,0.37684 -0.05,0.522965 v 2.434477 c 0,0.146132 0.1185,0.264592 0.2646,0.264583 h 0.3281 c 0.1461,9e-6 0.2646,-0.118451 0.2646,-0.264583 v -1.527039 c 0,-0.09766 0.1181,-0.146579 0.1871,-0.07751 l 2.8184,2.818432 c 0.1033,0.103327 0.2675,0.270268 0.3871,0.270268 l 0.2005,-0.0832 c 0.2835,-0.283848 0.4625,-0.465394 0.4413,-0.604614 -0.015,-0.09633 -0.1633,-0.24084 -0.2666,-0.344165 l -2.818,-2.817916 c -0.069,-0.06888 -0.02,-0.186588 0.077,-0.187069 h 1.526 c 0.1461,9e-6 0.2646,-0.118451 0.2646,-0.264583 v -0.330213 c 0,-0.146131 -0.1185,-0.264592 -0.2646,-0.264583 h -2.4349 c -0.037,0 -0.079,-4.63e-4 -0.1241,0 z" /><path
       id="rect1632"
       style="font-variation-settings:'wght' 600;display:none;fill:url(#linearGradient1600);stroke-width:0.857999;stroke-linecap:round;stroke-miterlimit:2.4"
       d="m 1467.0383,-35.261931 c -0.072,0 -0.1446,-0.02779 -0.2001,-0.08323 l -0.1757,-0.175716 -5.5278,-5.527807 c -0.1107,-0.110733 -0.1107,-0.289207 0,-0.39994 l 0.1752,-0.175221 c 0.1108,-0.110804 0.2892,-0.110733 0.4,0 l 5.3279,5.328333 5.3283,-5.328333 c 0.1107,-0.110733 0.2892,-0.110733 0.4,0 l 0.1757,0.17515 c 0.1108,0.110804 0.1108,0.289278 0,0.400011 l -5.5283,5.527807 -0.1753,0.175787 c -0.055,0.05537 -0.1277,0.08315 -0.1999,0.08315 z" /><path
       id="rect10802"
       style="font-variation-settings:'wght' 600;display:none;fill:url(#linearGradient1618);stroke-width:0.857999;stroke-linecap:round;stroke-miterlimit:2.4"
       d="m 1470.4202,-42.308809 c -0.2914,0.0067 -0.5802,0.125175 -0.7982,0.353557 l -3.7539,3.931378 -1.6174,-1.61739 c -0.4465,-0.446562 -1.1658,-0.446562 -1.6124,0 l -0.2314,0.231012 c -0.4465,0.446562 -0.4466,1.165756 0,1.612318 l 2.8034,2.803424 c 0.2372,0.237208 0.5515,0.348238 0.8609,0.333468 10e-5,-6.3e-5 2e-4,-6.3e-5 4e-4,-6.3e-5 0.3159,0.01321 0.6358,-0.10496 0.8723,-0.352682 l 4.7441,-4.968704 c 0.4362,-0.456764 0.4197,-1.17527 -0.037,-1.61138 l -0.4171,-0.398432 c -0.2284,-0.218056 -0.5225,-0.323266 -0.8137,-0.316506 z" /><path
       id="rect41989"
       style="font-variation-settings:'wght' 600;display:none;fill:url(#linearGradient1624);stroke-width:0.857999;stroke-linecap:round;stroke-miterlimit:2.4"
       d="m 1466.8393,-44.162166 -5.9977,5.279238 a 0.099858,0.099858 69.322688 0 0 0.066,0.174815 h 1.1813 a 25.916689,25.916689 179.41509 0 0 0.5291,-0.0054 0.2431908,0.2431908 48.419243 0 1 0.2306,0.259875 v 5.442422 a 0.26458333,0.26458333 45 0 0 0.2646,0.264583 h 2.1476 a 0.26458333,0.26458333 135 0 0 0.2646,-0.264583 l 0,-3.562288 a 0.26458333,0.26458333 135 0 1 0.2646,-0.264583 h 2.4963 a 0.26458333,0.26458333 45 0 1 0.2646,0.264583 v 3.562288 a 0.26458333,0.26458333 45 0 0 0.2646,0.264583 h 2.2025 a 0.26458333,0.26458333 135 0 0 0.2646,-0.264583 v -5.442422 a 0.25923031,0.25923031 135.5855 0 1 0.2645,-0.259176 24.20434,24.20434 0.54471282 0 0 0.4947,0.0047 h 1.127 a 0.09984334,0.09984334 110.67453 0 0 0.066,-0.174796 l -2.0286,-1.785209 a 0.58529337,0.58529337 65.674534 0 1 -0.1986,-0.439379 v -2.322976 a 0.26458333,0.26458333 45 0 0 -0.2646,-0.264583 h -0.7968 a 0.26458333,0.26458333 135 0 0 -0.2646,0.264583 l 0,1.155515 a 0.11960405,0.11960405 155.6748 0 1 -0.1986,0.08979 l -2.2465,-1.977012 a 0.30061697,0.30061697 179.99749 0 0 -0.3972,1.8e-5 z" /><path
       id="rect46188"
       style="font-variation-settings:'wght' 600;display:none;fill:url(#linearGradient60621);fill-opacity:1;stroke-width:0.858001;stroke-linecap:round;stroke-miterlimit:2.4"
       d="m 1463.4605,-35.529758 c -0.01,-0.01389 0.026,-0.02581 0.079,-0.02595 l 0.7808,-0.0021 c 0.053,-1.44e-4 0.074,0.03717 0.039,0.07677 -0.085,0.09623 -0.2032,0.161173 -0.3336,0.182727 -0.052,0.0086 -0.1384,0.0089 -0.1905,5.43e-4 -0.087,-0.01397 -0.1694,-0.04728 -0.2403,-0.09716 -0.043,-0.03033 -0.073,-0.06147 -0.073,-0.06148 z m -0.017,-0.271396 -0.01,-4.665675 c -2e-4,-0.05284 0.041,-0.08056 0.092,-0.07299 0.039,0.0058 0.1152,0.0058 0.166,-0.0077 0.054,-0.01429 0.1043,-0.03952 0.1514,-0.07121 0.044,-0.02948 0.1076,-0.02952 0.1514,5.6e-5 0.047,0.03163 0.097,0.05698 0.1504,0.0712 0.051,0.01358 0.1379,0.01355 0.1897,0.0035 0.04,-0.0078 0.071,0.02384 0.071,0.07669 l 0.01,4.663243 c 0,0.05284 -0.043,0.09568 -0.096,0.09569 l -0.7806,0.0022 c -0.053,1.79e-4 -0.096,-0.04256 -0.096,-0.09543 z m 0.051,-4.993513 0.1768,-0.378811 c 0.01,-0.01145 0.017,-0.01872 0.03,-0.01868 l 0.4336,-0.0041 c 0.014,-1.32e-4 0.027,0.0079 0.034,0.0207 l 0.186,0.38 c 0.023,0.04744 0,0.105521 -0.049,0.114214 -0.034,0.0055 -0.1045,0.0063 -0.1553,-0.0076 -0.053,-0.01436 -0.1019,-0.04072 -0.1439,-0.07733 -0.017,-0.01524 -0.043,-0.04327 -0.059,-0.0604 -0.026,-0.01361 -0.057,-0.0026 -0.069,0.02386 0,0.0041 -0.035,0.04039 -0.079,0.06887 -0.031,0.02028 -0.066,0.03562 -0.1019,0.04527 -0.051,0.01392 -0.1383,0.01385 -0.1891,-5e-6 -0.03,-0.0082 -0.053,-0.0191 -0.053,-0.01915 z m 0.2691,-0.5718 0.1416,-0.301285 c 0.01,-0.01256 0.024,-0.01258 0.03,-4.6e-5 l 0.1453,0.302907 c 0.01,0.0125 0,0.02683 -0.017,0.02669 l -0.2823,7.24e-4 c -0.015,1.94e-4 -0.025,-0.01544 -0.019,-0.02906 z" /><path
       id="rect49285"
       style="font-variation-settings:'wght' 600;display:none;fill:url(#linearGradient1618);stroke-width:0.457999;stroke-linecap:round;stroke-miterlimit:2.4"
       d="m 1466.7741,-44.411794 c -1.0224,0.120505 -1.8335,0.931515 -1.954,1.953928 -0.017,0.145081 -0.1305,0.292532 -0.2723,0.327656 l -2.5854,0.640201 a 0.29794671,0.29794671 124.48602 0 0 -0.224,0.32614 l 0.047,0.377185 a 0.29968765,0.29968765 41.440114 0 0 0.2974,0.262543 l 3.207,0 h 1.4836 1.4841 3.7357 a 0.29985248,0.29985248 138.57552 0 0 0.2975,-0.262525 l 0.047,-0.377221 a 0.29778305,0.29778305 55.529611 0 0 -0.2239,-0.326122 l -2.5854,-0.640201 c -0.1418,-0.03512 -0.2552,-0.182538 -0.2723,-0.327576 -0.1205,-1.022609 -0.9318,-1.833724 -1.9544,-1.954058 -0.1451,-0.01707 -0.383,-0.01704 -0.5281,5e-5 z m 0.527,0.855396 c 0.5553,0.106602 0.993,0.54422 1.0996,1.099533 0.028,0.143316 -0.094,0.263058 -0.2397,0.263058 h -0.8583 -1.3875 c -0.1461,0 -0.2672,-0.119719 -0.2397,-0.263009 0.1066,-0.55532 0.5442,-0.992951 1.0995,-1.099573 0.1434,-0.02752 0.3828,-0.02752 0.5261,-9e-6 z m -4.1315,3.857109 1.156,6.541009 a 0.31543956,0.31543956 39.989138 0 0 0.3106,0.260546 h 4.8038 a 0.31546155,0.31546155 140.01283 0 0 0.3107,-0.260543 l 1.1563,-6.541015 a 0.22191084,0.22191084 50.012829 0 0 -0.2185,-0.260543 h -7.3003 a 0.22192631,0.22192631 129.98914 0 0 -0.2186,0.260546 z m 1.8712,0.596766 h 0.3168 a 0.31299638,0.31299638 40.208636 0 1 0.3086,0.260891 l 0.8148,4.825695 a 0.22365862,0.22365862 130.20864 0 1 -0.2206,0.260891 h -0.3168 a 0.31299638,0.31299638 40.208636 0 1 -0.3086,-0.260891 l -0.8148,-4.825695 a 0.22365862,0.22365862 130.20864 0 1 0.2206,-0.260891 z m 3.7006,0 h 0.3167 a 0.2218158,0.2218158 50.024912 0 1 0.2184,0.260524 l -0.8553,4.826429 a 0.31559671,0.31559671 140.02491 0 1 -0.3108,0.260524 h -0.3168 a 0.22181172,0.22181172 50.025432 0 1 -0.2184,-0.260523 l 0.8554,-4.826431 a 0.31560252,0.31560252 140.02543 0 1 0.3108,-0.260523 z" /><g
       aria-label="?="
       transform="matrix(0.96266503,0,0,1.0285929,-3852.3547,130.46765)"
       id="text1916"
       style="font-weight:bold;font-size:8px;font-family:'Courier Prime Sans';-inkscape-font-specification:'Courier Prime Sans, Bold';white-space:pre;shape-inside:url(#rect1918);display:none;fill:url(#linearGradient1618);stroke-width:0.431807;stroke-linecap:round;stroke-miterlimit:2.4"><path
         d="m 5523.8692,-167.6523 q 0.6784,0 1.0369,0.33041 0.3621,0.33043 0.3621,0.91746 0,0.48861 -0.2671,0.76983 -0.2637,0.2777 -0.812,0.42885 l -0.022,0.3023 q -0.01,0.0879 -0.085,0.13006 -0.077,0.0387 -0.2707,0.0387 -0.1934,0 -0.2707,-0.0387 -0.077,-0.0422 -0.085,-0.13006 l -0.042,-0.73466 q -0.01,-0.15468 0.109,-0.17928 l 0.362,-0.0703 q 0.2532,-0.0492 0.3762,-0.16873 0.123,-0.12303 0.123,-0.33393 0,-0.22849 -0.1441,-0.34449 -0.1406,-0.11952 -0.4148,-0.11952 -0.348,0 -0.7452,0.1617 -0.032,0.014 -0.07,0.014 -0.07,0 -0.1336,-0.0668 -0.059,-0.0668 -0.1195,-0.21795 -0.063,-0.15818 -0.063,-0.25661 0,-0.14411 0.1335,-0.20388 0.2356,-0.10545 0.5062,-0.16521 0.2742,-0.0633 0.5344,-0.0633 z m -0.056,3.44134 q 0.2707,0 0.3902,0.0527 0.1195,0.0492 0.1195,0.16873 v 0.61164 q 0,0.11952 -0.1195,0.17224 -0.1195,0.0492 -0.3902,0.0492 -0.2707,0 -0.3902,-0.0492 -0.1195,-0.0527 -0.1195,-0.17224 v -0.61164 q 0,-0.11951 0.1195,-0.16873 0.1195,-0.0527 0.3902,-0.0527 z"
         id="path51495"
         style="stroke-width:0.431807" /><path
         d="m 5528.5762,-166.44501 q 0.073,0 0.1128,0.0274 0.04,0.0274 0.058,0.10057 0.022,0.0731 0.022,0.21636 0,0.14321 -0.022,0.21635 -0.019,0.0731 -0.058,0.10056 -0.039,0.0243 -0.1128,0.0243 h -2.322 q -0.074,0 -0.1127,-0.0243 -0.04,-0.0275 -0.061,-0.10056 -0.018,-0.0731 -0.018,-0.21635 0,-0.14323 0.018,-0.21636 0.021,-0.0731 0.061,-0.10057 0.04,-0.0274 0.1127,-0.0274 z m 0,1.39565 q 0.073,0 0.1128,0.0275 0.04,0.0274 0.058,0.10056 0.022,0.0731 0.022,0.21636 0,0.14322 -0.022,0.21635 -0.019,0.0731 -0.058,0.10056 -0.039,0.0244 -0.1128,0.0244 h -2.322 q -0.074,0 -0.1127,-0.0244 -0.04,-0.0274 -0.061,-0.10056 -0.018,-0.0731 -0.018,-0.21635 0,-0.14322 0.018,-0.21636 0.021,-0.0731 0.061,-0.10056 0.04,-0.0275 0.1127,-0.0275 z"
         id="path51492"
         style="stroke-width:0.431807" /></g><rect
       style="display:none;fill:url(#linearGradient1618);stroke-width:0.429683;stroke-linecap:round;stroke-miterlimit:2.4"
       id="rect16065"
       width="6.3921537"
       height="0.78992689"
       x="619.75708"
       y="1326.5894"
       ry="0.35211426"
       transform="rotate(-66.40128)"
       rx="0.40803018" /><path
       style="color:#000000;display:none;fill:url(#linearGradient1618);stroke-linecap:round;stroke-miterlimit:2.4;-inkscape-stroke:none"
       d="m 1464.3672,-44.154297 c -0.1326,0 -0.3442,-0.0032 -0.5274,0.01367 -0.014,0.0013 -0.027,3.78e-4 -0.041,0.002 -6e-4,7.5e-5 0,-7.5e-5 0,0 -1.2908,0.148932 -2.2981,1.223079 -2.4297,2.556641 -0.018,0.18475 -0.014,0.419993 -0.014,0.564453 v 2.783203 c 0,0.146125 0,0.380089 0.014,0.560547 v 0.002 0.002 c 0.1317,1.334195 1.1401,2.408486 2.4316,2.556641 0.1926,0.02208 0.4269,0.01758 0.5703,0.01758 h 4.4434 c 0.092,-8e-6 0.1821,0.02832 0.2559,0.08398 l 2.789,2.107422 c 0.3085,0.233202 0.7948,-0.0059 0.7989,-0.392578 l 0.043,-4.064453 v -0.002 c 0,-0.114476 0.018,-0.351465 0.024,-0.515625 v -0.0078 -0.347656 -2.783203 c 0,-0.146125 5e-4,-0.380089 -0.016,-0.560547 v -0.002 -0.002 c -0.1317,-1.3342 -1.14,-2.408499 -2.4317,-2.556641 -0.1925,-0.02206 -0.4268,-0.01563 -0.5703,-0.01563 z m 0,0.728516 h 5.3398 c 0.1488,0 0.3905,0.0025 0.4883,0.01367 0.9374,0.107512 1.6872,0.890087 1.7871,1.902343 0.01,0.111404 0.012,0.347213 0.012,0.492188 v 2.783203 0.341797 c 0,0.129543 -0.025,0.35538 -0.025,0.529297 l -0.039,3.597656 -2.4219,-1.828125 c -0.2003,-0.151286 -0.4442,-0.232443 -0.6953,-0.232422 h -4.4434 c -0.1487,0 -0.3904,-0.0025 -0.4882,-0.01367 -0.9373,-0.107517 -1.6872,-0.890094 -1.7871,-1.902343 -0.01,-0.111404 -0.012,-0.347213 -0.012,-0.492188 v -2.783203 c 0,-0.147206 0,-0.385542 0.012,-0.492188 v -0.002 c 0.1006,-1.010666 0.8511,-1.792156 1.7871,-1.90039 4e-4,-4.5e-5 0,4.4e-5 0,0 0.098,-0.01108 0.3362,-0.01367 0.4844,-0.01367 z"
       id="rect19852" /><g
       id="g49520"
       style="display:none"><path
         id="path30452"
         style="color:#000000;display:inline;fill:url(#linearGradient26823);stroke-width:0.991789;stroke-linecap:round;stroke-miterlimit:2.4"
         d="m 1461.9022,-41.406581 c 0,-1.6e-5 0,-3.2e-5 0,-4.7e-5 0,-0.912883 0,-0.476268 0,4.7e-5 z m -0.01,0.265302 c 0,-1.31e-4 0,-2.63e-4 0,-3.94e-4 0,0.828547 0,2.411224 10e-5,5.23347 0.023,0.862074 0.7611,1.841797 1.8808,1.841797 h 5.7188 c 0.5217,0 0.5291,0.527344 -0.047,0.527344 h -5.8476 c -1.4687,0 -2.2805,-1.221458 -2.2461,-2.507813 v -0.002 -0.0039 -0.0059 c 0,-0.009 -0.01,-0.05812 -0.01,-0.146484 v -4.244141 l 0,-0.333984 c 0,-0.315258 0.01,-0.632813 0.2675,-0.632813 0.3075,0 0.2812,0.309171 0.2813,0.628907 0,0.0114 0,-0.149352 -10e-5,-0.35417 z" /><path
         id="rect26758-6"
         style="color:#000000;display:inline;fill:url(#linearGradient30358);stroke-width:0.991798;stroke-linecap:round;stroke-miterlimit:2.4"
         d="m 1466.9238,-43.414062 -1.7519,0.01172 c -0.7497,0 -1.291,0.710339 -1.291,1.503906 v 4.234376 c -3e-4,0.08255 0.012,0.125487 0.012,0.123046 -2e-4,0.0046 -4e-4,0.0082 0,0.0039 -0.083,0.898683 0.4937,1.634765 1.3867,1.634765 h 5.0605 c 0.9391,0 1.8174,-0.815773 1.9942,-1.78125 l 0.4512,-2.466797 c 0.1786,-0.975937 -0.4115,-1.804687 -1.3633,-1.804687 h -1.8028 c -0.012,-0.0017 -0.025,-0.0016 -0.033,-0.002 -0.1526,-0.0076 -0.3638,-0.08513 -0.4043,-0.101563 -0.1548,-0.06287 -0.3345,-0.164708 -0.5019,-0.326172 -0.1576,-0.265549 -0.2718,-0.523916 -0.5195,-0.724609 -0.2769,-0.224387 -0.6557,-0.308569 -1.2305,-0.304687 h -0 z m 0,0.693359 c 0.509,-0.0035 0.6866,0.06179 0.791,0.146484 0.1122,0.0909 0.2094,0.287314 0.4141,0.617188 l 0,0.002 h -1.7754 c -0.7707,0 -1.453,0.581198 -1.7871,1.310547 v -1.253907 c 0,-0.491256 0.3034,-0.810545 0.5996,-0.810546 z m -0.6679,1.453125 h 3.2812 c 0.013,3.38e-4 0.01,7.54e-4 0.023,0 0,0 0,0.0015 0.01,0 h 1.7442 c 0.5251,0 0.8891,0.460742 0.7734,1.09375 l -0.4531,2.466797 c -0.1176,0.643095 -0.6651,1.11914 -1.2032,1.11914 h -5.0586 c -0.525,0 -0.8872,-0.462512 -0.7714,-1.095703 l 0.4511,-2.466797 c 0.1176,-0.643067 0.6651,-1.117187 1.2032,-1.117187 z" /><text
         xml:space="preserve"
         style="font-style:normal;font-variant:normal;font-weight:bold;font-stretch:normal;font-size:3.555px;font-family:'Courier Prime Sans';-inkscape-font-specification:'Courier Prime Sans, Bold';font-variant-ligatures:normal;font-variant-caps:normal;font-variant-numeric:normal;font-variant-east-asian:normal;display:inline;fill:url(#linearGradient6101);fill-opacity:1;stroke:none;stroke-width:0.730001;stroke-linecap:round;stroke-miterlimit:2.4;stroke-dasharray:none;stroke-opacity:1"
         x="1465.222"
         y="-37.877598"
         id="text26803"><tspan
           id="tspan26801"
           style="font-style:normal;font-variant:normal;font-weight:bold;font-stretch:normal;font-size:3.555px;font-family:'Courier Prime Sans';-inkscape-font-specification:'Courier Prime Sans, Bold';font-variant-ligatures:normal;font-variant-caps:normal;font-variant-numeric:normal;font-variant-east-asian:normal;fill:url(#linearGradient6101);fill-opacity:1;stroke:none;stroke-width:0.730001"
           x="1465.222"
           y="-37.877598">###</tspan></text><path
         id="path33895"
         style="color:#000000;display:inline;fill:url(#linearGradient33903);stroke-width:0.991789;stroke-linecap:round;stroke-miterlimit:2.4"
         d="m 1462.5568,-41.258025 -2e-4,4.306106 c -2e-4,0.08235 0.01,0.129269 0.01,0.137691 -7e-4,0.0031 0,0.0063 0,0.0094 -0.034,1.226012 0.3996,2.048201 1.804,2.048201 h 5.8032 c 0.6058,0 0.6045,-0.597802 0.045,-0.597802 h -5.6836 c -1.0158,0 -1.3349,-0.544209 -1.3554,-1.32126 0,0 -10e-5,-4.843232 0,-4.897291 -10e-5,-0.293372 0.026,-0.639249 -0.3164,-0.639249 -0.2966,0 -0.3016,0.347775 -0.3016,0.642893 z" /></g><g
       id="g49513"
       style="display:none"><rect
         style="fill:url(#linearGradient1618);fill-opacity:1;stroke:none;stroke-width:0.730001;stroke-linecap:round;stroke-miterlimit:2.4;stroke-dasharray:none;stroke-opacity:1"
         id="rect46012"
         width="5.1449485"
         height="1.8097936"
         x="1464.4658"
         y="-39.389324"
         rx="1.040193"
         ry="0.9048968" /><rect
         style="fill:url(#linearGradient1618);fill-opacity:1;stroke:none;stroke-width:0.730001;stroke-linecap:round;stroke-miterlimit:2.4;stroke-dasharray:none;stroke-opacity:1"
         id="rect46080"
         width="10.406807"
         height="1.7773421"
         x="1461.8348"
         y="-35.154537"
         rx="0.97003472"
         ry="0.88867104" /><rect
         style="fill:url(#linearGradient1618);fill-opacity:1;stroke:none;stroke-width:0.730001;stroke-linecap:round;stroke-miterlimit:2.4;stroke-dasharray:none;stroke-opacity:1"
         id="rect46082"
         width="10.406807"
         height="1.7773421"
         x="1461.8348"
         y="-43.59166"
         rx="0.97003472"
         ry="0.88867104" /></g><g
       id="g59453"
       style="display:none"><path
         id="path55015"
         style="font-variation-settings:'wght' 600;display:none;fill:url(#linearGradient1618);stroke-width:0.457999;stroke-linecap:round;stroke-miterlimit:2.4"
         d="m 1466.7741,-44.411794 c -1.0224,0.120505 -1.8335,0.931515 -1.954,1.953928 -0.017,0.145081 -0.1305,0.292532 -0.2723,0.327656 l -2.5854,0.640201 a 0.29794671,0.29794671 124.48602 0 0 -0.224,0.32614 l 0.047,0.377185 a 0.29968765,0.29968765 41.440114 0 0 0.2974,0.262543 l 3.207,0 h 1.4836 1.4841 3.7357 a 0.29985248,0.29985248 138.57552 0 0 0.2975,-0.262525 l 0.047,-0.377221 a 0.29778305,0.29778305 55.529611 0 0 -0.2239,-0.326122 l -2.5854,-0.640201 c -0.1418,-0.03512 -0.2552,-0.182538 -0.2723,-0.327576 -0.1205,-1.022609 -0.9318,-1.833724 -1.9544,-1.954058 -0.1451,-0.01707 -0.383,-0.01704 -0.5281,5e-5 z m 0.527,0.855396 c 0.5553,0.106602 0.993,0.54422 1.0996,1.099533 0.028,0.143316 -0.094,0.263058 -0.2397,0.263058 h -0.8583 -1.3875 c -0.1461,0 -0.2672,-0.119719 -0.2397,-0.263009 0.1066,-0.55532 0.5442,-0.992951 1.0995,-1.099573 0.1434,-0.02752 0.3828,-0.02752 0.5261,-9e-6 z m -4.1315,3.857109 1.156,6.541009 a 0.31543956,0.31543956 39.989138 0 0 0.3106,0.260546 h 4.8038 a 0.31546155,0.31546155 140.01283 0 0 0.3107,-0.260543 l 1.1563,-6.541015 a 0.22191084,0.22191084 50.012829 0 0 -0.2185,-0.260543 h -7.3003 a 0.22192631,0.22192631 129.98914 0 0 -0.2186,0.260546 z m 1.8712,0.596766 h 0.3168 a 0.31299638,0.31299638 40.208636 0 1 0.3086,0.260891 l 0.8148,4.825695 a 0.22365862,0.22365862 130.20864 0 1 -0.2206,0.260891 h -0.3168 a 0.31299638,0.31299638 40.208636 0 1 -0.3086,-0.260891 l -0.8148,-4.825695 a 0.22365862,0.22365862 130.20864 0 1 0.2206,-0.260891 z m 3.7006,0 h 0.3167 a 0.2218158,0.2218158 50.024912 0 1 0.2184,0.260524 l -0.8553,4.826429 a 0.31559671,0.31559671 140.02491 0 1 -0.3108,0.260524 h -0.3168 a 0.22181172,0.22181172 50.025432 0 1 -0.2184,-0.260523 l 0.8554,-4.826431 a 0.31560252,0.31560252 140.02543 0 1 0.3108,-0.260523 z" /><path
         id="path55021"
         style="color:#000000;display:inline;fill:url(#linearGradient1618);stroke-linecap:round;stroke-miterlimit:2.4;-inkscape-stroke:none"
         d="m 1463.0153,-39.608786 c -0.9294,-0.08249 -1.5159,-0.735481 -1.5887,-1.684415 -0.018,-0.18475 -0.073,-2.677814 -0.073,-2.677814 h 0.7271 l 0.056,2.481242 c 0.056,0.752363 0.3858,1.113173 1.0964,1.17401 0.098,0.01108 7.629,3.61e-4 7.629,3.61e-4 0.7128,-0.06048 1.0182,-0.422485 1.0742,-1.174593 0.01,-0.111404 0.056,-2.480987 0.056,-2.480987 h 0.7307 l -0.074,2.678166 c -0.074,0.949286 -0.6376,1.602945 -1.5684,1.684733 -0.096,0.01103 -8.0659,-7.03e-4 -8.0659,-7.03e-4 z" /><path
         id="path55021-0"
         style="color:#000000;display:inline;fill:url(#linearGradient1618);stroke-linecap:round;stroke-miterlimit:2.4;-inkscape-stroke:none"
         d="m 1463.0153,-37.360072 c -0.9294,0.08249 -1.5159,0.735481 -1.5887,1.684415 -0.018,0.18475 -0.073,2.677814 -0.073,2.677814 h 0.7271 l 0.056,-2.481242 c 0.056,-0.752363 0.3858,-1.113173 1.0964,-1.17401 0.098,-0.01108 5.9686,-3.61e-4 5.9686,-3.61e-4 0.7128,0.06048 2.6786,1.406733 2.7346,2.158841 0.01,0.111404 0.056,1.496739 0.056,1.496739 h 0.7307 l -0.074,-1.693918 c -0.074,-0.949286 -2.298,-2.587193 -3.2288,-2.668981 -0.096,-0.01103 -6.4055,7.03e-4 -6.4055,7.03e-4 z" /><path
         id="path55060"
         style="color:#000000;display:inline;fill:url(#linearGradient1618);stroke-linecap:round;stroke-miterlimit:2.4;-inkscape-stroke:none"
         d="m 1468.8228,-36.670469 0.032,1.136882 c 0.074,0.949299 0.6375,1.602852 1.5683,1.684652 0.032,0.0037 1.049,0.0043 2.2629,0.0041 v -0.709518 c -0.8064,-9.14e-4 -2.0448,-0.0021 -2.0448,-0.0021 -0.7128,-0.061 -1.0178,-0.422506 -1.0738,-1.174605 0,-0.04444 -0.014,-0.470079 -0.024,-0.939478 z" /><rect
         style="fill:url(#linearGradient1618);fill-opacity:1;stroke:none;stroke-width:0.730001;stroke-linecap:round;stroke-miterlimit:2.4;stroke-dasharray:none;stroke-opacity:1"
         id="rect55096"
         width="11.174309"
         height="0.71590316"
         x="1461.4512"
         y="-38.842381"
         rx="0.29189634"
         ry="0.71590316" /></g><path
       id="rect59455"
       style="display:none;fill:url(#linearGradient3476);fill-opacity:1;stroke:none;stroke-width:0.729999;stroke-linecap:round;stroke-miterlimit:2.4;stroke-dasharray:none;stroke-opacity:1"
       d="m 1462.6559,-39.982921 c -0.054,0.08951 -0.049,0.301328 -0.049,0.447453 l 0,0.520825 a 0.26458333,0.26458333 135 0 1 -0.2646,0.264583 h -0.5207 c -0.1461,0 -0.4041,-0.0067 -0.5047,0.09404 -0.073,0.07301 -0.062,0.315548 0.057,0.387838 0.089,0.05416 0.3014,0.0494 0.4475,0.0494 l 0.5207,0 a 0.26458333,0.26458333 45 0 1 0.2646,0.264583 l 0,0.520825 c 0,0.146125 -0.01,0.404075 0.094,0.504694 0.073,0.07289 0.3155,0.06221 0.3878,-0.05731 0.054,-0.08949 0.049,-0.301257 0.049,-0.447382 v -0.520825 a 0.26458333,0.26458333 135 0 1 0.2646,-0.264583 h 0.521 c 0.1461,0 0.4041,0.0067 0.5047,-0.0942 0.073,-0.07301 0.062,-0.315404 -0.057,-0.387718 -0.089,-0.0541 -0.3012,-0.04936 -0.4473,-0.04936 h -0.521 a 0.26458333,0.26458333 45 0 1 -0.2646,-0.264583 v -0.520825 c 0,-0.146125 0.01,-0.404069 -0.094,-0.5047 -0.073,-0.07287 -0.3154,-0.06226 -0.3878,0.05725 z" /><g
       aria-label="A"
       transform="matrix(0.53687806,0,0,0.53687806,-1501.6471,42.977105)"
       id="text63007"
       style="font-size:29.3333px;font-family:'Courier New';-inkscape-font-specification:'Courier New, Normal';white-space:pre;display:none;fill:url(#linearGradient1618);stroke-width:1.35972;stroke-linecap:round;stroke-miterlimit:2.4"><path
         d="m 5533.4726,-148.95327 h -7.9062 l -1.6185,4.39713 h 1.3204 c 0.2865,0 0.4918,0.0573 0.6159,0.17188 0.1241,0.10503 0.1862,0.24826 0.1862,0.42969 0,0.17187 -0.062,0.3151 -0.1862,0.42968 -0.1241,0.11459 -0.3294,0.17188 -0.6159,0.17188 h -3.5118 c -0.2865,0 -0.4918,-0.0573 -0.6159,-0.17188 -0.1241,-0.11458 -0.1862,-0.25781 -0.1862,-0.42968 0,-0.18143 0.062,-0.32466 0.1862,-0.42969 0.1241,-0.11459 0.3294,-0.17188 0.6159,-0.17188 h 0.931 l 5.3138,-14.35154 h -0.5952 c -0.2865,0 -0.4918,-0.0525 -0.6159,-0.15755 -0.1241,-0.11459 -0.1862,-0.26259 -0.1862,-0.44401 0,-0.18143 0.062,-0.32466 0.1862,-0.42969 0.1241,-0.11459 0.3294,-0.17188 0.6159,-0.17188 h 3.1017 l 5.8724,15.55467 h 0.931 c 0.2865,0 0.4918,0.0573 0.6159,0.17188 0.1241,0.10503 0.1862,0.24826 0.1862,0.42969 0,0.17187 -0.062,0.3151 -0.1862,0.42968 -0.1241,0.11459 -0.3294,0.17188 -0.6159,0.17188 h -3.4975 c -0.296,0 -0.5061,-0.0573 -0.6302,-0.17188 -0.1241,-0.11458 -0.1862,-0.25781 -0.1862,-0.42968 0,-0.18143 0.062,-0.32466 0.1862,-0.42969 0.1241,-0.11459 0.3342,-0.17188 0.6302,-0.17188 h 1.3061 z m -0.4583,-1.20312 -3.3229,-8.75129 h -0.444 l -3.2227,8.75129 z"
         style="stroke-width:0.670093"
         id="path63013" /></g><path
       id="rect1960"
       style="display:none;fill:url(#linearGradient3482);fill-opacity:1;stroke-width:0.730001;stroke-linecap:round;stroke-miterlimit:2.4"
       d="m 1471.3443,-42.786601 c -0.066,0.0013 -0.1319,0.009 -0.1985,0.02328 l -0.5095,0.109152 1.5549,1.535 0.1816,-0.03893 c 0.018,-0.0039 0.038,-0.0087 0.056,-0.01336 0.018,-0.0048 0.036,-0.01004 0.054,-0.01565 0,-10e-4 0.01,-0.0031 0.01,-0.0035 l -0.1885,-0.867111 c -0.095,-0.442072 -0.5021,-0.738311 -0.9598,-0.728953 z m -1.9713,0.402642 -1.2075,0.258378 1.5544,1.535382 1.2072,-0.258759 z m -2.4712,0.529351 -1.0777,0.230516 c -0.01,0.0017 -0.016,0.0041 -0.024,0.0061 l 1.5537,1.534619 1.1026,-0.236241 z m -1.8525,1.013283 c -0.018,0.108739 -0.017,0.221805 0.01,0.335471 l 0.1893,0.873599 0.8442,-0.180902 z m 0.2015,1.560952 4e-4,3.82e-4 v 1.576218 l 0.8816,-1.570112 h -0.7579 c -0.019,0 -0.038,-2.88e-4 -0.058,-0.0012 -0.019,-8.13e-4 -0.038,-0.0022 -0.056,-0.0038 0,-2.9e-4 -0.01,-0.0012 -0.01,-0.0016 z m 2.2308,0.0065 -0.8867,1.57889 h -1.3437 v 1.942222 c 0,0.516693 0.4394,0.932755 0.985,0.932755 h 5.442 c 0.5456,0 0.9847,-0.416062 0.9847,-0.932755 v -1.942222 -1.501034 l -0.8431,1.501034 h -1.3488 l 0.8866,-1.57889 h -1.285 l -0.8866,1.57889 h -1.3488 l 0.8867,-1.57889 z" /><path
       id="rect15642"
       style="display:none;fill:url(#linearGradient15648);fill-opacity:1;stroke-width:0.730001;stroke-linecap:round;stroke-miterlimit:2.4"
       d="m 1469.3063,-43.124157 c -0.037,0.0056 -0.074,0.0122 -0.1108,0.01981 -0.143,0.02949 -0.3674,0.10701 -0.5059,0.153721 l -2.5346,0.855071 c -0.1385,0.04671 -0.364,0.12098 -0.4956,0.184216 -0.8747,0.420171 -1.3513,1.3823 -1.1558,2.332769 0.029,0.14306 0.107,0.367513 0.1537,0.505973 l 0.6255,1.854527 c 0.047,0.13846 0.15,0.150771 0.2509,0.04533 0.06,-0.0628 0.1259,-0.121116 0.196,-0.171997 0.3777,-0.181232 0.3777,-0.181232 0.3777,-0.181232 0.3636,-0.04176 0.4683,-0.03592 0.5628,-0.02389 0.1444,0.01837 0.3666,0.102863 0.4978,0.166885 0.017,0.0084 -0.014,-0.09416 -0.071,-0.228982 l -0.7667,-1.83412 c -0.056,-0.134818 -0.1483,-0.353183 -0.2047,-0.487988 -0.03,-0.07199 -0.098,-0.241505 -0.1276,-0.38448 -0.016,-0.07629 -0.026,-0.156074 -0.03,-0.235659 -0.01,-0.145566 0.043,-0.38119 0.1066,-0.512321 0.068,-0.140827 0.1636,-0.265484 0.2702,-0.364632 0.1068,-0.09921 0.3184,-0.213174 0.4591,-0.251528 0.1046,-0.02853 0.2154,-0.04623 0.3193,-0.05214 0.1453,-0.0083 0.3813,0.0386 0.5117,0.10367 0.1377,0.06867 0.2588,0.163014 0.3544,0.262677 0.1009,0.105095 0.218,0.313248 0.2774,0.446675 0.012,0.02602 0.023,0.05196 0.034,0.07741 0.057,0.134227 0.1469,0.353419 0.2037,0.48803 l 0.088,0.207407 c 0.057,0.134611 0.1864,0.172149 0.3096,0.152264 0.1435,-0.01337 0.2374,-0.01226 0.3163,-0.0051 0.046,0.0041 0.083,0.01084 0.083,0.01084 0.1356,0.04278 0.2052,-0.0182 0.3218,-0.08209 0.3511,-0.126078 0.4631,-0.144492 0.5689,-0.150394 0.1454,-0.0081 0.3816,0.05352 0.4834,0.155234 0.068,0.06743 0.131,0.04426 0.1805,0.04426 0.3506,-0.124383 0.4614,-0.142102 0.5653,-0.148034 0.1453,-0.0083 0.3806,0.04026 0.5115,0.104384 0.036,0.01777 0.071,0.03692 0.1048,0.05674 0.1251,0.07422 0.1758,0.04157 0.1291,-0.09689 l -0.4535,-1.344984 c -0.047,-0.138463 -0.121,-0.364003 -0.1842,-0.495638 -0.3255,-0.677538 -0.976,-1.116391 -1.6945,-1.188917 -0.1453,-0.01467 -0.2643,-0.01001 -0.2644,-0.01004 z" /><path
       id="path15650"
       style="font-variation-settings:'wght' 700;display:none;fill:url(#linearGradient15656);fill-opacity:1;stroke:none;stroke-width:1.61687;stroke-linecap:round;stroke-linejoin:round;stroke-dasharray:none"
       d="m 1468.6177,-38.939633 c -0.01,0.05476 0,0.21976 0.056,0.355336 0.025,0.0646 0.093,0.225393 0.1497,0.360222 l 0.021,0.0515 c 0.028,0.06751 0.067,0.181605 0.056,0.25335 -0.011,0.0795 -0.1137,0.02999 -0.1635,-0.08792 l -0.9804,-2.32155 c -0.057,-0.134614 -0.1427,-0.356419 -0.2153,-0.483187 -0.034,-0.05986 -0.162,-0.19414 -0.3031,-0.224446 -0.051,-0.01102 -0.2188,-0.0057 -0.3459,0.06385 -0.06,0.03269 -0.1921,0.161937 -0.2226,0.302951 -0.011,0.05132 0,0.214058 0.054,0.349635 0.025,0.06459 0.093,0.225376 0.1497,0.360197 l 1.151,2.75337 a 11487.143,11487.143 67.313584 0 0 0.2041,0.488225 c 0.046,0.111036 0.1352,0.344784 0.043,0.448295 -0.01,0.01064 -0.02,0.02045 -0.031,0.0293 -0.1083,0.08599 -0.3556,-0.02411 -0.4872,-0.08757 l -0.5928,-0.285752 c -0.1316,-0.06346 -0.3428,-0.172179 -0.4798,-0.223047 -0.065,-0.0242 -0.2437,-0.05576 -0.3833,-0.01614 -0.024,0.0069 -0.048,0.01516 -0.071,0.02484 -0.1338,0.05588 -0.2965,0.240942 -0.3494,0.376457 -0.025,0.06418 -0.056,0.24255 -0.016,0.382087 0.01,0.02412 0.015,0.04781 0.025,0.07095 0.056,0.133892 0.2424,0.290804 0.372,0.357432 0.062,0.0319 0.2192,0.109063 0.3504,0.173472 0.4668,0.22921 1.2504,0.608027 1.9289,0.907155 0.1336,0.05892 0.3509,0.153445 0.4873,0.2058 0.065,0.02501 0.2319,0.08048 0.3758,0.105288 0.3319,0.05722 0.6147,0.01142 0.8643,-0.06544 0.1395,-0.04296 0.359,-0.132394 0.4939,-0.188588 0.064,-0.02675 0.2255,-0.09423 0.3603,-0.150584 l 0.5222,-0.218269 c 0.1348,-0.05636 0.3546,-0.14502 0.487,-0.207035 0.063,-0.02972 0.2171,-0.116572 0.3268,-0.212814 0.3301,-0.289738 0.5065,-0.719276 0.475,-1.15742 -0.01,-0.145538 -0.078,-0.374271 -0.1334,-0.509292 -0.027,-0.06472 -0.095,-0.226211 -0.151,-0.36103 l -0.2918,-0.698237 a 21256.859,21256.859 67.311887 0 0 -0.2042,-0.488219 16.832521,16.832521 68.211782 0 1 -0.1142,-0.285742 l -0.027,-0.06917 c -0.054,-0.135825 -0.1296,-0.367272 -0.2274,-0.474711 -0.01,-0.0086 -0.104,-0.107749 -0.245,-0.138065 -0.051,-0.01101 -0.2188,-0.0057 -0.3459,0.06383 -0.06,0.03269 -0.1921,0.162018 -0.2225,0.303052 -0.011,0.05121 -0,0.214875 0.053,0.348837 0,0.01082 0.024,0.05679 0.043,0.102681 0.024,0.05664 -0.031,0.08455 -0.1233,0.08782 -0.01,2.77e-4 -0.06,-0.10775 -0.116,-0.242571 l -0,-0.0056 c -0.056,-0.134821 -0.1418,-0.356811 -0.2144,-0.483566 -0.034,-0.05986 -0.162,-0.194113 -0.303,-0.224535 -0.052,-0.01112 -0.2194,-0.0058 -0.3465,0.06374 -0.06,0.03266 -0.1918,0.162017 -0.2222,0.303048 -0.011,0.05137 0,0.214143 0.054,0.349719 0.025,0.06461 0.093,0.225388 0.1498,0.360197 0.01,0.02259 -0,0.112592 -0.074,0.137891 -0.021,0.0077 -0.083,-0.09297 -0.1389,-0.227794 l -0.023,-0.05567 c -0.056,-0.134827 -0.1418,-0.35682 -0.2144,-0.483576 -0.034,-0.05986 -0.162,-0.194171 -0.303,-0.22463 -0,-10e-4 -0.01,-0.0019 -0.014,-0.0028 -0.044,-0.0081 -0.1174,-0.0089 -0.1616,-0.0017 -0.062,0.01008 -0.1722,0.07363 -0.2488,0.126019 -0.012,0.0083 -0.1231,0.09993 -0.1466,0.240117 z" /><path
       style="opacity:1;fill:#2e3439;fill-opacity:1;stroke-width:0.730001;stroke-linecap:round;stroke-miterlimit:2.4"
       d="m 1461.7263,-39.356302 10.7167,0.04619"
       id="path2795" /><path
       style="color:#000000;display:none;fill:url(#linearGradient1606);stroke-linecap:round;stroke-miterlimit:2.4;-inkscape-stroke:none"
       d="m 1466.8195,-41.873898 c -3.2321,0.123053 -4.8899,2.479477 -5.3397,3.234822 -0.075,0.125295 -0.1694,0.316568 -0.2202,0.422279 l 0.1211,0.175781 c 0.6917,0.864657 2.5187,2.830963 5.3943,2.94591 0.1456,0.0058 0.3824,0.0058 0.5284,3.27e-4 2.9498,-0.110455 4.724,-2.04434 5.2398,-2.695316 0.091,-0.114361 0.205,-0.283562 0.2632,-0.372014 l -0.072,-0.177735 c -0.5258,-1.010954 -2.0616,-3.412581 -5.3864,-3.534263 -0.1457,-0.0053 -0.3825,-0.0053 -0.5285,2.09e-4 z m 0.529,0.730357 c 2.8778,0.107501 4.1031,1.95631 4.4711,2.661084 0.068,0.12932 0.046,0.335546 -0.045,0.449445 -0.4809,0.598546 -1.929,2.10855 -4.471,2.207583 -0.1458,0.0057 -0.3826,0.0057 -0.5286,-4.92e-4 -2.4533,-0.104492 -3.9517,-1.640933 -4.455,-2.247586 -0.093,-0.112302 -0.1097,-0.313538 -0.035,-0.43898 0.416,-0.696648 1.7538,-2.52116 4.535,-2.630784 0.1458,-0.0057 0.3827,-0.0057 0.5287,-2.7e-4 z"
       id="path2797" /><path
       id="path2906"
       style="display:none;opacity:1;fill:url(#linearGradient1606);fill-opacity:1;stroke:none;stroke-width:0.730001;stroke-linecap:round;stroke-miterlimit:2.4;stroke-opacity:1"
       d="m 1467.0329,-40.995947 a 2.5117266,2.5117266 0 0 0 -1.1668,0.287837 1.1117926,1.1135104 0 0 1 0.06,-0.0031 1.1117926,1.1135104 0 0 1 1.1116,1.11311 1.1117926,1.1135104 0 0 1 -1.1116,1.113627 1.1117926,1.1135104 0 0 1 -1.112,-1.113627 1.1117926,1.1135104 0 0 1 0,-0.0708 2.5117266,2.5117266 0 0 0 -0.2971,1.184423 2.5117266,2.5117266 0 0 0 2.5114,2.511992 2.5117266,2.5117266 0 0 0 2.512,-2.511992 2.5117266,2.5117266 0 0 0 -2.512,-2.511474 z" /><g
       aria-label="{x}"
       transform="matrix(0.39005931,0,0,0.44107805,-694.01856,28.137077)"
       id="text1929"
       style="font-style:italic;font-size:18.6667px;font-family:'Courier Prime Sans';-inkscape-font-specification:'Courier Prime Sans, Italic';white-space:pre;shape-inside:url(#rect1931);fill:url(#linearGradient1606);stroke-width:1.75996;stroke-linecap:round;stroke-miterlimit:2.4"><path
         d="m 5533.3008,-159.53516 c -1.4103,0 -2.6011,0.31716 -3.4961,1.03321 -0.9146,0.73002 -1.4124,1.83832 -1.5801,3.2207 l -0.098,0.81836 c -0.1602,1.28151 -0.805,1.8457 -2.1993,1.8457 -0.333,0 -0.6832,0.08 -0.9687,0.34961 -0.2685,0.25193 -0.3834,0.62178 -0.4238,0.94141 -0.013,0.10383 -0.024,0.21557 -0.024,0.28906 0,0.28376 0.072,0.62883 0.3516,0.88672 l 0.012,0.0117 0.012,0.01 c 0.2577,0.218 0.595,0.26953 0.8496,0.26953 0.6867,0 1.0504,0.1203 1.2168,0.24805 0.1002,0.0751 0.2207,0.26226 0.2207,0.59766 0,0.1829 -0.027,0.40916 -0.092,0.69531 l -0.1914,0.84766 c -0.1072,0.46913 -0.164,0.92443 -0.164,1.36328 0,1.11278 0.3315,1.99878 1.1269,2.66015 0.7522,0.6269 1.7601,0.89844 2.9414,0.89844 0.3311,0 0.6779,-0.091 0.9571,-0.35937 0.275,-0.25601 0.3922,-0.60665 0.4335,-0.92578 l 0,-0.008 v -0.008 c 0.012,-0.11442 0.021,-0.22338 0.021,-0.29687 0,-0.26 -0.06,-0.61263 -0.3418,-0.8711 -0.2566,-0.23525 -0.6021,-0.28906 -0.8535,-0.28906 -0.6661,0 -1.0152,-0.12059 -1.2071,-0.27344 -0.1459,-0.11625 -0.2675,-0.32291 -0.2675,-0.74609 0,-0.20566 0.028,-0.45008 0.094,-0.75 l 0.2207,-1.02539 c 0.067,-0.32155 0.1055,-0.63339 0.1055,-0.91211 0,-0.94802 -0.5079,-1.6324 -1.211,-2.18164 0.4041,-0.22534 0.8955,-0.36935 1.1817,-0.70117 0.5289,-0.61315 0.8384,-1.39033 0.9629,-2.28907 l 0.09,-0.65429 c 0.077,-0.54905 0.2045,-0.94047 0.3574,-1.20704 0.1339,-0.23325 0.3295,-0.41083 0.5821,-0.52539 0.2635,-0.12348 0.6537,-0.20507 1.207,-0.20507 0.3234,0 0.6808,-0.0781 0.9609,-0.3418 l 0.01,-0.008 0.01,-0.01 c 0.2526,-0.2534 0.3652,-0.61475 0.4062,-0.93164 0.012,-0.0981 0.024,-0.18942 0.024,-0.2793 0,-0.29682 -0.086,-0.63779 -0.375,-0.89257 -0.2618,-0.2336 -0.594,-0.29493 -0.8594,-0.29493 z m 0.8594,0.29493 c 0,0.004 0.01,0.002 0.014,0.006 l -0.019,-0.0176 c 0,0.003 0,0.008 0.01,0.0117 z m -2.4082,16.33203 c -0.01,0.005 -0,0.0142 -0.01,0.0195 l 0.029,-0.0274 c -0.01,0.006 -0.014,0.002 -0.019,0.008 z"
         id="path2063"
         style="fill:url(#linearGradient1606)" /><path
         d="m 5537.9414,-155.58789 c -0.2529,0 -0.5388,0.0876 -0.7812,0.19336 -9e-4,3.4e-4 -0,0.002 -0,0.002 -0.4438,0.18699 -0.8965,0.54781 -0.8965,1.15625 0,0.29883 0.1008,0.54231 0.2656,0.75781 l 1.9336,2.73829 -3.1914,3.10937 c -0.2155,0.21565 -0.4121,0.51963 -0.4121,0.9043 0,0.55554 0.3861,0.88724 0.7539,1.0664 0.2471,0.12352 0.5293,0.21289 0.8164,0.21289 0.4452,0 0.8092,-0.19181 1.0996,-0.48242 l 2.6231,-2.59375 1.7246,2.49024 c 0.094,0.13643 0.2187,0.28248 0.373,0.39062 l 0.012,0.01 0.014,0.008 c 0.1902,0.12092 0.4001,0.17773 0.6172,0.17773 0.2106,0 0.5395,-0.0929 0.7852,-0.19531 0.4445,-0.19045 0.8847,-0.56689 0.8847,-1.16601 0,-0.27754 -0.1022,-0.5186 -0.2304,-0.71094 l -0,-0.008 -2.0469,-2.91993 3.0332,-2.94726 c 0.2147,-0.20544 0.4336,-0.51106 0.4336,-0.90625 0,-0.55647 -0.3938,-0.89427 -0.7734,-1.07617 -0.2502,-0.12384 -0.5278,-0.21094 -0.8165,-0.21094 -0.4459,0 -0.8037,0.19433 -1.0878,0.47851 l -2.4825,2.42969 -1.6308,-2.32226 c -0.091,-0.1327 -0.2229,-0.28369 -0.3926,-0.39649 -0.2016,-0.13714 -0.4197,-0.18945 -0.6211,-0.18945 z m 0.6211,0.18945 c 0,0.003 0.01,0.001 0.012,0.004 l -0.025,-0.0176 c 0.01,0.004 0.01,0.01 0.014,0.0137 z m 6.4102,0.0215 c 0,0.001 0.01,4.8e-4 0.01,0.002 l -0.014,-0.008 c 0,9.5e-4 0,0.005 0,0.006 z"
         id="path2060"
         style="fill:url(#linearGradient1606)" /><path
         d="m 5549.7988,-159.53516 c -0.333,0 -0.6851,0.0837 -0.9687,0.35157 -0.2669,0.25193 -0.3809,0.61715 -0.4219,0.93359 l -0,0.008 v 0.008 c -0.013,0.11457 -0.021,0.22339 -0.021,0.29688 0,0.2659 0.067,0.61698 0.3437,0.87109 0.2524,0.23139 0.6001,0.28907 0.8516,0.28907 0.6717,0 1.0124,0.12178 1.1855,0.26757 l 0,0.006 0.01,0.004 c 0.1335,0.1082 0.2617,0.32763 0.2617,0.77734 0,0.17465 -0.025,0.40866 -0.082,0.73828 l -0.1,0.55665 c -0.053,0.29885 -0.084,0.58878 -0.084,0.84765 0,0.97154 0.4894,1.68073 1.1758,2.24805 -0.4196,0.23134 -0.9216,0.38427 -1.2188,0.73242 -0.5351,0.61921 -0.8467,1.38697 -0.9726,2.2832 l -0.1446,1.07618 c -0.071,0.53888 -0.1981,0.92217 -0.3535,1.18554 l -0,0.006 -0,0.006 c -0.1353,0.2395 -0.3312,0.4184 -0.5801,0.53125 -0.2633,0.12342 -0.6537,0.20508 -1.2071,0.20508 -0.3187,0 -0.6773,0.0729 -0.9609,0.33984 l -0.01,0.008 -0.01,0.01 c -0.2554,0.25608 -0.3654,0.61713 -0.4063,0.9336 -0.012,0.0979 -0.023,0.18818 -0.023,0.27929 2e-4,0.28355 0.072,0.62882 0.3516,0.88672 l 0.01,0.01 0.01,0.008 c 0.2618,0.22431 0.5935,0.2832 0.8633,0.2832 1.4045,0 2.5916,-0.3174 3.4863,-1.0332 0.9173,-0.73379 1.4219,-1.8436 1.5898,-3.2207 l 0.1465,-1.18555 c 0.08,-0.64724 0.314,-1.10029 0.6348,-1.39258 0.3135,-0.28608 0.8143,-0.47852 1.5801,-0.47852 0.3233,0 0.6813,-0.0788 0.9629,-0.34374 0.271,-0.25664 0.3867,-0.61451 0.4296,-0.94727 0.013,-0.10384 0.024,-0.21557 0.024,-0.28906 0,-0.2789 -0.08,-0.6282 -0.3692,-0.88282 -0.2613,-0.23122 -0.5911,-0.29492 -0.8554,-0.29492 -0.6754,0 -1.0244,-0.11948 -1.1621,-0.22656 -0.1171,-0.0932 -0.2207,-0.25871 -0.2207,-0.62695 0,-0.16735 0.024,-0.38615 0.08,-0.69532 l 0.088,-0.46679 c 0.087,-0.43594 0.1328,-0.86356 0.1328,-1.28125 0,-1.11463 -0.3344,-2.05035 -1.0957,-2.70508 -0.7382,-0.64315 -1.7535,-0.91602 -2.9453,-0.91602 z m 5.9785,7.21289 c 0.01,0.005 0.012,9.8e-4 0.018,0.006 l -0.023,-0.0215 c 0.01,0.004 8e-4,0.0112 0.01,0.0156 z"
         id="path2057"
         style="fill:url(#linearGradient1606)" /></g></g></svg>
