<?xml version="1.0" encoding="UTF-8" standalone="no"?>
<!-- Created with Inkscape (http://www.inkscape.org/) -->

<svg
   width="48.000278"
   height="47.999989"
   viewBox="0 0 12.700074 12.699997"
   version="1.1"
   id="svg5"
   inkscape:version="1.2.1 (9c6d41e410, 2022-07-14)"
   sodipodi:docname="KednoiDesign.svg"
   xml:space="preserve"
   xmlns:inkscape="http://www.inkscape.org/namespaces/inkscape"
   xmlns:sodipodi="http://sodipodi.sourceforge.net/DTD/sodipodi-0.dtd"
   xmlns:xlink="http://www.w3.org/1999/xlink"
   xmlns="http://www.w3.org/2000/svg"
   xmlns:svg="http://www.w3.org/2000/svg"><sodipodi:namedview
     id="namedview7"
     pagecolor="#505050"
     bordercolor="#ffffff"
     borderopacity="1"
     inkscape:showpageshadow="0"
     inkscape:pageopacity="1"
     inkscape:pagecheckerboard="1"
     inkscape:deskcolor="#505050"
     inkscape:document-units="mm"
     showgrid="true"
     inkscape:zoom="0.1020182"
     inkscape:cx="2122.1703"
     inkscape:cy="1695.7758"
     inkscape:window-width="1920"
     inkscape:window-height="1002"
     inkscape:window-x="-8"
     inkscape:window-y="-8"
     inkscape:window-maximized="1"
     inkscape:current-layer="layer5"
     showguides="true"><inkscape:grid
       type="xygrid"
       id="grid132"
       visible="true"
       color="#ffffff"
       opacity="0.02352941"
       empcolor="#777777"
       empopacity="0.16470588"
       originx="0"
       originy="0"
       enabled="false" /></sodipodi:namedview><defs
     id="defs2"><linearGradient
       id="linearGradient26821"
       inkscape:swatch="solid"><stop
         style="stop-color:#000000;stop-opacity:1;"
         offset="0"
         id="stop26819" /></linearGradient><linearGradient
       id="linearGradient26807"
       inkscape:swatch="solid"><stop
         style="stop-color:#000000;stop-opacity:1;"
         offset="0"
         id="stop26805" /></linearGradient><linearGradient
       id="linearGradient19651"
       inkscape:swatch="solid"><stop
         style="stop-color:#000000;stop-opacity:1;"
         offset="0"
         id="stop19649" /></linearGradient><linearGradient
       id="linearGradient6477"
       inkscape:swatch="solid"
       gradientTransform="matrix(-1.6977076e-5,1.9736819e-5,4.3240248e-5,5.0269044e-5,193.40822,-1.2429071)"><stop
         style="stop-color:#f89568;stop-opacity:1;"
         offset="0"
         id="stop6475" /></linearGradient><linearGradient
       id="linearGradient9776"
       inkscape:swatch="solid"
       gradientTransform="matrix(9.0769027e-5,0,0,9.0769027e-5,-0.51055264,0.83863903)"><stop
         style="stop-color:#b2b7be;stop-opacity:1;"
         offset="0"
         id="stop9774" /></linearGradient><linearGradient
       id="linearGradient1642"
       inkscape:swatch="solid"
       gradientTransform="matrix(0.53491831,0,0,1.6710713,578.25432,638.40486)"><stop
         style="stop-color:#75c590;stop-opacity:1;"
         offset="0"
         id="stop1640" /></linearGradient><linearGradient
       id="linearGradient1636"
       inkscape:swatch="solid"
       gradientTransform="matrix(2.372496e-4,0,0,-2.7055498e-4,-99.855184,269.11388)"><stop
         style="stop-color:#f0b762;stop-opacity:1;"
         offset="0"
         id="stop1634" /></linearGradient><linearGradient
       id="linearGradient1630"
       inkscape:swatch="solid"
       gradientTransform="matrix(0.30427083,0,0,0.29793192,-77.004766,47.015341)"><stop
         style="stop-color:#548ed0;stop-opacity:1;"
         offset="0"
         id="stop1628" /></linearGradient><linearGradient
       id="linearGradient1624"
       inkscape:swatch="solid"
       gradientTransform="matrix(0,0,0,0,-2192.7255,364.95949)"><stop
         style="stop-color:#f06262;stop-opacity:1;"
         offset="0"
         id="stop1622" /></linearGradient><linearGradient
       id="linearGradient1618"
       inkscape:swatch="solid"
       gradientTransform="matrix(6.579884e-5,0,0,6.901312e-5,23.758333,12.672833)"><stop
         style="stop-color:#272932;stop-opacity:1;"
         offset="0"
         id="stop1616" /></linearGradient><linearGradient
       id="linearGradient1612"
       inkscape:swatch="solid"
       gradientTransform="matrix(7.6147856e-4,-1.3570623e-4,-1.9460236e-4,-5.0413612e-4,576.71913,-15.022291)"><stop
         style="stop-color:#424c55;stop-opacity:1;"
         offset="0"
         id="stop1610" /></linearGradient><linearGradient
       id="linearGradient1606"
       inkscape:swatch="solid"
       gradientTransform="matrix(0.0050977,0,0,0.00503612,-34.077088,-601.94435)"><stop
         style="stop-color:#59656f;stop-opacity:1;"
         offset="0"
         id="stop1604" /></linearGradient><linearGradient
       id="linearGradient1600"
       gradientTransform="matrix(-1.4661263e-5,-3.0196091e-6,8.8953209e-7,-4.3189906e-6,-575.51279,-2119.7064)"
       inkscape:swatch="solid"><stop
         style="stop-color:#f9efdf;stop-opacity:1;"
         offset="0"
         id="stop1598" /></linearGradient><linearGradient
       id="linearGradient1594"
       inkscape:swatch="solid"
       gradientTransform="matrix(-8.108782e-5,-8.108782e-5,8.2436551e-5,-8.2436551e-5,1159.1418,-358.45006)"><stop
         style="stop-color:#eddab7;stop-opacity:1;"
         offset="0"
         id="stop1592" /></linearGradient><linearGradient
       inkscape:collect="always"
       xlink:href="#linearGradient1618"
       id="linearGradient26823"
       x1="1454.9746"
       y1="-38.373856"
       x2="1465.9536"
       y2="-38.373856"
       gradientUnits="userSpaceOnUse"
       gradientTransform="matrix(0.97590069,0,-0.17570508,0.95995306,35.167954,-0.70725215)" /><linearGradient
       inkscape:collect="always"
       xlink:href="#linearGradient1618"
       id="linearGradient30358"
       gradientUnits="userSpaceOnUse"
       gradientTransform="matrix(0.84285982,0,-0.15175187,0.82908627,231.15051,-6.7602214)"
       x1="1454.9746"
       y1="-38.373856"
       x2="1465.9536"
       y2="-38.373856" /><linearGradient
       inkscape:collect="always"
       xlink:href="#linearGradient1618"
       id="linearGradient33845"
       gradientUnits="userSpaceOnUse"
       gradientTransform="matrix(0.32519137,0,0,0.32519137,986.79858,-24.281023)"
       x1="1470.1534"
       y1="-43.787701"
       x2="1478.493"
       y2="-43.787701" /></defs><g
     inkscape:groupmode="layer"
     id="layer6"
     inkscape:label="Icons"
     transform="translate(-1460.6882,44.834427)"><path
       id="path30452"
       style="color:#000000;fill:url(#linearGradient26823);stroke-width:0.991791;stroke-linecap:round;stroke-miterlimit:2.4"
       d="m 1461.4897,-41.387285 -2e-4,4.670925 c -2e-4,0.09712 0.01,0.152454 0.01,0.162388 -8e-4,0.0036 0,0.0074 0,0.0111 -0.04,1.445917 0.8787,2.823131 2.5352,2.823131 h 6.4365 c 0.7144,0 0.7129,-0.705027 0.052,-0.705027 h -6.2954 c -1.198,0 -1.9819,-1.049375 -2.0061,-1.965802 0,0 -10e-5,-5.304392 0,-5.368147 -10e-5,-0.345994 0.031,-0.75391 -0.3731,-0.75391 -0.3499,0 -0.3558,0.410154 -0.3558,0.758207 z"
       sodipodi:nodetypes="ccccsscsccscc" /><path
       id="rect26758-6"
       style="color:#000000;display:inline;fill:url(#linearGradient30358);stroke-width:0.991798;stroke-linecap:round;stroke-miterlimit:2.4"
       d="m 1466.35,-43.507813 -1.9583,0.01307 c -0.7871,0 -1.3646,0.749467 -1.3646,1.600246 v 4.731052 c -3e-4,0.08388 0.01,0.131669 0.01,0.140248 a 0.30764425,0.30764425 0 0 0 0,0.0096 c -0.09,0.963075 0.522,1.74137 1.4718,1.74137 h 5.6531 c 1.0095,0 1.962,-0.879219 2.1534,-1.925175 l 0.5043,-2.756223 c 0.1915,-1.045956 -0.4386,-1.925175 -1.4482,-1.925175 h -2.0253 a 0.30764425,0.30764425 0 0 0 -0.03,-0.0026 c 0,0 -0.5745,-0.02737 -1.0632,-0.498716 -0.1843,-0.307372 -0.3057,-0.58741 -0.5763,-0.806657 -0.2883,-0.233783 -0.69,-0.32529 -1.3245,-0.321008 h -4e-4 z m 0,0.615881 c 0.5763,-0.004 0.7956,0.07087 0.9333,0.1825 0.1378,0.111628 0.2519,0.341645 0.4791,0.707785 l 0.019,0.03136 0.026,0.02657 c 0.022,0.02254 0.047,0.04383 0.07,0.0649 h -2.1634 c -0.912,0 -1.7759,0.717497 -2.0754,1.627252 l -10e-5,-1.642933 c 0,-0.580652 0.3657,-0.984364 0.7492,-0.984364 z m -0.7479,1.623333 h 3.6691 c 0.01,3.52e-4 0.019,0.0014 0.019,0.0014 a 0.30764425,0.30764425 0 0 0 0.017,-0.0014 h 1.9487 c 0.6414,0 1.0767,0.565206 0.9395,1.314955 l -0.5044,2.756223 c -0.1372,0.74975 -0.7797,1.316261 -1.4212,1.316261 h -5.6532 c -0.6414,0 -1.0749,-0.566511 -0.9377,-1.316261 l 0.5049,-2.756223 c 0.1372,-0.749749 0.7775,-1.314955 1.419,-1.314955 z" /><text
       xml:space="preserve"
       style="font-style:normal;font-variant:normal;font-weight:bold;font-stretch:normal;font-size:5.66746px;font-family:'Courier Prime Sans';-inkscape-font-specification:'Courier Prime Sans, Bold';font-variant-ligatures:normal;font-variant-caps:normal;font-variant-numeric:normal;font-variant-east-asian:normal;display:inline;fill:url(#linearGradient33845);fill-opacity:1;stroke:none;stroke-width:0.730001;stroke-linecap:round;stroke-miterlimit:2.4;stroke-dasharray:none;stroke-opacity:1"
       x="1464.5421"
       y="-36.842026"
       id="text26803"><tspan
         sodipodi:role="line"
         id="tspan26801"
         style="font-style:normal;font-variant:normal;font-weight:bold;font-stretch:normal;font-size:5.66746px;font-family:'Courier Prime Sans';-inkscape-font-specification:'Courier Prime Sans, Bold';font-variant-ligatures:normal;font-variant-caps:normal;font-variant-numeric:normal;font-variant-east-asian:normal;fill:url(#linearGradient33845);fill-opacity:1;stroke:none;stroke-width:0.730001"
         x="1464.5421"
         y="-36.842026">##</tspan></text></g></svg>
