<?xml version="1.0" encoding="UTF-8" standalone="no"?>
<!-- Created with Inkscape (http://www.inkscape.org/) -->

<svg
   width="48.000278"
   height="47.999989"
   viewBox="0 0 12.700074 12.699997"
   version="1.1"
   id="svg5"
   inkscape:version="1.2.1 (9c6d41e410, 2022-07-14)"
   sodipodi:docname="KednoiDesign.svg"
   xml:space="preserve"
   xmlns:inkscape="http://www.inkscape.org/namespaces/inkscape"
   xmlns:sodipodi="http://sodipodi.sourceforge.net/DTD/sodipodi-0.dtd"
   xmlns:xlink="http://www.w3.org/1999/xlink"
   xmlns="http://www.w3.org/2000/svg"
   xmlns:svg="http://www.w3.org/2000/svg"><sodipodi:namedview
     id="namedview7"
     pagecolor="#505050"
     bordercolor="#ffffff"
     borderopacity="1"
     inkscape:showpageshadow="0"
     inkscape:pageopacity="1"
     inkscape:pagecheckerboard="1"
     inkscape:deskcolor="#505050"
     inkscape:document-units="mm"
     showgrid="true"
     inkscape:zoom="11.72619"
     inkscape:cx="5532.9138"
     inkscape:cy="-149.23858"
     inkscape:window-width="1920"
     inkscape:window-height="1002"
     inkscape:window-x="-8"
     inkscape:window-y="-8"
     inkscape:window-maximized="1"
     inkscape:current-layer="layer6"
     showguides="false"><inkscape:grid
       type="xygrid"
       id="grid132"
       visible="true"
       color="#ffffff"
       opacity="0.02352941"
       empcolor="#777777"
       empopacity="0.16470588"
       originx="0"
       originy="0"
       enabled="false" /></sodipodi:namedview><defs
     id="defs2"><inkscape:path-effect
       effect="fillet_chamfer"
       id="path-effect3125"
       is_visible="true"
       lpeversion="1"
       nodesatellites_param="F,0,0,1,0,0.26458333,0,1 @ F,0,0,1,0,0.26458333,0,1 @ F,0,0,1,0,0.26458333,0,1 @ F,0,0,1,0,0.26458333,0,1 @ F,0,0,1,0,0.26458333,0,1 @ F,0,0,1,0,0.26458333,0,1 @ F,0,0,1,0,0.26458333,0,1 @ F,0,0,1,0,0.26458333,0,1 @ F,0,0,1,0,0.26458333,0,1 @ F,0,0,1,0,0.26458333,0,1 @ F,0,0,1,0,0.26458333,0,1 @ F,0,0,1,0,0.26458333,0,1 | F,0,0,1,0,0.26458333,0,1 @ F,0,0,1,0,0.26458333,0,1 @ F,0,0,1,0,0.26458333,0,1 @ F,0,0,1,0,0.26458333,0,1 @ F,0,0,1,0,0.26458333,0,1 @ F,0,0,1,0,0.26458333,0,1 @ F,0,0,1,0,0.26458333,0,1 | F,0,0,1,0,0.26458333,0,1 @ F,0,0,1,0,0.26458333,0,1 @ F,0,0,1,0,0.26458333,0,1 @ F,0,0,1,0,0.26458333,0,1 @ F,0,0,1,0,0.26458333,0,1 @ F,0,0,1,0,0.26458333,0,1 @ F,0,0,1,0,0.26458333,0,1 | F,0,0,1,0,0.26458333,0,1 @ F,0,0,1,0,0.26458333,0,1 @ F,0,0,1,0,0.26458333,0,1 @ F,0,0,1,0,0.26458333,0,1 @ F,0,0,1,0,0.26458333,0,1 @ F,0,0,1,0,0.26458333,0,1 @ F,0,0,1,0,0.26458333,0,1 @ F,0,0,1,0,0.26458333,0,1 @ F,0,0,1,0,0.26458333,0,1 @ F,0,0,1,0,0.26458333,0,1 @ F,0,0,1,0,0.26458333,0,1 @ F,0,0,1,0,0.26458333,0,1 @ F,0,0,1,0,0.26458333,0,1"
       unit="px"
       method="auto"
       mode="F"
       radius="1"
       chamfer_steps="1"
       flexible="false"
       use_knot_distance="true"
       apply_no_radius="true"
       apply_with_radius="true"
       only_selected="false"
       hide_knots="false" /><linearGradient
       id="linearGradient3027"
       inkscape:swatch="solid"><stop
         style="stop-color:#702416;stop-opacity:1;"
         offset="0"
         id="stop3025" /></linearGradient><linearGradient
       id="linearGradient2241"
       inkscape:swatch="solid"><stop
         style="stop-color:#000000;stop-opacity:1;"
         offset="0"
         id="stop2239" /></linearGradient><linearGradient
       id="linearGradient2235"
       inkscape:swatch="solid"><stop
         style="stop-color:#000000;stop-opacity:1;"
         offset="0"
         id="stop2233" /></linearGradient><linearGradient
       id="linearGradient8025"
       inkscape:swatch="solid"><stop
         style="stop-color:#000000;stop-opacity:1;"
         offset="0"
         id="stop8023" /></linearGradient><linearGradient
       id="linearGradient6477"
       inkscape:swatch="solid"
       gradientTransform="matrix(0.06015514,0.07345539,-0.15321334,0.18708865,1414.8289,-3879.798)"><stop
         style="stop-color:#f27e70;stop-opacity:1;"
         offset="0"
         id="stop6475" /></linearGradient><inkscape:path-effect
       effect="fillet_chamfer"
       id="path-effect2781"
       is_visible="true"
       lpeversion="1"
       nodesatellites_param="F,0,0,1,0,0.26458333,0,1 @ F,0,0,1,0,0.26458333,0,1 @ F,0,0,1,0,0.26458333,0,1 @ F,0,0,1,0,0.26458333,0,1 @ F,0,0,1,0,0.26458333,0,1 @ F,0,0,1,0,0.26458333,0,1 @ F,0,0,1,0,0.26458333,0,1 @ F,0,0,1,0,0.26458333,0,1 @ F,0,0,1,0,0.26458333,0,1 @ F,0,0,1,0,0.26458333,0,1"
       unit="px"
       method="auto"
       mode="F"
       radius="1"
       chamfer_steps="1"
       flexible="false"
       use_knot_distance="true"
       apply_no_radius="true"
       apply_with_radius="true"
       only_selected="false"
       hide_knots="false" /><inkscape:path-effect
       effect="fillet_chamfer"
       id="path-effect9686"
       is_visible="true"
       lpeversion="1"
       nodesatellites_param="F,0,0,1,0,0.26458333,0,1 @ F,0,0,1,0,0.26458333,0,1 @ F,0,0,1,0,0.26458333,0,1 @ F,0,0,1,0,0.13247225,0,1 @ F,0,1,1,0,0.23175592,0,1 @ F,0,0,1,0,0.26458333,0,1 @ F,0,0,1,0,0.26458333,0,1 @ F,0,0,1,0,0.26458333,0,1 @ F,0,0,1,0,0.26458333,0,1 @ F,0,0,1,0,0.26458333,0,1 @ F,0,0,1,0,0.26458333,0,1 @ F,0,0,1,0,0.26458333,0,1 @ F,0,0,1,0,0.26458333,0,1 @ F,0,0,1,0,0.26458333,0,1 @ F,0,0,1,0,0.26458333,0,1 @ F,0,0,1,0,0.26458333,0,1 @ F,0,0,1,0,0.26458333,0,1 @ F,0,0,1,0,0.26458333,0,1 @ F,0,0,1,0,0.26458333,0,1 @ F,0,0,1,0,0.26458333,0,1 @ F,0,0,1,0,0.26458333,0,1 @ F,0,0,1,0,0.26458333,0,1 @ F,0,0,1,0,0.26458333,0,1 @ F,0,0,1,0,0.26458333,0,1 @ F,0,0,1,0,0.26458333,0,1 @ F,0,0,1,0,0.26458333,0,1 @ F,0,0,1,0,0.26458333,0,1 @ F,0,0,1,0,0.26458333,0,1 @ F,0,0,1,0,0.26458333,0,1 @ F,0,0,1,0,0.26458333,0,1 @ F,0,0,1,0,0.26458333,0,1 @ F,0,0,1,0,0.26458333,0,1 @ F,0,0,1,0,0.26458333,0,1 @ F,0,0,1,0,0.26458333,0,1 @ F,0,0,1,0,0.26458333,0,1 @ F,0,0,1,0,0.26458333,0,1 @ F,0,0,1,0,0.21945643,0,1 @ F,0,0,1,0,0.26458333,0,1 @ F,0,0,1,0,0.26458333,0,1 @ F,0,0,1,0,0.26458333,0,1 @ F,0,0,1,0,0.26458333,0,1 @ F,0,0,1,0,0.26458333,0,1 @ F,0,0,1,0,0.26458333,0,1 @ F,0,0,1,0,0.26458333,0,1 @ F,0,0,1,0,0.16868866,0,1 @ F,0,0,1,0,0.26458333,0,1 @ F,0,0,1,0,0.26458333,0,1 @ F,0,0,1,0,0.26458333,0,1 @ F,0,0,1,0,0.26458333,0,1 @ F,0,0,1,0,0.26458333,0,1"
       unit="px"
       method="auto"
       mode="F"
       radius="1"
       chamfer_steps="1"
       flexible="false"
       use_knot_distance="true"
       apply_no_radius="true"
       apply_with_radius="true"
       only_selected="false"
       hide_knots="false" /><linearGradient
       id="linearGradient8713"
       inkscape:swatch="solid"><stop
         style="stop-color:#000000;stop-opacity:1;"
         offset="0"
         id="stop8711" /></linearGradient><linearGradient
       id="linearGradient8619"
       inkscape:swatch="solid"><stop
         style="stop-color:#000000;stop-opacity:1;"
         offset="0"
         id="stop8617" /></linearGradient><pattern
       inkscape:collect="always"
       xlink:href="#Wavy"
       id="pattern21944"
       patternTransform="matrix(0.63865411,0,0,0.35301979,1470.4968,-39.228115)" /><pattern
       inkscape:collect="always"
       xlink:href="#Wavy"
       id="pattern12903"
       patternTransform="matrix(0.2976825,0,0,0.36766533,1456.965,-28.625236)" /><linearGradient
       id="linearGradient9776"
       inkscape:swatch="solid"
       gradientTransform="matrix(9.0769027e-5,0,0,9.0769027e-5,-0.51055264,0.83863903)"><stop
         style="stop-color:#b2b7be;stop-opacity:1;"
         offset="0"
         id="stop9774" /></linearGradient><inkscape:path-effect
       effect="fillet_chamfer"
       id="path-effect9766"
       is_visible="true"
       lpeversion="1"
       nodesatellites_param="F,0,0,1,0,0.26458333,0,1 @ F,0,0,1,0,0.26458333,0,1 @ F,0,0,1,0,0.26458333,0,1 @ F,0,0,1,0,0.26458333,0,1 @ F,0,0,1,0,0.26458333,0,1 @ F,0,0,1,0,0.26458333,0,1 @ F,0,0,1,0,0.26458333,0,1"
       unit="px"
       method="auto"
       mode="F"
       radius="1"
       chamfer_steps="1"
       flexible="false"
       use_knot_distance="true"
       apply_no_radius="true"
       apply_with_radius="true"
       only_selected="false"
       hide_knots="false" /><inkscape:path-effect
       effect="fillet_chamfer"
       id="path-effect9723"
       is_visible="true"
       lpeversion="1"
       nodesatellites_param="F,0,0,1,0,0.26458333,0,1 @ F,0,0,1,0,0.26458333,0,1 @ F,0,0,1,0,0.26458333,0,1"
       unit="px"
       method="auto"
       mode="F"
       radius="1"
       chamfer_steps="1"
       flexible="false"
       use_knot_distance="true"
       apply_no_radius="true"
       apply_with_radius="true"
       only_selected="false"
       hide_knots="false" /><inkscape:path-effect
       effect="fillet_chamfer"
       id="path-effect9721"
       is_visible="true"
       lpeversion="1"
       nodesatellites_param="F,0,0,1,0,0.26458333,0,1 @ F,0,0,1,0,0.26458333,0,1 @ F,0,0,1,0,0.26458333,0,1 @ F,0,0,1,0,0.26458333,0,1 @ F,0,0,1,0,0.26458333,0,1 @ F,0,0,1,0,0.26458333,0,1 @ F,0,0,1,0,0.26458333,0,1 @ F,0,0,1,0,0.26458333,0,1 @ F,0,0,1,0,0.26458333,0,1 @ F,0,0,1,0,0.26458333,0,1 @ F,0,0,1,0,0.26458333,0,1 @ F,0,0,1,0,0.26458333,0,1 @ F,0,0,1,0,0.26458333,0,1 @ F,0,0,1,0,0.26458333,0,1 @ F,0,0,1,0,0.26458333,0,1 @ F,0,0,1,0,0.26458333,0,1 @ F,0,0,1,0,0.26458333,0,1 @ F,0,0,1,0,0.26458333,0,1 @ F,0,0,1,0,0.26458333,0,1 @ F,0,0,1,0,0.26458333,0,1 @ F,0,0,1,0,0.26458333,0,1 @ F,0,0,1,0,0.26458333,0,1 @ F,0,0,1,0,0.26458333,0,1 @ F,0,0,1,0,0.26458333,0,1 @ F,0,0,1,0,0.26458333,0,1 @ F,0,0,1,0,0.26458333,0,1 @ F,0,0,1,0,0.26458333,0,1 @ F,0,0,1,0,0.26458333,0,1 @ F,0,0,1,0,0.26458333,0,1 @ F,0,0,1,0,0.26458333,0,1 @ F,0,0,1,0,0.26458333,0,1 @ F,0,0,1,0,0.26458333,0,1 @ F,0,0,1,0,0.26458333,0,1 @ F,0,0,1,0,0.26458333,0,1 @ F,0,0,1,0,0.26458333,0,1 @ F,0,0,1,0,0.26458333,0,1 @ F,0,0,1,0,0.26458333,0,1 @ F,0,0,1,0,0.26458333,0,1 @ F,0,0,1,0,0.26458333,0,1 @ F,0,0,1,0,0.26458333,0,1 @ F,0,0,1,0,0.26458333,0,1 @ F,0,0,1,0,0.26458333,0,1 @ F,0,0,1,0,0.26458333,0,1 @ F,0,0,1,0,0.26458333,0,1 @ F,0,0,1,0,0.26458333,0,1 @ F,0,0,1,0,0.26458333,0,1 @ F,0,0,1,0,0.26458333,0,1 @ F,0,0,1,0,0.26458333,0,1 @ F,0,0,1,0,0.26458333,0,1 @ F,0,0,1,0,0.26458333,0,1 @ F,0,0,1,0,0.26458333,0,1 @ F,0,0,1,0,0.26458333,0,1 @ F,0,0,1,0,0.26458333,0,1 @ F,0,0,1,0,0.26458333,0,1 @ F,0,0,1,0,0.26458333,0,1 @ F,0,0,1,0,0.26458333,0,1 @ F,0,0,1,0,0.26458333,0,1 @ F,0,0,1,0,0.26458333,0,1 @ F,0,0,1,0,0.26458333,0,1 @ F,0,0,1,0,0.26458333,0,1 @ F,0,0,1,0,0.26458333,0,1 @ F,0,0,1,0,0.26458333,0,1 @ F,0,0,1,0,0.26458333,0,1 @ F,0,0,1,0,0.26458333,0,1 @ F,0,0,1,0,0.26458333,0,1 @ F,0,0,1,0,0.26458333,0,1 @ F,0,0,1,0,0.26458333,0,1 @ F,0,0,1,0,0.26458333,0,1 @ F,0,0,1,0,0.26458333,0,1 @ F,0,0,1,0,0.26458333,0,1 @ F,0,0,1,0,0.26458333,0,1 @ F,0,0,1,0,0.26458333,0,1 @ F,0,0,1,0,0.26458333,0,1 @ F,0,0,1,0,0.26458333,0,1 @ F,0,0,1,0,0.26458333,0,1 @ F,0,0,1,0,0.26458333,0,1 @ F,0,0,1,0,0.26458333,0,1 @ F,0,0,1,0,0.26458333,0,1 @ F,0,0,1,0,0.26458333,0,1 @ F,0,0,1,0,0.26458333,0,1 @ F,0,0,1,0,0.26458333,0,1 @ F,0,0,1,0,0.26458333,0,1 @ F,0,0,1,0,0.26458333,0,1 @ F,0,0,1,0,0.26458333,0,1 @ F,0,0,1,0,0.26458333,0,1 @ F,0,0,1,0,0.26458333,0,1 @ F,0,0,1,0,0.26458333,0,1 @ F,0,0,1,0,0.26458333,0,1 @ F,0,0,1,0,0.26458333,0,1 @ F,0,0,1,0,0.26458333,0,1 @ F,0,0,1,0,0.26458333,0,1 @ F,0,0,1,0,0.26458333,0,1 @ F,0,0,1,0,0.26458333,0,1 @ F,0,0,1,0,0.26458333,0,1 @ F,0,0,1,0,0.26458333,0,1 @ F,0,0,1,0,0.26458333,0,1 @ F,0,0,1,0,0.26458333,0,1"
       unit="px"
       method="auto"
       mode="F"
       radius="1"
       chamfer_steps="1"
       flexible="false"
       use_knot_distance="true"
       apply_no_radius="true"
       apply_with_radius="true"
       only_selected="false"
       hide_knots="false" /><inkscape:path-effect
       effect="fillet_chamfer"
       id="path-effect9719"
       is_visible="true"
       lpeversion="1"
       nodesatellites_param="F,0,0,1,0,0.26458333,0,1 @ F,0,0,1,0,0.26458333,0,1 @ F,0,0,1,0,0.26458333,0,1 @ F,0,0,1,0,0.26458333,0,1 @ F,0,0,1,0,0.26458333,0,1 @ F,0,0,1,0,0.26458333,0,1 @ F,0,0,1,0,0.26458333,0,1 @ F,0,0,1,0,0.26458333,0,1 @ F,0,0,1,0,0.26458333,0,1 @ F,0,0,1,0,0.26458333,0,1 @ F,0,0,1,0,0.26458333,0,1 @ F,0,0,1,0,0.26458333,0,1 | F,0,0,1,0,0.26458333,0,1 @ F,0,0,1,0,0.26458333,0,1 @ F,0,0,1,0,0.26458333,0,1 | F,0,0,1,0,0.26458333,0,1 @ F,0,0,1,0,0.26458333,0,1 @ F,0,0,1,0,0.26458333,0,1 | F,0,0,1,0,0.26458333,0,1 @ F,0,0,1,0,0.26458333,0,1 | F,0,0,1,0,0.26458333,0,1 @ F,0,0,1,0,0.26458333,0,1 @ F,0,0,1,0,0.26458333,0,1 | F,0,0,1,0,0.26458333,0,1 @ F,0,0,1,0,0.26458333,0,1 | F,0,0,1,0,0.26458333,0,1 @ F,0,0,1,0,0.26458333,0,1 @ F,0,0,1,0,0.26458333,0,1 | F,0,0,1,0,0.26458333,0,1 @ F,0,0,1,0,0.26458333,0,1 | F,0,0,1,0,0.26458333,0,1 @ F,0,0,1,0,0.26458333,0,1 @ F,0,0,1,0,0.26458333,0,1 @ F,0,0,1,0,0.26458333,0,1 | F,0,0,1,0,0.26458333,0,1 @ F,0,0,1,0,0.26458333,0,1 | F,0,0,1,0,0.26458333,0,1 @ F,0,0,1,0,0.26458333,0,1 @ F,0,0,1,0,0.26458333,0,1 @ F,0,0,1,0,0.26458333,0,1 | F,0,0,1,0,0.26458333,0,1 @ F,0,0,1,0,0.26458333,0,1 @ F,0,0,1,0,0.26458333,0,1 @ F,0,0,1,0,0.26458333,0,1 @ F,0,0,1,0,0.26458333,0,1 @ F,0,0,1,0,0.26458333,0,1 @ F,0,0,1,0,0.26458333,0,1 @ F,0,0,1,0,0.26458333,0,1 @ F,0,0,1,0,0.26458333,0,1 @ F,0,0,1,0,0.26458333,0,1 @ F,0,0,1,0,0.26458333,0,1 @ F,0,0,1,0,0.26458333,0,1 @ F,0,0,1,0,0.26458333,0,1 @ F,0,0,1,0,0.26458333,0,1 @ F,0,0,1,0,0.26458333,0,1 @ F,0,0,1,0,0.26458333,0,1 @ F,0,0,1,0,0.26458333,0,1 @ F,0,0,1,0,0.26458333,0,1 @ F,0,0,1,0,0.26458333,0,1 @ F,0,0,1,0,0.26458333,0,1 @ F,0,0,1,0,0.26458333,0,1 @ F,0,0,1,0,0.26458333,0,1 @ F,0,0,1,0,0.26458333,0,1 @ F,0,0,1,0,0.26458333,0,1 @ F,0,0,1,0,0.26458333,0,1 @ F,0,0,1,0,0.26458333,0,1 @ F,0,0,1,0,0.26458333,0,1 @ F,0,0,1,0,0.26458333,0,1 @ F,0,0,1,0,0.26458333,0,1 @ F,0,0,1,0,0.26458333,0,1 @ F,0,0,1,0,0.26458333,0,1 @ F,0,0,1,0,0.26458333,0,1 @ F,0,0,1,0,0.26458333,0,1 @ F,0,0,1,0,0.26458333,0,1"
       unit="px"
       method="auto"
       mode="F"
       radius="1"
       chamfer_steps="1"
       flexible="false"
       use_knot_distance="true"
       apply_no_radius="true"
       apply_with_radius="true"
       only_selected="false"
       hide_knots="false" /><inkscape:path-effect
       effect="fillet_chamfer"
       id="path-effect9717"
       is_visible="true"
       lpeversion="1"
       nodesatellites_param="F,0,0,1,0,0.52916667,0,1 @ F,0,0,1,0,0.52916667,0,1 @ F,0,0,1,0,0.52916667,0,1"
       unit="px"
       method="auto"
       mode="F"
       radius="2"
       chamfer_steps="1"
       flexible="false"
       use_knot_distance="true"
       apply_no_radius="true"
       apply_with_radius="true"
       only_selected="false"
       hide_knots="false" /><inkscape:path-effect
       effect="fillet_chamfer"
       id="path-effect9713"
       is_visible="true"
       lpeversion="1"
       nodesatellites_param="F,0,0,1,0,0.26458333,0,1 @ F,0,0,1,0,0.26458333,0,1 @ F,0,0,1,0,0.26458333,0,1 @ F,0,0,1,0,0.26458333,0,1 @ F,0,0,1,0,0.26458333,0,1 @ F,0,0,1,0,0.26458333,0,1 @ F,0,0,1,0,0.26458333,0,1 @ F,0,0,1,0,0.26458333,0,1"
       unit="px"
       method="auto"
       mode="F"
       radius="1"
       chamfer_steps="1"
       flexible="false"
       use_knot_distance="true"
       apply_no_radius="true"
       apply_with_radius="true"
       only_selected="false"
       hide_knots="false" /><inkscape:path-effect
       effect="fillet_chamfer"
       id="path-effect9702"
       is_visible="true"
       lpeversion="1"
       nodesatellites_param="F,0,0,1,0,0.26458333,0,1 @ F,0,0,1,0,0.26458333,0,1 @ F,0,0,1,0,0.26458333,0,1 @ F,0,0,1,0,0.26458333,0,1 @ F,0,0,1,0,0.26458333,0,1 @ F,0,0,1,0,0.26458333,0,1 | F,0,0,1,0,0.26458333,0,1 @ F,0,0,1,0,0.26458333,0,1 @ F,0,0,1,0,0.26458333,0,1 @ F,0,0,1,0,0.26458333,0,1 @ F,0,0,1,0,0.26458333,0,1 @ F,0,0,1,0,0.26458333,0,1"
       unit="px"
       method="auto"
       mode="F"
       radius="1"
       chamfer_steps="1"
       flexible="false"
       use_knot_distance="true"
       apply_no_radius="true"
       apply_with_radius="true"
       only_selected="false"
       hide_knots="false" /><inkscape:path-effect
       effect="fillet_chamfer"
       id="path-effect3730"
       is_visible="true"
       lpeversion="1"
       nodesatellites_param="F,0,0,1,0,0.26458333,0,1 @ F,0,0,1,0,0.26458333,0,1 @ F,0,0,1,0,0.26458333,0,1 @ F,0,0,1,0,0.26458333,0,1 @ F,0,0,1,0,0.26458333,0,1 @ F,0,0,1,0,0.26458333,0,1 @ F,0,0,1,0,0.26458333,0,1 @ F,0,0,1,0,0.26458333,0,1 @ F,0,0,1,0,0.26458333,0,1 @ F,0,0,1,0,0.26458333,0,1 @ F,0,0,1,0,0.26458333,0,1 @ F,0,0,1,0,0.26458333,0,1 @ F,0,0,1,0,0.26458333,0,1 @ F,0,0,1,0,0.26458333,0,1 @ F,0,0,1,0,0.18965989,0,1 @ F,0,0,1,0,0.30612205,0,1 @ F,0,0,1,0,0.26458333,0,1 @ F,0,0,1,0,0.26458333,0,1 @ F,0,0,1,0,0.26458333,0,1 @ F,0,0,1,0,0.26458333,0,1 @ F,0,0,1,0,0.26458333,0,1 @ F,0,0,1,0,0.26458333,0,1 @ F,0,0,1,0,0.26458333,0,1 @ F,0,0,1,0,0.26458333,0,1 @ F,0,0,1,0,0.26458333,0,1 @ F,0,0,1,0,0.26458333,0,1 @ F,0,0,1,0,0.26458333,0,1 @ F,0,0,1,0,0.26458333,0,1 @ F,0,0,1,0,0.26458333,0,1 @ F,0,0,1,0,0.26458333,0,1 @ F,0,0,1,0,0.26458333,0,1 @ F,0,0,1,0,0.26458333,0,1"
       unit="px"
       method="auto"
       mode="F"
       radius="1"
       chamfer_steps="1"
       flexible="false"
       use_knot_distance="true"
       apply_no_radius="true"
       apply_with_radius="true"
       only_selected="false"
       hide_knots="false" /><inkscape:path-effect
       effect="fillet_chamfer"
       id="path-effect2929"
       is_visible="true"
       lpeversion="1"
       nodesatellites_param="F,0,0,1,0,0.26458333,0,1 @ F,0,0,1,0,0.26458333,0,1 @ F,0,0,1,0,0.26458333,0,1 @ F,0,0,1,0,0.26458333,0,1 @ F,0,0,1,0,0.26458333,0,1 @ F,0,0,1,0,0.26458333,0,1 @ F,0,0,1,0,0.26458333,0,1 @ F,0,0,1,0,0.26458333,0,1 @ F,0,0,1,0,0.26458333,0,1 @ F,0,0,1,0,0.26458333,0,1 @ F,0,0,1,0,0.26458333,0,1 @ F,0,0,1,0,0.26458333,0,1 @ F,0,0,1,0,0.26458333,0,1 @ F,0,0,1,0,0.26458333,0,1 @ F,0,0,1,0,0.26458333,0,1 @ F,0,0,1,0,0.26458333,0,1"
       unit="px"
       method="auto"
       mode="F"
       radius="1"
       chamfer_steps="1"
       flexible="false"
       use_knot_distance="true"
       apply_no_radius="true"
       apply_with_radius="true"
       only_selected="false"
       hide_knots="false" /><pattern
       inkscape:collect="always"
       patternUnits="userSpaceOnUse"
       width="30.066020"
       height="5.1805778"
       id="Wavy"
       inkscape:stockid="Wavy"
       inkscape:isstock="true"><path
         style="fill:black;stroke:none;"
         d="M 7.597,0.061 C 5.079,-0.187 2.656,0.302 -0.01,1.788 L -0.01,3.061 C 2.773,1.431 5.173,1.052 7.472,1.280 C 9.770,1.508 11.969,2.361 14.253,3.218 C 18.820,4.931 23.804,6.676 30.066,3.061 L 30.062,1.788 C 23.622,5.497 19.246,3.770 14.691,2.061 C 12.413,1.207 10.115,0.311 7.597,0.061 z "
         id="path5378" /></pattern><linearGradient
       id="linearGradient1642"
       inkscape:swatch="solid"
       gradientTransform="matrix(0.53491831,0,0,1.6710713,578.25432,638.40486)"><stop
         style="stop-color:#75c590;stop-opacity:1;"
         offset="0"
         id="stop1640" /></linearGradient><linearGradient
       id="linearGradient1636"
       inkscape:swatch="solid"
       gradientTransform="matrix(2.372496e-4,0,0,-2.7055498e-4,-99.855184,269.11388)"><stop
         style="stop-color:#f0b762;stop-opacity:1;"
         offset="0"
         id="stop1634" /></linearGradient><linearGradient
       id="linearGradient1630"
       inkscape:swatch="solid"
       gradientTransform="matrix(0.30427083,0,0,0.29793192,-77.004766,47.015341)"><stop
         style="stop-color:#548ed0;stop-opacity:1;"
         offset="0"
         id="stop1628" /></linearGradient><linearGradient
       id="linearGradient1624"
       inkscape:swatch="solid"
       gradientTransform="matrix(0,0,0,0,868.18024,372.59479)"><stop
         style="stop-color:#f06262;stop-opacity:1;"
         offset="0"
         id="stop1622" /></linearGradient><linearGradient
       id="linearGradient1618"
       inkscape:swatch="solid"
       gradientTransform="matrix(0.06589317,0,0,0.07055889,-2.9854973,-2.9647134)"><stop
         style="stop-color:#272932;stop-opacity:1;"
         offset="0"
         id="stop1616" /></linearGradient><linearGradient
       id="linearGradient1612"
       inkscape:swatch="solid"
       gradientTransform="matrix(0.00474027,-8.4478547e-4,-0.00121142,-0.0031383,1.0719428,0.60129234)"><stop
         style="stop-color:#424c55;stop-opacity:1;"
         offset="0"
         id="stop1610" /></linearGradient><linearGradient
       id="linearGradient1606"
       inkscape:swatch="solid"
       gradientTransform="matrix(0.0050977,0,0,0.00503612,-34.077088,-601.94435)"><stop
         style="stop-color:#59656f;stop-opacity:1;"
         offset="0"
         id="stop1604" /></linearGradient><linearGradient
       id="linearGradient1600"
       inkscape:swatch="solid"
       gradientTransform="matrix(-5.3385455e-5,-3.5150697e-5,-1.0354873e-5,1.5726562e-5,831.11603,293.23276)"><stop
         style="stop-color:#f9efdf;stop-opacity:1;"
         offset="0"
         id="stop1598" /></linearGradient><linearGradient
       id="linearGradient1594"
       inkscape:swatch="solid"
       gradientTransform="matrix(0.09102054,0,0,0.0999252,804.72123,1379.5943)"><stop
         style="stop-color:#eddab7;stop-opacity:1;"
         offset="0"
         id="stop1592" /></linearGradient><linearGradient
       inkscape:collect="always"
       xlink:href="#linearGradient1606"
       id="linearGradient6494"
       gradientTransform="matrix(0.07345539,0.07345539,-0.18708865,0.18708865,1417.9314,-4134.4056)"
       gradientUnits="userSpaceOnUse" /><linearGradient
       inkscape:collect="always"
       xlink:href="#linearGradient1618"
       id="linearGradient2243"
       x1="1461.5259"
       y1="-38.484425"
       x2="1472.5507"
       y2="-38.484425"
       gradientUnits="userSpaceOnUse"
       gradientTransform="matrix(0.76397651,0,0,0.76397651,346.25549,-9.0832096)" /></defs><g
     inkscape:groupmode="layer"
     id="layer6"
     inkscape:label="Icons"
     transform="translate(-1460.6882,44.834427)"><g
       id="g2987"
       transform="matrix(1.0616201,0,0,1.0616201,-86.310873,-15.514599)"
       style="display:none;fill:url(#linearGradient1618);fill-opacity:1;stroke-width:0.941957"
       inkscape:label="HeadingIcon"><path
         id="rect2069"
         style="font-variation-settings:'wght' 300;opacity:1;fill:url(#linearGradient1618);fill-opacity:1;stroke-width:0.614979;stroke-linecap:round;stroke-linejoin:round"
         d="m 1462.9898,-27.196117 c -0.8024,0.712554 -1.6049,1.42527 -2.4073,2.137883 -0.1092,0.09703 -0.1978,0.05723 -0.1978,-0.08889 v -0.916223 a 0.26458333,0.26458333 45 0 0 -0.2646,-0.264583 h -0.6945 a 0.26458333,0.26458333 135 0 0 -0.2646,0.264583 v 2.002978 c 0,0.146125 -0.089,0.343245 -0.1978,0.440274 -0.4274,0.379509 -0.8548,0.758986 -1.2822,1.138472 -0.1093,0.09702 -0.079,0.175669 0.067,0.175669 h 0.5958 a 0.26458333,0.26458333 45 0 1 0.2646,0.264583 v 3.683496 a 0.44817964,0.44817964 59.444477 0 0 0.2317,0.392407 l 4.0779,2.250142 a 0.48351887,0.48351887 0.20131009 0 0 0.4643,0.0016 l 0.7109,-0.385821 a 0.44460391,0.44460391 120.75683 0 0 0.2326,-0.390776 l 0,-3.54965 a 0.44785408,0.44785408 120.57375 0 1 0.2317,-0.392259 l 1.8027,-0.993152 a 0.1563106,0.1563106 30.573754 0 1 0.2317,0.136907 l 0,3.568259 a 0.15745327,0.15745327 30.756834 0 0 0.2326,0.13839 l 0.7109,-0.385821 a 0.44460391,0.44460391 120.75683 0 0 0.2326,-0.390776 v -3.683495 a 0.26458333,0.26458333 135 0 1 0.2646,-0.264583 h 0.5948 c 0.1461,0 0.176,-0.07865 0.067,-0.175673 -1.7696,-1.571204 -3.5391,-3.142729 -5.3085,-4.713966 -0.1092,-0.09703 -0.2864,-0.09703 -0.3956,-3e-6 z"
         inkscape:path-effect="#path-effect2929"
         inkscape:original-d="m 1463.1876,-27.371799 c -0.9343,0.829643 -1.8686,1.659534 -2.8029,2.489255 v -1.445389 h -1.2237 v 2.532144 c -0.5592,0.496646 -1.1186,0.993225 -1.6779,1.489832 h 1.125 v 4.212662 l 4.5413,2.50579 1.1761,-0.638207 v -4.078816 l 2.2661,-1.248504 v 4.097425 l 1.1761,-0.638207 v -4.212661 h 1.124 c -1.9014,-1.688296 -3.8029,-3.37699 -5.7041,-5.065324 z" /><circle
         style="font-variation-settings:'wght' 300;opacity:0.539024;fill:url(#linearGradient1618);fill-opacity:1;stroke-width:0.619808;stroke-linecap:round;stroke-linejoin:round"
         id="path2983"
         cx="1466.8831"
         cy="-25.945997"
         r="1.6536458" /></g><g
       id="g3728"
       transform="matrix(0.78089805,0,0,0.78089805,325.9209,-23.008246)"
       style="display:none;fill:url(#linearGradient1606);fill-opacity:1;stroke-width:1.28058"
       inkscape:label="ActionIcon"><path
         style="font-variation-settings:'wght' 300;display:none;opacity:1;fill:url(#pattern21944);fill-opacity:1;stroke-width:0.84262;stroke-linecap:round;stroke-linejoin:round"
         d="m 1459.287,-27.057698 c -0.6776,0.461197 -0.7623,1.378482 -0.5506,1.742866 0.2118,0.364384 -2.0713,-0.485665 -2.5835,1.133621 -0.5122,1.619286 -2.5411,3.821611 -2.4988,5.176888 0.042,1.355278 4.0659,1.905859 4.0235,3.218784 -0.042,1.312924 -1.6517,1.446695 -1.4823,2.498792 0.1694,1.052098 7.187,1.040184 7.187,1.040184 l 0.6145,-11.809466 c 0,0 8.2501,-4.0669 -4.7098,-3.001669 z"
         transform="translate(-1.4673277e-5)"
         id="path5588" /><path
         style="display:inline;fill:url(#linearGradient1606);stroke-width:1.28058"
         d="m 1458.036,-12.916028 c -0.8178,-0.160608 -1.5674,-0.372606 -1.6659,-0.471106 -0.302,-0.301966 1.0177,-0.172532 3.1526,0.309204 2.255,0.50884 0.9842,0.647225 -1.4867,0.161902 z m 1.6828,-1.532815 c -1.1966,-0.261667 -2.2639,-0.568713 -2.3717,-0.682325 -0.2387,-0.25149 1.853,0.08151 4.378,0.696969 2.4793,0.604341 0.7672,0.591844 -2.0063,-0.01464 z m 0.048,-1.815847 c -1.5428,-0.328129 -2.915,-0.712727 -3.0493,-0.854663 -0.1343,-0.141935 0.061,-0.174434 0.4334,-0.07222 0.3727,0.102215 1.8212,0.373054 3.2188,0.601865 1.3976,0.228811 2.686,0.545293 2.863,0.703294 0.4383,0.391214 -0.1493,0.327071 -3.4659,-0.378277 z m 0.4335,-1.7611 c -0.7454,-0.179117 -2.5751,-0.447963 -4.0659,-0.597436 l -2.7105,-0.271769 2.2023,-0.03067 c 1.2113,-0.01687 3.4983,0.251777 5.0823,0.596993 1.584,0.345216 2.4226,0.627864 1.8635,0.628107 -0.559,2.43e-4 -1.6263,-0.146107 -2.3717,-0.325223 z m 0,-1.824675 c -1.1181,-0.250181 -2.9002,-0.501378 -3.9602,-0.558214 -1.1795,-0.06324 -1.8071,-0.225157 -1.6174,-0.417291 0.3318,-0.335984 4.2022,0.166015 7.4411,0.965121 2.4174,0.596428 0.796,0.605463 -1.8635,0.01038 z m -1.0165,-2.020485 c -2.0498,-0.422423 -3.2696,-0.775745 -2.7105,-0.78516 1.2813,-0.02158 6.8125,1.050796 7.1474,1.385726 0.3479,0.347907 -0.1831,0.276039 -4.4369,-0.600566 z m -0.1694,-1.86924 c -1.584,-0.332068 -2.4225,-0.611298 -1.8635,-0.62051 0.5591,-0.0092 2.3124,0.265701 3.8964,0.610917 1.584,0.345216 2.4226,0.624445 1.8635,0.62051 -0.559,-0.0039 -2.3124,-0.278848 -3.8964,-0.610917 z m 1.8022,-1.468617 c -0.9655,-0.212026 -1.8803,-0.518794 -2.0329,-0.681707 -0.1556,-0.166081 0.02,-0.211777 0.4001,-0.104018 0.6366,0.18055 3.7032,0.74431 5.5905,1.027772 0.4659,0.06997 0.161,0.130871 -0.6776,0.135336 -0.8386,0.0045 -2.3146,-0.165356 -3.2801,-0.377383 z m 1.586,-1.571369 c -1.1529,-0.242674 -1.1576,-0.250029 -0.1694,-0.264535 0.559,-0.0082 1.7788,0.10382 2.7105,0.248947 l 1.6941,0.263866 -1.5246,6.67e-4 c -0.8386,3.68e-4 -2.0584,-0.111658 -2.7106,-0.248945 z"
         id="path27320" /><circle
         style="font-variation-settings:'wght' 300;display:inline;opacity:1;fill:url(#linearGradient1618);fill-opacity:1;stroke-width:0.84262;stroke-linecap:round;stroke-linejoin:round"
         id="path3715"
         cx="1465.9449"
         cy="-25.619455"
         r="1.4382441" /><path
         id="rect3717"
         style="font-variation-settings:'wght' 300;display:inline;opacity:1;fill:url(#linearGradient1618);fill-opacity:1;stroke-width:0.84262;stroke-linecap:round;stroke-linejoin:round"
         d="m 1268.953,-723.58305 0.049,2.61467 a 0.22915472,0.22915472 39.820559 0 0 0.2661,0.22186 l 0.7259,-0.11866 a 0.30641851,0.30641851 129.90665 0 0 0.2569,-0.30723 l -0.022,-1.37427 a 0.311174,0.311174 129.47067 0 1 0.2562,-0.3112 l 1.4437,-0.2586 a 0.22140002,0.22140002 39.922171 0 1 0.2604,0.21793 v 2.52702 a 1.1221021,1.1221021 103.26758 0 1 -0.1182,0.50129 l -0.851,1.70422 a 0.42293598,0.42293598 148.56472 0 1 -0.3828,0.23397 l -2.7679,-0.0287 a 0.27050584,0.27050584 136.22843 0 0 -0.2732,0.2617 l -0.032,0.97791 c -0,0.14604 -0.01,0.38288 -0.01,0.529 0.01,0.68734 0.038,1.588 0.9181,-0.0311 0.07,-0.12827 0.2423,-0.23439 0.3884,-0.23539 l 2.7258,-0.0185 a 0.44425397,0.44425397 148.83433 0 0 0.389,-0.23529 l 1.2765,-2.39474 a 0.18911193,0.18911193 172.50224 0 1 0.305,-0.0402 l 1.8305,1.95926 a 0.61271013,0.61271013 70.302681 0 1 0.1637,0.45738 l -0.1641,2.56697 a 0.28468088,0.28468088 50.754072 0 0 0.2452,0.30017 l 1.3971,0.19262 a 0.58487035,0.58487035 169.88291 0 0 0.3552,-0.0634 l 0.9599,-0.51219 a 0.11287475,0.11287475 82.156409 0 0 -0.029,-0.20983 l -1.1576,-0.25444 a 0.30607738,0.30607738 53.237795 0 1 -0.2396,-0.32071 l 0.1614,-2.26271 a 0.60095705,0.60095705 70.316555 0 0 -0.1631,-0.456 l -1.8743,-1.97875 a 0.66419914,0.66419914 68.273939 0 1 -0.1819,-0.45667 l -3e-4,-2.23169 a 0.11611209,0.11611209 156.29956 0 1 0.1947,-0.0855 l 1.4925,1.3726 a 0.27007382,0.27007382 178.19371 0 0 0.3778,-0.0119 l 0.9242,-0.96442 a 6328.5137,6328.5137 133.77967 0 0 0.3662,-0.38206 245798.49,245798.49 133.77724 0 0 0.1993,-0.20804 l 0.3276,-0.34183 a 0.27186148,0.27186148 89.561887 0 0 -0,-0.3792 l -0.4659,-0.4715 a 0.26286872,0.26286872 0.15294054 0 0 -0.373,-9.9e-4 l -0.1245,0.12468 a 72.868975,72.868975 135.02206 0 1 -0.237,0.2368 l -0.089,0.089 -0.5882,0.58901 a 0.27136522,0.27136522 179.23735 0 1 -0.3789,0.005 l -1.4317,-1.35925 a 0.66297213,0.66297213 21.756083 0 0 -0.4565,-0.18217 l -2.3473,10e-6 a 3.2006483,3.2006483 175.27416 0 0 -0.5256,0.0435 l -2.7183,0.45252 a 0.30639469,0.30639469 129.73668 0 0 -0.256,0.30799 z"
         transform="rotate(28.710841)"
         inkscape:path-effect="#path-effect3730"
         inkscape:original-d="m 1268.948,-723.84759 0.059,3.14375 1.2481,-0.20402 -0.03,-1.90337 1.9645,-0.3519 v 3.05618 l -1.0874,2.17764 -3.2971,-0.0342 -0.049,1.50679 c 0.018,0.68214 -0.088,2.18862 1.0453,-1.4e-4 l 3.255,-0.0221 1.5253,-2.86172 2.1917,2.34594 -0.1979,3.09505 1.8471,0.25465 1.3973,-0.74558 -1.715,-0.37696 0.199,-2.79053 -2.2381,-2.36293 -3e-4,-2.76085 1.8819,1.73082 1.2904,-1.34646 0.2758,-0.28783 0.1066,-0.11125 0.5107,-0.53284 -0.8379,-0.84788 -0.4985,0.49908 -0.05,0.0496 -0.089,0.089 -0.7752,0.77622 -1.8155,-1.72359 -2.8765,10e-6 z"
         sodipodi:nodetypes="ccccccccccccccccccccccccccccccccc" /><path
         style="font-variation-settings:'wght' 300;display:inline;opacity:0.519512;fill:url(#linearGradient1618);fill-opacity:1;stroke-width:0.84262;stroke-linecap:round;stroke-linejoin:round"
         d="m 1467.0141,-26.331922 -0.01,1.116895 a 0.25834337,0.25834337 44.664411 0 0 0.2629,0.259871 l 0.3647,-0.0065 a 0.16073407,0.16073407 120.25938 0 0 0.1384,-0.237311 l -0.6315,-1.164943 a 0.06795823,0.06795823 165.94304 0 0 -0.1277,0.03197 z"
         id="path3732"
         inkscape:path-effect="#path-effect9723"
         inkscape:original-d="m 1467.0157,-26.5965 -0.01,1.646051 0.8937,-0.0159 z" /></g><g
       id="g9511"
       style="display:none;fill:url(#linearGradient1618);fill-opacity:1"
       inkscape:label="CharacterIcon"
       transform="translate(3.8508303,-16.847383)"><path
         id="path9447"
         style="font-variation-settings:'wght' 300;opacity:0.497561;fill:url(#linearGradient1618);fill-opacity:1;stroke-width:0.658;stroke-linecap:round;stroke-linejoin:round"
         d="m 1464.6522,-21.389912 c 0.1907,-0.103353 0.1907,-0.103353 0.1907,-0.103353 0.184,-0.115238 0.184,-0.115238 0.184,-0.115238 0.1757,-0.127124 0.1757,-0.127124 0.1757,-0.127124 0.1664,-0.138493 0.1664,-0.138493 0.1664,-0.138493 h -2.2712 a 0.26458333,0.26458333 45 0 1 -0.2646,-0.264583 v -2.101164 c 0,-0.146125 -0.141,-0.234093 -0.089,-0.234093 -0.089,0.02739 -0.089,0.02739 -0.089,0.02739 -0.089,0.02481 -0.089,0.02481 -0.089,0.02481 -0.089,0.02119 -0.089,0.02119 -0.089,0.02119 -0.089,0.01809 -0.089,0.01809 -0.089,0.01809 -0.089,0.01499 -0.089,0.01499 -0.089,0.01499 -0.089,0.01137 -0.089,0.01137 -0.089,0.01137 -0.089,0.0088 -0.089,0.0088 -0.089,0.0088 -0.089,0.0057 -0.089,0.0057 -0.089,0.0057 -0.089,0.0021 -0.089,0.0021 -0.089,0.0021 -0.089,-5.16e-4 -0.089,-5.16e-4 -0.089,-5.16e-4 -0.089,-0.0041 -0.089,-0.0041 -0.089,-0.0041 -0.089,-0.0072 -0.089,-0.0072 -0.089,-0.0072 -0.089,-0.01034 -0.089,-0.01034 -0.089,-0.01034 -0.089,-0.01344 -0.089,-0.01344 -0.089,-0.01344 -0.089,-0.01654 -0.089,-0.01654 -0.089,-0.01654 -0.089,-0.01964 -0.089,-0.01964 -0.089,-0.01964 -0.089,-0.02274 -0.089,-0.02274 -0.089,-0.02274 -0.089,-0.02636 -0.089,-0.02636 -0.089,-0.02636 -0.089,-0.02894 -0.089,-0.02894 -0.089,-0.02894 -0.089,-0.03256 -0.089,-0.03256 -0.089,-0.03256 -0.089,-0.03514 -0.089,-0.03514 -0.089,-0.03514 -0.089,-0.03876 -0.089,-0.03876 -0.089,-0.03876 -0.089,-0.04186 -0.089,-0.04186 -0.089,-0.04186 -0.089,-0.04496 -0.089,-0.04496 -0.089,-0.04496 -0.089,-0.04806 -0.089,-0.04806 -0.089,-0.04806 -0.089,-0.05116 -0.089,-0.05116 -0.089,-0.05116 -0.089,-0.05426 -0.089,-0.05426 -0.089,-0.05426 -0.089,-0.05788 -0.089,-0.05788 -0.089,-0.05788 -0.089,-0.06046 -0.089,-0.06046 -0.089,-0.06046 -0.089,-0.06408 -0.089,-0.06408 -0.089,-0.06408 -0.089,-0.06666 -0.089,-0.06666 -0.089,-0.06666 -0.016,0.07906 -0.016,0.07906 -0.016,0.07906 -0.027,0.139527 -0.027,0.139527 -0.027,0.139527 -0.012,0.08733 -0.012,0.08733 -0.012,0.08733 -0.016,0.144177 -0.016,0.144177 -0.016,0.144177 -0.01,0.07803 -0.01,0.07803 -0.01,0.07803 -0.01,0.218074 -0.01,0.218074 -0.01,0.218074 0.01,0.22996 0.01,0.22996 0.01,0.22996 0.01,0.09147 0.01,0.09147 0.01,0.09147 0.015,0.135392 0.015,0.135392 0.015,0.135392 0.018,0.10697 0.018,0.10697 0.018,0.10697 0.023,0.123507 0.023,0.123507 0.023,0.123507 0.025,0.10697 0.025,0.10697 0.025,0.10697 0.03,0.112655 0.03,0.112655 0.03,0.112655 0.034,0.112137 0.034,0.112137 0.034,0.112137 0.041,0.116272 0.041,0.116272 0.041,0.116272 0.036,0.09715 0.036,0.09715 0.036,0.09715 0.054,0.12299 0.054,0.12299 0.054,0.12299 0.041,0.09147 0.041,0.09147 0.041,0.09147 0.1059,0.200505 0.1059,0.200505 0.1059,0.200505 0.1209,0.192236 0.1209,0.192236 0.1209,0.192236 0.06,0.0832 0.06,0.0832 0.06,0.0832 0.079,0.105937 0.079,0.105937 0.079,0.105937 0.059,0.07286 0.059,0.07286 0.059,0.07286 0.094,0.10852 0.094,0.10852 0.094,0.10852 0.065,0.06976 0.065,0.06976 0.065,0.06976 0.094,0.09353 0.094,0.09353 0.094,0.09353 0.079,0.0739 0.079,0.0739 0.079,0.0739 0.091,0.07803 0.091,0.07803 0.091,0.07803 0.085,0.06976 0.085,0.06976 0.085,0.06976 0.1178,0.08682 0.1178,0.08682 0.1178,0.08682 0.067,0.04806 0.067,0.04806 0.067,0.04806 0.139,0.08733 0.139,0.08733 0.139,0.08733 0.057,0.03566 0.057,0.03566 0.057,0.03566 0.065,0.03462 0.065,0.03462 0.065,0.03462 0.1391,0.07338 0.1391,0.07338 0.1391,0.07338 0.081,0.03617 0.081,0.03617 0.081,0.03617 0.1286,0.05633 0.1286,0.05633 0.1286,0.05633 0.096,0.03617 0.096,0.03617 0.096,0.03617 0.1282,0.04496 0.1282,0.04496 0.1282,0.04496 0.091,0.02739 0.091,0.02739 0.091,0.02739 0.1302,0.03514 0.1302,0.03514 0.1302,0.03514 0.1018,0.02377 0.1018,0.02377 0.1018,0.02377 0.122,0.02325 0.122,0.02325 0.122,0.02325 0.108,0.01757 0.108,0.01757 0.108,0.01757 0.1384,0.0155 0.1384,0.0155 0.1384,0.0155 0.088,0.0088 0.088,0.0088 0.088,0.0088 0.2305,0.0088 0.2305,0.0088 0.2305,0.0088 0.2237,-0.0083 0.2237,-0.0083 0.2237,-0.0083 0.1504,-0.0155 0.1504,-0.0155 0.1504,-0.0155 0.07,-0.0078 0.07,-0.0078 0.07,-0.0078 0.1571,-0.02584 0.1571,-0.02584 0.1571,-0.02584 0.069,-0.01344 0.069,-0.01344 0.069,-0.01344 0.1452,-0.03411 0.1452,-0.03411 0.1452,-0.03411 0.081,-0.0217 0.081,-0.0217 0.081,-0.0217 0.1421,-0.04341 0.1421,-0.04341 0.1421,-0.04341 0.059,-0.02067 0.059,-0.02067 0.059,-0.02067 0.1695,-0.06511 0.1695,-0.06511 0.1695,-0.06511 l -0,-3.5e-5 z"
         inkscape:path-effect="#path-effect9721"
         inkscape:original-d="m 1464.4548,-21.299992 a 3.2946599,3.2946599 0 0 0 0.1974,-0.08992 3.2946599,3.2946599 0 0 0 0.1907,-0.103353 3.2946599,3.2946599 0 0 0 0.184,-0.115238 3.2946599,3.2946599 0 0 0 0.1757,-0.127124 3.2946599,3.2946599 0 0 0 0.1664,-0.138493 h -2.5358 v -2.63033 c -0.03,0.01076 -0.06,0.02078 -0.089,0.03049 -0.03,0.0097 -0.06,0.01873 -0.089,0.02739 -0.03,0.0087 -0.059,0.0172 -0.089,0.02481 -0.03,0.0076 -0.06,0.01463 -0.089,0.02119 -0.03,0.0066 -0.06,0.01258 -0.089,0.01809 -0.03,0.0055 -0.06,0.01053 -0.089,0.01499 -0.03,0.0045 -0.059,0.008 -0.089,0.01137 -0.03,0.0034 -0.06,0.0064 -0.089,0.0088 -0.03,0.0024 -0.06,0.0044 -0.089,0.0057 -0.03,0.0013 -0.06,0.0018 -0.089,0.0021 -0.03,2.51e-4 -0.059,2.84e-4 -0.089,-5.16e-4 -0.03,-8.01e-4 -0.06,-0.0023 -0.089,-0.0041 -0.03,-0.0019 -0.06,-0.0043 -0.089,-0.0072 -0.03,-0.0029 -0.06,-0.0064 -0.089,-0.01034 -0.03,-0.004 -0.059,-0.0084 -0.089,-0.01344 -0.03,-0.005 -0.06,-0.01048 -0.089,-0.01654 -0.03,-0.0061 -0.06,-0.01253 -0.089,-0.01964 -0.03,-0.0071 -0.059,-0.01458 -0.089,-0.02274 -0.03,-0.0082 -0.06,-0.01715 -0.089,-0.02636 -0.03,-0.0092 -0.06,-0.01869 -0.089,-0.02894 -0.03,-0.01025 -0.059,-0.02125 -0.089,-0.03256 -0.03,-0.0113 -0.06,-0.02279 -0.089,-0.03514 -0.03,-0.01235 -0.059,-0.02535 -0.089,-0.03876 -0.03,-0.0134 -0.06,-0.0274 -0.089,-0.04186 -0.03,-0.01445 -0.059,-0.02945 -0.089,-0.04496 -0.03,-0.0155 -0.059,-0.03151 -0.089,-0.04806 -0.03,-0.01655 -0.06,-0.03356 -0.089,-0.05116 -0.03,-0.0176 -0.059,-0.03561 -0.089,-0.05426 -0.03,-0.01865 -0.06,-0.03817 -0.089,-0.05788 -0.03,-0.0197 -0.059,-0.03971 -0.089,-0.06046 -0.03,-0.02075 -0.059,-0.04228 -0.089,-0.06408 -0.03,-0.0218 -0.059,-0.04381 -0.089,-0.06666 a 3.2946599,3.2946599 0 0 0 -0.016,0.07906 3.2946599,3.2946599 0 0 0 -0.027,0.139527 3.2946599,3.2946599 0 0 0 -0.012,0.08733 3.2946599,3.2946599 0 0 0 -0.016,0.144177 3.2946599,3.2946599 0 0 0 -0.01,0.07803 3.2946599,3.2946599 0 0 0 -0.01,0.218074 3.2946599,3.2946599 0 0 0 0.01,0.22996 3.2946599,3.2946599 0 0 0 0.01,0.09147 3.2946599,3.2946599 0 0 0 0.015,0.135392 3.2946599,3.2946599 0 0 0 0.018,0.10697 3.2946599,3.2946599 0 0 0 0.023,0.123507 3.2946599,3.2946599 0 0 0 0.025,0.10697 3.2946599,3.2946599 0 0 0 0.03,0.112655 3.2946599,3.2946599 0 0 0 0.034,0.112137 3.2946599,3.2946599 0 0 0 0.041,0.116272 3.2946599,3.2946599 0 0 0 0.036,0.09715 3.2946599,3.2946599 0 0 0 0.054,0.12299 3.2946599,3.2946599 0 0 0 0.041,0.09147 3.2946599,3.2946599 0 0 0 0.1059,0.200505 3.2946599,3.2946599 0 0 0 0.1209,0.192236 3.2946599,3.2946599 0 0 0 0.06,0.0832 3.2946599,3.2946599 0 0 0 0.079,0.105937 3.2946599,3.2946599 0 0 0 0.059,0.07286 3.2946599,3.2946599 0 0 0 0.094,0.10852 3.2946599,3.2946599 0 0 0 0.065,0.06976 3.2946599,3.2946599 0 0 0 0.094,0.09353 3.2946599,3.2946599 0 0 0 0.079,0.0739 3.2946599,3.2946599 0 0 0 0.091,0.07803 3.2946599,3.2946599 0 0 0 0.085,0.06976 3.2946599,3.2946599 0 0 0 0.1178,0.08682 3.2946599,3.2946599 0 0 0 0.067,0.04806 3.2946599,3.2946599 0 0 0 0.139,0.08733 3.2946599,3.2946599 0 0 0 0.057,0.03566 3.2946599,3.2946599 0 0 0 0.065,0.03462 3.2946599,3.2946599 0 0 0 0.1391,0.07338 3.2946599,3.2946599 0 0 0 0.081,0.03617 3.2946599,3.2946599 0 0 0 0.1286,0.05633 3.2946599,3.2946599 0 0 0 0.096,0.03617 3.2946599,3.2946599 0 0 0 0.1282,0.04496 3.2946599,3.2946599 0 0 0 0.091,0.02739 3.2946599,3.2946599 0 0 0 0.1302,0.03514 3.2946599,3.2946599 0 0 0 0.1018,0.02377 3.2946599,3.2946599 0 0 0 0.122,0.02325 3.2946599,3.2946599 0 0 0 0.108,0.01757 3.2946599,3.2946599 0 0 0 0.1384,0.0155 3.2946599,3.2946599 0 0 0 0.088,0.0088 3.2946599,3.2946599 0 0 0 0.2305,0.0088 3.2946599,3.2946599 0 0 0 0.2237,-0.0083 3.2946599,3.2946599 0 0 0 0.1504,-0.0155 3.2946599,3.2946599 0 0 0 0.07,-0.0078 3.2946599,3.2946599 0 0 0 0.1571,-0.02584 3.2946599,3.2946599 0 0 0 0.069,-0.01344 3.2946599,3.2946599 0 0 0 0.1452,-0.03411 3.2946599,3.2946599 0 0 0 0.081,-0.0217 3.2946599,3.2946599 0 0 0 0.1421,-0.04341 3.2946599,3.2946599 0 0 0 0.059,-0.02067 3.2946599,3.2946599 0 0 0 0.1695,-0.06511 z" /><path
         id="path9445"
         style="font-variation-settings:'wght' 300;opacity:1;fill:url(#linearGradient1618);fill-opacity:1;stroke-width:0.658;stroke-linecap:round;stroke-linejoin:round"
         d="m 1462.9229,-27.622854 c -1.3309,0.106746 -2.4684,1.010242 -2.8736,2.282483 -0.044,0.139217 -0.031,0.285639 0.019,0.32174 0.07,0.05013 0.07,0.05013 0.07,0.05013 0.9938,-0.565874 1.7842,-0.451431 2.5146,0.271113 0.1038,0.102741 0.1809,0.3114 0.1809,0.457525 v 2.101164 a 0.26458333,0.26458333 45 0 0 0.2646,0.264583 h 2.0055 c 0.1461,0 0.3543,-0.07772 0.4557,-0.182869 0.5277,-0.547082 0.85,-1.260287 0.9121,-2.017816 0.012,-0.145597 0.012,-0.382966 0,-0.528566 -0,-0.0583 -0.011,-0.116464 -0.019,-0.174428 -0.02,-0.144759 -0.138,-0.18547 -0.2577,-0.101688 -1.1033,0.772283 -2.2096,0.67663 -3.309,-0.286346 -0.1099,-0.09626 -0.1115,-0.264197 -0,-0.362384 0.9962,-0.904033 2.0485,-1.080929 3.0394,-0.431421 0.1222,0.08008 0.1629,0.04772 0.088,-0.07748 -0.5468,-0.909416 -1.5,-1.500362 -2.5577,-1.585659 -0.1456,-0.01174 -0.2645,-0.01068 -0.2647,-0.01068 z m 3.3217,2.059037 c 0.035,0.08845 0.067,0.178389 0.095,0.269578 0.043,0.139779 0.1597,0.182478 0.2685,0.08491 0.043,-0.0381 -0,-0.159679 -0.1033,-0.264054 -0.055,-0.05637 -0.1107,-0.109943 -0.1665,-0.160752 -0.108,-0.0984 -0.1479,-0.06526 -0.093,0.07031 z m -0.8977,3.70779 c 0.022,-0.01809 0.022,-0.01809 0.022,-0.01809 h -10e-4 z m -0.1167,0.09715 c 0.1167,-0.09715 0.1167,-0.09715 0.1167,-0.09715 z m -0.071,0.05426 c 0.043,-0.03101 0.043,-0.03101 0.043,-0.03101 0.028,-0.02325 0.028,-0.02325 0.028,-0.02325 z m -0.1137,0.08216 c 0.1137,-0.08216 0.1137,-0.08216 0.1137,-0.08216 z m -0.07,0.04599 c 0.051,-0.03204 0.051,-0.03204 0.051,-0.03204 0.019,-0.01395 0.019,-0.01395 0.019,-0.01395 z m -0.1209,0.07597 c 0.1209,-0.07597 0.1209,-0.07597 0.1209,-0.07597 z m -0.107,0.05891 c 0.095,-0.05168 0.095,-0.05168 0.095,-0.05168 0.012,-0.0072 0.012,-0.0072 0.012,-0.0072 v -3e-5 z m -0.082,0.04393 c 0.082,-0.04393 0.082,-0.04393 0.082,-0.04393 z m -0.2114,0.09767 c 0.1974,-0.08992 0.1974,-0.08992 0.1974,-0.08992 0.014,-0.0078 0.014,-0.0078 0.014,-0.0078 v 5e-5 z m -1.7106,-3.173967 c -0.089,0.02739 -0.089,0.02739 -0.089,0.02739 -0.089,0.02481 -0.089,0.02481 -0.089,0.02481 -0.089,0.02119 -0.089,0.02119 -0.089,0.02119 -0.089,0.01809 -0.089,0.01809 -0.089,0.01809 -0.089,0.01499 -0.089,0.01499 -0.089,0.01499 -0.089,0.01137 -0.089,0.01137 -0.089,0.01137 -0.089,0.0088 -0.089,0.0088 -0.089,0.0088 -0.089,0.0057 -0.089,0.0057 -0.089,0.0057 -0.089,0.0021 -0.089,0.0021 -0.089,0.0021 -0.089,-5.16e-4 -0.089,-5.16e-4 -0.089,-5.16e-4 -0.089,-0.0041 -0.089,-0.0041 -0.089,-0.0041 -0.089,-0.0072 -0.089,-0.0072 -0.089,-0.0072 -0.089,-0.01034 -0.089,-0.01034 -0.089,-0.01034 -0.089,-0.01344 -0.089,-0.01344 -0.089,-0.01344 -0.089,-0.01654 -0.089,-0.01654 -0.089,-0.01654 -0.089,-0.01964 -0.089,-0.01964 -0.089,-0.01964 -0.089,-0.02274 -0.089,-0.02274 -0.089,-0.02274 -0.089,-0.02636 -0.089,-0.02636 -0.089,-0.02636 -0.089,-0.02894 -0.089,-0.02894 -0.089,-0.02894 -0.089,-0.03256 -0.089,-0.03256 -0.089,-0.03256 -0.089,-0.03514 -0.089,-0.03514 -0.089,-0.03514 -0.089,-0.03876 -0.089,-0.03876 -0.089,-0.03876 -0.089,-0.04186 -0.089,-0.04186 -0.089,-0.04186 -0.089,-0.04496 -0.089,-0.04496 -0.089,-0.04496 -0.089,-0.04806 -0.089,-0.04806 -0.089,-0.04806 -0.089,-0.05116 -0.089,-0.05116 -0.089,-0.05116 -0.089,-0.05426 -0.089,-0.05426 -0.089,-0.05426 -0.089,-0.05788 -0.089,-0.05788 -0.089,-0.05788 -0.089,-0.06046 -0.089,-0.06046 -0.089,-0.06046 -0.019,-0.01395 -0.019,-0.01395 -0.019,-0.01395 -0.2375,0.182514 -0.2644,0.205523 -0.2913,0.229199 -0.1096,0.09656 -0.1079,0.265011 0,0.359709 0.9253,0.787562 1.8564,0.804495 2.7843,0.04918 0.1133,-0.09221 0.1963,-0.174086 0.1927,-0.174153 z"
         inkscape:path-effect="#path-effect9719"
         inkscape:original-d="m 1463.1872,-27.633455 a 3.2946599,3.2946599 0 0 0 -3.2081,2.548164 c 0.03,0.02285 0.059,0.04486 0.089,0.06666 0.023,0.01709 0.046,0.03361 0.07,0.05013 0.9027,-0.626547 1.8456,-0.509022 2.6955,0.464055 v 2.63033 h 2.5347 a 3.2946599,3.2946599 0 0 0 1.1142,-2.464966 3.2946599,3.2946599 0 0 0 -0.076,-0.699182 c -1.2384,0.991833 -2.4814,0.889224 -3.715,-0.306958 1.1237,-1.133264 2.3297,-1.335173 3.4452,-0.45992 a 3.2946599,3.2946599 0 0 0 -2.9491,-1.828312 z m 2.9491,1.828312 a 3.2946599,3.2946599 0 0 1 0.2698,0.766878 c 0.093,-0.07419 0.1854,-0.154366 0.278,-0.240812 -0.1796,-0.205578 -0.3624,-0.380626 -0.5478,-0.526066 z m -0.7684,3.931026 a 3.2946599,3.2946599 0 0 1 -0.021,0.01809 3.2946599,3.2946599 0 0 0 0.022,-0.01809 z m -0.021,0.01809 a 3.2946599,3.2946599 0 0 1 -0.1167,0.09715 3.2946599,3.2946599 0 0 0 0.1167,-0.09715 z m -0.1167,0.09715 a 3.2946599,3.2946599 0 0 1 -0.071,0.05426 3.2946599,3.2946599 0 0 0 0.043,-0.03101 3.2946599,3.2946599 0 0 0 0.028,-0.02325 z m -0.071,0.05426 a 3.2946599,3.2946599 0 0 1 -0.1137,0.08216 3.2946599,3.2946599 0 0 0 0.1137,-0.08216 z m -0.1137,0.08216 a 3.2946599,3.2946599 0 0 1 -0.07,0.04599 3.2946599,3.2946599 0 0 0 0.051,-0.03204 3.2946599,3.2946599 0 0 0 0.019,-0.01395 z m -0.07,0.04599 a 3.2946599,3.2946599 0 0 1 -0.1209,0.07597 3.2946599,3.2946599 0 0 0 0.1209,-0.07597 z m -0.1209,0.07597 a 3.2946599,3.2946599 0 0 1 -0.107,0.05891 3.2946599,3.2946599 0 0 0 0.095,-0.05168 3.2946599,3.2946599 0 0 0 0.012,-0.0072 z m -0.107,0.05891 a 3.2946599,3.2946599 0 0 1 -0.082,0.04393 3.2946599,3.2946599 0 0 0 0.082,-0.04393 z m -0.082,0.04393 a 3.2946599,3.2946599 0 0 1 -0.2114,0.09767 3.2946599,3.2946599 0 0 0 0.1974,-0.08992 3.2946599,3.2946599 0 0 0 0.014,-0.0078 z m -1.833,-3.106787 c -0.03,0.01076 -0.06,0.02078 -0.089,0.03049 -0.03,0.0097 -0.06,0.01873 -0.089,0.02739 -0.03,0.0087 -0.059,0.0172 -0.089,0.02481 -0.03,0.0076 -0.06,0.01463 -0.089,0.02119 -0.03,0.0066 -0.06,0.01258 -0.089,0.01809 -0.03,0.0055 -0.06,0.01053 -0.089,0.01499 -0.03,0.0045 -0.059,0.008 -0.089,0.01137 -0.03,0.0034 -0.06,0.0064 -0.089,0.0088 -0.03,0.0024 -0.06,0.0044 -0.089,0.0057 -0.03,0.0013 -0.06,0.0018 -0.089,0.0021 -0.03,2.51e-4 -0.059,2.84e-4 -0.089,-5.16e-4 -0.03,-8.01e-4 -0.06,-0.0023 -0.089,-0.0041 -0.03,-0.0019 -0.06,-0.0043 -0.089,-0.0072 -0.03,-0.0029 -0.06,-0.0064 -0.089,-0.01034 -0.03,-0.004 -0.059,-0.0084 -0.089,-0.01344 -0.03,-0.005 -0.06,-0.01048 -0.089,-0.01654 -0.03,-0.0061 -0.06,-0.01253 -0.089,-0.01964 -0.03,-0.0071 -0.059,-0.01458 -0.089,-0.02274 -0.03,-0.0082 -0.06,-0.01715 -0.089,-0.02636 -0.03,-0.0092 -0.06,-0.01869 -0.089,-0.02894 -0.03,-0.01025 -0.059,-0.02125 -0.089,-0.03256 -0.03,-0.0113 -0.06,-0.02279 -0.089,-0.03514 -0.03,-0.01235 -0.059,-0.02535 -0.089,-0.03876 -0.03,-0.0134 -0.06,-0.0274 -0.089,-0.04186 -0.03,-0.01445 -0.059,-0.02945 -0.089,-0.04496 -0.03,-0.0155 -0.059,-0.03151 -0.089,-0.04806 -0.03,-0.01655 -0.06,-0.03356 -0.089,-0.05116 -0.03,-0.0176 -0.059,-0.03561 -0.089,-0.05426 -0.03,-0.01865 -0.06,-0.03817 -0.089,-0.05788 -0.03,-0.0197 -0.059,-0.03971 -0.089,-0.06046 -0.01,-0.0045 -0.013,-0.0094 -0.019,-0.01395 -0.1628,0.113023 -0.3242,0.250036 -0.4836,0.410828 1.0557,1.023554 2.1199,1.042101 3.1791,0.05323 z" /><path
         id="path7910"
         style="font-variation-settings:'wght' 300;opacity:1;fill:url(#linearGradient1618);fill-opacity:1;stroke-width:0.658;stroke-linecap:round;stroke-linejoin:round"
         d="m 1462.6599,-19.988015 c -1.8448,0.244527 -3.4053,1.747084 -3.9749,3.836613 -0.077,0.28186 0.119,0.515664 0.4113,0.515664 l 8.186,0 c 0.2923,0 0.4881,-0.233822 0.4113,-0.515705 -0.57,-2.090969 -2.1323,-3.594008 -3.9784,-3.837046 -0.2896,-0.03812 -0.7658,-0.0379 -1.0553,4.74e-4 z"
         inkscape:path-effect="#path-effect9717"
         inkscape:original-d="m 1463.1875,-20.023067 a 4.7343854,5.5841694 0 0 0 -4.6204,4.387329 h 9.2444 a 4.7343854,5.5841694 0 0 0 -4.624,-4.387329 z" /><ellipse
         style="font-variation-settings:'wght' 300;opacity:1;fill:url(#linearGradient1618);fill-opacity:1;stroke-width:0.658;stroke-linecap:round;stroke-linejoin:round"
         id="path9504"
         cx="1464.7062"
         cy="-25.39432"
         rx="0.82459462"
         ry="0.82459468" /></g><g
       id="g9524"
       style="display:inline;fill:url(#linearGradient1606);fill-opacity:1"
       inkscape:label="DialogIcon"
       transform="translate(3.8508303,-16.847383)"><path
         id="path9513"
         style="font-variation-settings:'wght' 300;display:inline;opacity:1;fill:url(#linearGradient1618);fill-opacity:1;stroke-width:0.658;stroke-linecap:round;stroke-linejoin:round"
         d="m 1463.6177,-26.082326 c -2.6848,0.101101 -4.8434,1.732249 -5.016,3.777056 -0.012,0.145546 -0.012,0.382944 0,0.528511 0.1722,2.045011 2.331,3.676441 5.016,3.777539 0.146,0.0055 0.383,0.0054 0.529,-2.61e-4 0.3377,-0.01314 0.6729,-0.051 1.0011,-0.11305 0.1435,-0.02714 0.3534,0.0172 0.4734,0.100548 0.2127,0.147729 0.4553,0.299111 0.722,0.438409 0.1295,0.0676 0.3442,0.167748 0.4784,0.225657 0.5502,0.237514 1.0749,0.401895 1.373,0.487441 0.1393,0.03997 0.1646,-0.01041 0.066,-0.118693 -0.2539,-0.280224 -0.6999,-0.868093 -0.9041,-1.719145 -0.034,-0.14122 0.047,-0.321485 0.1655,-0.407222 0.9672,-0.70095 1.5527,-1.655399 1.6401,-2.671264 0.013,-0.14553 0.013,-0.382938 3e-4,-0.528503 -0.1726,-2.044828 -2.3313,-3.675977 -5.0161,-3.777028 -0.146,-0.0055 -0.383,-0.0055 -0.529,5e-6 z"
         inkscape:path-effect="#path-effect9713"
         inkscape:original-d="m 1463.8822,-26.087297 a 5.291678,4.0465775 0 0 0 -5.2916,4.046265 5.291678,4.0465775 0 0 0 5.2916,4.046782 5.291678,4.0465775 0 0 0 1.5245,-0.1726 c 0.3136,0.235212 0.7131,0.495321 1.1735,0.710551 0.9286,0.43406 1.8676,0.664559 1.8676,0.664559 0,0 -0.9085,-0.77546 -1.1436,-2.164209 a 5.291678,4.0465775 0 0 0 1.8697,-3.085083 5.291678,4.0465775 0 0 0 -5.2917,-4.046265 z" /><path
         style="font-variation-settings:'wght' 300;display:none;opacity:1;fill:url(#pattern12903);fill-opacity:1;stroke-width:0.658;stroke-linecap:round;stroke-linejoin:round"
         d="m 1461.7241,-26.649036 c -2.3239,0.126734 -3.2579,0.373529 -4.1294,2.158174 -0.8131,1.6649 -0.3115,3.424026 0.9959,4.731382 1.3075,1.307356 5.437,1.224349 7.0972,-1.141342 1.66,-2.365692 1.7224,-6.058292 -3.9637,-5.748214 z"
         id="path9517"
         sodipodi:nodetypes="sssss" /><path
         style="fill:url(#linearGradient1606);stroke-width:1"
         d="m 1461.1793,-19.81265 c -0.7827,-0.35542 -1.7579,-0.646217 -2.1672,-0.646217 -0.4093,0 -0.8178,-0.119063 -0.9078,-0.264583 -0.3087,-0.499603 1.4614,-0.268721 3.0427,0.396875 0.8644,0.363802 1.8431,0.663281 2.1749,0.665509 0.4865,0.0033 0.5265,0.05368 0.2064,0.260532 -0.549,0.354778 -0.7304,0.322952 -2.349,-0.412116 z m 0.1308,-1.866411 c -1.6586,-0.713053 -2.5433,-0.835825 -3.6018,-0.499853 -0.5895,0.187093 -0.6205,0.163505 -0.2971,-0.226163 0.5285,-0.636753 2.1557,-0.542124 3.8935,0.226418 1.8133,0.801907 3.1211,0.838209 4.3001,0.119363 0.4873,-0.297065 0.8382,-0.396647 0.7797,-0.221293 -0.42,1.260005 -2.8679,1.550178 -5.0744,0.601528 z m 0.2338,-1.854951 c -0.9012,-0.386802 -2.1316,-0.692023 -2.8463,-0.70606 -0.7538,-0.01481 -1.1625,-0.12106 -1.0186,-0.264885 0.4402,-0.440207 2.0172,-0.247789 3.6698,0.447757 1.9633,0.826333 2.795,0.858533 4.1007,0.15875 1.1237,-0.602252 1.3618,-0.653355 1.1045,-0.237033 -0.7514,1.215719 -2.9608,1.480972 -5.0101,0.601471 z m 0.5292,-1.664224 c -0.7276,-0.271254 -1.6206,-0.618005 -1.9844,-0.770556 -1.357,-0.569031 0.4138,-0.337046 1.9684,0.257872 1.3072,0.500221 1.6161,0.529903 2.5629,0.246245 1.1491,-0.344283 1.6533,-0.231139 0.8492,0.190568 -1.0309,0.540667 -2.0861,0.56424 -3.3961,0.07587 z"
         id="path33016" /></g><g
       id="g9708"
       style="display:none;fill:url(#linearGradient1606);fill-opacity:1"
       inkscape:label="ParentheticalIcon"
       transform="translate(3.8508303,-16.847383)"><path
         id="path9526"
         style="font-variation-settings:'wght' 300;opacity:1;fill:url(#linearGradient1606);fill-opacity:1;stroke-width:0.658;stroke-linecap:round;stroke-linejoin:round"
         d="m 1458.4844,-27.761762 c -1.0185,1.707652 -1.6021,3.914167 -1.6445,6.219934 -0,0.146098 -0,0.383035 0,0.529134 0.037,1.981904 0.4738,3.89857 1.251,5.489429 0.064,0.131288 0.2377,0.236216 0.3838,0.236216 h 1.0486 c 0.1461,0 0.1965,-0.097 0.1175,-0.219902 -0.9405,-1.462848 -1.4908,-3.451645 -1.5342,-5.548864 -0,-0.146091 -0,-0.383037 -10e-5,-0.529129 0.05,-2.445597 0.7887,-4.724249 2.0077,-6.201679 0.093,-0.112725 0.054,-0.200424 -0.092,-0.200424 l -1.1347,0 c -0.1461,0 -0.3285,0.09979 -0.4033,0.225285 z m 7.7777,-0.02483 c 1.2184,1.47791 1.9562,3.756452 2.0061,6.201595 0,0.146121 0,0.383089 -10e-5,0.52918 -0.043,2.097219 -0.5937,4.086016 -1.5342,5.548864 -0.079,0.122905 -0.029,0.219902 0.1175,0.219902 h 1.0526 c 0.1461,0 0.3195,-0.104976 0.3836,-0.236318 0.7759,-1.591497 1.2115,-3.508067 1.2473,-5.489328 0,-0.146099 0,-0.383036 0,-0.529136 -0.042,-2.305114 -0.6241,-4.511516 -1.6413,-6.219838 -0.075,-0.125546 -0.2571,-0.225378 -0.4032,-0.225378 l -1.1364,0 c -0.1461,0 -0.1849,0.08772 -0.092,0.200457 z"
         inkscape:path-effect="#path-effect9702"
         inkscape:original-d="m 1458.6231,-27.987047 a 6.3501129,9.6600457 0 0 0 -1.7857,6.709785 6.3501129,9.6600457 0 0 0 1.3727,5.990213 h 1.5778 a 5.0836583,8.1202533 0 0 1 -1.6841,-6.03333 5.0836583,8.1202533 0 0 1 2.1832,-6.666668 z m 7.4663,0 a 5.0836583,8.1202533 0 0 1 2.1815,6.666668 5.0836583,8.1202533 0 0 1 -1.6841,6.03333 h 1.5818 a 6.3501129,9.6600457 0 0 0 1.3687,-5.990213 6.3501129,9.6600457 0 0 0 -1.7823,-6.709785 z" /><ellipse
         style="font-variation-settings:'wght' 300;opacity:1;fill:url(#linearGradient1606);fill-opacity:1;stroke-width:0.658;stroke-linecap:round;stroke-linejoin:round"
         id="path9592"
         cx="1460.4081"
         cy="-19.844555"
         rx="1.0492005"
         ry="1.0266371" /><ellipse
         style="font-variation-settings:'wght' 300;opacity:1;fill:url(#linearGradient1606);fill-opacity:1;stroke-width:0.658;stroke-linecap:round;stroke-linejoin:round"
         id="ellipse9698"
         cx="1463.1874"
         cy="-19.844555"
         rx="1.0492005"
         ry="1.0266371" /><ellipse
         style="font-variation-settings:'wght' 300;opacity:1;fill:url(#linearGradient1606);fill-opacity:1;stroke-width:0.658;stroke-linecap:round;stroke-linejoin:round"
         id="ellipse9700"
         cx="1465.9667"
         cy="-19.844555"
         rx="1.0492005"
         ry="1.0266371" /></g><g
       id="g9772"
       style="display:none;fill:url(#linearGradient1606);fill-opacity:1;stroke-width:0.885961"
       transform="matrix(1.1043477,0,0,1.1536225,-148.57123,-13.47133)"
       inkscape:label="TransitionIcon"><path
         id="rect9725"
         style="font-variation-settings:'wght' 300;opacity:1;fill:url(#linearGradient1606);fill-opacity:1;stroke-width:0.582963;stroke-linecap:round;stroke-linejoin:round"
         d="m 1463.243,-22.500534 c -0.9715,-0.0025 -4.3575,-0.0112 -5.7411,-0.01235 -0.1461,-1.21e-4 -0.2646,0.118333 -0.2646,0.264458 v 1.44349 a 0.26458333,0.26458333 45 0 0 0.2646,0.264583 h 5.7702 a 0.26725305,0.26725305 44.712389 0 1 0.2673,0.26457 l 0.01,0.964903 c 0,0.146118 0.092,0.187011 0.2028,0.09139 0.4984,-0.431065 1.8148,-1.568513 2.6501,-2.278677 0.1113,-0.09463 0.1083,-0.243994 -0.01,-0.333919 l -2.6475,-2.066933 a 0.13242041,0.13242041 154.56795 0 0 -0.2138,0.101707 l -0.021,1.032939 c -0,0.146096 -0.1238,0.264215 -0.2699,0.263833 z"
         sodipodi:nodetypes="cccccccc"
         inkscape:path-effect="#path-effect9766"
         inkscape:original-d="m 1463.5076,-22.499837 c 0,0 -4.9323,-0.01317 -6.2703,-0.01317 v 1.972656 h 6.2994 l 0.015,1.494043 c 0,0 2.0559,-1.780543 3.0519,-2.622949 l -3.0645,-2.392579 z" /><path
         id="path9734"
         style="font-variation-settings:'wght' 300;opacity:0.504525;fill:url(#linearGradient1606);fill-opacity:1;stroke-width:0.582963;stroke-linecap:round;stroke-linejoin:round"
         d="m 1458.7952,-27.186454 c -0.1461,-9e-6 -0.2646,0.118451 -0.2646,0.264583 v 3.618901 c 0,0.146131 0.1185,0.264592 0.2646,0.264583 h 3.9062 c 0.1461,9e-6 0.2646,-0.118452 0.2646,-0.264583 l 0.01,-1.426787 c -0.013,-0.275253 0.1393,-0.337737 0.2765,-0.22841 l 0.3462,0.310576 v -0.22841 -2.310453 z m 0,7.179406 a 0.26458333,0.26458333 0 0 0 -0.2646,0.264584 v 3.300057 a 0.26458333,0.26458333 0 0 0 0.2646,0.264583 h 4.8033 v -2.289266 l -0.4304,0.363802 a 0.1227851,0.1227851 0 0 1 -0.2021,-0.09405 v -1.545125 a 0.26458333,0.26458333 0 0 0 -0.2646,-0.264584 z" /><path
         id="path9761"
         style="font-variation-settings:'wght' 300;opacity:1;fill:url(#linearGradient1606);fill-opacity:1;stroke-width:0.582963;stroke-linecap:round;stroke-linejoin:round"
         d="m 1463.5985,-16.177991 h 3.5383 1.2687 a 0.26458333,0.26458333 0 0 0 0.2645,-0.264584 v -10.479463 a 0.26458333,0.26458333 0 0 0 -0.2645,-0.264584 h -0.7395 -4.0675 v 2.538863 l 3.591,2.802413 a 0.21495461,0.21495461 0 0 1 0.01,0.33383 l -3.6008,3.044259 z" /></g><path
       id="rect9489"
       style="font-variation-settings:'wght' 700;display:none;fill:url(#linearGradient1606);stroke:none;stroke-width:1.61687;stroke-linecap:round;stroke-linejoin:round;stroke-dasharray:none"
       d="m 1467.0815,-44.134848 c -0.083,0.08913 -0.1608,0.29859 -0.1697,0.443824 0,6e-5 0,1.2e-4 0,1.8e-4 -0.01,0.144884 -0,0.381244 -0,0.527369 l 0,3.57044 c 0,0.07316 7e-4,0.195422 -0.034,0.259229 -0,0.005 -0.01,0.0099 -0.01,0.01472 -0.065,0.107228 -0.1761,0.03972 -0.1761,-0.08827 l 0,-2.559801 c 0,-0.146125 0,-0.383316 -0.01,-0.529112 -0.01,-0.144131 -0.092,-0.373081 -0.1978,-0.472212 -0.089,-0.0832 -0.2986,-0.164404 -0.4439,-0.164074 -0.143,3.24e-4 -0.371,0.08846 -0.4702,0.194331 -0.083,0.08897 -0.1607,0.298296 -0.1696,0.443529 0,5.5e-5 0,1.11e-4 0,1.66e-4 -0.01,0.144884 -0,0.381244 -0,0.527369 v 4.220415 0.652239 c 0,0.146125 0,0.40484 -0.1026,0.500015 -0.061,0.0548 -0.1412,0.08537 -0.2228,0.08449 -0.1418,-0.0015 -0.3114,-0.196626 -0.4084,-0.305939 l -0.7138,-0.8047 c -0.097,-0.109313 -0.2518,-0.288865 -0.3538,-0.393525 0,-1.9e-5 -10e-5,-3.8e-5 -10e-5,-5.7e-5 -0.1013,-0.103996 -0.3028,-0.236165 -0.4445,-0.269055 -0.094,-0.02174 -0.1906,-0.02754 -0.2862,-0.01713 -0.1447,0.01574 -0.3632,0.120846 -0.472,0.217629 -0.1079,0.0959 -0.2377,0.299393 -0.2706,0.44117 -0.022,0.09372 -0.027,0.190556 -0.017,0.2862 0.016,0.144673 0.123,0.360862 0.2139,0.47488 0,1.05e-4 10e-5,2.09e-4 2e-4,3.14e-4 0.091,0.11382 0.2483,0.290352 0.3444,0.400461 0.466,0.534182 1.3213,1.502897 2.0582,2.274631 0.1008,0.105609 0.2654,0.275955 0.3696,0.378459 0.1038,0.102204 0.2827,0.257741 0.4029,0.340674 0.4451,0.306981 0.8818,0.399301 1.2826,0.428295 0.1456,0.01053 0.3824,0.01376 0.5286,0.01427 0.1453,5.1e-4 0.3817,2.84e-4 0.5278,2.84e-4 h 0.9513 c 0.1461,0 0.3831,0.0015 0.5292,-0.0015 0,0 0,-1e-6 10e-5,-1e-6 0.1459,-0.0031 0.382,-0.03071 0.5225,-0.07039 0.6348,-0.179256 1.1331,-0.677519 1.3124,-1.31232 0.04,-0.140521 0.067,-0.376739 0.071,-0.52277 0,-2.1e-5 0,-4.3e-5 0,-6.5e-5 0,-0.145977 0,-0.382826 0,-0.528951 v -1.20923 -0.529166 l 0,-3.587375 c 0,-0.146125 0,-0.383316 -0.01,-0.529112 -0.01,-0.144131 -0.092,-0.373081 -0.1978,-0.472212 -0.089,-0.0832 -0.2986,-0.16441 -0.4439,-0.164077 -0.143,3.28e-4 -0.371,0.08854 -0.4701,0.194523 -0.083,0.08892 -0.1603,0.298085 -0.1692,0.443319 0,6.2e-5 0,1.24e-4 0,1.87e-4 -0.01,0.144884 -0,0.381244 -0,0.527369 v 1.145319 c 0,0.121202 0.01,0.349718 -0.092,0.407761 -0.061,0.03535 -0.1264,-0.10109 -0.1264,-0.247215 v -3.137791 c 0,-0.146125 0,-0.383316 -0.01,-0.529112 -0.01,-0.144126 -0.092,-0.373067 -0.1977,-0.472246 -0.089,-0.08351 -0.2992,-0.164869 -0.4445,-0.164533 -0.143,3.31e-4 -0.3708,0.08864 -0.4699,0.194646 -0.083,0.08909 -0.1605,0.298442 -0.1694,0.443675 0,6.6e-5 0,1.31e-4 0,1.97e-4 -0.01,0.144884 -0,0.381245 -0,0.52737 v 2.927764 c 0,0.09316 0.01,0.253428 -0.041,0.328759 -0.064,0.09366 -0.1769,-0.01394 -0.1769,-0.16007 v -3.623033 c 0,-0.146125 0,-0.383316 -0.01,-0.529112 -0.01,-0.144136 -0.092,-0.373098 -0.1977,-0.472326 -0.089,-0.08342 -0.2969,-0.178553 -0.442,-0.174211 10e-5,0 -0.1152,0.02371 -0.2569,0.05295 z"
       sodipodi:nodetypes="ssccssscccssscssccsssccsssccsss"
       inkscape:path-effect="#path-effect9686"
       inkscape:original-d="m 1467.2963,-44.28615 c -0.1504,0.06509 -0.271,0.185654 -0.3361,0.336153 -0.058,0.133191 -0.053,0.375814 -0.053,0.521939 v 3.967495 c 0,0.124843 -0.1,0.245007 -0.2181,0.284958 v -3.05614 c 0,-0.146127 0,-0.388754 -0.053,-0.521952 -0.065,-0.150347 -0.1854,-0.270706 -0.3357,-0.335694 -0.1332,-0.05757 -0.3816,-0.05755 -0.5148,-1.4e-5 -0.1504,0.06499 -0.271,0.185364 -0.3361,0.335733 -0.058,0.133162 -0.053,0.375799 -0.053,0.521924 v 4.749581 0.652239 a 0.3193401,0.3193401 0 0 1 -0.5582,0.211916 l -1.065,-1.200558 c -0.097,-0.109314 -0.2535,-0.291595 -0.3784,-0.366227 -0.2381,-0.142179 -0.5317,-0.159767 -0.785,-0.04699 -0.133,0.0592 -0.3151,0.22078 -0.3897,0.345744 -0.1422,0.238072 -0.1597,0.531738 -0.047,0.785044 0.059,0.132963 0.2204,0.311211 0.3162,0.421629 0.4233,0.487986 1.5405,1.764465 2.4153,2.664693 0.1016,0.104532 0.2677,0.273487 0.3792,0.367816 0.6174,0.522115 1.227,0.589494 1.7565,0.60082 0.1453,0.0031 0.3817,0.0029 0.5278,0.0029 h 1.4805 c 0.1461,0 0.3837,0.0019 0.5284,-0.01793 0.8445,-0.115871 1.5093,-0.780616 1.6252,-1.625123 0.02,-0.144675 0.018,-0.382262 0.018,-0.528387 v -1.738396 -0.415995 -3.700546 c 0,-0.146127 0,-0.388754 -0.053,-0.521952 -0.065,-0.150347 -0.1854,-0.270706 -0.3357,-0.335694 -0.1332,-0.05757 -0.3816,-0.05757 -0.5148,2.3e-5 -0.1503,0.06499 -0.2706,0.185344 -0.3356,0.335674 -0.058,0.133197 -0.053,0.375821 -0.053,0.521946 v 1.629358 c 0,0.146125 -0.096,0.231325 -0.2181,0.205673 v -3.666957 c 0,-0.146127 0,-0.388752 -0.053,-0.521942 -0.065,-0.150516 -0.1857,-0.271087 -0.3362,-0.336175 -0.1332,-0.05759 -0.3816,-0.05761 -0.5147,5.3e-5 -0.1504,0.0651 -0.2707,0.185637 -0.3357,0.336104 -0.058,0.13322 -0.053,0.375832 -0.053,0.521957 v 3.361036 a 0.24245819,0.24245819 0 0 1 -0.2181,0.264583 v -4.152199 c 0,-0.146127 0,-0.388742 -0.053,-0.521962 -0.065,-0.150484 -0.1854,-0.271033 -0.3358,-0.336125 -0.1331,-0.05764 -0.2575,-0.05297 -0.2577,-0.05297 z" /><path
       sodipodi:type="star"
       style="display:none;fill:url(#linearGradient1606);stroke-width:0.714078;stroke-linecap:round;stroke-linejoin:round"
       id="path2779"
       inkscape:flatsided="false"
       sodipodi:sides="5"
       sodipodi:cx="1457.3726"
       sodipodi:cy="-27.553886"
       sodipodi:r1="6.9162226"
       sodipodi:r2="3.5708559"
       sodipodi:arg1="0.947597"
       sodipodi:arg2="1.5759155"
       inkscape:rounded="0"
       inkscape:randomized="0"
       d="m 1461.1729,-22.056964 -3.5824,-1.806957 a 0.5312946,0.5312946 0.2933094 0 0 -0.4737,-0.0024 l -3.6006,1.770185 a 0.13789078,0.13789078 36.293309 0 1 -0.1972,-0.14476 l 0.6115,-3.965417 a 0.5312946,0.5312946 72.293309 0 0 -0.144,-0.45124 l -2.7962,-2.877436 a 0.13789078,0.13789078 108.29331 0 1 0.077,-0.232202 l 3.9603,-0.643806 a 0.5312946,0.5312946 144.29331 0 0 0.3847,-0.276456 l 1.8725,-3.548538 a 0.13789078,0.13789078 0.2933094 0 1 0.2445,0.0013 l 1.8361,3.567523 a 0.5312946,0.5312946 36.293309 0 0 0.3818,0.28038 l 3.9535,0.684319 a 0.13789078,0.13789078 72.293309 0 1 0.074,0.232975 l -2.8255,2.848657 a 0.5312946,0.5312946 108.29331 0 0 -0.1487,0.449741 l 0.5709,3.97147 a 0.13789078,0.13789078 144.29331 0 1 -0.1986,0.142735 z"
       inkscape:transform-center-x="-0.0098210791"
       inkscape:transform-center-y="-0.61333051"
       transform="matrix(0.89990001,0,0,0.94354987,155.53884,-11.872631)"
       inkscape:path-effect="#path-effect2781" /><path
       id="rect6485"
       style="font-variation-settings:'wght' 700;display:none;opacity:1;fill:url(#linearGradient6494);fill-opacity:1;stroke:none;stroke-width:0.658;stroke-linecap:round;stroke-linejoin:round;stroke-opacity:1"
       d="m 1470.6645,-42.855222 -3.4392,3.439216 a 0.2645816,0.2645816 0 0 1 -0.3742,-10e-7 l -3.4391,-3.439176 a 0.26458121,0.26458121 0 0 0 -0.3742,-1e-6 l -0.3705,0.370523 a 0.26458545,0.26458545 0 0 0 0,0.374179 l 3.4391,3.439176 a 0.26458621,0.26458621 0 0 1 0,0.374179 l -3.4388,3.438849 a 0.26457929,0.26457929 0 0 0 0,0.374174 l 0.3702,0.370202 a 0.26458733,0.26458733 0 0 0 0.3742,-4e-6 l 3.4388,-3.43885 a 0.26458388,0.26458388 0 0 1 0.3742,-10e-7 l 3.4392,3.43918 a 0.26458486,0.26458486 0 0 0 0.3742,-10e-7 l 0.3705,-0.370522 a 0.26458184,0.26458184 0 0 0 0,-0.374177 l -3.4392,-3.439181 a 0.2645816,0.2645816 0 0 1 0,-0.374176 l 3.4392,-3.439217 a 0.26457811,0.26457811 0 0 0 0,-0.374173 l -0.3702,-0.370202 a 0.26458851,0.26458851 0 0 0 -0.3742,4e-6 z" /><path
       id="path9446-0"
       style="font-variation-settings:'wght' 700;display:none;fill:url(#linearGradient1606);fill-opacity:1;stroke:none;stroke-width:0.658;stroke-linecap:round;stroke-linejoin:round;stroke-opacity:1"
       inkscape:transform-center-x="-0.16829809"
       inkscape:transform-center-y="-0.19617884"
       d="m 1461.9153,-43.948054 a 0.22379244,0.22379244 0 0 0 -0.2088,0.19637 l -0.477,3.957381 a 0.1227453,0.1227453 0 0 0 0.1897,0.116789 l 1.1787,-0.775663 a 0.26459137,0.26459137 0 0 1 0.3669,0.07545 l 1.6909,2.568836 c 0.08,0.122052 0.228,0.135367 0.338,0.03927 0.3673,-0.320789 0.8043,-0.560562 1.2784,-0.682646 0.1415,-0.03642 0.1936,-0.153387 0.1132,-0.275435 l -1.7927,-2.722315 a 0.26459732,0.26459732 0 0 1 0.077,-0.366902 l 1.1782,-0.775664 a 0.12276509,0.12276509 0 0 0 -0.033,-0.220658 l -3.822,-1.126029 a 0.22379244,0.22379244 0 0 0 -0.077,-0.0088 z m 10.2319,0 a 0.22379552,0.22379552 0 0 0 -0.077,0.0088 h -5e-4 l -3.8225,1.125512 a 0.12274743,0.12274743 0 0 0 -0.033,0.220659 l 1.1788,0.775663 a 0.26458802,0.26458802 0 0 1 0.076,0.366903 l -1.7932,2.722831 c -0.08,0.122045 -0.028,0.238382 0.1137,0.273368 0.4739,0.116918 0.9209,0.344418 1.2939,0.659908 0.1116,0.09432 0.2597,0.08018 0.3401,-0.04186 l 1.6738,-2.541963 a 0.26456565,0.26456565 0 0 1 0.3664,-0.07545 l 1.1787,0.775663 a 0.122738,0.122738 0 0 0 0.1897,-0.116789 l -0.4765,-3.956864 a 0.22379552,0.22379552 0 0 0 -0.2088,-0.19637 z m -5.1092,5.972245 a 2.6368897,2.6368897 0 0 0 -2.6366,2.637048 2.6368897,2.6368897 0 0 0 2.6366,2.636532 2.6368897,2.6368897 0 0 0 2.637,-2.636532 2.6368897,2.6368897 0 0 0 -2.637,-2.637048 z" /><path
       id="rect2224"
       style="font-variation-settings:'wght' 600;display:none;fill:url(#linearGradient1618);stroke-width:0.658;stroke-linecap:round;stroke-linejoin:round"
       d="m 1463.1432,-44.575574 c -0.1251,0.0014 -0.2732,0.0096 -0.3643,0.05064 -0.1265,0.05709 -0.2287,0.158707 -0.2857,0.285254 -0.055,0.121504 -0.051,0.345251 -0.051,0.479557 v 9.177735 c 0,0.134307 -5e-4,0.357537 0.051,0.47904 0.057,0.126546 0.1592,0.228673 0.2857,0.285771 0.1215,0.05482 0.3448,0.05013 0.4791,0.05013 h 6.3474 c 0.1343,0 0.3579,0.0046 0.4795,-0.05013 0.1265,-0.0571 0.2283,-0.159236 0.2853,-0.285771 0.055,-0.121499 0.051,-0.344733 0.051,-0.47904 v -5.312854 -0.975135 a 0.67546715,0.67546715 0 0 0 -0.1551,-0.430464 l -2.5538,-3.08715 a 0.51679488,0.51679488 0 0 0 -0.3984,-0.187586 h -0.6382 -3.4174 c -0.033,0 -0.073,-4.51e-4 -0.1142,0 z m 0.6212,0.718819 h 5e-4 2.4236 a 0.24318427,0.24318427 0 0 1 0.2434,0.243396 v 2.660303 c 0,0.134307 -5e-4,0.357541 0.051,0.479041 0.057,0.126534 0.1593,0.228153 0.2858,0.285254 0.1215,0.05483 0.3447,0.05064 0.479,0.05064 h 2.1167 a 0.24318427,0.24318427 0 0 1 0.2428,0.242879 v 4.902026 c 0,0.134307 -7e-4,0.375252 -0.1038,0.453719 -0.074,0.05649 -0.2689,0.05323 -0.4031,0.05323 h -5.3351 c -0.1343,0 -0.3751,-7.69e-4 -0.4537,-0.10387 -0.056,-0.07421 -0.053,-0.268769 -0.053,-0.403076 v -8.356079 c 0,-0.134305 7e-4,-0.375251 0.1039,-0.453719 0.074,-0.05635 0.2677,-0.05376 0.402,-0.05374 z m 3.5595,0.343132 h 10e-4 a 0.08763475,0.08763475 0 0 1 0.076,0.03101 l 2.019,2.438611 a 0.11434409,0.11434409 0 0 1 -0.088,0.187068 h -1.5797 c -0.1343,0 -0.3747,-7.65e-4 -0.4532,-0.103869 -0.056,-0.07422 -0.053,-0.268771 -0.053,-0.403076 v -2.062407 a 0.08763475,0.08763475 0 0 1 0.078,-0.08733 z m 3.7258,2.89543 a 0.0952195,0.0952195 0 0 0 -0.086,0.09508 v 0 6.63112 c 0,0.146125 -2e-4,0.402204 -0.099,0.502812 -0.1006,0.10045 -0.3562,0.09819 -0.5023,0.09819 h -5.0721 -1.3218 c -0.1461,0 -0.2708,0.1196 -0.2465,0.26355 0.011,0.06692 0.079,0.235071 0.1917,0.326595 0.063,0.05168 0.2397,0.117651 0.385,0.125057 0.1213,0.0062 0.3386,0.0031 0.4847,0.0031 h 5.8182 c 0.1461,0 0.3835,0.0051 0.5292,-0.0062 0.1209,-0.0094 0.3313,-0.09177 0.4227,-0.204122 0.052,-0.0633 0.1174,-0.239764 0.1251,-0.384989 0.01,-0.121376 0,-0.338084 0,-0.484208 v -4.783171 -0.975134 c 0,-0.146125 -2e-4,-0.388217 -0.051,-0.522449 -0.043,-0.103103 -0.1792,-0.264624 -0.2723,-0.377238 l -0.2264,-0.273885 a 0.0952195,0.0952195 0 0 0 -0.083,-0.03411 z m -6.5277,2.379183 c -0.13,0 -0.2346,0.104626 -0.2346,0.234611 v 0.293523 c 0,0.129984 0.1046,0.234611 0.2346,0.234611 h 3.8194 c 0.13,0 0.2351,-0.104627 0.2351,-0.234611 v -0.293523 c 0,-0.129985 -0.1051,-0.234611 -0.2351,-0.234611 z m 0,1.231967 c -0.13,0 -0.2346,0.104625 -0.2346,0.234611 v 0.293522 c 0,0.129986 0.1046,0.234611 0.2346,0.234611 h 1.7813 c 0.13,0 0.2346,-0.104625 0.2346,-0.234611 v -0.293522 c 0,-0.129986 -0.1046,-0.234611 -0.2346,-0.234611 z" /><path
       id="rect1623"
       style="color:#000000;display:none;fill:url(#linearGradient2243);stroke-width:0.999999;stroke-linecap:round;stroke-miterlimit:2.4"
       d="m 1461.7715,-44.200312 c -0.1823,0.07341 -0.3296,0.221355 -0.4025,0.4041 -0.054,0.134932 -0.05,0.376759 -0.05,0.522884 v 2.434477 a 0.26458333,0.26458333 45 0 0 0.2646,0.264583 h 0.3281 a 0.26458333,0.26458333 135 0 0 0.2646,-0.264583 l 0,-1.527039 a 0.10960843,0.10960843 157.49733 0 1 0.1871,-0.07751 l 2.2897,2.289262 c 0.1033,0.103316 0.29,0.287974 0.4293,0.266994 0.097,-0.01456 0.2416,-0.16369 0.3449,-0.267021 0.096,-0.09645 0.2755,-0.277519 0.2545,-0.416776 -0.014,-0.09663 -0.1637,-0.241608 -0.267,-0.344946 l -2.2876,-2.288152 a 0.1096106,0.1096106 112.50307 0 1 0.077,-0.187109 h 1.56 a 0.26458333,0.26458333 135 0 0 0.2646,-0.264583 v -0.330213 a 0.26458333,0.26458333 45 0 0 -0.2646,-0.264583 h -2.4706 c -0.1461,0 -0.388,-0.004 -0.5227,0.05022 z m 4.0372,1.379153 v 0.251665 a 0.26458333,0.26458333 45 0 0 0.2646,0.264583 h 4.5217 a 0.26458333,0.26458333 45 0 1 0.2646,0.264583 v 4.552694 a 0.26458333,0.26458333 45 0 0 0.2646,0.264583 h 0.2501 a 0.26458333,0.26458333 135 0 0 0.2646,-0.264583 v -4.686019 c 0,-0.146125 0,-0.388877 -0.055,-0.521469 -0.066,-0.148425 -0.1863,-0.269335 -0.3344,-0.335528 -0.1325,-0.0592 -0.3754,-0.05509 -0.5215,-0.05509 h -4.655 a 0.26458333,0.26458333 135 0 0 -0.2646,0.264583 z m -3.3714,3.339848 v 4.686536 c 0,0.146125 -0,0.388876 0.055,0.521473 0.066,0.148435 0.1863,0.269351 0.3344,0.335541 0.1325,0.05919 0.3754,0.05508 0.5215,0.05508 h 4.687 a 0.26458333,0.26458333 135 0 0 0.2646,-0.264583 v -0.251665 a 0.26458333,0.26458333 45 0 0 -0.2646,-0.264583 h -4.5537 a 0.26458333,0.26458333 45 0 1 -0.2646,-0.264583 l 0,-4.553211 a 0.26458333,0.26458333 45 0 0 -0.2646,-0.264583 h -0.2501 a 0.26458333,0.26458333 135 0 0 -0.2646,0.264583 z m 6.4343,2.479436 c -0.2835,0.283883 -0.4628,0.465193 -0.4416,0.604409 0.015,0.09631 0.1636,0.241072 0.2669,0.344408 l 2.2882,2.288674 a 0.10960815,0.10960815 112.50261 0 1 -0.078,0.187106 h -1.5254 a 0.26458333,0.26458333 135 0 0 -0.2646,0.264583 v 0.330213 a 0.26458333,0.26458333 45 0 0 0.2646,0.264583 h 2.4349 c 0.1461,0 0.388,0.004 0.5227,-0.05028 0.1824,-0.07351 0.3296,-0.221667 0.4026,-0.404549 0.054,-0.134944 0.05,-0.376765 0.05,-0.52289 v -2.434478 a 0.26458333,0.26458333 45 0 0 -0.2646,-0.264583 h -0.3281 a 0.26458333,0.26458333 135 0 0 -0.2646,0.264583 v 1.52704 a 0.10959389,0.10959389 157.50002 0 1 -0.1871,0.07749 l -2.2892,-2.289226 c -0.1033,-0.103326 -0.2675,-0.270289 -0.3871,-0.270289 z"
       inkscape:original-d="m 1462.0296,-44.250529 c -0.3869,0 -0.7105,0.325717 -0.7105,0.712618 v 2.963643 h 0.8573 v -2.056205 l 2.6639,2.663404 c 0.1108,0.110772 0.2892,0.110772 0.4,0 l 0.3617,-0.361736 c 0.1108,-0.110772 0.1108,-0.289203 0,-0.399975 l -2.6618,-2.66237 h 2.0892 v -0.859379 z m 3.7791,1.164787 v 0.780831 h 5.0509 v 5.08186 h 0.7793 v -5.215185 c 0,-0.351546 -0.2945,-0.647506 -0.646,-0.647506 z m -3.3714,3.339848 v 5.215702 c 0,0.351542 0.2944,0.647506 0.646,0.647506 h 5.2162 v -0.780831 h -5.0829 v -5.082377 z m 6.6343,2.660819 c -0.072,0 -0.1446,0.02781 -0.2,0.0832 l -0.3618,0.362252 c -0.1107,0.110772 -0.1107,0.288687 0,0.399459 l 2.6624,2.662886 h -2.0546 v 0.859379 h 2.9641 c 0.3869,0 0.7106,-0.326237 0.7106,-0.713134 v -2.963644 h -0.8573 v 2.056206 l -2.6634,-2.663404 c -0.055,-0.05539 -0.1277,-0.0832 -0.2,-0.0832 z"
       inkscape:path-effect="#path-effect3125" /><path
       id="path9089"
       style="color:#000000;display:none;fill:url(#linearGradient1618);stroke-width:0.999999;stroke-linecap:round;stroke-miterlimit:2.4"
       d="m 1463.5215,-44.232959 c -0.1461,4.6e-5 -0.2646,0.11849 -0.2646,0.264583 h 6e-4 v 0.251665 c 0,0.146131 0.1184,0.264583 0.2645,0.264583 h 8.1913 c 0.1461,4.6e-5 0.2646,0.11849 0.2646,0.264583 v 7.846033 c 0,0.146132 0.1184,0.264583 0.2645,0.264583 h 0.2501 c 0.1461,0 0.2646,-0.118451 0.2646,-0.264583 v -7.979358 c 0,-0.146124 5e-4,-0.388823 -0.055,-0.521415 -0.066,-0.148425 -0.1863,-0.269187 -0.3344,-0.33538 -0.1325,-0.0592 -0.3758,-0.05529 -0.5219,-0.05529 z m -1.3539,0.344165 c -0.01,-2.25e-4 -0.018,7.06e-4 -0.027,0.0021 -0.097,0.01455 -0.2414,0.163826 -0.3447,0.267167 -0.096,0.09648 -0.2757,0.277779 -0.2547,0.417029 0.015,0.09659 0.1638,0.241354 0.2671,0.344682 l 2.8169,2.817399 c 0.069,0.06922 0.02,0.187465 -0.078,0.187069 h -1.5601 c -0.1461,-9e-6 -0.2646,0.118451 -0.2646,0.264583 v 0.330212 c 0,0.146132 0.1185,0.264593 0.2646,0.264584 h 2.4706 c 0.1461,0 0.3878,0.0041 0.5225,-0.05013 h 5e-4 c 0.1823,-0.0734 0.3296,-0.221371 0.4025,-0.40411 0.054,-0.13493 0.05,-0.376841 0.05,-0.522966 v -2.434476 c 0,-0.146132 -0.1185,-0.264593 -0.2646,-0.264584 h -0.3282 c -0.1461,-9e-6 -0.2645,0.118452 -0.2645,0.264584 v 1.527038 c 0,0.09764 -0.118,0.146552 -0.1871,0.07751 l -2.819,-2.818433 c -0.097,-0.09686 -0.2669,-0.265344 -0.4025,-0.268717 z m -0.5984,1.95802 c -0.1461,-10e-7 -0.2646,0.118452 -0.2646,0.264583 v 8.053256 c 0,0.146124 10e-5,0.389335 0.055,0.521932 0.066,0.148434 0.1862,0.26919 0.3343,0.33538 0.1325,0.05919 0.3754,0.05478 0.5215,0.05478 h 7.9256 c 0.1461,9e-6 0.2646,-0.118452 0.2646,-0.264584 v -0.251664 c 0,-0.146132 -0.1185,-0.264583 -0.2646,-0.264583 h -7.7923 c -0.1461,0 -0.2646,-0.118452 -0.2646,-0.264584 v -7.91993 c 0,-0.146131 -0.1185,-0.264581 -0.2646,-0.264583 z m 6.7737,3.995105 c -0.136,0.0014 -0.2979,0.0095 -0.3989,0.05013 -0.1824,0.0735 -0.3296,0.221754 -0.4026,0.404627 -0.054,0.134943 -0.05,0.37684 -0.05,0.522965 v 2.434477 c 0,0.146132 0.1185,0.264592 0.2646,0.264583 h 0.3281 c 0.1461,9e-6 0.2646,-0.118451 0.2646,-0.264583 v -1.527039 c 0,-0.09766 0.1181,-0.146579 0.1871,-0.07751 l 2.8184,2.818432 c 0.1033,0.103327 0.2675,0.270268 0.3871,0.270268 l 0.2005,-0.0832 c 0.2835,-0.283848 0.4625,-0.465394 0.4413,-0.604614 -0.015,-0.09633 -0.1633,-0.24084 -0.2666,-0.344165 l -2.818,-2.817916 c -0.069,-0.06888 -0.02,-0.186588 0.077,-0.187069 h 1.526 c 0.1461,9e-6 0.2646,-0.118451 0.2646,-0.264583 v -0.330213 c 0,-0.146131 -0.1185,-0.264592 -0.2646,-0.264583 h -2.4349 c -0.037,0 -0.079,-4.63e-4 -0.1241,0 z" /></g></svg>
