<?xml version="1.0" encoding="UTF-8" standalone="no"?>
<!-- Created with Inkscape (http://www.inkscape.org/) -->

<svg
   width="48.000278"
   height="47.999989"
   viewBox="0 0 12.700074 12.699997"
   version="1.1"
   id="svg5"
   inkscape:version="1.2.1 (9c6d41e410, 2022-07-14)"
   sodipodi:docname="underlined.svg"
   xml:space="preserve"
   xmlns:inkscape="http://www.inkscape.org/namespaces/inkscape"
   xmlns:sodipodi="http://sodipodi.sourceforge.net/DTD/sodipodi-0.dtd"
   xmlns="http://www.w3.org/2000/svg"
   xmlns:svg="http://www.w3.org/2000/svg"><sodipodi:namedview
     id="namedview7"
     pagecolor="#505050"
     bordercolor="#ffffff"
     borderopacity="1"
     inkscape:showpageshadow="0"
     inkscape:pageopacity="1"
     inkscape:pagecheckerboard="1"
     inkscape:deskcolor="#505050"
     inkscape:document-units="mm"
     showgrid="true"
     inkscape:zoom="16.583337"
     inkscape:cx="23.879391"
     inkscape:cy="23.999994"
     inkscape:window-width="1920"
     inkscape:window-height="1002"
     inkscape:window-x="-8"
     inkscape:window-y="-8"
     inkscape:window-maximized="1"
     inkscape:current-layer="layer6"
     showguides="false"><inkscape:grid
       type="xygrid"
       id="grid132"
       visible="true"
       color="#ffffff"
       opacity="0.02352941"
       empcolor="#777777"
       empopacity="0.16470588"
       originx="0"
       originy="0"
       enabled="false" /></sodipodi:namedview><defs
     id="defs2"><rect
       x="5520.7114"
       y="-169.45296"
       width="48.000278"
       height="47.999989"
       id="rect1918" /><linearGradient
       id="linearGradient6477"
       inkscape:swatch="solid"
       gradientTransform="matrix(-1.6977076e-5,1.9736819e-5,4.3240248e-5,5.0269044e-5,193.40822,-1.2429071)"><stop
         style="stop-color:#f89568;stop-opacity:1;"
         offset="0"
         id="stop6475" /></linearGradient><linearGradient
       id="linearGradient9776"
       inkscape:swatch="solid"
       gradientTransform="matrix(9.0769027e-5,0,0,9.0769027e-5,-0.51055264,0.83863903)"><stop
         style="stop-color:#b2b7be;stop-opacity:1;"
         offset="0"
         id="stop9774" /></linearGradient><linearGradient
       id="linearGradient1642"
       inkscape:swatch="solid"
       gradientTransform="matrix(0.53491831,0,0,1.6710713,578.25432,638.40486)"><stop
         style="stop-color:#75c590;stop-opacity:1;"
         offset="0"
         id="stop1640" /></linearGradient><linearGradient
       id="linearGradient1636"
       inkscape:swatch="solid"
       gradientTransform="matrix(2.372496e-4,0,0,-2.7055498e-4,-99.855184,269.11388)"><stop
         style="stop-color:#f0b762;stop-opacity:1;"
         offset="0"
         id="stop1634" /></linearGradient><linearGradient
       id="linearGradient1630"
       inkscape:swatch="solid"
       gradientTransform="matrix(0.30427083,0,0,0.29793192,-77.004766,47.015341)"><stop
         style="stop-color:#548ed0;stop-opacity:1;"
         offset="0"
         id="stop1628" /></linearGradient><linearGradient
       id="linearGradient1624"
       inkscape:swatch="solid"
       gradientTransform="matrix(0,0,0,0,-2192.7255,364.95949)"><stop
         style="stop-color:#f06262;stop-opacity:1;"
         offset="0"
         id="stop1622" /></linearGradient><linearGradient
       id="linearGradient1618"
       inkscape:swatch="solid"
       gradientTransform="matrix(0.00777811,0,0,0.00851033,359.32712,-18.874339)"><stop
         style="stop-color:#272932;stop-opacity:1;"
         offset="0"
         id="stop1616" /></linearGradient><linearGradient
       id="linearGradient1612"
       inkscape:swatch="solid"
       gradientTransform="matrix(7.6147856e-4,-1.3570623e-4,-1.9460236e-4,-5.0413612e-4,576.71913,-15.022291)"><stop
         style="stop-color:#424c55;stop-opacity:1;"
         offset="0"
         id="stop1610" /></linearGradient><linearGradient
       id="linearGradient1606"
       inkscape:swatch="solid"
       gradientTransform="matrix(0.0050977,0,0,0.00503612,-34.077088,-601.94435)"><stop
         style="stop-color:#59656f;stop-opacity:1;"
         offset="0"
         id="stop1604" /></linearGradient><linearGradient
       id="linearGradient1600"
       gradientTransform="matrix(-1.4661263e-5,-3.0196091e-6,8.8953209e-7,-4.3189906e-6,-575.51279,-2119.7064)"
       inkscape:swatch="solid"><stop
         style="stop-color:#f9efdf;stop-opacity:1;"
         offset="0"
         id="stop1598" /></linearGradient><linearGradient
       id="linearGradient1594"
       inkscape:swatch="solid"
       gradientTransform="matrix(-8.108782e-5,-8.108782e-5,8.2436551e-5,-8.2436551e-5,1159.1418,-358.45006)"><stop
         style="stop-color:#eddab7;stop-opacity:1;"
         offset="0"
         id="stop1592" /></linearGradient></defs><g
     inkscape:groupmode="layer"
     id="layer6"
     inkscape:label="Icons"
     transform="translate(-1460.6882,44.834427)"><path
       id="text1916"
       style="font-style:normal;font-variant:normal;font-weight:normal;font-stretch:normal;font-size:8px;font-family:'Courier New';-inkscape-font-specification:'Courier New, Normal';font-variant-ligatures:normal;font-variant-caps:normal;font-variant-numeric:normal;font-variant-east-asian:normal;white-space:pre;shape-inside:url(#rect1918);display:inline;fill:url(#linearGradient1618);stroke-width:0.351064;stroke-linecap:round;stroke-miterlimit:2.4;fill-rule:evenodd"
       transform="matrix(1.184075,0,0,1.2651661,-5072.7437,169.50323)"
       d="m 5521.2541,-166.90509 c -0.078,0 -0.1329,0.0128 -0.1641,0.0388 -0.037,0.0339 -0.055,0.0755 -0.055,0.12498 0,0.0495 0.017,0.0901 0.051,0.12132 0.034,0.0286 0.09,0.0429 0.168,0.0429 h 0.2771 v 2.74238 c 0,0.3125 0.079,0.59897 0.2383,0.85939 0.1589,0.25781 0.3517,0.45036 0.5783,0.57796 0.2265,0.12761 0.4856,0.19157 0.7773,0.19157 0.4349,0 0.806,-0.15641 1.1133,-0.46891 0.3073,-0.3125 0.4609,-0.69908 0.4609,-1.16001 v -2.74238 h 0.2771 c 0.078,0 0.1342,-0.0142 0.168,-0.0429 0.034,-0.0312 0.051,-0.0718 0.051,-0.12132 0,-0.0495 -0.017,-0.0886 -0.051,-0.11722 -0.034,-0.0312 -0.09,-0.0466 -0.168,-0.0466 h -1.2107 c -0.078,0 -0.1341,0.0153 -0.168,0.0466 -0.034,0.0286 -0.051,0.0677 -0.051,0.11722 0,0.0495 0.017,0.0901 0.051,0.12132 0.034,0.0286 0.09,0.0429 0.168,0.0429 h 0.6054 v 2.74238 c 0,0.25781 -0.068,0.48946 -0.203,0.69519 -0.1328,0.20573 -0.289,0.3581 -0.4687,0.45706 -0.1771,0.099 -0.3739,0.14827 -0.5901,0.14827 -0.3385,0 -0.6315,-0.12604 -0.8789,-0.37864 -0.2474,-0.2526 -0.371,-0.55991 -0.371,-0.92188 v -2.74238 h 0.6053 c 0.078,0 0.1342,-0.0142 0.1681,-0.0429 0.034,-0.0312 0.051,-0.0718 0.051,-0.12132 0,-0.0495 -0.017,-0.0886 -0.051,-0.11722 -0.034,-0.0312 -0.09,-0.0466 -0.1681,-0.0466 z m -0.072,4.80099 c -0.082,0 -0.1471,0.0614 -0.1471,0.13765 0,0.0763 0.066,0.13765 0.1471,0.13765 h 3.8659 c 0.082,0 0.147,-0.0614 0.147,-0.13765 0,-0.0763 -0.065,-0.13765 -0.147,-0.13765 z m 7.2953,-2.29144 a 5.3628669,5.0191026 0 0 1 -5.3628,5.01911 5.3628669,5.0191026 0 0 1 -5.3629,-5.01911 5.3628669,5.0191026 0 0 1 5.3629,-5.0191 5.3628669,5.0191026 0 0 1 5.3628,5.0191 z" /></g></svg>
