<?xml version="1.0" encoding="UTF-8" standalone="no"?>
<!-- Created with Inkscape (http://www.inkscape.org/) -->

<svg
   width="27.552"
   height="27.743"
   viewBox="0 0 7.2897999 7.3403366"
   version="1.1"
   fill="currentColor"
   id="svg5"
   inkscape:version="1.2.1 (9c6d41e410, 2022-07-14)"
   sodipodi:docname="stepTabIcon.svg"
   xml:space="preserve"
   xmlns:inkscape="http://www.inkscape.org/namespaces/inkscape"
   xmlns:sodipodi="http://sodipodi.sourceforge.net/DTD/sodipodi-0.dtd"
   xmlns="http://www.w3.org/2000/svg"
   xmlns:svg="http://www.w3.org/2000/svg"><sodipodi:namedview
     id="namedview7"
     pagecolor="#505050"
     bordercolor="#ffffff"
     borderopacity="1"
     inkscape:showpageshadow="0"
     inkscape:pageopacity="1"
     inkscape:pagecheckerboard="1"
     inkscape:deskcolor="#505050"
     inkscape:document-units="mm"
     showgrid="true"
     inkscape:zoom="8.4062523"
     inkscape:cx="-14.691446"
     inkscape:cy="25.992558"
     inkscape:window-width="1920"
     inkscape:window-height="1009"
     inkscape:window-x="-8"
     inkscape:window-y="-8"
     inkscape:window-maximized="1"
     inkscape:current-layer="g19567"
     showguides="true"><inkscape:grid
       type="xygrid"
       id="grid132"
       visible="true"
       color="#ffffff"
       opacity="0.02352941"
       empcolor="#777777"
       empopacity="0.16470588"
       originx="0"
       originy="0"
       enabled="false" /></sodipodi:namedview><defs
     id="defs2"><linearGradient
       id="linearGradient15646"
       inkscape:swatch="solid"><stop
         style="stop-color:#cce8ff;stop-opacity:1;"
         offset="0"
         id="stop15644" /></linearGradient><linearGradient
       id="linearGradient3480"
       inkscape:swatch="solid"><stop
         style="stop-color:#59656f;stop-opacity:1;"
         offset="0"
         id="stop3478" /></linearGradient><linearGradient
       id="linearGradient26821"
       inkscape:swatch="solid"><stop
         style="stop-color:#000000;stop-opacity:1;"
         offset="0"
         id="stop26819" /></linearGradient><linearGradient
       id="linearGradient26807"
       inkscape:swatch="solid"><stop
         style="stop-color:#000000;stop-opacity:1;"
         offset="0"
         id="stop26805" /></linearGradient><linearGradient
       id="linearGradient19651"
       inkscape:swatch="solid"><stop
         style="stop-color:#000000;stop-opacity:1;"
         offset="0"
         id="stop19649" /></linearGradient><linearGradient
       id="linearGradient6477"
       inkscape:swatch="solid"
       gradientTransform="matrix(-1.2456145e-6,1.4480979e-6,3.1725534e-6,3.6882587e-6,1071.5408,-38.797025)"><stop
         style="stop-color:#f89568;stop-opacity:1;"
         offset="0"
         id="stop6475" /></linearGradient><linearGradient
       id="linearGradient9776"
       inkscape:swatch="solid"
       gradientTransform="matrix(9.0769027e-5,0,0,9.0769027e-5,-0.51055264,0.83863903)"><stop
         style="stop-color:#b2b7be;stop-opacity:1;"
         offset="0"
         id="stop9774" /></linearGradient><linearGradient
       id="linearGradient1642"
       inkscape:swatch="solid"
       gradientTransform="matrix(0.14153047,0,0,0.44213761,1616.0243,124.74459)"><stop
         style="stop-color:#75c590;stop-opacity:1;"
         offset="0"
         id="stop1640" /></linearGradient><linearGradient
       id="linearGradient1636"
       inkscape:swatch="solid"
       gradientTransform="matrix(2.372496e-4,0,0,-2.7055498e-4,-99.855184,269.11388)"><stop
         style="stop-color:#f0b762;stop-opacity:1;"
         offset="0"
         id="stop1634" /></linearGradient><linearGradient
       id="linearGradient1630"
       inkscape:swatch="solid"
       gradientTransform="matrix(0.30427083,0,0,0.29793192,-77.004766,47.015341)"><stop
         style="stop-color:#548ed0;stop-opacity:1;"
         offset="0"
         id="stop1628" /></linearGradient><linearGradient
       id="linearGradient1624"
       inkscape:swatch="solid"
       gradientTransform="matrix(0,0,0,0,-2.3518274,-6.4901056)"><stop
         style="stop-color:#f06262;stop-opacity:1;"
         offset="0"
         id="stop1622" /></linearGradient><linearGradient
       id="linearGradient1618"
       inkscape:swatch="solid"
       gradientTransform="matrix(-1.5244716e-8,0,0,2.8497514e-8,727.63724,-324.84994)"><stop
         style="stop-color:#272932;stop-opacity:1;"
         offset="0"
         id="stop1616" /></linearGradient><linearGradient
       id="linearGradient1612"
       inkscape:swatch="solid"
       gradientTransform="matrix(7.6147856e-4,-1.3570623e-4,-1.9460236e-4,-5.0413612e-4,576.71913,-15.022291)"><stop
         style="stop-color:#424c55;stop-opacity:1;"
         offset="0"
         id="stop1610" /></linearGradient><linearGradient
       id="linearGradient1606"
       inkscape:swatch="solid"
       gradientTransform="matrix(0.00134877,0,0,0.00133247,-9.0162294,-159.26444)"><stop
         style="stop-color:#59656f;stop-opacity:1;"
         offset="0"
         id="stop1604" /></linearGradient><linearGradient
       id="linearGradient1600"
       gradientTransform="matrix(6.6685485e-8,2.2281986e-8,0,3.1854839e-8,447.65979,665.48288)"
       inkscape:swatch="solid"><stop
         style="stop-color:#f9efdf;stop-opacity:1;"
         offset="0"
         id="stop1598" /></linearGradient><linearGradient
       id="linearGradient1594"
       inkscape:swatch="solid"
       gradientTransform="matrix(-8.108782e-5,-8.108782e-5,8.2436551e-5,-8.2436551e-5,1159.1418,-358.45006)"><stop
         style="stop-color:#eddab7;stop-opacity:1;"
         offset="0"
         id="stop1592" /></linearGradient></defs><g
     inkscape:groupmode="layer"
     id="layer6"
     inkscape:label="Icons"
     transform="translate(-1463.0278,44.166694)"><g
       id="g19567"
       inkscape:export-filename="..\Kednoi-v2\src\MinorIcons\stepTabIcon.svg"
       inkscape:export-xdpi="300"
       inkscape:export-ydpi="300">
       
       <path
   id="rect416"
   fill="currentcolor"
   d="m 1467.4508,-44.057549 2.4985,1.71359 c 0.1025,0.09108 0.068,0.161187 -0.022,0.222726 l -2.3817,1.669148 2.3817,1.69137 c 0.087,0.0781 0.1468,0.1598 0,0.267167 l -2.4096,1.558045 h 2.2923 c 0.2374,0 0.4284,-0.19105 0.4284,-0.428398 v -6.265251 c 0,-0.237348 -0.191,-0.428397 -0.4284,-0.428397 z"
   style="fill:#272932;fill-opacity:1" /><path
   id="rect19344-9"
   fill="currentcolor"
   d="m 1463.4689,-44.059942 c -0.1107,0 -0.3035,-0.0022 -0.3837,0.07057 -0.01,0.0055 -0.012,0.01164 -0.018,0.01764 -0.073,0.07993 -0.071,0.272584 -0.071,0.383451 v 2.533598 c 0,0.110867 0,0.303795 0.071,0.383842 0.01,0.0062 0.012,0.01203 0.018,0.01764 0.08,0.07301 0.2725,0.07057 0.3834,0.07057 h 3.2523 a 0.66176679,0.66176679 0 0 0 0.3678,-0.111349 l 2.1701,-1.449898 a 0.13411557,0.13411557 0 0 0 0,-0.223092 l -2.3674,-1.581244 a 0.6618924,0.6618924 0 0 0 -0.3677,-0.111742 z m 1.6088,0.436773 a 1.3360188,1.3360109 0 0 1 1.3362,1.335804 1.3360188,1.3360109 0 0 1 -1.3362,1.336196 1.3360188,1.3360109 0 0 1 -1.3359,-1.336196 1.3360188,1.3360109 0 0 1 1.3359,-1.335804 z m 0,0.392076 c -0.1112,0 -0.2,0.08945 -0.2,0.200352 v 0.543417 h -0.5435 c -0.1112,0 -0.2002,0.08906 -0.2002,0.199959 0,0.110903 0.089,0.200351 0.2002,0.200351 h 0.5435 v 0.543418 c 0,0.110902 0.089,0.200351 0.2,0.200351 0.1112,0 0.2003,-0.08945 0.2003,-0.200351 v -0.543418 h 0.5435 c 0.1112,0 0.2003,-0.08945 0.2003,-0.200351 0,-0.110903 -0.089,-0.199959 -0.2003,-0.199959 h -0.5435 v -0.543417 c 0,-0.110904 -0.089,-0.200352 -0.2003,-0.200352 z"
   style="fill:url(#linearGradient1618)" /><path
   id="rect19344-9-3"
   fill="currentcolor"
   d="m 1463.4217,-40.415206 c -0.1094,0.0015 -0.249,0.01116 -0.3142,0.07028 -0.01,0.0055 -0.012,0.01209 -0.018,0.01809 -0.073,0.07993 -0.071,0.272572 -0.071,0.383439 v 2.533179 c 0,0.110867 -2e-4,0.303908 0.071,0.383956 0.01,0.0062 0.012,0.01196 0.018,0.01757 0.08,0.07301 0.2725,0.0708 0.3834,0.0708 h 3.252 a 0.66176679,0.66176679 0 0 0 0.368,-0.111621 l 2.1699,-1.449524 a 0.13411557,0.13411557 0 0 0 0,-0.223243 l -2.3673,-1.581298 a 0.6618924,0.6618924 0 0 0 -0.3675,-0.111621 h -3.0551 c -0.021,0 -0.044,-3.54e-4 -0.069,0 z m 1.6784,0.436665 a 1.3360188,1.3360109 0 0 1 1.3359,1.335836 1.3360188,1.3360109 0 0 1 -1.3359,1.336353 1.3360188,1.3360109 0 0 1 -1.3363,-1.336353 1.3360188,1.3360109 0 0 1 1.3363,-1.335836 z m -0.7436,1.135848 c -0.1112,0 -0.2005,0.08909 -0.2005,0.199988 0,0.110903 0.089,0.200505 0.2005,0.200505 h 0.4274 0.1162 0.3938 c 0,0 0,4.81e-4 0.01,5.16e-4 v -5.16e-4 h 0.5437 c 0.1112,0 0.1999,-0.0896 0.1999,-0.200505 0,-0.110903 -0.089,-0.199988 -0.1999,-0.199988 h -0.3483 -0.01 -0.1861 -0.4 -0.087 z"
   style="fill:url(#linearGradient1618)" /></g></g></svg>
