<?xml version="1.0" encoding="UTF-8" standalone="no"?>
<!-- Created using Krita: https://krita.org -->

<svg
   width="368.64pt"
   height="368.64pt"
   viewBox="0 0 368.64 368.64"
   version="1.1"
   id="svg6993"
   sodipodi:docname="icon.svg"
   inkscape:version="1.2.1 (9c6d41e410, 2022-07-14)"
   xmlns:inkscape="http://www.inkscape.org/namespaces/inkscape"
   xmlns:sodipodi="http://sodipodi.sourceforge.net/DTD/sodipodi-0.dtd"
   xmlns="http://www.w3.org/2000/svg"
   xmlns:svg="http://www.w3.org/2000/svg">
  <sodipodi:namedview
     id="namedview6995"
     pagecolor="#505050"
     bordercolor="#ffffff"
     borderopacity="1"
     inkscape:showpageshadow="0"
     inkscape:pageopacity="0"
     inkscape:pagecheckerboard="1"
     inkscape:deskcolor="#505050"
     inkscape:document-units="pt"
     showgrid="false"
     inkscape:zoom="1.6703287"
     inkscape:cx="211.93433"
     inkscape:cy="246.05935"
     inkscape:window-width="1920"
     inkscape:window-height="1002"
     inkscape:window-x="-8"
     inkscape:window-y="-8"
     inkscape:window-maximized="1"
     inkscape:current-layer="svg6993" />
  <defs
     id="defs6989" />
  <path
     id="shape6"
     transform="matrix(1.44206134543442 0 0 1.44206134543442 91.0438275696887 70.9454156154253)"
     opacity="0.5"
     fill="#ffffff"
     fill-rule="evenodd"
     stroke-opacity="0"
     stroke="#000000"
     stroke-width="0"
     stroke-linecap="square"
     stroke-linejoin="bevel"
     d="M10.646 138.08L0.065 48.9911L9.555 40.1151L9.809 39.8561L10.036 39.5811L10.237 39.2921L10.41 38.9901L10.557 38.6781L10.677 38.3561L10.77 38.0281L10.836 37.6941L10.874 37.3571L10.885 37.0181L10.87 36.6791L10.836 36.4121L24.972 20.3771L25.2 20.0941L25.4 19.7991L25.571 19.4921L25.715 19.1751L25.831 18.8501L25.92 18.5191L25.981 18.1831L26.014 17.8441L26.02 17.5051L25.999 17.1661L25.95 16.8301L25.875 16.4981L25.772 16.1731L25.643 15.8551L25.487 15.5471L25.304 15.2511L25.095 14.9681L24.86 14.7001L24.598 14.4491L24.316 14.2201L24.021 14.0211L23.714 13.8491L23.397 13.7051L23.072 13.5891L22.74 13.5001L22.405 13.4391L22.066 13.4061L21.727 13.4001L21.388 13.4221L21.052 13.4701L20.72 13.5461L20.395 13.6481L20.077 13.7771L19.769 13.9331L19.473 14.1161L19.19 14.3251L18.922 14.5601L18.67 14.8221L5.56 29.6941L0.011 23.7611L0.095 11.8865L0.052 11.3029L0.022 10.7342L0.004 10.1802L0 9.6411L0.008 9.1168L0.029 8.6074L0.063 8.1127L0.11 7.6329L0.17 7.1679L0.243 6.7177L0.328 6.2823L0.427 5.8618L0.538 5.4561L0.663 5.0651L0.8 4.6891L0.95 4.3278L1.113 3.9813L1.289 3.6497L1.478 3.3329L1.68 3.0309L1.894 2.7437L2.122 2.4714L2.362 2.2138L2.616 1.9711L2.882 1.7432L3.161 1.5301L3.453 1.3319L3.758 1.1484L4.076 0.9798L4.406 0.826L4.75 0.687L5.106 0.5629L5.476 0.4535L5.858 0.359L6.253 0.2793L6.662 0.2144L7.083 0.1644L7.516 0.1291L7.963 0.1087L8.423 0.1031L118.35 0.0136L118.907 0L119.448 0.0082L119.972 0.0378L120.48 0.088L120.971 0.1583L121.444 0.2483L121.9 0.3573L122.339 0.4847L122.759 0.6301L123.162 0.7928L123.547 0.9723L123.913 1.1681L124.261 1.3795L124.59 1.606L124.9 1.847L125.191 2.1021L125.463 2.3706L125.715 2.6519L125.948 2.9456L126.161 3.251L126.353 3.5676L126.526 3.8948L126.678 4.2321L126.809 4.579L126.919 4.9347L127.009 5.2989L127.077 5.6708L127.123 6.0501L127.149 6.436L127.152 6.8281L127.133 7.2258L127.092 7.6285L127.029 8.0357L126.943 8.4468L126.834 8.8613L126.702 9.2785L126.548 9.698L126.369 10.1191L126.168 10.5413L125.942 10.9641L125.693 11.3869L125.419 11.8091L125.121 12.2302L124.799 12.6495L123.59 14.0701L122.387 15.4811L121.19 16.8841L120 18.2781L118.815 19.6641L117.637 21.0411L116.465 22.4101L115.299 23.7701L114.139 25.1211L112.985 26.4641L111.838 27.7981L110.696 29.1231L109.561 30.4401L108.432 31.7491L107.309 33.0481L106.192 34.3401L105.081 35.6221L103.976 36.8961L102.878 38.1611L101.785 39.4181L100.699 40.6661L99.619 41.9061L98.545 43.1371L97.477 44.3591L96.416 45.5731L95.36 46.7791L94.311 47.9751L93.267 49.1631L92.23 50.3431L91.199 51.5131L90.174 52.6761L89.155 53.8291L88.143 54.9741L87.136 56.1111L86.136 57.2391L85.142 58.3581L84.153 59.4691L83.171 60.5711L82.196 61.6641L81.226 62.7491L80.262 63.8251L79.305 64.8931L78.354 65.9521L77.408 67.0031L76.469 68.0451L75.536 69.0781L74.61 70.1031L73.689 71.1191L72.775 72.1261L71.866 73.1251L70.964 74.1161L70.068 75.0971L69.178 76.0701L68.294 77.0351L67.416 77.9911L66.545 78.9381L65.679 79.8771L64.82 80.8071L63.967 81.7291L63.12 82.6421L62.279 83.5461L61.444 84.4421L60.615 85.3291L60.129 85.8391L59.633 86.3591L59.126 86.8891L58.61 87.4301L58.084 87.9821L57.548 88.5441L57.003 89.1171L56.447 89.7001L55.881 90.2941L55.306 90.8991L54.72 91.5141L54.125 92.1401L53.52 92.7761L52.905 93.4231L52.28 94.0811L51.645 94.7491L51 95.4271L50.346 96.1161L49.681 96.8161L49.007 97.5271L48.322 98.2481L47.628 98.9791L46.924 99.7211L46.21 100.474L45.486 101.237L44.752 102.011L44.009 102.795L43.255 103.59L42.491 104.396L41.718 105.212L40.935 106.039L40.142 106.876L39.339 107.724L38.526 108.583L37.703 109.452L36.87 110.331L36.027 111.222L35.175 112.122L34.312 113.034L33.44 113.956L32.558 114.888L31.666 115.831L30.764 116.785L29.852 117.749L28.93 118.724L27.998 119.71L27.057 120.706L26.105 121.712L25.144 122.729L24.173 123.757L23.191 124.795L22.2 125.844L21.199 126.904L20.189 127.974L19.168 129.054L18.137 130.146L17.097 131.248L16.046 132.36L14.986 133.483L13.916 134.616L12.836 135.761L11.746 136.915L10.646 138.08M60.724 13.8451L60.985 14.0961L61.221 14.3641L61.43 14.6471L61.612 14.9441L61.768 15.2521L61.898 15.5691L62 15.8951L62.076 16.2261L62.124 16.5631L62.145 16.9011L62.139 17.2411L62.106 17.5791L62.045 17.9151L61.957 18.2461L61.841 18.5711L61.697 18.8881L61.525 19.1951L61.325 19.4911L61.097 19.7731L29.579 55.5261L31.738 57.8351L31.975 58.1101L32.183 58.3991L32.364 58.7011L32.517 59.0141L32.643 59.3351L32.741 59.6641L32.812 59.9981L32.855 60.3351L32.871 60.6741L32.86 61.0141L32.821 61.3511L32.755 61.6851L32.663 62.0131L32.543 62.3341L32.396 62.6471L32.222 62.9481L32.022 63.2371L31.794 63.5121L31.54 63.7711L20.585 74.0171L20.31 74.2541L20.02 74.4621L19.718 74.6431L19.406 74.7961L19.084 74.9221L18.756 75.0201L18.422 75.0911L18.085 75.1341L17.745 75.1501L17.406 75.1391L17.069 75.1001L16.735 75.0341L16.407 74.9421L16.085 74.8221L15.773 74.6751L15.471 74.5011L15.182 74.3011L14.907 74.0731L14.649 73.8191L4.402 62.8641L4.166 62.5891L3.957 62.2991L3.777 61.9981L3.623 61.6851L3.498 61.3641L3.4 61.0351L3.329 60.7011L3.286 60.3641L3.27 60.0241L3.281 59.6851L3.32 59.3481L3.385 59.0141L3.478 58.6861L3.598 58.3641L3.745 58.0521L3.919 57.7501L4.119 57.4611L4.347 57.1861L4.601 56.9281L15.556 46.6811L15.831 46.4451L16.12 46.2361L16.422 46.0561L16.735 45.9021L17.056 45.7771L17.385 45.6791L17.719 45.6081L18.056 45.5651L18.395 45.5491L18.734 45.5601L19.072 45.5991L19.406 45.6641L19.734 45.7571L20.055 45.8771L20.368 46.0241L20.669 46.1981L20.958 46.3981L21.233 46.6261L21.492 46.8801L23.815 49.3631L54.796 14.2181L55.047 13.9571L55.315 13.7211L55.598 13.5121L55.895 13.3301L56.202 13.1737L56.52 13.0445L56.846 12.942L57.177 12.8665L57.513 12.818L57.852 12.7967L58.192 12.8026L58.53 12.836L58.866 12.8968L59.197 12.9852L59.522 13.1013L59.839 13.2452L60.146 13.4171L60.442 13.6171L60.724 13.8451M96.141 14.0021L96.402 14.2531L96.638 14.5211L96.847 14.8041L97.029 15.1011L97.185 15.4081L97.314 15.7261L97.417 16.0521L97.492 16.3831L97.541 16.7191L97.562 17.0581L97.556 17.3981L97.523 17.7361L97.462 18.0721L97.374 18.4031L97.258 18.7281L97.114 19.0451L96.942 19.3521L96.742 19.6481L96.514 19.9301L54.853 67.1891L54.602 67.4501L54.334 67.6861L54.051 67.8951L53.755 68.0771L53.447 68.2331L53.129 68.3631L52.804 68.4651L52.472 68.5411L52.136 68.5891L51.797 68.6101L51.458 68.6041L51.119 68.5711L50.783 68.5101L50.452 68.4221L50.127 68.3061L49.81 68.1621L49.503 67.9901L49.207 67.7901L48.925 67.5621L48.664 67.3111L48.428 67.0431L48.219 66.7601L48.037 66.4631L47.881 66.1551L47.752 65.8381L47.649 65.5121L47.574 65.1811L47.525 64.8441L47.504 64.5061L47.51 64.1661L47.543 63.8281L47.604 63.4921L47.692 63.1611L47.808 62.8361L47.952 62.5191L48.124 62.2121L48.324 61.9161L48.552 61.6341L90.213 14.3751L90.464 14.1131L90.732 13.8781L91.015 13.6691L91.311 13.4861L91.619 13.3311L91.937 13.2014L92.262 13.0989L92.594 13.0234L92.93 12.9749L93.269 12.9536L93.608 12.9595L93.947 12.9929L94.283 13.0537L94.614 13.1421L94.939 13.2582L95.256 13.4021L95.563 13.5741L95.858 13.7741L96.141 14.0021M26.984 80.7411L37.939 70.4951L38.214 70.2591L38.503 70.0501L38.805 69.8691L39.118 69.7161L39.439 69.5911L39.768 69.4921L40.102 69.4221L40.439 69.3791L40.778 69.3631L41.117 69.3741L41.455 69.4121L41.789 69.4781L42.117 69.5711L42.438 69.6911L42.751 69.8381L43.052 70.0111L43.341 70.2121L43.616 70.4391L43.875 70.6941L54.121 81.6491L54.358 81.9241L54.566 82.2131L54.747 82.5151L54.9 82.8281L55.026 83.1491L55.124 83.4781L55.195 83.8111L55.238 84.1491L55.254 84.4881L55.243 84.8271L55.204 85.1651L55.138 85.4981L55.046 85.8271L54.926 86.1481L54.779 86.4601L54.605 86.7621L54.405 87.0511L54.177 87.3261L53.923 87.5851L42.968 97.8311L42.693 98.0681L42.403 98.2761L42.102 98.4571L41.789 98.6101L41.468 98.7361L41.139 98.8341L40.805 98.9051L40.468 98.9481L40.128 98.9641L39.789 98.9521L39.452 98.9141L39.118 98.8481L38.79 98.7551L38.468 98.6361L38.156 98.4891L37.854 98.3151L37.565 98.1141L37.29 97.8871L37.032 97.6331L26.785 86.6781L26.549 86.4031L26.34 86.1131L26.16 85.8111L26.006 85.4991L25.881 85.1771L25.783 84.8491L25.712 84.5151L25.669 84.1771L25.653 83.8381L25.664 83.4991L25.703 83.1621L25.768 82.8281L25.861 82.5001L25.981 82.1781L26.128 81.8661L26.302 81.5641L26.502 81.2751L26.73 81.0001L26.984 80.7411"
     sodipodi:nodetypes="cccccccccccccccccccccccccccccccccccccccccccccccccccccccccccccccccccccccccccccccccccccccccccccccccccccccccccccccccccccccccccccccccccccccccccccccccccccccccccccccccccccccccccccccccccccccccccccccccccccccccccccccccccccccccccccccccccccccccccccccccccccccccccccccccccccccccccccccccccccccccccccccccccccccccccccccccccccccccccccccccccccccccccccccccccccccccccccccccccccccccccccccccccccccccccccccccccccccccccccccccccccccccccccccccccccccccccccccccccccccccccccccccccccccccccccccccccccccccccccccccccccccccccccccccccccccccccccccccccccccccccccccccccccccccccccccccccccc"
     style="fill:#f9efdf;fill-opacity:1" />
  <path
     id="shape9"
     transform="matrix(1.44206134543442 0 0 1.44206134543442 90.928462662054 85.4832686571533)"
     fill="#ffffff"
     fill-rule="evenodd"
     stroke-opacity="0"
     stroke="#000000"
     stroke-width="0"
     stroke-linecap="square"
     stroke-linejoin="bevel"
     d="M0.124 129.444L0 61.1738L0.055 38.9928L9.635 30.0328L9.889 29.7738L10.116 29.4988L10.317 29.2098L10.491 28.9088L10.637 28.5958L10.757 28.2748L10.85 27.9468L10.916 27.6128L10.954 27.2748L10.966 26.9358L10.95 26.5968L10.906 26.2598L10.836 25.9258L10.738 25.5968L10.612 25.2758L10.459 24.9628L10.278 24.6608L10.069 24.3718L9.833 24.0968L0.118 13.7098L0.143 3.8618L0.164 3.3208L0.235 2.8111L0.352 2.3365L0.513 1.8989L0.714 1.5005L0.952 1.1436L1.224 0.8306L1.526 0.5636L1.856 0.345L2.21 0.1771L2.586 0.0621L2.978 0.0023L3.386 0L3.805 0.0575L4.232 0.177L4.665 0.3609L5.099 0.6113L5.532 0.9307L5.96 1.3213L6.167 1.5347L6.531 1.9137L7.046 2.4532L7.706 3.1477L8.507 3.9918L9.444 4.9808L10.512 6.1088L11.706 7.3698L13.02 8.7598L14.45 10.2728L15.99 11.9038L17.636 13.6478L19.383 15.4978L21.225 17.4508L23.158 19.4988L25.176 21.6388L27.274 23.8648L29.448 26.1718L31.693 28.5528L34.002 31.0048L36.372 33.5208L38.797 36.0958L41.273 38.7258L43.794 41.4038L46.355 44.1248L48.951 46.8838L51.577 49.6758L54.228 52.4948L56.899 55.3358L59.586 58.1928L62.282 61.0618L64.983 63.9368L67.684 66.8128L70.38 69.6838L73.066 72.5448L75.737 75.3908L78.388 78.2158L81.013 81.0148L83.608 83.7828L86.168 86.5138L88.687 89.2038L91.161 91.8458L93.585 94.4358L95.953 96.9678L98.261 99.4358L100.503 101.836L102.675 104.163L104.771 106.41L106.787 108.572L108.717 110.645L110.556 112.623L112.3 114.5L113.943 116.272L115.48 117.932L116.907 119.476L118.217 120.898L119.407 122.193L120.471 123.356L121.404 124.381L122.201 125.262L122.857 125.996L123.367 126.576L123.726 126.997L124.034 127.38L124.322 127.768L124.592 128.159L124.843 128.552L125.076 128.948L125.291 129.347L125.487 129.747L125.665 130.148L125.826 130.55L125.968 130.953L126.094 131.355L126.202 131.758L126.293 132.16L126.367 132.561L126.424 132.96L126.465 133.358L126.489 133.754L126.497 134.147L126.488 134.537L126.464 134.924L126.424 135.307L126.368 135.686L126.297 136.061L126.211 136.43L126.109 136.795L125.993 137.153L125.861 137.506L125.716 137.852L125.555 138.192L125.381 138.524L125.192 138.849L124.989 139.166L124.773 139.474L124.542 139.774L124.299 140.065L124.042 140.346L123.772 140.617L123.489 140.878L123.193 141.128L122.885 141.367L122.564 141.595L122.231 141.811L121.886 142.015L121.529 142.206L121.16 142.384L121.061 142.427L111.59 132.279L111.332 132.024L111.057 131.797L110.768 131.596L110.467 131.422L110.155 131.275L109.834 131.154L109.505 131.061L109.172 130.995L108.834 130.956L108.495 130.944L108.156 130.96L107.818 131.003L107.485 131.073L107.156 131.171L106.834 131.296L106.522 131.449L106.219 131.63L105.93 131.838L105.654 132.074L94.688 142.308L94.433 142.566L94.206 142.841L94.005 143.13L93.888 143.331L13.311 143.17L12.797 143.166L12.29 143.153L11.791 143.128L11.301 143.093L10.819 143.047L10.345 142.99L9.88 142.922L9.424 142.843L8.977 142.751L8.54 142.648L8.111 142.533L7.692 142.406L7.283 142.266L6.883 142.114L6.494 141.948L6.114 141.77L5.744 141.579L5.385 141.374L5.036 141.156L4.698 140.924L4.371 140.678L4.055 140.418L3.749 140.144L3.455 139.855L3.172 139.552L2.901 139.233L2.642 138.9L2.394 138.551L2.158 138.187L1.935 137.807L1.723 137.411L1.524 136.999L1.338 136.571L1.164 136.127L1.003 135.666L0.855 135.188L0.721 134.693L0.599 134.181L0.491 133.652L0.397 133.105L0.316 132.54L0.249 131.958L0.197 131.357L0.158 130.738L0.134 130.1L0.124 129.444M71.743 118.033L82.71 107.799L82.985 107.563L83.275 107.355L83.577 107.175L83.89 107.022L84.212 106.896L84.54 106.799L84.874 106.728L85.212 106.686L85.551 106.67L85.89 106.682L86.227 106.721L86.561 106.787L86.889 106.88L87.21 107L87.523 107.147L87.824 107.321L88.113 107.522L88.388 107.75L88.646 108.004L98.88 118.971L99.116 119.246L99.324 119.536L99.505 119.838L99.658 120.151L99.783 120.472L99.881 120.801L99.951 121.135L99.994 121.473L100.01 121.812L99.998 122.151L99.959 122.488L99.893 122.822L99.8 123.15L99.679 123.471L99.532 123.784L99.358 124.085L99.157 124.374L98.93 124.649L98.675 124.907L87.709 135.141L87.433 135.377L87.143 135.585L86.841 135.766L86.529 135.919L86.207 136.044L85.878 136.142L85.544 136.212L85.207 136.255L84.868 136.27L84.529 136.259L84.191 136.22L83.858 136.154L83.529 136.061L83.208 135.94L82.896 135.793L82.595 135.619L82.306 135.418L82.031 135.19L81.772 134.936L71.538 123.97L71.302 123.694L71.094 123.404L70.914 123.102L70.761 122.79L70.636 122.468L70.538 122.139L70.468 121.805L70.425 121.468L70.409 121.129L70.421 120.79L70.46 120.452L70.526 120.118L70.619 119.79L70.739 119.469L70.886 119.157L71.06 118.855L71.261 118.567L71.489 118.292L71.743 118.033M49.315 94.0868L60.27 83.8408L60.545 83.6048L60.834 83.3958L61.136 83.2148L61.449 83.0618L61.77 82.9358L62.099 82.8378L62.433 82.7668L62.77 82.7238L63.109 82.7078L63.449 82.7198L63.786 82.7578L64.12 82.8238L64.448 82.9168L64.769 83.0368L65.082 83.1828L65.383 83.3568L65.673 83.5578L65.947 83.7848L66.206 84.0388L76.453 94.9938L76.689 95.2688L76.897 95.5588L77.078 95.8608L77.231 96.1728L77.357 96.4948L77.455 96.8228L77.526 97.1568L77.569 97.4948L77.585 97.8338L77.574 98.1728L77.535 98.5098L77.47 98.8438L77.377 99.1728L77.257 99.4938L77.11 99.8058L76.936 100.108L76.736 100.397L76.508 100.672L76.254 100.931L65.299 111.177L65.024 111.413L64.735 111.622L64.433 111.803L64.12 111.956L63.799 112.081L63.47 112.18L63.136 112.25L62.799 112.294L62.46 112.309L62.12 112.298L61.783 112.26L61.449 112.194L61.121 112.101L60.8 111.981L60.487 111.834L60.186 111.661L59.896 111.46L59.622 111.233L59.363 110.979L49.116 100.024L48.88 99.7478L48.672 99.4588L48.491 99.1568L48.338 98.8438L48.212 98.5228L48.114 98.1938L48.043 97.8608L48 97.5228L47.984 97.1838L47.995 96.8448L48.034 96.5068L48.1 96.1738L48.192 95.8448L48.312 95.5238L48.459 95.2118L48.633 94.9098L48.833 94.6208L49.061 94.3458L49.315 94.0868M27.064 70.6598L38.019 60.4138L38.294 60.1768L38.584 59.9688L38.885 59.7878L39.198 59.6348L39.519 59.5088L39.848 59.4108L40.182 59.3398L40.519 59.2968L40.859 59.2808L41.198 59.2928L41.535 59.3308L41.869 59.3968L42.197 59.4898L42.519 59.6088L42.831 59.7558L43.133 59.9298L43.422 60.1308L43.697 60.3578L43.955 60.6118L54.202 71.5668L54.438 71.8418L54.646 72.1318L54.827 72.4338L54.981 72.7458L55.106 73.0678L55.204 73.3958L55.275 73.7298L55.318 74.0678L55.334 74.4068L55.323 74.7458L55.284 75.0828L55.219 75.4168L55.126 75.7448L55.006 76.0668L54.859 76.3788L54.685 76.6808L54.485 76.9698L54.257 77.2448L54.003 77.5028L43.048 87.7498L42.773 87.9858L42.484 88.1948L42.182 88.3758L41.869 88.5288L41.548 88.6538L41.219 88.7518L40.885 88.8228L40.548 88.8658L40.209 88.8818L39.869 88.8708L39.532 88.8318L39.198 88.7668L38.87 88.6738L38.549 88.5538L38.236 88.4068L37.935 88.2338L37.646 88.0328L37.371 87.8058L37.112 87.5508L26.866 76.5958L26.629 76.3208L26.421 76.0318L26.24 75.7298L26.087 75.4168L25.961 75.0958L25.863 74.7668L25.792 74.4328L25.749 74.0958L25.733 73.7568L25.744 73.4178L25.783 73.0798L25.849 72.7468L25.941 72.4178L26.061 72.0968L26.208 71.7838L26.382 71.4828L26.582 71.1938L26.81 70.9188L27.064 70.6598M4.681 46.8458L15.636 36.5998L15.911 36.3638L16.2 36.1548L16.502 35.9738L16.815 35.8208L17.136 35.6948L17.465 35.5968L17.799 35.5268L18.136 35.4828L18.475 35.4668L18.815 35.4788L19.152 35.5168L19.486 35.5828L19.814 35.6758L20.135 35.7958L20.448 35.9418L20.749 36.1158L21.039 36.3168L21.313 36.5438L21.572 36.7978L31.819 47.7528L32.055 48.0288L32.263 48.3178L32.444 48.6198L32.597 48.9318L32.723 49.2538L32.821 49.5818L32.892 49.9158L32.935 50.2538L32.951 50.5928L32.94 50.9318L32.901 51.2688L32.836 51.6028L32.743 51.9318L32.623 52.2528L32.476 52.5648L32.302 52.8668L32.102 53.1558L31.874 53.4308L31.62 53.6898L20.665 63.9358L20.39 64.1718L20.101 64.3808L19.799 64.5618L19.486 64.7148L19.165 64.8408L18.836 64.9388L18.502 65.0088L18.165 65.0528L17.826 65.0688L17.486 65.0568L17.149 65.0188L16.815 64.9528L16.487 64.8598L16.166 64.7398L15.853 64.5938L15.552 64.4198L15.262 64.2188L14.988 63.9918L14.729 63.7378L4.482 52.7828L4.246 52.5068L4.038 52.2178L3.857 51.9158L3.704 51.6038L3.578 51.2818L3.48 50.9538L3.409 50.6198L3.366 50.2818L3.35 49.9428L3.361 49.6038L3.4 49.2668L3.466 48.9328L3.558 48.6038L3.678 48.2828L3.825 47.9708L3.999 47.6688L4.199 47.3798L4.427 47.1048L4.681 46.8458"
     sodipodi:nodetypes="ccccccccccccccccccccccccccccccccccccccccccccccccccccccccccccccccccccccccccccccccccccccccccccccccccccccccccccccccccccccccccccccccccccccccccccccccccccccccccccccccccccccccccccccccccccccccccccccccccccccccccccccccccccccccccccccccccccccccccccccccccccccccccccccccccccccccccccccccccccccccccccccccccccccccccccccccccccccccccccccccccccccccccccccccccccccccccccccccccccccccccccccccccccccccccccccccccccccccccccccccccccccccccccccccccccccccccccccccccccccccccccccccccccccccccccccccccccccccccccccccccccccccccccccccccccccccccccccccccccccccccccccccccccccccccccccccccccc"
     style="fill:#f9efdf;fill-opacity:1" />
</svg>
