<?xml version="1.0" encoding="UTF-8" standalone="no"?>
<!-- Created using Krita: https://krita.org -->

<svg
   width="183.47633pt"
   height="221.22995pt"
   viewBox="0 0 183.47633 221.22994"
   version="1.1"
   id="svg1590"
   xmlns="http://www.w3.org/2000/svg"
   xmlns:svg="http://www.w3.org/2000/svg">
  <defs
     id="defs1586" />
  <path
     id="shape6"
     opacity="0.5"
     fill="#ffffff"
     fill-rule="evenodd"
     stroke-opacity="0"
     stroke="#000000"
     stroke-width="0"
     stroke-linecap="square"
     stroke-linejoin="bevel"
     d="M 15.467547,199.11983 0.20909922,70.648175 13.894257,57.848435 l 0.36629,-0.37349 0.32735,-0.39657 0.28985,-0.41676 0.24948,-0.4355 0.21198,-0.44992 0.17305,-0.46435 0.13411,-0.47299 0.0952,-0.48165 0.0548,-0.48598 0.0159,-0.48885 -0.0216,-0.48886 -0.049,-0.38503 20.38498,-23.12346 0.32879,-0.4081 0.28842,-0.425408 0.24659,-0.442713 0.20765,-0.457133 0.16728,-0.46867 0.12835,-0.477323 0.088,-0.484532 0.0476,-0.488859 0.009,-0.488859 -0.0303,-0.488859 -0.0707,-0.484532 -0.10816,-0.478764 -0.14853,-0.46867 -0.18602,-0.458576 -0.22497,-0.444155 -0.26389,-0.42685 -0.30139,-0.408103 -0.33889,-0.386473 -0.37782,-0.361957 -0.40666,-0.330232 -0.42541,-0.28697 -0.44271,-0.248035 -0.45713,-0.207657 -0.46867,-0.167279 -0.47877,-0.128343 -0.48309,-0.08797 -0.48886,-0.04759 -0.48886,-0.0087 -0.48885,0.03172 -0.48454,0.06922 -0.47876,0.109597 -0.46867,0.14709 -0.45858,0.186026 -0.44415,0.224961 -0.42685,0.263898 -0.40811,0.30139 -0.38647,0.338885 -0.3634,0.37782 -18.9054208,21.446335 -8.00199798,-8.55575 0.121133,-17.1239 -0.06201,-0.841587 -0.04326,-0.820101 -0.02596,-0.798902 -0.0058,-0.777415 0.01154,-0.756073 0.03028,-0.734586 0.04903,-0.713387 0.06778,-0.691901 0.08652,-0.670559 0.105271,-0.6492155 0.122575,-0.627873 0.142764,-0.606387 0.160069,-0.585044 0.18025798,-0.563846 0.197562,-0.542215 0.216309,-0.521017 0.235056,-0.499674 0.253803,-0.478188 0.27255,-0.456845 0.291296,-0.435502 0.308601,-0.41416 0.32879,-0.392674 0.346095,-0.371475 0.366283,-0.349988 0.383589,-0.328646 0.402335,-0.307303 0.421082,-0.285817 0.439828,-0.264618 0.458576,-0.243131 0.47588,-0.221789 0.496069,-0.200447 0.513374,-0.17896 0.533563,-0.157761 0.550867,-0.136275 0.569621,-0.114932 0.5898,-0.09359 0.6071098,-0.0721 0.62441,-0.05091 0.6446,-0.02942 0.66335,-0.0081 158.521473,-0.129065 0.80323,-0.01961000125 0.78016,0.01183000125 0.75564,0.04269 0.73256,0.07239 0.70806,0.101377 0.68209,0.129786 0.65758,0.157185 0.63307,0.183718 0.60566,0.209676 0.58115,0.234623 0.5552,0.25885 0.52779,0.282356 0.50184,0.304852 0.47444,0.326626 0.44703,0.347537 0.41964,0.36787 0.39224,0.387194 0.3634,0.405651 0.336,0.423534 0.30716,0.440405 0.27688,0.456557 0.24948,0.471842 0.21919,0.486408 0.18891,0.500251 0.15863,0.512941 0.12978,0.525199 0.0981,0.536302 0.0663,0.546974 0.0375,0.556492 0.004,0.565432 -0.0274,0.5735075 -0.0591,0.580718 -0.0908,0.587207 -0.12401,0.592831 -0.15719,0.597735 -0.19035,0.601628 -0.22208,0.604944 -0.25813,0.607253 -0.28985,0.608838 -0.32591,0.609703 -0.35907,0.609704 -0.39513,0.608838 -0.42973,0.607252 -0.46434,0.604656 -1.74346,2.048593 -1.7348,2.034748 -1.72614,2.023212 -1.71606,2.010234 -1.70884,1.998697 -1.69875,1.985712 -1.69009,1.97418 -1.68145,1.96121 -1.67279,1.94822 -1.66414,1.93669 -1.65404,1.92371 -1.64683,1.91073 -1.63674,1.8992 -1.62809,1.88765 -1.61944,1.87324 -1.61078,1.86315 -1.60213,1.84872 -1.59348,1.83718 -1.58338,1.82421 -1.57617,1.81267 -1.56608,1.7997 -1.55743,1.78815 -1.54877,1.77518 -1.54012,1.7622 -1.53003,1.75066 -1.52282,1.73913 -1.51272,1.7247 -1.50551,1.71317 -1.49542,1.70163 -1.48676,1.68721 -1.47812,1.67712 -1.46946,1.6627 -1.45936,1.65116 -1.45216,1.63962 -1.44206,1.62665 -1.43341,1.61366 -1.4262,1.60213 -1.4161,1.58916 -1.40601,1.57617 -1.3988,1.56463 -1.39015,1.55166 -1.38005,1.54012 -1.3714,1.52715 -1.36419,1.5156 -1.3541,1.50263 -1.34544,1.48965 -1.33535,1.478115 -1.32814,1.46514 -1.31804,1.45215 -1.31083,1.44062 -1.30074,1.42909 -1.29209,1.41466 -1.283443,1.40312 -1.27478,1.39159 -1.26613,1.37861 -1.25603,1.36564 -1.24883,1.35409 -1.23873,1.34112 -1.23008,1.32958 -1.22142,1.3166 -1.21278,1.30362 -1.20412,1.29209 -1.19547,1.27911 -0.70084,0.73545 -0.71526,0.74987 -0.73113,0.76429 -0.7441,0.78016 -0.75852,0.79602 -0.77295,0.81044 -0.78592,0.8263 -0.80179,0.84072 -0.8162,0.85658 -0.82919,0.87245 -0.84505,0.88687 -0.85802,0.90273 -0.87245,0.91715 -0.88687,0.93301 -0.90129,0.94888 -0.91571,0.9633 -0.93013,0.97771 -0.9431,0.99358 -0.95897,1.00945 -0.97195,1.0253 -0.98782,1.03973 -1.00079,1.05415 -1.01521,1.07001 -1.02963,1.08572 -1.04405,1.1003 -1.05847,1.11615 -1.07146,1.13058 -1.08731,1.14644 -1.10174,1.1623 -1.11471,1.17672 -1.12913,1.19258 -1.14356,1.20701 -1.15797,1.22287 -1.1724,1.23873 -1.18681,1.25315 -1.20124,1.26757 -1.21566,1.28488 -1.22864,1.29785 -1.24449,1.31516 -1.25748,1.32958 -1.2719,1.344 -1.28632,1.35987 -1.30074,1.37572 -1.31516,1.39015 -1.32958,1.40601 -1.344,1.42187 -1.35698,1.4363 -1.37284,1.45071 -1.38582,1.46658 -1.40024,1.48244 -1.41611,1.49686 -1.42908,1.51272 -1.4435,1.52858 -1.45649,1.54301 -1.47234,1.55743 -1.48677,1.57473 -1.49974,1.58915 -1.51561,1.60357 -1.52858,1.61943 -1.54301,1.63386 -1.55742,1.65116 -1.57185,1.66414 -1.58627,1.68 m 72.21555,-179.154342 0.37638,0.361957 0.34032,0.386473 0.30139,0.408103 0.26246,0.428292 0.22496,0.444155 0.18747,0.457134 0.14709,0.470112 0.1096,0.477322 0.0692,0.485975 0.0303,0.487416 -0.009,0.490301 -0.0476,0.487417 -0.088,0.484532 -0.1269,0.477323 -0.16728,0.46867 -0.20766,0.457133 -0.24803,0.442713 -0.28841,0.42685 -0.32879,0.406661 -45.45089,51.558018 3.11341,3.32972 0.34177,0.39656 0.29995,0.41676 0.26101,0.4355 0.22064,0.45137 0.1817,0.4629 0.14132,0.47444 0.10238,0.48164 0.062,0.48598 0.0231,0.48886 -0.0159,0.4903 -0.0562,0.48597 -0.0952,0.48165 -0.13267,0.473 -0.17305,0.4629 -0.21198,0.45136 -0.25092,0.43406 -0.28842,0.41676 -0.32879,0.39657 -0.36628,0.37349 -15.79778,14.775365 -0.39657,0.34177 -0.41819,0.29995 -0.43551,0.26101 -0.44992,0.22064 -0.46434,0.1817 -0.473,0.14132 -0.48165,0.10239 -0.48597,0.062 -0.4903,0.0231 -0.48886,-0.0159 -0.48598,-0.0562 -0.48165,-0.0952 -0.47299,-0.13267 -0.46435,-0.17305 -0.44992,-0.21198 -0.4355,-0.25092 -0.41676,-0.28841 -0.39656,-0.32879 -0.37206,-0.36629 -14.7768018,-15.797785 -0.340327,-0.39657 -0.30139,-0.41819 -0.259571,-0.43406 -0.222078,-0.45137 -0.180258,-0.4629 -0.141322,-0.47444 -0.102386,-0.48165 -0.06201,-0.48597 -0.02307,-0.4903 0.01586,-0.48886 0.05624,-0.48598 0.09373,-0.48164 0.134111,-0.473 0.173048,-0.46434 0.211983,-0.44993 0.250918,-0.4355 0.288412,-0.41676 0.32879,-0.39656 0.366284,-0.37205 15.7977778,-14.77681 0.39657,-0.34032 0.41676,-0.30139 0.4355,-0.25957 0.45136,-0.22208 0.46291,-0.18026 0.47443,-0.14132 0.48165,-0.10239 0.48598,-0.062 0.48886,-0.0231 0.48885,0.0159 0.48742,0.0562 0.48165,0.0937 0.473,0.13411 0.4629,0.17305 0.45136,0.21198 0.43406,0.25092 0.41676,0.28841 0.39657,0.32879 0.37349,0.36628 3.34991,3.58064 44.6765,-50.681238 0.36196,-0.376378 0.38647,-0.340327 0.4081,-0.301391 0.42829,-0.262455 0.44272,-0.225538 0.45857,-0.186314 0.47011,-0.147812 0.47733,-0.108875 0.48453,-0.06994 0.48886,-0.03072 0.4903,0.0085 0.48742,0.04816 0.48453,0.08768 0.47732,0.127478 0.46867,0.167424 0.45713,0.207512 0.44272,0.247891 0.42685,0.288412 0.40666,0.32879 m 51.073483,0.226404 0.37638,0.361957 0.34033,0.386472 0.30139,0.408104 0.26245,0.428292 0.22497,0.442713 0.18602,0.458575 0.14853,0.470112 0.10816,0.477322 0.0707,0.484533 0.0303,0.488859 -0.009,0.490301 -0.0476,0.487416 -0.088,0.484533 -0.1269,0.477322 -0.16728,0.46867 -0.20766,0.457134 -0.24804,0.442712 -0.28841,0.426851 -0.32879,0.406661 -60.077713,68.150378 -0.36196,0.37637 -0.38647,0.34033 -0.40811,0.30139 -0.42685,0.26246 -0.44415,0.22496 -0.45858,0.18747 -0.46867,0.14709 -0.47876,0.10959 -0.48453,0.0692 -0.48886,0.0303 -0.48886,-0.009 -0.48886,-0.0476 -0.48453,-0.088 -0.47733,-0.1269 -0.46867,-0.16728 -0.45713,-0.20766 -0.44271,-0.24803 -0.42685,-0.28841 -0.40666,-0.32879 -0.37638,-0.36196 -0.34033,-0.38647 -0.30139,-0.40811 -0.26245,-0.42829 -0.22496,-0.44415 -0.18603,-0.45714 -0.14853,-0.47011 -0.10816,-0.47732 -0.0707,-0.48598 -0.0303,-0.48741 0.009,-0.4903 0.0476,-0.48742 0.088,-0.48453 0.12691,-0.47733 0.16727,-0.46867 0.20766,-0.45713 0.24804,-0.44271 0.28841,-0.42685 0.32879,-0.40666 60.077713,-68.150379 0.36196,-0.37782 0.38647,-0.338884 0.40811,-0.301391 0.42685,-0.263897 0.44415,-0.22352 0.45858,-0.187035 0.46867,-0.147811 0.47876,-0.108876 0.48453,-0.06994 0.48886,-0.03072 0.48886,0.0085 0.48886,0.04816 0.48453,0.08768 0.47733,0.127478 0.46867,0.167423 0.45713,0.207513 0.44271,0.248034 0.42541,0.288413 0.4081,0.32879 m -99.728633,96.241727 15.79778,-14.77536 0.39657,-0.34032 0.41675,-0.3014 0.43551,-0.26101 0.45136,-0.22063 0.4629,-0.18026 0.47444,-0.14277 0.48165,-0.10094 0.48597,-0.062 0.48886,-0.0231 0.48886,0.0159 0.48742,0.0548 0.48165,0.0952 0.47299,0.13411 0.46291,0.17304 0.45136,0.21199 0.43406,0.24947 0.41676,0.28986 0.39656,0.32735 0.3735,0.36772 14.77536,15.79778 0.34177,0.39657 0.29994,0.41676 0.26102,0.4355 0.22063,0.45136 0.1817,0.46291 0.14133,0.47443 0.10238,0.48021 0.062,0.48742 0.0231,0.48886 -0.0159,0.48885 -0.0562,0.48742 -0.0952,0.48021 -0.13267,0.47444 -0.17304,0.4629 -0.21199,0.44992 -0.25091,0.4355 -0.28842,0.41676 -0.32879,0.39657 -0.36628,0.37349 -15.79778,14.77536 -0.39657,0.34177 -0.4182,0.29995 -0.43406,0.26101 -0.45136,0.22063 -0.4629,0.1817 -0.47444,0.14133 -0.48165,0.10238 -0.48598,0.062 -0.4903,0.0231 -0.48885,-0.0173 -0.48598,-0.0548 -0.48165,-0.0952 -0.47299,-0.13412 -0.46435,-0.1716 -0.44992,-0.21198 -0.4355,-0.25092 -0.41676,-0.28986 -0.39657,-0.32735 -0.37205,-0.36628 -14.7768,-15.79778 -0.34033,-0.39657 -0.30139,-0.4182 -0.25957,-0.4355 -0.22208,-0.44992 -0.18025,-0.46434 -0.14133,-0.473 -0.10238,-0.48165 -0.062,-0.48742 -0.0231,-0.48885 0.0159,-0.48886 0.0562,-0.48598 0.0937,-0.48165 0.13412,-0.47299 0.17304,-0.46435 0.21199,-0.44992 0.25091,-0.4355 0.28842,-0.41676 0.32879,-0.39656 0.36628,-0.3735"
     style="fill:#f06262;fill-opacity:1" />
  <path
     id="shape9"
     fill="#ffffff"
     fill-rule="evenodd"
     stroke-opacity="0"
     stroke="#000000"
     stroke-width="0"
     stroke-linecap="square"
     stroke-linejoin="bevel"
     d="M 0.17881622,201.20404 2.1934717e-7,102.75423 0.07931022,70.767865 13.894257,57.846995 l 0.36629,-0.3735 0.32735,-0.39656 0.28985,-0.41676 0.25092,-0.43406 0.21054,-0.45136 0.17305,-0.46291 0.13411,-0.47299 0.0952,-0.48165 0.0548,-0.48742 0.0173,-0.48886 -0.0231,-0.48886 -0.0635,-0.48597 -0.10094,-0.48165 -0.14132,-0.47444 -0.1817,-0.4629 -0.22064,-0.45136 -0.26101,-0.43551 -0.30139,-0.41675 -0.34033,-0.39657 -14.00962678,-14.97869 0.03605,-14.201419 0.03028,-0.780155 0.102386,-0.735018 0.168722,-0.684403 0.232171,-0.631046 0.28985498,-0.574517 0.34321,-0.514672 0.392241,-0.451365 0.435503,-0.38503 0.47588,-0.315235 0.510489,-0.242122 0.542216,-0.165837 0.565288,-0.08624 0.588361,-0.0033 0.604223,0.08292 0.61576,0.172326 0.624413,0.265195 0.625855,0.361092 0.624412,0.460594 0.617202,0.56327 0.298507,0.307735 0.524913,0.546542 0.7426598,0.777992 0.95176,1.001511 1.15509,1.217244 1.35121,1.426199 1.54012,1.626645 1.72182,1.818439 1.89487,2.004466 2.06215,2.181839 2.22077,2.352 2.37364,2.51495 2.51928,2.66782 2.65627,2.81634 2.78751,2.95334 2.91008,3.08602 3.02544,3.21002 3.13504,3.32684 3.23743,3.43355 3.32972,3.53593 3.41769,3.62823 3.497,3.71331 3.57054,3.79262 3.63544,3.86184 3.69311,3.92385 3.7436,3.97864 3.78685,4.02624 3.8229,4.06517 3.85175,4.09689 3.87482,4.11997 3.88779,4.137285 3.89501,4.14592 3.89501,4.14737 3.887803,4.14016 3.87337,4.12574 3.85175,4.1041 3.8229,4.07383 3.78542,4.03633 3.74214,3.99162 3.69168,3.93827 3.63255,3.87915 3.56766,3.80992 3.49556,3.73494 3.4148,3.6513 3.32828,3.55901 3.2331,3.46123 3.13216,3.35568 3.02256,3.24031 2.90719,3.11774 2.78318,2.98939 2.65195,2.8524 2.51496,2.70675 2.3693,2.55533 2.21645,2.39382 2.05782,2.22654 1.8891,2.05062 1.71606,1.86747 1.53435,1.67711 1.34544,1.47812 1.14933,1.27045 0.94599,1.05847 0.73545,0.8364 0.5177,0.60711 0.44415,0.55231 0.41532,0.55952 0.38935,0.56384 0.36196,0.56673 0.336,0.57106 0.31005,0.57538 0.28264,0.57683 0.25669,0.57826 0.23217,0.57971 0.20477,0.58115 0.1817,0.57971 0.15574,0.58115 0.13123,0.57971 0.10671,0.57827 0.0822,0.57538 0.0591,0.57394 0.0346,0.57106 0.0115,0.56673 -0.013,0.5624 -0.0346,0.55808 -0.0577,0.55231 -0.0808,0.54654 -0.10239,0.54077 -0.12402,0.53212 -0.14709,0.52635 -0.16728,0.51626 -0.19035,0.50905 -0.2091,0.49895 -0.23217,0.4903 -0.25092,0.47877 -0.27255,0.46867 -0.29274,0.45713 -0.31148,0.44416 -0.33312,0.43262 -0.35042,0.41963 -0.37061,0.40522 -0.38936,0.3908 -0.4081,0.37638 -0.42685,0.36052 -0.44415,0.34465 -0.46291,0.32879 -0.4802,0.31148 -0.49751,0.29418 -0.51482,0.27544 -0.53212,0.25669 -0.14276,0.062 -13.65777,-14.63403 -0.37205,-0.36773 -0.39657,-0.32735 -0.41675,-0.28985 -0.43406,-0.25092 -0.44992,-0.21198 -0.46291,-0.17449 -0.47443,-0.13411 -0.48021,-0.0952 -0.48742,-0.0562 -0.48886,-0.0173 -0.48886,0.0231 -0.48741,0.062 -0.48021,0.10094 -0.47444,0.14132 -0.46434,0.18026 -0.44992,0.22063 -0.43695,0.26102 -0.41675,0.29995 -0.39801,0.34032 -15.81365,14.75806 -0.36772,0.37205 -0.32735,0.39657 -0.28985,0.41675 -0.16873,0.28986 -116.196973,-0.23217 -0.74122,-0.006 -0.73112,-0.0187 -0.71959,-0.0361 -0.70661,-0.0505 -0.69508,-0.0663 -0.68353,-0.0822 -0.67056,-0.0981 -0.65758,-0.11392 -0.6446,-0.13267 -0.63018,-0.14853 -0.61865,-0.16584 -0.60422,-0.18314 -0.5898,-0.20189 -0.5768298,-0.21919 -0.56096,-0.23938 -0.547982,-0.25669 -0.533563,-0.27543 -0.5177,-0.29563 -0.503279,-0.31437 -0.487417,-0.33455 -0.471554,-0.35475 -0.455691,-0.37494 -0.441271,-0.39512 -0.423966,-0.41676 -0.408104,-0.43694 -0.390798,-0.46002 -0.373494,-0.48021 -0.357631,-0.50328 -0.340327,-0.52491 -0.321579,-0.54798 -0.305717,-0.57106 -0.286971,-0.59412 -0.268223,-0.61721 -0.250919,-0.64027 -0.232172,-0.66479 -0.213425,-0.68931 -0.193236,-0.71382 -0.17593098,-0.73833 -0.155743,-0.76285 -0.135554,-0.78881 -0.116807,-0.81477 -0.09662,-0.83928 -0.07499,-0.86667 -0.05624,-0.89264 -0.03461,-0.92004 -0.01442,-0.94599 M 103.4576,184.74847 l 15.81508,-14.75805 0.39657,-0.34033 0.4182,-0.29995 0.4355,-0.25957 0.45137,-0.22064 0.46434,-0.1817 0.473,-0.13988 0.48164,-0.10238 0.48742,-0.0606 0.48886,-0.0231 0.48886,0.0173 0.48597,0.0562 0.48165,0.0952 0.473,0.13411 0.4629,0.17305 0.45136,0.21198 0.43406,0.25092 0.41676,0.28985 0.39657,0.32879 0.37205,0.36629 14.75805,15.81508 0.34033,0.39657 0.29995,0.4182 0.26101,0.4355 0.22064,0.45137 0.18026,0.4629 0.14132,0.47444 0.10094,0.48164 0.062,0.48742 0.0231,0.48886 -0.0173,0.48886 -0.0562,0.48597 -0.0952,0.48165 -0.13411,0.473 -0.17449,0.4629 -0.21198,0.45136 -0.25092,0.43407 -0.28985,0.41675 -0.32735,0.39657 -0.36773,0.37205 -15.81364,14.75806 -0.39801,0.34032 -0.4182,0.29995 -0.4355,0.26101 -0.44992,0.22064 -0.46435,0.18026 -0.47444,0.14132 -0.48165,0.10094 -0.48597,0.062 -0.48886,0.0216 -0.48886,-0.0159 -0.48741,-0.0562 -0.48021,-0.0952 -0.47444,-0.13411 -0.4629,-0.17449 -0.44992,-0.21198 -0.43406,-0.25092 -0.41676,-0.28985 -0.39657,-0.32879 -0.37349,-0.36629 -14.75806,-15.81364 -0.34032,-0.39801 -0.29995,-0.4182 -0.25957,-0.4355 -0.22064,-0.44992 -0.18026,-0.46435 -0.14132,-0.47444 -0.10094,-0.48164 -0.062,-0.48598 -0.0231,-0.48886 0.0173,-0.48886 0.0562,-0.48741 0.0952,-0.48165 0.13411,-0.473 0.17305,-0.4629 0.21198,-0.44992 0.25092,-0.43551 0.28985,-0.41531 0.32879,-0.39657 0.36629,-0.37349 m -32.342553,-34.53189 15.79778,-14.77536 0.39656,-0.34032 0.41676,-0.3014 0.4355,-0.26101 0.45137,-0.22063 0.4629,-0.1817 0.47444,-0.14133 0.48165,-0.10238 0.48597,-0.062 0.48886,-0.0231 0.4903,0.0173 0.48598,0.0548 0.48164,0.0952 0.473,0.13411 0.4629,0.17304 0.45137,0.21055 0.43406,0.25091 0.41819,0.28986 0.39513,0.32735 0.37349,0.36628 14.776813,15.79778 0.34032,0.39657 0.29995,0.4182 0.26101,0.4355 0.22064,0.44992 0.1817,0.46435 0.14132,0.47299 0.10239,0.48165 0.062,0.48742 0.0231,0.48886 -0.0159,0.48885 -0.0562,0.48598 -0.0937,0.48165 -0.13411,0.47444 -0.17305,0.4629 -0.21198,0.44992 -0.25092,0.43579 -0.28841,0.41676 -0.32879,0.39656 -0.36628,0.3735 -15.797793,14.77536 -0.39656,0.34032 -0.41676,0.3014 -0.4355,0.26101 -0.45137,0.22063 -0.4629,0.18026 -0.47444,0.14277 -0.48164,0.10094 -0.48598,0.0635 -0.48886,0.0216 -0.4903,-0.0159 -0.48597,-0.0548 -0.48165,-0.0952 -0.473,-0.13411 -0.4629,-0.17304 -0.45137,-0.21199 -0.43406,-0.24947 -0.41819,-0.28986 -0.39513,-0.32735 -0.37349,-0.36628 -14.7768,-15.79778 -0.34033,-0.3983 -0.29995,-0.41675 -0.26101,-0.43551 -0.22064,-0.45136 -0.1817,-0.4629 -0.14132,-0.47444 -0.10239,-0.48021 -0.062,-0.48742 -0.0231,-0.48885 0.0159,-0.48886 0.0562,-0.48742 0.0952,-0.48021 0.13267,-0.47443 0.17305,-0.46291 0.21198,-0.44992 0.25092,-0.4355 0.28841,-0.41676 0.32879,-0.39656 0.36629,-0.3735 m -32.08731,-33.78317 15.79778,-14.77536 0.39657,-0.34177 0.4182,-0.29995 0.43406,-0.26101 0.45136,-0.22063 0.4629,-0.1817 0.47444,-0.14133 0.48165,-0.10238 0.48597,-0.062 0.49031,-0.0231 0.48885,0.0173 0.48598,0.0548 0.48165,0.0952 0.47299,0.13411 0.46435,0.1716 0.44992,0.21199 0.4355,0.25091 0.41676,0.28986 0.39657,0.32735 0.37205,0.36628 14.7768,15.79778 0.34033,0.39657 0.29994,0.4182 0.26102,0.4355 0.22208,0.44992 0.18025,0.46435 0.14133,0.47299 0.10238,0.48165 0.062,0.48742 0.0231,0.48886 -0.0159,0.48885 -0.0562,0.48598 -0.0937,0.48165 -0.13412,0.47299 -0.17304,0.46435 -0.21199,0.44992 -0.25091,0.4355 -0.28842,0.41676 -0.32879,0.39657 -0.36628,0.37205 -15.79778,14.7768 -0.39657,0.34033 -0.41675,0.30139 -0.43551,0.26101 -0.45136,0.22064 -0.4629,0.18025 -0.47444,0.14133 -0.48165,0.10238 -0.48598,0.062 -0.48885,0.0231 -0.49031,-0.0159 -0.48597,-0.0562 -0.48165,-0.0937 -0.47299,-0.13412 -0.46291,-0.17304 -0.45136,-0.21199 -0.43406,-0.24947 -0.41676,-0.28986 -0.39656,-0.32734 -0.3735,-0.36773 -14.77536,-15.79778 -0.34177,-0.39657 -0.29995,-0.41675 -0.26101,-0.43551 -0.22063,-0.45136 -0.1817,-0.4629 -0.14133,-0.47444 -0.10238,-0.48165 -0.062,-0.48598 -0.0231,-0.48885 0.0159,-0.48886 0.0562,-0.48742 0.0952,-0.48021 0.13267,-0.47443 0.17304,-0.46291 0.21199,-0.45136 0.25091,-0.43406 0.28842,-0.41676 0.32879,-0.39656 0.36628,-0.3735 M 6.7501862,82.092025 22.547967,67.316665 l 0.39657,-0.34032 0.41676,-0.30139 0.4355,-0.26102 0.45136,-0.22063 0.46291,-0.1817 0.47443,-0.14132 0.48165,-0.10095 0.48598,-0.0635 0.48886,-0.0231 0.4903,0.0173 0.48597,0.0548 0.48165,0.0952 0.473,0.13411 0.4629,0.17305 0.45136,0.21054 0.43406,0.25092 0.4182,0.28985 0.39513,0.32735 0.37349,0.36628 14.7768,15.79778 0.34033,0.39801 0.29995,0.41676 0.26101,0.4355 0.22064,0.44992 0.18169,0.46435 0.14133,0.47299 0.10238,0.48165 0.062,0.48742 0.0231,0.48886 -0.0159,0.48886 -0.0562,0.48597 -0.0937,0.48165 -0.13411,0.47444 -0.17305,0.4629 -0.21198,0.44992 -0.25092,0.43551 -0.28842,0.41675 -0.32879,0.39657 -0.36628,0.37349 -15.79778,14.775365 -0.39657,0.34033 -0.41675,0.30139 -0.43551,0.26101 -0.45136,0.22064 -0.4629,0.1817 -0.47444,0.14132 -0.48165,0.10094 -0.48597,0.0634 -0.48886,0.0231 -0.4903,-0.0173 -0.48598,-0.0548 -0.48165,-0.0952 -0.47299,-0.13411 -0.4629,-0.17305 -0.45137,-0.21054 -0.43406,-0.25092 -0.4182,-0.28985 -0.39512,-0.32735 -0.3735,-0.36629 -14.7768008,-15.797785 -0.340327,-0.39801 -0.299948,-0.41675 -0.261014,-0.4355 -0.220635,-0.44993 -0.1817,-0.46434 -0.141322,-0.473 -0.102386,-0.48165 -0.06201,-0.48741 -0.02307,-0.48886 0.01586,-0.48886 0.05624,-0.48598 0.09518,-0.48164 0.13267,-0.47444 0.173047,-0.4629 0.211983,-0.44993 0.250919,-0.4355 0.288412,-0.41676 0.32879,-0.39656 0.366284,-0.3735"
     style="fill:#f06262;fill-opacity:1" />
</svg>
