<?xml version="1.0" encoding="UTF-8" standalone="no"?>
<!-- Created with Inkscape (http://www.inkscape.org/) -->

<svg
   width="512"
   height="512"
   viewBox="0 0 135.46667 135.46667"
   version="1.1"
   id="svg5"
   xml:space="preserve"
   inkscape:export-filename="ked_icon512.png"
   inkscape:export-xdpi="96"
   inkscape:export-ydpi="96"
   xmlns:inkscape="http://www.inkscape.org/namespaces/inkscape"
   xmlns:sodipodi="http://sodipodi.sourceforge.net/DTD/sodipodi-0.dtd"
   xmlns="http://www.w3.org/2000/svg"
   xmlns:svg="http://www.w3.org/2000/svg"><sodipodi:namedview
     id="namedview7"
     pagecolor="#505050"
     bordercolor="#ffffff"
     borderopacity="1"
     inkscape:showpageshadow="0"
     inkscape:pageopacity="0"
     inkscape:pagecheckerboard="1"
     inkscape:deskcolor="#505050"
     inkscape:document-units="mm"
     showgrid="false" /><defs
     id="defs2"><inkscape:path-effect
       effect="fillet_chamfer"
       id="path-effect951"
       is_visible="true"
       lpeversion="1"
       nodesatellites_param="F,0,0,1,0,1.0583333,0,1 @ F,0,0,1,0,1.0583333,0,1 @ F,0,0,1,0,1.0583333,0,1 @ F,0,0,1,0,1.0583333,0,1 @ F,0,0,1,0,1.0583333,0,1 @ F,0,0,1,0,1.0583333,0,1 @ F,0,0,1,0,8.0358877,0,1 @ F,0,0,1,0,7.7311841,0,1"
       unit="px"
       method="auto"
       mode="F"
       radius="4"
       chamfer_steps="1"
       flexible="false"
       use_knot_distance="true"
       apply_no_radius="true"
       apply_with_radius="true"
       only_selected="false"
       hide_knots="false" /></defs><g
     inkscape:label="Layer 1"
     inkscape:groupmode="layer"
     id="layer1"><path
       id="rect234"
       style="fill:#f06262;fill-opacity:1;fill-rule:nonzero;stroke-width:0.730001;stroke-linecap:round;stroke-miterlimit:2.4"
       d="m 27.99949,4.6386462 c -5.758107,0.4770851 -10.322191,4.816554 -10.845965,10.3031288 -0.05552,0.58163 -0.05018,1.530564 -0.05018,2.115065 l 0,101.35299 c 0,0.5845 -0.0053,1.53344 0.05018,2.11507 0.52378,5.48658 5.087867,9.82604 10.845975,10.30312 0.582333,0.0482 1.530955,0.0436 2.115456,0.0436 h 75.236753 c 0.5845,0 1.53312,0.005 2.11546,-0.0436 5.75812,-0.47708 10.3222,-4.81655 10.84597,-10.30313 0.0555,-0.58163 0.0502,-1.53056 0.0502,-2.11506 l 0,-56.450102 A 20.810732,20.810732 68.886355 0 0 112.96261,47.973389 L 78.787813,10.319891 A 17.457632,17.457632 23.886355 0 0 65.860706,4.5950684 H 30.114957 c -0.584501,0 -1.533128,-0.00467 -2.115467,0.043578 z"
       inkscape:original-d="m 29.056624,4.5950684 c -6.622015,0 -11.953275,5.0859893 -11.953275,11.4034386 V 119.46816 c 0,6.31745 5.33126,11.40344 11.953275,11.40344 h 77.353416 c 6.62202,0 11.95328,-5.08599 11.95328,-11.40344 V 53.92384 L 73.59189,4.5950684 Z"
       inkscape:path-effect="#path-effect951" /><path
       id="path1904"
       style="opacity:1;fill:#f9efdf;fill-opacity:1;fill-rule:nonzero;stroke-width:0.730001;stroke-linecap:round;stroke-miterlimit:2.4"
       d="m 65.860706,4.5950684 c 8.49564,-1.23e-4 8.561175,7.3640656 8.561175,7.3640656 l 0.306409,30.243439 c 0.0016,0.158612 0.004,0.316321 0.01245,0.472912 0.0083,0.156592 0.02065,0.312308 0.03696,0.466684 0.01631,0.154376 0.0368,0.307656 0.06106,0.459626 0.02418,0.151971 0.05239,0.30236 0.08429,0.451737 0.0319,0.149377 0.06733,0.29767 0.1067,0.444264 0.03937,0.146592 0.0825,0.291507 0.129132,0.435128 0.0466,0.143621 0.09659,0.28595 0.150303,0.42641 0.05367,0.14046 0.110885,0.279335 0.171474,0.416445 0.06058,0.137109 0.12497,0.272495 0.192236,0.406065 0.06725,0.13357 0.137584,0.265428 0.211334,0.395269 0.07376,0.129843 0.150817,0.25772 0.230858,0.383645 0.08002,0.125925 0.16299,0.249784 0.249113,0.371603 0.08613,0.121819 0.175379,0.241624 0.267391,0.359148 0.09201,0.117523 0.186708,0.232821 0.284409,0.345861 0.09771,0.11304 0.198237,0.223793 0.301434,0.332159 0.103204,0.108366 0.20914,0.214124 0.317632,0.317628 0.108491,0.103503 0.219818,0.204643 0.333403,0.303095 0.113593,0.09845 0.229452,0.194107 0.347938,0.287318 0.118487,0.09321 0.239697,0.183758 0.362883,0.271541 0.123194,0.08778 0.248478,0.173183 0.376172,0.255347 0.127694,0.08216 0.25746,0.161137 0.389461,0.237494 0.131992,0.07635 0.266226,0.149695 0.402324,0.220057 0.136098,0.07036 0.274358,0.138027 0.414369,0.202201 0.14001,0.06417 0.281861,0.124888 0.425576,0.182688 0.143723,0.0578 0.289149,0.112352 0.436375,0.163588 0.147234,0.05124 0.296212,0.09918 0.446756,0.14366 0.150544,0.04449 0.302647,0.08577 0.456309,0.123314 0.153653,0.03755 0.308858,0.07131 0.465436,0.101724 0.156578,0.03041 0.314442,0.05745 0.473744,0.08055 0.159294,0.02309 0.319809,0.04254 0.481626,0.05813 0.161825,0.01559 0.324967,0.02741 0.489106,0.0353 0.164147,0.0079 0.329483,0.01075 0.495751,0.01163 l 26.371695,0.139604 c 0,0 7.65947,-0.369238 7.65933,10.45533 1.4e-4,-7.727763 -3.57485,-11.967247 -5.40071,-13.986339 L 78.787813,10.319891 C 76.687539,8.0342784 72.490016,4.5949454 65.860706,4.5950684 Z"
       sodipodi:nodetypes="ccscscssccscssssssssssssssssssssscsccccc" /><g
       id="g3751"
       transform="matrix(0.38905426,0,0,0.38905426,-14.812129,11.45962)"
       style="stroke-width:0.906758"><path
         id="shape9"
         fill="#ffffff"
         fill-rule="evenodd"
         stroke-opacity="0"
         stroke="#000000"
         stroke-width="0"
         stroke-linecap="square"
         stroke-linejoin="bevel"
         d="M 82.033488,261.49201 V 144.64233 c 0,0 11.446077,-9.96467 16.295342,-15.67232 2.99436,-5.99648 -3.940958,-9.97074 -7.11631,-13.99846 -2.849301,-3.47298 -9.179391,-10.23513 -9.179391,-10.23513 V 76.353932 l 10.136727,10.630723 c 0,0 119.563824,126.556885 178.661494,190.472885 5.62078,5.14282 28.35815,29.47163 28.35815,29.47163 h -26.72645 c 0,0 -12.66847,-13.37777 -18.64198,-18.52082 -5.99159,-3.00368 -9.97607,3.9294 -14.00669,7.09981 -4.13375,3.69436 -12.83717,11.4207 -12.83717,11.4207 0,0 -72.98677,0.35122 -115.59789,3.1e-4 C 97.753993,306.69719 82.029413,296.32546 82.033129,277.48948 M 193.59381,267.5844 c 6.37194,-5.60734 12.15047,-12.01515 18.89218,-17.12537 6.18441,-2.58193 9.68076,4.60711 13.48246,8.04866 3.63557,4.55855 8.86149,8.09269 11.38828,13.38178 1.31903,6.2938 -5.90102,9.21207 -9.26623,13.28324 -4.43158,3.39371 -7.67326,8.79118 -13.03205,10.68542 -6.24887,0.66914 -9.00021,-6.431 -13.1695,-9.80983 -3.26929,-4.2787 -8.5044,-7.39437 -10.27814,-12.59732 -0.37457,-2.12785 0.38965,-4.40432 1.98301,-5.86657 m -34.88217,-37.24343 c 6.36515,-5.6149 12.13733,-12.02773 18.87195,-17.14713 6.18116,-2.58877 9.68582,4.59708 13.49171,8.03368 3.64049,4.55432 8.8716,8.08122 11.40236,13.36874 1.32802,6.29261 -5.89006,9.21992 -9.25096,13.29469 -4.42785,3.39794 -7.66318,8.79955 -13.01932,10.69917 -6.24807,0.67764 -9.00685,-6.4201 -13.17992,-9.79378 -3.27538,-4.27474 -8.51072,-7.38553 -10.29415,-12.5857 -0.37529,-2.12817 0.38506,-4.40582 1.97834,-5.86968 m -34.60689,-36.43591 c 6.36516,-5.61488 12.13734,-12.0278 18.87196,-17.14714 6.18165,-2.58943 9.68548,4.59711 13.4917,8.03368 3.64037,4.55435 8.87189,8.08134 11.40236,13.36874 1.32803,6.29222 -5.89079,9.21797 -9.25062,13.29319 -4.42798,3.39842 -7.66304,8.8003 -13.01966,10.70036 -6.05543,0.73434 -8.76874,-6.08009 -12.77335,-9.36139 -3.39871,-4.4279 -8.79845,-7.6637 -10.70073,-13.01932 -0.37515,-2.12755 0.38531,-4.40495 1.97835,-5.86813 z M 89.292591,156.86723 c 6.365147,-5.6149 12.137329,-12.02774 18.871959,-17.14714 6.18141,-2.58842 9.68573,4.59695 13.4917,8.03369 3.64058,4.55423 8.87137,8.08127 11.40236,13.36875 1.32797,6.29249 -5.89021,9.21961 -9.25096,13.29438 -4.42786,3.39781 -7.6633,8.79984 -13.01933,10.69917 -6.05464,0.73574 -8.7696,-6.07853 -12.773711,-9.35951 -3.399266,-4.42746 -8.798426,-7.66314 -10.700364,-13.01965 -0.375185,-2.1281 0.385033,-4.40589 1.97834,-5.86968 z"
         sodipodi:nodetypes="ccccccccccccccccccccccccccccccccccccccccccccccccccccc"
         style="fill:#f9efdf;fill-opacity:1" /></g><path
       style="opacity:0.502;fill:#f9efdf;fill-opacity:1;fill-rule:nonzero;stroke-width:0.730001;stroke-linecap:round;stroke-miterlimit:2.4"
       d="m 71.359125,102.56863 8.202745,7.65091 h 14.555135 c 2.087128,0 3.767078,-1.70638 3.767078,-3.82569 0,-2.11931 -1.67995,-3.82522 -3.767078,-3.82522 z"
       id="path7096" /><path
       style="opacity:0.502;fill:#f9efdf;fill-opacity:1;fill-rule:nonzero;stroke-width:0.730001;stroke-linecap:round;stroke-miterlimit:2.4"
       d="m 54.470856,85.229015 8.202746,7.650899 h 31.443403 c 2.087128,0 3.767078,-1.706384 3.767078,-3.82569 0,-2.119309 -1.67995,-3.825209 -3.767078,-3.825209 z"
       id="path7094" /><path
       style="opacity:0.502;fill:#f9efdf;fill-opacity:1;fill-rule:nonzero;stroke-width:0.730001;stroke-linecap:round;stroke-miterlimit:2.4"
       d="m 37.582588,67.889406 8.202747,7.650899 h 48.33167 c 2.087128,0 3.767078,-1.7059 3.767078,-3.825208 0,-2.119308 -1.67995,-3.825691 -3.767078,-3.825691 z"
       id="rect4124" /></g></svg>
